<svg width="340" height="64" viewBox="0 0 340 64" fill="none" xmlns="http://www.w3.org/2000/svg">
<mask id="mask0_2015_374" style="mask-type:luminance" maskUnits="userSpaceOnUse" x="0" y="54" width="253" height="10">
<path d="M0 63.9872H253V54.0002H0V63.9872Z" fill="white"/>
</mask>
<g mask="url(#mask0_2015_374)">
<path fill-rule="evenodd" clip-rule="evenodd" d="M15.4524 57.5815C10.636 57.4791 5.81967 57.374 1.00637 57.2649L0.060791 61.4284C80.9779 63.2568 161.001 64.0973 242.104 63.9042L242.004 59.8784C245.633 59.8745 249.263 59.8698 252.896 59.8631L252.82 55.6891C190.589 55.799 128.18 55.5112 65.9798 54.7089C49.5542 54.4966 33.339 54.7089 17.0354 53.9898L15.4524 57.5815Z" fill="#F7DD44"/>
</g>
<path d="M16.504 27.9782C16.488 27.6582 16.44 27.2822 16.36 26.8502C16.28 26.4342 16.184 26.0262 16.072 25.6262C15.976 25.2102 15.872 24.8742 15.76 24.6182H17.824C18.144 24.6182 18.376 24.5702 18.52 24.4742C18.664 24.3622 18.736 24.1542 18.736 23.8502V22.8662H12.976C13.456 23.2182 13.936 23.6022 14.416 24.0182C14.896 24.4342 15.296 24.8182 15.616 25.1702C15.2 25.5222 14.744 25.9462 14.248 26.4422C13.768 26.9382 13.376 27.3942 13.072 27.8102C12.8 27.4582 12.448 27.0742 12.016 26.6582C11.584 26.2582 11.144 25.8662 10.696 25.4822C10.248 25.0982 9.832 24.7942 9.448 24.5702L11.056 22.8662H4.864V20.0342H18.736V19.2662H7.528V10.6502H14.32V9.78617H5.2V7.19417H14.32V5.82617H17.752V7.19417H26.8V9.78617H17.752V10.6502H24.52V19.2662H22.288V20.0342H26.944V22.8662H22.288V25.1942C22.288 26.1702 22 26.8742 21.424 27.3062C20.848 27.7542 19.984 27.9782 18.832 27.9782H16.504ZM11.056 16.7462H14.32V15.9542H11.056V16.7462ZM17.752 16.7462H20.992V15.9542H17.752V16.7462ZM11.056 13.9382H14.32V13.1702H11.056V13.9382ZM17.752 13.9382H20.992V13.1702H17.752V13.9382ZM45.016 27.7382C45 27.4182 44.952 27.0422 44.872 26.6102C44.792 26.1782 44.704 25.7622 44.608 25.3622C44.512 24.9462 44.408 24.6182 44.296 24.3782H46.072C46.392 24.3782 46.616 24.3302 46.744 24.2342C46.888 24.1222 46.96 23.9302 46.96 23.6582V15.9542H40.6V6.40216H50.416V25.0502C50.416 25.9942 50.16 26.6742 49.648 27.0902C49.152 27.5222 48.344 27.7382 47.224 27.7382H45.016ZM29.656 27.7382V6.40216H39.4V15.9542H33.064V27.7382H29.656ZM43.888 13.3382H46.96V12.2822H43.888V13.3382ZM43.888 10.0022H46.96V8.94617H43.888V10.0022ZM33.064 13.3382H36.112V12.2822H33.064V13.3382ZM33.064 10.0022H36.112V8.94617H33.064V10.0022ZM56.344 26.0822C56.056 25.6182 55.712 25.0982 55.312 24.5222C54.912 23.9462 54.48 23.4662 54.016 23.0822C55.2 22.5702 56.376 21.9382 57.544 21.1862C58.712 20.4182 59.824 19.5622 60.88 18.6182C61.952 17.6742 62.936 16.6742 63.832 15.6182C64.728 14.5622 65.496 13.4822 66.136 12.3782C65.32 12.4262 64.448 12.4822 63.52 12.5462C62.592 12.5942 61.688 12.6502 60.808 12.7142C59.928 12.7782 59.136 12.8422 58.432 12.9062C57.728 12.9542 57.2 12.9942 56.848 13.0262L56.44 9.25817C56.856 9.27417 57.472 9.27417 58.288 9.25817C59.12 9.24217 60.04 9.21817 61.048 9.18617C62.056 9.13817 63.064 9.09017 64.072 9.04217C65.08 8.97817 65.992 8.91417 66.808 8.85017C67.624 8.77017 68.232 8.69017 68.632 8.61017L71.032 10.1702C70.632 11.3062 70.136 12.4182 69.544 13.5062C68.968 14.5782 68.312 15.6182 67.576 16.6262C68.152 17.0742 68.752 17.5702 69.376 18.1142C70 18.6582 70.616 19.2182 71.224 19.7942C71.832 20.3542 72.392 20.8982 72.904 21.4262C73.416 21.9382 73.832 22.3942 74.152 22.7942C73.608 23.1462 73.08 23.5542 72.568 24.0182C72.072 24.4822 71.592 24.9702 71.128 25.4822C70.712 24.8902 70.168 24.2262 69.496 23.4902C68.84 22.7382 68.144 21.9942 67.408 21.2582C66.672 20.5062 65.976 19.8502 65.32 19.2902C63.992 20.6982 62.552 21.9862 61 23.1542C59.464 24.3062 57.912 25.2822 56.344 26.0822ZM81.04 27.5462C80.768 26.9382 80.448 26.3462 80.08 25.7702C79.728 25.1942 79.376 24.7462 79.024 24.4262C80.72 23.8502 82.336 23.0742 83.872 22.0982C85.408 21.1062 86.8 19.9702 88.048 18.6902C87.632 18.4182 87.216 18.1622 86.8 17.9222C86.4 17.6822 86.008 17.4822 85.624 17.3222L87.712 14.6342C88.096 14.7942 88.504 14.9942 88.936 15.2342C89.384 15.4582 89.832 15.7062 90.28 15.9782C90.6 15.5142 90.896 15.0342 91.168 14.5382C91.456 14.0422 91.712 13.5462 91.936 13.0502C91.28 13.0822 90.6 13.1222 89.896 13.1702C89.208 13.2022 88.56 13.2342 87.952 13.2662C87.344 13.2982 86.84 13.3222 86.44 13.3382C85.752 14.3622 84.984 15.3542 84.136 16.3142C83.288 17.2742 82.344 18.1542 81.304 18.9542C80.952 18.5222 80.528 18.0662 80.032 17.5862C79.552 17.1062 79.104 16.7462 78.688 16.5062C79.808 15.6902 80.848 14.7222 81.808 13.6022C82.784 12.4662 83.632 11.2742 84.352 10.0262C85.072 8.77817 85.608 7.56217 85.96 6.37817L89.368 7.45817C89.208 7.90617 89.032 8.36217 88.84 8.82617C88.648 9.29017 88.44 9.75417 88.216 10.2182C88.904 10.1862 89.632 10.1622 90.4 10.1462C91.168 10.1142 91.88 10.0822 92.536 10.0502C93.208 10.0022 93.728 9.95417 94.096 9.90617L96.424 11.1302C95.624 13.7062 94.56 15.9942 93.232 17.9942C93.824 18.4422 94.368 18.8902 94.864 19.3382C95.376 19.7862 95.8 20.2102 96.136 20.6102C95.848 20.8182 95.536 21.0982 95.2 21.4502C94.864 21.7862 94.536 22.1382 94.216 22.5062C93.912 22.8742 93.664 23.2102 93.472 23.5142C93.152 23.1142 92.768 22.6982 92.32 22.2662C91.888 21.8342 91.416 21.3942 90.904 20.9462C89.592 22.3702 88.104 23.6342 86.44 24.7382C84.792 25.8262 82.992 26.7622 81.04 27.5462ZM107.848 26.5862C107.688 26.1542 107.456 25.6822 107.152 25.1702C106.848 24.6422 106.544 24.2262 106.24 23.9222C109.152 23.2662 111.424 22.0902 113.056 20.3942C114.704 18.6982 115.728 16.4182 116.128 13.5542L118.984 14.0342C118.6 16.4502 117.92 18.4742 116.944 20.1062C115.968 21.7222 114.712 23.0422 113.176 24.0662C111.656 25.0902 109.88 25.9302 107.848 26.5862ZM110.152 18.1382C110.12 17.8022 110.024 17.3702 109.864 16.8422C109.72 16.2982 109.552 15.7702 109.36 15.2582C109.184 14.7302 109.016 14.3382 108.856 14.0822L111.52 13.2422C111.68 13.5462 111.848 13.9622 112.024 14.4902C112.216 15.0022 112.392 15.5302 112.552 16.0742C112.712 16.6022 112.816 17.0502 112.864 17.4182L110.152 18.1382ZM106.12 19.0502C106.072 18.7302 105.96 18.3062 105.784 17.7782C105.624 17.2502 105.44 16.7302 105.232 16.2182C105.024 15.7062 104.832 15.3222 104.656 15.0662L107.296 14.1062C107.472 14.4102 107.656 14.8182 107.848 15.3302C108.056 15.8422 108.248 16.3622 108.424 16.8902C108.6 17.4182 108.728 17.8662 108.808 18.2342L106.12 19.0502ZM130.432 26.2502C130.304 25.9782 130.112 25.6422 129.856 25.2422C129.616 24.8262 129.344 24.4182 129.04 24.0182C128.736 23.6022 128.44 23.2662 128.152 23.0102C131.144 22.0662 133.624 20.7782 135.592 19.1462C137.56 17.4982 138.992 15.3862 139.888 12.8102C139.104 12.8262 138.232 12.8502 137.272 12.8822C136.328 12.9142 135.368 12.9542 134.392 13.0022C133.416 13.0342 132.488 13.0662 131.608 13.0982C130.728 13.1302 129.96 13.1622 129.304 13.1942C128.664 13.2262 128.208 13.2502 127.936 13.2662L127.696 9.28217C128.32 9.33017 129.12 9.36217 130.096 9.37817C131.072 9.39417 132.12 9.40217 133.24 9.40217C134.376 9.40217 135.504 9.39417 136.624 9.37817C137.744 9.36217 138.776 9.33817 139.72 9.30617C140.68 9.25817 141.456 9.20217 142.048 9.13817L144.448 10.3862C143.904 13.0102 142.984 15.3702 141.688 17.4662C140.408 19.5622 138.816 21.3542 136.912 22.8422C135.008 24.3302 132.848 25.4662 130.432 26.2502ZM151.384 26.4182C151.272 25.7302 151.176 24.8982 151.096 23.9222C151.032 22.9302 150.984 21.8582 150.952 20.7062C150.936 19.5382 150.936 18.3462 150.952 17.1302C150.984 15.8982 151.032 14.6982 151.096 13.5302C151.176 12.3462 151.272 11.2582 151.384 10.2662C151.512 9.25817 151.664 8.39417 151.84 7.67417L155.296 8.39417C155.104 8.97017 154.944 9.72217 154.816 10.6502C154.688 11.5782 154.584 12.6022 154.504 13.7222C154.424 14.8262 154.368 15.9702 154.336 17.1542C154.32 18.3222 154.328 19.4582 154.36 20.5622C154.392 21.6662 154.448 22.6742 154.528 23.5862C154.624 24.4822 154.744 25.2022 154.888 25.7462L151.384 26.4182ZM162.304 25.2182C160.688 25.2182 159.416 24.9622 158.488 24.4502C157.56 23.9382 157.016 23.1462 156.856 22.0742C156.728 21.1782 156.88 20.1062 157.312 18.8582L160.384 19.6022C160.192 20.0662 160.128 20.4422 160.192 20.7302C160.352 21.3702 161.28 21.6902 162.976 21.6902C163.68 21.6902 164.416 21.6422 165.184 21.5462C165.968 21.4502 166.728 21.3302 167.464 21.1862C168.2 21.0422 168.856 20.8982 169.432 20.7542C169.384 21.0582 169.336 21.4342 169.288 21.8822C169.24 22.3302 169.208 22.7862 169.192 23.2502C169.176 23.7142 169.176 24.1222 169.192 24.4742C168.488 24.6662 167.72 24.8182 166.888 24.9302C166.056 25.0422 165.24 25.1222 164.44 25.1702C163.64 25.2022 162.928 25.2182 162.304 25.2182ZM158.224 13.4822L158.056 9.85817C158.68 9.95417 159.44 10.0102 160.336 10.0262C161.248 10.0422 162.192 10.0342 163.168 10.0022C164.144 9.95417 165.072 9.87417 165.952 9.76217C166.832 9.65017 167.56 9.51417 168.136 9.35417L167.992 12.9062C167.352 13.0342 166.6 13.1462 165.736 13.2422C164.872 13.3222 163.976 13.3862 163.048 13.4342C162.136 13.4822 161.256 13.5142 160.408 13.5302C159.56 13.5302 158.832 13.5142 158.224 13.4822ZM180.208 27.4502C178.624 27.3862 177.392 26.9462 176.512 26.1302C175.632 25.3302 175.192 24.3302 175.192 23.1302C175.192 22.3142 175.448 21.5862 175.96 20.9462C176.472 20.2902 177.176 19.7862 178.072 19.4342C178.968 19.0662 179.984 18.9142 181.12 18.9782C181.312 18.9942 181.496 19.0102 181.672 19.0262C181.864 19.0262 182.048 19.0422 182.224 19.0742C182.176 18.0342 182.12 16.9302 182.056 15.7622C181.992 14.5782 181.928 13.4022 181.864 12.2342C181.816 11.0662 181.768 9.97817 181.72 8.97017C181.688 7.96217 181.672 7.11417 181.672 6.42617H185.344C185.312 6.92217 185.296 7.57817 185.296 8.39417C185.312 9.21017 185.328 10.0982 185.344 11.0582C186 10.9942 186.712 10.9062 187.48 10.7942C188.248 10.6662 188.992 10.5222 189.712 10.3622C190.432 10.2022 191.048 10.0422 191.56 9.88217C191.576 10.1542 191.6 10.5062 191.632 10.9382C191.68 11.3542 191.736 11.7702 191.8 12.1862C191.864 12.6022 191.928 12.9382 191.992 13.1942C191.496 13.3542 190.864 13.4982 190.096 13.6262C189.344 13.7542 188.56 13.8662 187.744 13.9622C186.944 14.0582 186.192 14.1302 185.488 14.1782C185.536 15.1862 185.584 16.1702 185.632 17.1302C185.68 18.0902 185.728 18.9702 185.776 19.7702C187.136 20.1702 188.408 20.6582 189.592 21.2342C190.776 21.7942 191.872 22.3702 192.88 22.9622C192.608 23.1862 192.312 23.4902 191.992 23.8742C191.688 24.2582 191.408 24.6502 191.152 25.0502C190.896 25.4502 190.712 25.7862 190.6 26.0582C189.896 25.5142 189.144 25.0022 188.344 24.5222C187.56 24.0422 186.76 23.6262 185.944 23.2742C185.896 24.1062 185.664 24.8502 185.248 25.5062C184.848 26.1462 184.232 26.6422 183.4 26.9942C182.584 27.3462 181.52 27.4982 180.208 27.4502ZM180.328 24.0902C181.032 24.1542 181.544 24.0662 181.864 23.8262C182.2 23.5702 182.368 23.2262 182.368 22.7942C182.368 22.6982 182.36 22.5942 182.344 22.4822C182.344 22.3702 182.344 22.2582 182.344 22.1462C182.04 22.0822 181.744 22.0422 181.456 22.0262C181.168 21.9942 180.888 21.9782 180.616 21.9782C179.256 21.9782 178.576 22.3302 178.576 23.0342C178.576 23.3702 178.72 23.6182 179.008 23.7782C179.296 23.9222 179.736 24.0262 180.328 24.0902ZM208.648 27.1622C207.272 27.1622 206.136 26.9782 205.24 26.6102C204.344 26.2422 203.68 25.7462 203.248 25.1222C202.816 24.4982 202.6 23.8022 202.6 23.0342C202.6 22.2822 202.776 21.6422 203.128 21.1142C203.496 20.5702 203.976 20.1542 204.568 19.8662C205.176 19.5782 205.832 19.4342 206.536 19.4342C207.432 19.4342 208.192 19.6102 208.816 19.9622C209.456 20.2982 209.976 20.7542 210.376 21.3302C210.776 21.9062 211.064 22.5382 211.24 23.2262C212.136 22.6022 212.584 21.6582 212.584 20.3942C212.584 19.7862 212.432 19.2342 212.128 18.7382C211.824 18.2262 211.392 17.8182 210.832 17.5142C210.272 17.2102 209.616 17.0582 208.864 17.0582C207.792 17.0582 206.896 17.1782 206.176 17.4182C205.456 17.6422 204.816 18.0022 204.256 18.4982C203.952 18.7542 203.568 19.0822 203.104 19.4822C202.64 19.8662 202.2 20.2262 201.784 20.5622L199.336 17.9702C200.008 17.5862 200.728 17.1062 201.496 16.5302C202.28 15.9382 203.072 15.2822 203.872 14.5622C204.672 13.8422 205.44 13.0982 206.176 12.3302C206.912 11.5462 207.584 10.7702 208.192 10.0022C207.472 10.1462 206.736 10.2902 205.984 10.4342C205.248 10.5622 204.552 10.6662 203.896 10.7462C203.24 10.8262 202.688 10.8822 202.24 10.9142L201.592 7.55417C202.008 7.58617 202.544 7.58617 203.2 7.55417C203.856 7.52217 204.56 7.47417 205.312 7.41017C206.08 7.33017 206.832 7.24217 207.568 7.14617C208.304 7.03417 208.96 6.92217 209.536 6.81017C210.112 6.68217 210.544 6.55417 210.832 6.42617L213.544 8.20217C213 9.22617 212.28 10.2902 211.384 11.3942C210.488 12.4982 209.52 13.5702 208.48 14.6102C208.656 14.5462 208.848 14.5062 209.056 14.4902C209.28 14.4582 209.504 14.4422 209.728 14.4422C211.088 14.4422 212.256 14.6902 213.232 15.1862C214.224 15.6822 214.984 16.3782 215.512 17.2742C216.056 18.1702 216.328 19.2102 216.328 20.3942C216.328 21.6422 216.016 22.7782 215.392 23.8022C214.768 24.8262 213.88 25.6422 212.728 26.2502C211.592 26.8582 210.232 27.1622 208.648 27.1622ZM207.856 23.9222H208.144C208.032 23.4422 207.848 23.0502 207.592 22.7462C207.336 22.4422 206.984 22.2902 206.536 22.2902C206.376 22.2902 206.224 22.3382 206.08 22.4342C205.936 22.5142 205.864 22.6662 205.864 22.8902C205.864 23.1462 206.008 23.3702 206.296 23.5622C206.6 23.7382 207.12 23.8582 207.856 23.9222ZM229.84 27.4982C229.568 27.0502 229.208 26.5622 228.76 26.0342C228.328 25.5062 227.88 25.0822 227.416 24.7622C229.464 23.9142 231.016 22.7622 232.072 21.3062C233.128 19.8502 233.704 17.9542 233.8 15.6182H230.104V20.2262H226.552V15.6662C225.448 15.6822 224.432 15.6982 223.504 15.7142C222.576 15.7302 221.872 15.7542 221.392 15.7862V12.2102C221.744 12.2262 222.4 12.2422 223.36 12.2582C224.32 12.2742 225.384 12.2982 226.552 12.3302C226.536 10.9862 226.52 9.93017 226.504 9.16217C226.488 8.37817 226.448 7.73817 226.384 7.24217H230.248C230.2 7.72217 230.16 8.37017 230.128 9.18617C230.112 9.98617 230.104 11.0422 230.104 12.3542C230.408 12.3702 230.704 12.3782 230.992 12.3782C231.296 12.3782 231.576 12.3782 231.832 12.3782C232.152 12.3782 232.472 12.3782 232.792 12.3782C233.128 12.3782 233.472 12.3702 233.824 12.3542C233.808 11.3942 233.784 10.4262 233.752 9.45017C233.72 8.47417 233.68 7.58617 233.632 6.78617H237.376V12.3302C238.448 12.3142 239.448 12.2982 240.376 12.2822C241.304 12.2502 242.04 12.2262 242.584 12.2102V15.7862C242.072 15.7542 241.344 15.7302 240.4 15.7142C239.456 15.6982 238.44 15.6822 237.352 15.6662C237.256 18.6102 236.576 21.0262 235.312 22.9142C234.064 24.7862 232.24 26.3142 229.84 27.4982ZM252.424 26.3462C252.392 26.0262 252.32 25.6502 252.208 25.2182C252.112 24.7862 251.992 24.3542 251.848 23.9222C251.704 23.4902 251.544 23.1142 251.368 22.7942C252.408 22.7942 253.112 22.6982 253.48 22.5062C253.864 22.2982 254.056 21.9542 254.056 21.4742V15.1862C253 15.1862 251.976 15.1942 250.984 15.2102C250.008 15.2262 249.144 15.2422 248.392 15.2582C247.656 15.2742 247.112 15.2982 246.76 15.3302V11.9222C247.4 11.9862 248.336 12.0262 249.568 12.0422C250.8 12.0582 252.296 12.0662 254.056 12.0662V7.84216H257.752V12.0662C259.688 12.0662 261.272 12.0502 262.504 12.0182C263.736 11.9702 264.624 11.9382 265.168 11.9222V15.3302C264.576 15.2822 263.712 15.2502 262.576 15.2342C261.44 15.2022 259.832 15.1862 257.752 15.1862V22.2422C257.752 23.1222 257.6 23.8502 257.296 24.4262C257.008 25.0022 256.48 25.4502 255.712 25.7702C254.944 26.0742 253.848 26.2662 252.424 26.3462ZM247.888 23.7302C247.696 23.4742 247.44 23.1862 247.12 22.8662C246.816 22.5462 246.496 22.2422 246.16 21.9542C245.824 21.6502 245.52 21.4182 245.248 21.2582C245.856 20.8742 246.448 20.4102 247.024 19.8662C247.616 19.3062 248.152 18.7222 248.632 18.1142C249.128 17.4902 249.528 16.8902 249.832 16.3142L252.784 18.0182C252.416 18.7382 251.952 19.4582 251.392 20.1782C250.848 20.8982 250.272 21.5702 249.664 22.1942C249.056 22.8022 248.464 23.3142 247.888 23.7302ZM263.464 23.6102C263.176 23.0662 262.776 22.4582 262.264 21.7862C261.752 21.0982 261.2 20.4342 260.608 19.7942C260.032 19.1542 259.496 18.6422 259 18.2582L261.472 16.2902C262.032 16.7062 262.616 17.2182 263.224 17.8262C263.848 18.4182 264.44 19.0342 265 19.6742C265.576 20.2982 266.04 20.8742 266.392 21.4022C266.072 21.5462 265.728 21.7462 265.36 22.0022C264.992 22.2582 264.64 22.5302 264.304 22.8182C263.968 23.0902 263.688 23.3542 263.464 23.6102ZM264.016 10.7702C263.344 10.7702 262.768 10.5382 262.288 10.0742C261.824 9.59417 261.592 9.01817 261.592 8.34617C261.592 7.69017 261.824 7.13017 262.288 6.66617C262.768 6.18617 263.344 5.94617 264.016 5.94617C264.672 5.94617 265.232 6.18617 265.696 6.66617C266.176 7.13017 266.416 7.69017 266.416 8.34617C266.416 9.01817 266.176 9.59417 265.696 10.0742C265.232 10.5382 264.672 10.7702 264.016 10.7702ZM264.016 9.59417C264.368 9.59417 264.664 9.47417 264.904 9.23417C265.144 8.99417 265.264 8.69817 265.264 8.34617C265.264 7.99417 265.144 7.69817 264.904 7.45817C264.664 7.21817 264.368 7.09817 264.016 7.09817C263.664 7.09817 263.36 7.21817 263.104 7.45817C262.864 7.69817 262.744 7.99417 262.744 8.34617C262.744 8.69817 262.864 8.99417 263.104 9.23417C263.36 9.47417 263.664 9.59417 264.016 9.59417ZM270.16 18.8582C270.176 18.5702 270.176 18.1942 270.16 17.7302C270.16 17.2662 270.16 16.8022 270.16 16.3382C270.16 15.8742 270.152 15.4982 270.136 15.2102C270.36 15.2262 270.848 15.2502 271.6 15.2822C272.352 15.2982 273.272 15.3142 274.36 15.3302C275.448 15.3302 276.624 15.3382 277.888 15.3542C279.168 15.3542 280.448 15.3542 281.728 15.3542C283.008 15.3542 284.208 15.3542 285.328 15.3542C286.464 15.3382 287.432 15.3222 288.232 15.3062C289.032 15.2742 289.576 15.2422 289.864 15.2102C289.848 15.4662 289.832 15.8342 289.816 16.3142C289.816 16.7782 289.816 17.2422 289.816 17.7062C289.832 18.1702 289.84 18.5382 289.84 18.8102C289.472 18.7942 288.904 18.7782 288.136 18.7622C287.368 18.7302 286.464 18.7062 285.424 18.6902C284.384 18.6742 283.272 18.6662 282.088 18.6662C280.904 18.6662 279.712 18.6662 278.512 18.6662C277.312 18.6662 276.16 18.6742 275.056 18.6902C273.968 18.7062 273 18.7302 272.152 18.7622C271.304 18.7782 270.64 18.8102 270.16 18.8582ZM300.88 26.9702V7.26617H304.504V14.5862L305.656 12.9302C306.04 13.2022 306.552 13.5542 307.192 13.9862C307.848 14.4022 308.544 14.8342 309.28 15.2822C310.032 15.7142 310.744 16.1142 311.416 16.4822C312.104 16.8502 312.672 17.1142 313.12 17.2742C312.864 17.5142 312.584 17.8342 312.28 18.2342C311.992 18.6342 311.72 19.0422 311.464 19.4582C311.208 19.8742 311 20.2342 310.84 20.5382C310.488 20.3462 310.04 20.0902 309.496 19.7702C308.968 19.4342 308.4 19.0742 307.792 18.6902C307.2 18.2902 306.616 17.8982 306.04 17.5142C305.464 17.1142 304.952 16.7462 304.504 16.4102V26.9702H300.88ZM333.544 27.2822C331.8 27.0742 330.264 26.5782 328.936 25.7942C327.624 24.9942 326.6 23.9462 325.864 22.6502C325.128 21.3542 324.76 19.8662 324.76 18.1862C324.76 17.0662 325 15.9702 325.48 14.8982C325.976 13.8102 326.672 12.8102 327.568 11.8982C326.336 12.1062 325.128 12.3222 323.944 12.5462C322.776 12.7542 321.72 12.9542 320.776 13.1462C319.848 13.3382 319.112 13.5142 318.568 13.6742L317.8 9.85817C318.312 9.84217 319.04 9.78617 319.984 9.69017C320.944 9.59417 322.032 9.46617 323.248 9.30617C324.464 9.13017 325.72 8.94617 327.016 8.75417C328.328 8.54617 329.592 8.33817 330.808 8.13017C332.024 7.90617 333.112 7.69017 334.072 7.48217C335.032 7.27417 335.776 7.09017 336.304 6.93017L337.264 10.5062C336.992 10.5222 336.656 10.5622 336.256 10.6262C335.872 10.6742 335.44 10.7302 334.96 10.7942C334.144 10.8902 333.344 11.1382 332.56 11.5382C331.776 11.9222 331.064 12.4422 330.424 13.0982C329.8 13.7382 329.304 14.4902 328.936 15.3542C328.568 16.2022 328.384 17.1462 328.384 18.1862C328.384 19.3702 328.688 20.3382 329.296 21.0902C329.904 21.8422 330.744 22.4262 331.816 22.8422C332.888 23.2582 334.112 23.5462 335.488 23.7062C335.2 24.0102 334.912 24.3862 334.624 24.8342C334.352 25.2822 334.12 25.7222 333.928 26.1542C333.736 26.6022 333.608 26.9782 333.544 27.2822ZM335.56 17.7782C335.256 17.2662 334.872 16.7462 334.408 16.2182C333.96 15.6902 333.552 15.2502 333.184 14.8982L334.72 13.6502C334.944 13.8422 335.216 14.1142 335.536 14.4662C335.856 14.8182 336.168 15.1782 336.472 15.5462C336.776 15.9142 337.016 16.2262 337.192 16.4822L335.56 17.7782ZM337.864 15.9062C337.56 15.4102 337.176 14.8982 336.712 14.3702C336.248 13.8262 335.832 13.3862 335.464 13.0502L337.024 11.8022C337.248 11.9942 337.52 12.2662 337.84 12.6182C338.16 12.9702 338.472 13.3302 338.776 13.6982C339.08 14.0662 339.312 14.3782 339.472 14.6342L337.864 15.9062Z" fill="#3D3D3D"/>
<path d="M8.312 60.1302V50.8062C7.78933 51.3475 7.248 51.8608 6.688 52.3462C6.296 51.8795 5.86667 51.4128 5.4 50.9462C4.93333 50.4608 4.476 50.0408 4.028 49.6862C4.90533 49.0142 5.72667 48.2582 6.492 47.4182C7.276 46.5782 7.976 45.7195 8.592 44.8422C9.208 43.9648 9.69333 43.1435 10.048 42.3782H5.148V39.0182H8.312V34.4822H11.98V39.0182H13.66L15.144 40.2782C14.7333 41.2675 14.2573 42.2662 13.716 43.2742C13.1933 44.2635 12.6147 45.2342 11.98 46.1862C12.596 46.6902 13.2773 47.2222 14.024 47.7822C14.7707 48.3422 15.3867 48.7902 15.872 49.1262V46.6062C15.704 46.8302 15.5453 47.0448 15.396 47.2502C15.2467 47.4368 15.1067 47.6048 14.976 47.7542C14.6773 47.4555 14.3133 47.1382 13.884 46.8022C13.4547 46.4475 13.072 46.1768 12.736 45.9902C12.9413 45.7475 13.184 45.4395 13.464 45.0662C13.7627 44.6928 14.052 44.3008 14.332 43.8902C14.612 43.4795 14.836 43.1155 15.004 42.7982L15.872 43.3582V42.2382H21.248V40.9782H15.256V37.6462H21.248V34.3982H24.888V37.6462H26.96C26.2507 37.0302 25.6253 36.5728 25.084 36.2742L27.156 34.1742C27.436 34.3235 27.7813 34.5568 28.192 34.8742C28.6027 35.1915 29.004 35.5182 29.396 35.8542C29.788 36.1902 30.0867 36.4702 30.292 36.6942C30.1613 36.8248 30.0027 36.9742 29.816 37.1422C29.6293 37.2915 29.4427 37.4595 29.256 37.6462H30.712V40.9782H24.888V42.2382H30.236V57.4422C30.236 58.3755 29.956 59.0475 29.396 59.4582C28.8547 59.8875 28.0333 60.1022 26.932 60.1022H25.84C25.8213 59.7848 25.7747 59.3835 25.7 58.8982C25.6253 58.4315 25.532 57.9648 25.42 57.4982C25.3267 57.0128 25.224 56.6488 25.112 56.4062H25.868C26.1853 56.4062 26.4093 56.3595 26.54 56.2662C26.6893 56.1542 26.764 55.9488 26.764 55.6502V54.0262H24.888V59.6542H21.248V54.0262H19.372V60.1302H15.872V49.4622C15.4613 49.8355 15.088 50.2275 14.752 50.6382C14.416 51.0488 14.1173 51.4688 13.856 51.8982C13.2773 51.4875 12.652 50.9928 11.98 50.4142V60.1302H8.312ZM19.372 51.1142H21.248V49.7142H19.372V51.1142ZM24.888 51.1142H26.764V49.7142H24.888V51.1142ZM19.372 46.8022H21.248V45.4302H19.372V46.8022ZM24.888 46.8022H26.764V45.4302H24.888V46.8022ZM44.096 60.6342C43.9093 60.3168 43.6573 59.9622 43.34 59.5702C43.0227 59.1782 42.6867 58.7955 42.332 58.4222C41.9773 58.0675 41.6413 57.7782 41.324 57.5542C42.108 57.1995 42.8267 56.8262 43.48 56.4342C44.152 56.0422 44.7587 55.5942 45.3 55.0902C44.46 55.3328 43.4893 55.6035 42.388 55.9022C41.3053 56.1822 40.176 56.4715 39 56.7702C37.8427 57.0502 36.7413 57.3115 35.696 57.5542C34.6507 57.7782 33.764 57.9648 33.036 58.1142L32.224 53.6622C32.448 53.6248 32.7093 53.5875 33.008 53.5502C33.3253 53.5128 33.6613 53.4755 34.016 53.4382V35.6302H44.712V51.4782C45.3467 51.3475 45.916 51.2075 46.42 51.0582V53.8022C47.148 52.7755 47.6987 51.4782 48.072 49.9102C48.464 48.3422 48.6693 46.3168 48.688 43.8342H45.44V39.8302H48.688V34.7062H52.692V39.8302H58.292C58.2733 41.4168 58.264 42.5088 58.264 43.1062C58.264 43.7035 58.264 44.0022 58.264 44.0022C58.264 46.2422 58.236 48.2208 58.18 49.9382C58.1427 51.6555 58.0493 53.1022 57.9 54.2782C57.732 55.7715 57.4333 56.9382 57.004 57.7782C56.5747 58.5995 55.9773 59.1782 55.212 59.5142C54.4653 59.8502 53.532 60.0182 52.412 60.0182H50.872C50.816 59.5702 50.732 59.0942 50.62 58.5902C50.5267 58.0862 50.424 57.6195 50.312 57.1902C50.2187 56.7422 50.1347 56.4062 50.06 56.1822H51.628C52.0947 56.1822 52.468 56.1448 52.748 56.0702C53.028 55.9955 53.252 55.7808 53.42 55.4262C53.6067 55.0715 53.7653 54.4648 53.896 53.6062C54.0453 52.7102 54.148 51.3942 54.204 49.6582C54.2787 47.9222 54.316 45.9808 54.316 43.8342H52.692C52.6547 46.2235 52.4213 48.3142 51.992 50.1062C51.5627 51.8795 50.9653 53.4195 50.2 54.7262C49.4533 56.0328 48.5573 57.1622 47.512 58.1142C46.4853 59.0662 45.3467 59.9062 44.096 60.6342ZM38.02 52.7942C38.4493 52.7008 38.888 52.6168 39.336 52.5422C39.784 52.4488 40.2227 52.3648 40.652 52.2902V50.3862H38.02V52.7942ZM38.02 46.9702H40.652V44.8702H38.02V46.9702ZM38.02 41.4542H40.652V39.3542H38.02V41.4542ZM62.1 59.5422V56.0142H67C66.664 55.3795 66.2627 54.7168 65.796 54.0262C65.3293 53.3355 64.9187 52.8222 64.564 52.4862L66.692 51.1142H63.584V47.4742H71.788V45.9342H67.728V43.9742C66.8693 44.5715 66.02 45.1315 65.18 45.6542C64.34 46.1582 63.5747 46.5688 62.884 46.8862C62.6227 46.3448 62.2307 45.7475 61.708 45.0942C61.1853 44.4408 60.6627 43.9182 60.14 43.5262C61.2787 43.0782 62.4547 42.4902 63.668 41.7622C64.9 41.0155 66.076 40.2035 67.196 39.3262C68.3347 38.4302 69.352 37.5342 70.248 36.6382C71.144 35.7235 71.8253 34.8928 72.292 34.1462L76.212 34.6782C76.828 35.4808 77.6027 36.2928 78.536 37.1142C79.4693 37.9355 80.4773 38.7288 81.56 39.4942C82.6427 40.2408 83.7347 40.9128 84.836 41.5102C85.9373 42.1075 86.964 42.5742 87.916 42.9102C87.5427 43.2088 87.16 43.5822 86.768 44.0302C86.376 44.4782 86.0213 44.9448 85.704 45.4302C85.3867 45.8968 85.1347 46.3168 84.948 46.6902C83.4733 46.0182 81.8773 45.0755 80.16 43.8622V45.9342H76.184V47.4742H84.248V51.1142H81.028L83.1 51.9542C83.0067 52.2715 82.848 52.6728 82.624 53.1582C82.4187 53.6248 82.1853 54.1102 81.924 54.6142C81.6813 55.1182 81.4387 55.5848 81.196 56.0142H85.592V59.5422H62.1ZM69.94 42.3502H78.172C77.3693 41.6968 76.6227 41.0435 75.932 40.3902C75.2413 39.7182 74.6533 39.0742 74.168 38.4582C73.72 39.0368 73.1227 39.6622 72.376 40.3342C71.6293 41.0062 70.8173 41.6782 69.94 42.3502ZM76.184 56.0142H78.62L76.996 55.1742C77.2387 54.8942 77.4907 54.5208 77.752 54.0542C78.032 53.5688 78.3027 53.0648 78.564 52.5422C78.8253 52.0195 79.0493 51.5435 79.236 51.1142H76.184V56.0142ZM69.184 56.0142H71.788V51.1142H68.428C68.9133 51.6928 69.3893 52.3555 69.856 53.1022C70.3413 53.8488 70.696 54.4742 70.92 54.9782L69.184 56.0142ZM100.852 60.2422C100.553 59.7195 100.199 59.1782 99.788 58.6182C99.3773 58.0582 98.9573 57.5728 98.528 57.1622C99.7227 56.5648 100.805 55.9115 101.776 55.2022C102.747 54.4742 103.624 53.6808 104.408 52.8222C103.773 51.4968 103.232 50.0035 102.784 48.3422C102.355 46.6622 102.019 44.7488 101.776 42.6022H95.028V43.3582C95.028 43.6008 95.0187 43.8528 95 44.1142C95 44.3568 95 44.6088 95 44.8702H101.58C101.58 45.8968 101.552 46.9422 101.496 48.0062C101.459 49.0702 101.403 50.0688 101.328 51.0022C101.253 51.9168 101.151 52.6822 101.02 53.2982C100.759 54.6235 100.227 55.5568 99.424 56.0982C98.64 56.6395 97.576 56.9102 96.232 56.9102H94.944C94.9067 56.4808 94.8227 55.9208 94.692 55.2302C94.58 54.5208 94.4493 53.9142 94.3 53.4102C94.0573 54.6235 93.7307 55.7342 93.32 56.7422C92.928 57.7502 92.4333 58.7208 91.836 59.6542C91.3133 59.2622 90.7067 58.8982 90.016 58.5622C89.3253 58.2448 88.672 57.9835 88.056 57.7782C88.7093 56.7888 89.2227 55.8088 89.596 54.8382C89.988 53.8488 90.2773 52.8128 90.464 51.7302C90.6693 50.6288 90.8 49.4062 90.856 48.0622C90.9307 46.6995 90.968 45.1502 90.968 43.4142V38.9622H101.468C101.412 37.5808 101.384 36.1062 101.384 34.5382H105.472C105.472 35.3035 105.481 36.0595 105.5 36.8062C105.519 37.5342 105.547 38.2528 105.584 38.9622H108.776C107.936 38.1035 107.124 37.3942 106.34 36.8342L108.888 34.3142C109.523 34.7248 110.195 35.2662 110.904 35.9382C111.632 36.5915 112.248 37.2075 112.752 37.7862C112.565 37.9355 112.351 38.1128 112.108 38.3182C111.884 38.5235 111.651 38.7382 111.408 38.9622H114.348V42.6022H105.864C105.995 43.7408 106.163 44.8328 106.368 45.8782C106.592 46.9235 106.863 47.9128 107.18 48.8462C107.609 48.0062 107.983 47.1382 108.3 46.2422C108.636 45.3275 108.925 44.3848 109.168 43.4142L112.948 44.5622C112.556 46.1115 112.061 47.5955 111.464 49.0142C110.867 50.4142 110.157 51.7208 109.336 52.9342C109.989 53.7555 110.727 54.4555 111.548 55.0342C111.679 54.6048 111.781 54.1662 111.856 53.7182C111.949 53.2702 112.024 52.8688 112.08 52.5142C112.36 52.7008 112.724 52.9062 113.172 53.1302C113.62 53.3355 114.077 53.5222 114.544 53.6902C115.029 53.8395 115.44 53.9608 115.776 54.0542C115.627 54.9315 115.403 55.8182 115.104 56.7142C114.824 57.5915 114.525 58.3195 114.208 58.8982C113.853 59.5328 113.359 59.9342 112.724 60.1022C112.089 60.2702 111.417 60.1395 110.708 59.7102C109.943 59.2435 109.215 58.7208 108.524 58.1422C107.833 57.5822 107.189 56.9475 106.592 56.2382C105.789 57.0222 104.912 57.7502 103.96 58.4222C103.008 59.0942 101.972 59.7008 100.852 60.2422ZM94.384 52.9342H95.448C96.1013 52.9342 96.54 52.8502 96.764 52.6822C96.988 52.4955 97.1373 52.1968 97.212 51.7862C97.3053 51.3568 97.3707 50.8528 97.408 50.2742C97.464 49.6955 97.492 49.0888 97.492 48.4542H94.888C94.832 49.2755 94.7667 50.0595 94.692 50.8062C94.6173 51.5528 94.5147 52.2622 94.384 52.9342ZM125.268 60.6342C125.007 60.0928 124.605 59.4862 124.064 58.8142C123.541 58.1422 123.037 57.6102 122.552 57.2182C125.427 56.1168 127.564 54.5022 128.964 52.3742C130.364 50.2462 131.185 47.6515 131.428 44.5902H126.836V41.3982H124.708V49.6302C125.529 49.4248 126.276 49.2288 126.948 49.0422C127.62 48.8555 128.161 48.6968 128.572 48.5662V52.2342C128.199 52.3835 127.676 52.5795 127.004 52.8222C126.332 53.0648 125.585 53.3262 124.764 53.6062C123.961 53.8675 123.131 54.1382 122.272 54.4182C121.432 54.6795 120.639 54.9222 119.892 55.1462C119.145 55.3702 118.511 55.5568 117.988 55.7062L116.812 51.5062C117.689 51.3568 118.931 51.0768 120.536 50.6662V41.3982H117.26V37.5342H127.956V40.6982H131.512V34.4822H135.6V40.6982H142.124V44.2262C142.124 46.5968 142.077 48.6595 141.984 50.4142C141.891 52.1502 141.779 53.5875 141.648 54.7262C141.499 56.2008 141.2 57.3208 140.752 58.0862C140.304 58.8515 139.679 59.3742 138.876 59.6542C138.073 59.9342 137.056 60.0742 135.824 60.0742H134.088C134.051 59.6822 133.985 59.2248 133.892 58.7022C133.799 58.1795 133.687 57.6662 133.556 57.1622C133.444 56.6582 133.313 56.2382 133.164 55.9022H135.292C135.815 55.9022 136.225 55.8648 136.524 55.7902C136.841 55.7155 137.084 55.5288 137.252 55.2302C137.439 54.9315 137.579 54.4648 137.672 53.8302C137.765 53.1582 137.859 52.0475 137.952 50.4982C138.045 48.9302 138.092 46.9608 138.092 44.5902H135.516C135.329 47.3155 134.807 49.6955 133.948 51.7302C133.089 53.7648 131.923 55.5102 130.448 56.9662C128.992 58.4035 127.265 59.6262 125.268 60.6342ZM155.844 60.2142V55.7342H144.98V52.1222H155.844V51.0862C154.948 51.1422 154.117 51.1888 153.352 51.2262C152.587 51.2635 152.017 51.2915 151.644 51.3102L151.336 49.0702C150.907 49.4062 150.431 49.7702 149.908 50.1622C149.404 50.5355 148.909 50.8902 148.424 51.2262C147.957 51.5435 147.547 51.8048 147.192 52.0102L145.064 49.0422C145.381 48.8742 145.801 48.6315 146.324 48.3142C146.865 47.9968 147.435 47.6422 148.032 47.2502C148.648 46.8582 149.227 46.4848 149.768 46.1302C150.328 45.7568 150.776 45.4395 151.112 45.1782C151.224 45.5888 151.392 46.0648 151.616 46.6062C151.84 47.1475 152.036 47.6048 152.204 47.9782C152.391 47.9782 152.577 47.9782 152.764 47.9782C152.969 47.9595 153.184 47.9502 153.408 47.9502C153.557 47.8008 153.725 47.6328 153.912 47.4462C154.117 47.2595 154.332 47.0635 154.556 46.8582C154.052 46.4102 153.464 45.9155 152.792 45.3742C152.139 44.8328 151.569 44.3848 151.084 44.0302C150.785 44.3288 150.468 44.6648 150.132 45.0382C149.815 45.3928 149.544 45.7102 149.32 45.9902C149.003 45.6168 148.611 45.2155 148.144 44.7862C147.677 44.3382 147.211 43.9182 146.744 43.5262C146.277 43.1155 145.876 42.7982 145.54 42.5742L147.836 40.1382C148.135 40.3248 148.489 40.5768 148.9 40.8942C149.311 41.2115 149.731 41.5475 150.16 41.9022C150.589 42.2568 150.972 42.5928 151.308 42.9102L152.82 41.2022C152.951 41.2768 153.091 41.3702 153.24 41.4822C153.389 41.5755 153.539 41.6782 153.688 41.7902C153.893 41.5475 154.127 41.2675 154.388 40.9502C154.668 40.6328 154.929 40.3062 155.172 39.9702H145.82V36.6382H155.76V34.3982H160.212V36.6382H170.18V39.9702H167.66L169.424 41.5102C169.125 41.8462 168.733 42.2475 168.248 42.7142C167.781 43.1808 167.305 43.6288 166.82 44.0582C166.335 44.4875 165.905 44.8422 165.532 45.1222C165.177 44.7302 164.739 44.3102 164.216 43.8622C163.712 43.4142 163.264 43.0595 162.872 42.7982C163.283 42.4808 163.777 42.0515 164.356 41.5102C164.953 40.9502 165.476 40.4368 165.924 39.9702H158.14L159.176 40.5582C158.971 40.8195 158.7 41.1462 158.364 41.5382C158.028 41.9302 157.673 42.3315 157.3 42.7422C156.945 43.1342 156.628 43.4795 156.348 43.7782C156.479 43.8715 156.6 43.9648 156.712 44.0582C156.843 44.1515 156.955 44.2448 157.048 44.3382C157.701 43.6288 158.308 42.9662 158.868 42.3502C159.428 41.7155 159.82 41.2395 160.044 40.9222L162.76 42.8262C162.461 43.2182 162.051 43.6942 161.528 44.2542C161.024 44.7955 160.473 45.3648 159.876 45.9622C159.279 46.5595 158.681 47.1382 158.084 47.6982C158.439 47.6795 158.784 47.6608 159.12 47.6422C159.456 47.6235 159.773 47.6048 160.072 47.5862C159.96 47.3808 159.857 47.1942 159.764 47.0262C159.671 46.8582 159.577 46.7088 159.484 46.5782L162.564 45.2342C162.919 45.7195 163.329 46.4102 163.796 47.3062L165.868 45.0662C166.428 45.4022 167.044 45.8315 167.716 46.3542C168.388 46.8582 169.023 47.3528 169.62 47.8382C170.236 48.3235 170.703 48.7155 171.02 49.0142C170.647 49.3315 170.227 49.7608 169.76 50.3022C169.312 50.8435 168.939 51.3288 168.64 51.7582C168.397 51.4782 168.024 51.1235 167.52 50.6942C167.016 50.2648 166.465 49.8168 165.868 49.3502C165.289 48.8835 164.739 48.4822 164.216 48.1462C164.44 48.5568 164.636 48.9582 164.804 49.3502C164.991 49.7422 165.14 50.0875 165.252 50.3862C164.972 50.4982 164.617 50.6475 164.188 50.8342C163.759 51.0022 163.339 51.1795 162.928 51.3662C162.536 51.5528 162.219 51.7302 161.976 51.8982C161.92 51.7302 161.845 51.5342 161.752 51.3102C161.677 51.0862 161.584 50.8435 161.472 50.5822C161.285 50.6008 161.08 50.6288 160.856 50.6662C160.632 50.6848 160.389 50.7128 160.128 50.7502V52.1222H171.02V55.7342H160.128V60.2142H155.844ZM177.516 58.3382C176.545 58.3382 175.593 58.0582 174.66 57.4982C173.745 56.9382 173.017 56.2568 172.476 55.4542L174.968 53.5502C175.285 54.0728 175.659 54.4835 176.088 54.7822C176.517 55.0808 176.993 55.2302 177.516 55.2302C178.617 55.2302 179.457 54.7542 180.036 53.8022C180.633 52.8315 180.96 51.2448 181.016 49.0422C180.717 49.3968 180.297 49.6955 179.756 49.9382C179.215 50.1622 178.683 50.2742 178.16 50.2742C177.096 50.2742 176.144 50.0408 175.304 49.5742C174.464 49.0888 173.801 48.4075 173.316 47.5302C172.831 46.6528 172.588 45.6168 172.588 44.4222C172.588 43.2088 172.812 42.1355 173.26 41.2022C173.727 40.2502 174.371 39.5035 175.192 38.9622C176.013 38.4208 176.975 38.1502 178.076 38.1502C178.879 38.1502 179.653 38.2808 180.4 38.5422C181.147 38.7848 181.809 39.2422 182.388 39.9142C182.985 40.5862 183.452 41.5382 183.788 42.7702C184.143 44.0022 184.301 45.6075 184.264 47.5862C184.189 51.3008 183.583 54.0262 182.444 55.7622C181.305 57.4795 179.663 58.3382 177.516 58.3382ZM178.216 47.3062C179.019 47.3062 179.625 47.0542 180.036 46.5502C180.465 46.0275 180.671 45.3368 180.652 44.4782C180.633 43.4702 180.419 42.6955 180.008 42.1542C179.597 41.6128 179.028 41.3422 178.3 41.3422C177.609 41.3422 177.049 41.6128 176.62 42.1542C176.209 42.6955 176.004 43.4515 176.004 44.4222C176.004 45.2808 176.209 45.9808 176.62 46.5222C177.031 47.0448 177.563 47.3062 178.216 47.3062ZM193.209 58.0582V53.9422H185.677V51.3662L193.209 38.3742H196.345V51.0302H199.061V53.9422H196.345V58.0582H193.209ZM188.953 51.0302H193.209V43.6102L188.953 51.0302ZM202.957 58.3662C202.322 58.3662 201.781 58.1515 201.333 57.7222C200.904 57.2742 200.689 56.7422 200.689 56.1262C200.689 55.4915 200.904 54.9595 201.333 54.5302C201.781 54.0822 202.322 53.8582 202.957 53.8582C203.573 53.8582 204.105 54.0822 204.553 54.5302C205.001 54.9595 205.225 55.4915 205.225 56.1262C205.225 56.7422 205.001 57.2742 204.553 57.7222C204.105 58.1515 203.573 58.3662 202.957 58.3662ZM207.317 58.0582V57.0502C207.317 56.1728 207.457 55.3142 207.737 54.4742C208.017 53.6155 208.484 52.7288 209.137 51.8142C209.809 50.8995 210.715 49.9008 211.853 48.8182C212.413 48.2768 212.945 47.7355 213.449 47.1942C213.953 46.6528 214.364 46.1208 214.681 45.5982C214.999 45.0568 215.167 44.5528 215.185 44.0862C215.204 43.2088 215.008 42.5555 214.597 42.1262C214.205 41.6968 213.627 41.4822 212.861 41.4822C212.115 41.4822 211.573 41.7528 211.237 42.2942C210.901 42.8355 210.733 43.6008 210.733 44.5902H207.401C207.401 42.5928 207.905 41.0435 208.913 39.9422C209.94 38.8408 211.256 38.2902 212.861 38.2902C213.944 38.2902 214.915 38.5235 215.773 38.9902C216.651 39.4382 217.332 40.1008 217.817 40.9782C218.321 41.8368 218.555 42.9008 218.517 44.1702C218.499 45.0662 218.293 45.8782 217.901 46.6062C217.528 47.3342 217.015 48.0528 216.361 48.7622C215.727 49.4528 214.989 50.1995 214.149 51.0022C213.347 51.8048 212.628 52.5608 211.993 53.2702C211.377 53.9795 211.013 54.5582 210.901 55.0062H218.125V58.0582H207.317ZM224.879 48.4262C223.535 48.4262 222.452 47.9595 221.631 47.0262C220.809 46.0928 220.399 44.8328 220.399 43.2462C220.399 41.6782 220.809 40.4368 221.631 39.5222C222.452 38.5888 223.535 38.1222 224.879 38.1222C226.204 38.1222 227.277 38.5888 228.099 39.5222C228.939 40.4368 229.359 41.6782 229.359 43.2462C229.359 44.8328 228.939 46.0928 228.099 47.0262C227.277 47.9595 226.204 48.4262 224.879 48.4262ZM235.351 58.3662C234.025 58.3662 232.943 57.9088 232.103 56.9942C231.281 56.0795 230.871 54.8288 230.871 53.2422C230.871 51.6555 231.281 50.4048 232.103 49.4902C232.943 48.5568 234.025 48.0902 235.351 48.0902C236.695 48.0902 237.777 48.5568 238.599 49.4902C239.42 50.4048 239.831 51.6555 239.831 53.2422C239.831 54.8288 239.42 56.0795 238.599 56.9942C237.777 57.9088 236.695 58.3662 235.351 58.3662ZM223.787 58.7022L222.219 57.5822L236.499 37.7582L238.039 38.8782L223.787 58.7022ZM235.351 55.8182C236.639 55.8182 237.283 54.9595 237.283 53.2422C237.283 51.5248 236.639 50.6662 235.351 50.6662C234.063 50.6662 233.419 51.5248 233.419 53.2422C233.419 54.9595 234.063 55.8182 235.351 55.8182ZM224.879 45.8502C226.148 45.8502 226.783 44.9822 226.783 43.2462C226.783 41.5475 226.148 40.6982 224.879 40.6982C223.591 40.6982 222.947 41.5475 222.947 43.2462C222.947 44.9822 223.591 45.8502 224.879 45.8502Z" fill="#0191FF"/>
</svg>
