<svg width="330" height="98" viewBox="0 0 330 98" fill="none" xmlns="http://www.w3.org/2000/svg">
<mask id="mask0_420_10047" style="mask-type:luminance" maskUnits="userSpaceOnUse" x="0" y="24" width="205" height="10">
<path d="M0 33.9873H205V24.0003H0V33.9873Z" fill="white"/>
</mask>
<g mask="url(#mask0_420_10047)">
<path fill-rule="evenodd" clip-rule="evenodd" d="M12.5207 27.5816C8.61817 27.4793 4.7156 27.3741 0.815496 27.2651L0.0493164 31.4286C65.6145 33.2569 130.456 34.0974 196.172 33.9043L196.09 29.8785C199.031 29.8747 201.972 29.8699 204.916 29.8632L204.854 25.6892C154.43 25.7991 103.862 25.5113 53.4619 24.709C40.1526 24.4967 27.0139 24.709 13.8035 23.9899L12.5207 27.5816Z" fill="#F7DD44"/>
</g>
<path d="M5.764 30.044V5.068H17.3V14.392H15.788C16.0493 14.7653 16.3293 15.2133 16.628 15.736C16.9453 16.24 17.1973 16.688 17.384 17.08H18.728C18.9333 16.7253 19.148 16.2867 19.372 15.764C19.6147 15.2413 19.8013 14.784 19.932 14.392H18.7V5.068H30.32V26.908C30.32 28.0093 30.0213 28.8027 29.424 29.288C28.8453 29.792 27.912 30.044 26.624 30.044H24.496C24.4773 29.6893 24.4307 29.2787 24.356 28.812C24.2813 28.3453 24.188 27.9067 24.076 27.496C23.8333 27.8133 23.6093 28.14 23.404 28.476C23.1987 28.812 23.0307 29.1293 22.9 29.428C21.9667 29.036 21.0707 28.476 20.212 27.748C19.372 27.0013 18.6533 26.1707 18.056 25.256C17.4773 26.2267 16.7213 27.076 15.788 27.804C14.8733 28.5133 13.772 29.0827 12.484 29.512C12.2787 29.064 11.98 28.5507 11.588 27.972C11.2147 27.3933 10.8413 26.8987 10.468 26.488C11.588 26.1707 12.5027 25.7787 13.212 25.312C13.9213 24.8453 14.4813 24.276 14.892 23.604H10.58V20.832H15.788C15.8253 20.664 15.844 20.5053 15.844 20.356C15.8627 20.188 15.8813 20.02 15.9 19.852H11.196V17.08H13.8C13.6133 16.7627 13.4173 16.4547 13.212 16.156C13.0253 15.8573 12.8573 15.6147 12.708 15.428L15.032 14.392H9.656V30.044H5.764ZM24.496 26.152H25.364C26.0733 26.152 26.428 25.872 26.428 25.312V14.392H20.8L23.152 15.148C23.0773 15.3907 22.956 15.6893 22.788 16.044C22.6387 16.38 22.4893 16.7253 22.34 17.08H24.748V19.852H19.68C19.6613 20.0013 19.6427 20.16 19.624 20.328C19.6053 20.496 19.5867 20.664 19.568 20.832H25.42V23.604H20.912C21.36 24.1267 21.8827 24.6027 22.48 25.032C23.0773 25.4613 23.7493 25.8347 24.496 26.152ZM22.452 11.76H26.428V10.78H22.452V11.76ZM22.452 8.68H26.428V7.7H22.452V8.68ZM9.656 11.76H13.548V10.78H9.656V11.76ZM9.656 8.68H13.548V7.7H9.656V8.68ZM44.012 30.184V23.884C43.228 24.7427 42.3227 25.5733 41.296 26.376C40.288 27.16 39.2427 27.86 38.16 28.476C37.096 29.1107 36.0693 29.624 35.08 30.016C34.9307 29.68 34.716 29.3067 34.436 28.896C34.156 28.4853 33.848 28.1027 33.512 27.748C33.1947 27.3747 32.8867 27.0667 32.588 26.824C34.044 26.2827 35.5093 25.564 36.984 24.668C38.4773 23.772 39.784 22.8107 40.904 21.784H36.284V11.144H44.012V9.996H33.624V6.832H44.012V4.424H47.988V6.832H58.292V9.996H47.988V11.144H55.772V21.784H51.18C52.3 22.8107 53.5973 23.772 55.072 24.668C56.5653 25.564 58.04 26.2827 59.496 26.824C59.1973 27.0667 58.88 27.3747 58.544 27.748C58.2267 28.1027 57.928 28.4853 57.648 28.896C57.3867 29.3067 57.172 29.68 57.004 30.016C56.0147 29.624 54.9693 29.1107 53.868 28.476C52.7853 27.8413 51.7307 27.1227 50.704 26.32C49.6773 25.4987 48.772 24.6587 47.988 23.8V30.184H44.012ZM47.988 18.928H51.824V17.696H47.988V18.928ZM47.988 15.26H51.824V14.028H47.988V15.26ZM40.26 18.928H44.012V17.696H40.26V18.928ZM40.26 15.26H44.012V14.028H40.26V15.26ZM65.04 28V12.656L61.764 14.84L60 11.984L65.824 8.372H68.372V28H65.04ZM78.9844 28.28C78.2004 28.28 77.4258 28.1587 76.6604 27.916C75.9138 27.6547 75.2418 27.1973 74.6444 26.544C74.0658 25.872 73.6084 24.92 73.2724 23.688C72.9364 22.4373 72.7871 20.832 72.8244 18.872C72.8804 15.1387 73.4778 12.4133 74.6164 10.696C75.7738 8.96 77.4164 8.092 79.5444 8.092C80.5338 8.092 81.4951 8.372 82.4284 8.932C83.3618 9.47333 84.0898 10.1547 84.6124 10.976L82.1204 12.88C81.8031 12.3573 81.4298 11.9467 81.0004 11.648C80.5711 11.3493 80.0858 11.2 79.5444 11.2C78.4618 11.2 77.6218 11.676 77.0244 12.628C76.4271 13.58 76.1004 15.1667 76.0444 17.388C76.3618 17.0147 76.7911 16.716 77.3324 16.492C77.8738 16.268 78.4058 16.156 78.9284 16.156C79.9924 16.156 80.9444 16.3987 81.7844 16.884C82.6244 17.3693 83.2778 18.0507 83.7444 18.928C84.2298 19.7867 84.4724 20.8133 84.4724 22.008C84.4724 23.2213 84.2484 24.304 83.8004 25.256C83.3524 26.1893 82.7178 26.9267 81.8964 27.468C81.0751 28.0093 80.1044 28.28 78.9844 28.28ZM78.7604 25.088C79.4698 25.088 80.0298 24.8173 80.4404 24.276C80.8698 23.7347 81.0844 22.9787 81.0844 22.008C81.0844 21.1307 80.8791 20.44 80.4684 19.936C80.0578 19.4133 79.5164 19.152 78.8444 19.152C78.0604 19.152 77.4538 19.404 77.0244 19.908C76.6138 20.412 76.4178 21.0933 76.4364 21.952C76.4551 22.96 76.6604 23.7347 77.0524 24.276C77.4631 24.8173 78.0324 25.088 78.7604 25.088ZM89.7664 30.1C89.4304 29.9133 89.0291 29.7267 88.5624 29.54C88.0957 29.3533 87.6384 29.1853 87.1904 29.036C86.7611 28.8867 86.3971 28.784 86.0984 28.728C86.8637 27.3467 87.4237 25.732 87.7784 23.884C88.1331 22.036 88.3104 19.88 88.3104 17.416V7.364H97.8584V4.424H102.282V7.364H112.082V11.06H103.094V13.412H111.102V16.856H103.094V19.348H109.898V30.072H93.6304V19.348H98.6704V11.06H92.3424V17.472C92.3424 20.3093 92.1184 22.7733 91.6704 24.864C91.2224 26.9547 90.5877 28.7 89.7664 30.1ZM97.6624 26.628H105.866V22.82H97.6624V26.628ZM126.418 30.072V12.18H131.234V10.92H125.886V10.332C125.644 10.5933 125.41 10.864 125.186 11.144C124.962 11.4053 124.776 11.6387 124.626 11.844C124.309 11.6013 123.936 11.284 123.506 10.892C123.077 10.4813 122.648 10.0427 122.218 9.576C121.808 9.10933 121.434 8.652 121.098 8.204C120.594 8.988 120.072 9.72533 119.53 10.416H122.442V13.16H124.99V16.128H122.442V17.248H125.774V20.3H114.602V17.248H118.942V16.128H115.974V13.244C115.638 12.9267 115.237 12.6 114.77 12.264C114.322 11.928 113.93 11.676 113.594 11.508C114.136 11.1347 114.686 10.6493 115.246 10.052C115.806 9.436 116.348 8.78267 116.87 8.092C117.393 7.38267 117.85 6.68267 118.242 5.992C118.634 5.30133 118.933 4.68533 119.138 4.144L122.498 4.9C122.872 5.404 123.366 5.95467 123.982 6.552C124.617 7.14933 125.252 7.69067 125.886 8.176V7.588H131.234V4.34H134.79V7.588H136.974C136.657 7.308 136.321 7.03733 135.966 6.776C135.63 6.51467 135.332 6.31867 135.07 6.188L137.086 4.144C137.366 4.29333 137.702 4.52667 138.094 4.844C138.505 5.14267 138.906 5.46 139.298 5.796C139.69 6.11333 139.98 6.384 140.166 6.608C140.036 6.72 139.868 6.86933 139.662 7.056C139.476 7.224 139.289 7.40133 139.102 7.588H140.53V10.92H134.79V12.18H139.718V27.384C139.718 28.3173 139.457 28.9893 138.934 29.4C138.412 29.8293 137.6 30.044 136.498 30.044H135.49C135.472 29.7453 135.425 29.3627 135.35 28.896C135.276 28.448 135.192 27.9907 135.098 27.524C135.005 27.0573 134.902 26.6933 134.79 26.432V29.596H131.234V23.968H129.918V30.072H126.418ZM116.058 30.016V21.196H125.242V30.016H116.058ZM119.558 26.88H121.742V24.304H119.558V26.88ZM134.79 26.348H135.434C135.752 26.348 135.966 26.3013 136.078 26.208C136.19 26.096 136.246 25.8907 136.246 25.592V23.968H134.79V26.348ZM134.79 21.056H136.246V19.656H134.79V21.056ZM134.79 16.744H136.246V15.372H134.79V16.744ZM129.918 21.056H131.234V19.656H129.918V21.056ZM129.918 16.744H131.234V15.372H129.918V16.744ZM117.094 13.16H118.942V11.144C118.625 11.536 118.308 11.9093 117.99 12.264C117.692 12.6 117.393 12.8987 117.094 13.16ZM166.122 30.408C164.872 29.9413 163.658 29.344 162.482 28.616C161.306 27.9067 160.205 27.0387 159.178 26.012V28.42C158.898 28.5133 158.441 28.616 157.806 28.728C157.172 28.84 156.434 28.9613 155.594 29.092C154.773 29.2227 153.914 29.3533 153.018 29.484C152.122 29.6147 151.264 29.7453 150.442 29.876C149.64 30.0067 148.94 30.1187 148.342 30.212L147.53 26.712C147.848 26.6747 148.305 26.628 148.902 26.572C149.5 26.4973 150.172 26.4133 150.918 26.32V21.504H147.978C147.736 23.2027 147.362 24.7893 146.858 26.264C146.373 27.7387 145.804 28.896 145.15 29.736C144.87 29.5307 144.525 29.3067 144.114 29.064C143.704 28.8213 143.284 28.5973 142.854 28.392C142.444 28.1867 142.07 28.028 141.734 27.916C142.574 26.5907 143.218 24.9853 143.666 23.1C144.114 21.196 144.338 18.8627 144.338 16.1V5.152H166.682V12.572H162.678V13.86H166.766V16.828H162.678V18.172H167.998V21.504H166.43L167.438 22.428C167.084 22.7827 166.608 23.2213 166.01 23.744C165.413 24.2667 164.816 24.752 164.218 25.2C164.872 25.592 165.544 25.9467 166.234 26.264C166.925 26.5813 167.634 26.8707 168.362 27.132C167.914 27.5613 167.485 28.084 167.074 28.7C166.682 29.3347 166.365 29.904 166.122 30.408ZM148.398 9.548H162.678V8.092H148.398V9.548ZM148.342 18.172H151.954V16.828H149.126V13.86H151.954V12.572H148.398V16.1C148.398 16.436 148.398 16.7813 148.398 17.136C148.398 17.472 148.38 17.8173 148.342 18.172ZM154.866 25.76C155.538 25.6667 156.182 25.564 156.798 25.452C157.414 25.34 157.946 25.2373 158.394 25.144C157.928 24.6027 157.489 24.0333 157.078 23.436C156.668 22.8387 156.285 22.1947 155.93 21.504H154.866V25.76ZM155.762 18.172H158.842V16.828H155.762V18.172ZM155.762 13.86H158.842V12.572H155.762V13.86ZM161.418 23.044C161.717 22.82 162.025 22.5773 162.342 22.316C162.66 22.0547 162.968 21.784 163.266 21.504H160.046C160.252 21.7653 160.466 22.0267 160.69 22.288C160.933 22.5493 161.176 22.8013 161.418 23.044ZM190.062 30.044C190.044 29.6707 189.988 29.232 189.894 28.728C189.82 28.224 189.717 27.7387 189.586 27.272C189.474 26.7867 189.353 26.4133 189.222 26.152H190.958C191.649 26.152 191.994 25.872 191.994 25.312V14.728H184.266V5.068H195.886V26.908C195.886 28.0093 195.588 28.8027 194.99 29.288C194.412 29.792 193.478 30.044 192.19 30.044H190.062ZM171.33 30.044V5.068H182.866V14.728H175.222V30.044H171.33ZM177.742 29.96C177.518 29.624 177.164 29.2133 176.678 28.728C176.193 28.2613 175.726 27.8973 175.278 27.636C176.436 27.0947 177.313 26.5253 177.91 25.928C178.526 25.3307 178.946 24.5467 179.17 23.576H176.118V20.44H179.422V18.788H176.846V15.876H190.51V18.788H188.018V20.44H191.21V23.576H188.018V29.372H184.462V23.576H182.698C182.418 25.2187 181.868 26.516 181.046 27.468C180.225 28.42 179.124 29.2507 177.742 29.96ZM188.018 8.848H191.994V7.784H188.018V8.848ZM175.222 8.848H179.114V7.784H175.222V8.848ZM188.018 12.012H191.994V10.976H188.018V12.012ZM175.222 12.012H179.114V10.976H175.222V12.012ZM182.894 20.44H184.462V18.788H182.894V20.44Z" fill="#0191FF"/>
<path d="M215.11 29.224C213.366 29.016 211.83 28.52 210.502 27.736C209.19 26.936 208.166 25.888 207.43 24.592C206.694 23.296 206.326 21.808 206.326 20.128C206.326 19.008 206.566 17.912 207.046 16.84C207.542 15.752 208.238 14.752 209.134 13.84C207.902 14.048 206.694 14.264 205.51 14.488C204.342 14.696 203.286 14.896 202.342 15.088C201.414 15.28 200.678 15.456 200.134 15.616L199.366 11.8C199.878 11.784 200.606 11.728 201.55 11.632C202.51 11.536 203.598 11.408 204.814 11.248C206.03 11.072 207.286 10.888 208.582 10.696C209.894 10.488 211.158 10.28 212.374 10.072C213.59 9.848 214.678 9.632 215.638 9.424C216.598 9.216 217.342 9.032 217.87 8.872L218.83 12.448C218.558 12.464 218.222 12.504 217.822 12.568C217.438 12.616 217.006 12.672 216.526 12.736C215.71 12.832 214.91 13.08 214.126 13.48C213.342 13.864 212.63 14.384 211.99 15.04C211.366 15.68 210.87 16.432 210.502 17.296C210.134 18.144 209.95 19.088 209.95 20.128C209.95 21.312 210.254 22.28 210.862 23.032C211.47 23.784 212.31 24.368 213.382 24.784C214.454 25.2 215.678 25.488 217.054 25.648C216.766 25.952 216.478 26.328 216.19 26.776C215.918 27.224 215.686 27.664 215.494 28.096C215.302 28.544 215.174 28.92 215.11 29.224ZM217.126 19.72C216.822 19.208 216.438 18.688 215.974 18.16C215.526 17.632 215.118 17.192 214.75 16.84L216.286 15.592C216.51 15.784 216.782 16.056 217.102 16.408C217.422 16.76 217.734 17.12 218.038 17.488C218.342 17.856 218.582 18.168 218.758 18.424L217.126 19.72ZM219.43 17.848C219.126 17.352 218.742 16.84 218.278 16.312C217.814 15.768 217.398 15.328 217.03 14.992L218.59 13.744C218.814 13.936 219.086 14.208 219.406 14.56C219.726 14.912 220.038 15.272 220.342 15.64C220.646 16.008 220.878 16.32 221.038 16.576L219.43 17.848ZM227.302 29.512C226.966 28.968 226.55 28.408 226.054 27.832C225.574 27.24 225.054 26.68 224.494 26.152C223.95 25.608 223.414 25.16 222.886 24.808L225.118 22.792C225.486 23.032 225.886 23.336 226.318 23.704C226.766 24.072 227.214 24.472 227.662 24.904C228.126 25.32 228.55 25.728 228.934 26.128C229.318 26.528 229.63 26.88 229.87 27.184L227.302 29.512ZM16.936 61.56C15.912 61.56 15.184 61.408 14.752 61.104C14.336 60.8 14.128 60.296 14.128 59.592V51.912L12.28 52.584L11.08 49.584L14.128 48.456V41.592H17.536V47.208L18.616 46.8V39.864H21.88V45.6L25.048 44.424L26.44 44.976V53.328C26.44 54.24 26.136 54.888 25.528 55.272C24.936 55.656 23.992 55.96 22.696 56.184C22.632 55.624 22.512 55.088 22.336 54.576C22.176 54.048 22.024 53.624 21.88 53.304V57.144H18.616V50.232L17.536 50.64V57.864C17.536 58.072 17.584 58.224 17.68 58.32C17.792 58.4 18.016 58.44 18.352 58.44H22.624C23.184 58.44 23.552 58.256 23.728 57.888C23.92 57.52 24.056 56.888 24.136 55.992C24.376 56.104 24.688 56.232 25.072 56.376C25.472 56.52 25.88 56.656 26.296 56.784C26.728 56.912 27.112 57.016 27.448 57.096C27.256 58.312 27.024 59.248 26.752 59.904C26.496 60.544 26.136 60.976 25.672 61.2C25.208 61.44 24.56 61.56 23.728 61.56H16.936ZM5.416 59.64L4.6 56.136C4.984 56.072 5.392 55.992 5.824 55.896C6.272 55.784 6.736 55.664 7.216 55.536V48.792H4.84V45.696H7.216V40.368H10.624V45.696H12.952V48.792H10.624V54.432C11.088 54.272 11.528 54.112 11.944 53.952C12.36 53.792 12.728 53.64 13.048 53.496V56.664C12.664 56.872 12.152 57.12 11.512 57.408C10.888 57.68 10.2 57.96 9.448 58.248C8.712 58.52 7.984 58.784 7.264 59.04C6.56 59.28 5.944 59.48 5.416 59.64ZM21.88 52.944H22.48C22.72 52.944 22.896 52.904 23.008 52.824C23.136 52.728 23.2 52.56 23.2 52.32V48.528L21.88 49.008V52.944ZM40.192 62.256C39.984 61.856 39.704 61.416 39.352 60.936C39 60.472 38.648 60.072 38.296 59.736C39.8 59.128 41.12 58.376 42.256 57.48C41.712 57.672 41.04 57.896 40.24 58.152C39.456 58.408 38.656 58.656 37.84 58.896C37.04 59.136 36.312 59.336 35.656 59.496L35.008 57.096C34.144 57.464 33.208 57.848 32.2 58.248C31.192 58.632 30.312 58.944 29.56 59.184L28.672 55.848C29.04 55.768 29.424 55.672 29.824 55.56C30.24 55.448 30.672 55.328 31.12 55.2V48.864H28.912V45.936H31.12V41.112H34.336V45.936H36.208V48.864H34.336V54.168C34.704 54.04 35.048 53.92 35.368 53.808C35.704 53.68 36 53.56 36.256 53.448V56.088C36.992 55.928 37.776 55.752 38.608 55.56C39.456 55.352 40.264 55.152 41.032 54.96C41.8 54.752 42.44 54.576 42.952 54.432V56.88C43.176 56.656 43.392 56.432 43.6 56.208C43.824 55.984 44.032 55.752 44.224 55.512C43.92 54.376 43.688 53.056 43.528 51.552C43.368 50.032 43.248 48.272 43.168 46.272H36.424V43.56H43.12C43.104 42.984 43.096 42.392 43.096 41.784C43.096 41.16 43.096 40.528 43.096 39.888H46.264C46.248 40.528 46.232 41.16 46.216 41.784C46.216 42.392 46.216 42.984 46.216 43.56H48.064C47.808 43.176 47.52 42.784 47.2 42.384C46.88 41.968 46.584 41.632 46.312 41.376L48.424 39.744C48.648 39.936 48.904 40.192 49.192 40.512C49.496 40.832 49.784 41.152 50.056 41.472C50.344 41.792 50.568 42.056 50.728 42.264C50.472 42.424 50.192 42.624 49.888 42.864C49.6 43.104 49.328 43.336 49.072 43.56H50.944V46.272H46.24C46.272 47.28 46.312 48.224 46.36 49.104C46.408 49.984 46.48 50.8 46.576 51.552C47.024 50.464 47.376 49.32 47.632 48.12L50.68 49.032C50.28 50.344 49.832 51.576 49.336 52.728C48.84 53.864 48.272 54.928 47.632 55.92C47.92 56.608 48.272 57.224 48.688 57.768C48.944 56.968 49.112 56.264 49.192 55.656C49.512 55.864 49.952 56.112 50.512 56.4C51.088 56.672 51.592 56.904 52.024 57.096C51.88 57.672 51.696 58.328 51.472 59.064C51.264 59.784 51.048 60.384 50.824 60.864C50.472 61.648 49.952 62.056 49.264 62.088C48.592 62.12 47.944 61.816 47.32 61.176C46.952 60.792 46.608 60.392 46.288 59.976C45.984 59.56 45.704 59.12 45.448 58.656C44.712 59.392 43.912 60.056 43.048 60.648C42.184 61.256 41.232 61.792 40.192 62.256ZM36.52 54.096V47.544H42.904V54.096H36.52ZM39.112 51.672H40.36V49.944H39.112V51.672ZM54.16 55.8C54.032 55.304 53.832 54.792 53.56 54.264C53.288 53.736 53.04 53.296 52.816 52.944C55.264 52.592 57.464 52.016 59.416 51.216V46.752H62.104C61.816 46.496 61.528 46.256 61.24 46.032C60.952 45.792 60.68 45.592 60.424 45.432L61.408 44.52H56.896V46.44L59.248 48.12C58.976 48.568 58.616 49.056 58.168 49.584C57.72 50.096 57.224 50.592 56.68 51.072C56.136 51.552 55.592 51.976 55.048 52.344C54.776 51.976 54.432 51.6 54.016 51.216C53.6 50.816 53.184 50.488 52.768 50.232C53.248 49.96 53.784 49.56 54.376 49.032C54.984 48.488 55.504 47.952 55.936 47.424H53.416V41.784H62.008V39.792H65.8V41.784H74.536V47.28H72.04C72.6 47.744 73.192 48.304 73.816 48.96C74.456 49.616 74.976 50.208 75.376 50.736C74.976 51.008 74.552 51.32 74.104 51.672C73.672 52.008 73.28 52.376 72.928 52.776C72.688 52.408 72.344 51.976 71.896 51.48C71.448 50.968 70.976 50.472 70.48 49.992C70 49.496 69.56 49.104 69.16 48.816L71.08 47.16V44.52H64.096C64.416 44.776 64.728 45.048 65.032 45.336C65.336 45.608 65.592 45.872 65.8 46.128C65.624 46.272 65.392 46.48 65.104 46.752C64.832 47.008 64.56 47.272 64.288 47.544C64.016 47.816 63.792 48.064 63.616 48.288C63.504 48.144 63.36 47.984 63.184 47.808C63.008 47.632 62.816 47.44 62.608 47.232V49.584C63.664 48.912 64.608 48.16 65.44 47.328C66.288 46.496 67.032 45.592 67.672 44.616L70.48 46.224C69.696 47.392 68.824 48.432 67.864 49.344C66.904 50.24 65.88 51.04 64.792 51.744H66.544C66.976 51.744 67.288 51.616 67.48 51.36C67.672 51.088 67.8 50.56 67.864 49.776C68.104 49.904 68.4 50.04 68.752 50.184C69.12 50.328 69.496 50.464 69.88 50.592C70.264 50.704 70.608 50.8 70.912 50.88C70.736 51.936 70.52 52.736 70.264 53.28C70.024 53.824 69.68 54.192 69.232 54.384C68.8 54.576 68.192 54.672 67.408 54.672H62.176C61.04 54.672 60.28 54.512 59.896 54.192C58.952 54.544 57.992 54.848 57.016 55.104C56.056 55.36 55.104 55.592 54.16 55.8ZM55.264 61.704V55.824H58.768V58.8H62.248V54.984H65.728V58.8H69.136V55.392H72.616V61.704H55.264ZM82.6 61.848V55.272C81.384 56.584 80.008 57.72 78.472 58.68C78.216 58.248 77.856 57.784 77.392 57.288C76.944 56.776 76.496 56.368 76.048 56.064C76.88 55.664 77.664 55.168 78.4 54.576C79.136 53.984 79.8 53.352 80.392 52.68C81 52.008 81.52 51.36 81.952 50.736H77.056V48.12H86.2V47.424H79.84V45.144H86.2V44.448H77.608V41.832H82.984C82.84 41.512 82.688 41.2 82.528 40.896C82.384 40.592 82.248 40.336 82.12 40.128L85.336 39.384C85.56 39.688 85.784 40.064 86.008 40.512C86.232 40.944 86.44 41.384 86.632 41.832H89.464C89.64 41.464 89.824 41.048 90.016 40.584C90.224 40.104 90.368 39.712 90.448 39.408L94.048 40.008C93.952 40.264 93.84 40.552 93.712 40.872C93.584 41.192 93.456 41.512 93.328 41.832H98.344V44.448H89.776V45.144H96.232V47.424H89.776V48.12H99.04V50.736H85.864C85.8 50.848 85.736 50.968 85.672 51.096C85.608 51.208 85.536 51.328 85.456 51.456H96.256V61.848H82.6ZM86.176 59.688H92.68V58.968H86.176V59.688ZM86.176 57.024H92.68V56.304H86.176V57.024ZM86.176 54.336H92.68V53.616H86.176V54.336ZM117.544 61.224C115.8 61.016 114.264 60.52 112.936 59.736C111.624 58.936 110.6 57.888 109.864 56.592C109.128 55.296 108.76 53.808 108.76 52.128C108.76 51.008 109 49.912 109.48 48.84C109.976 47.752 110.672 46.752 111.568 45.84C110.336 46.048 109.128 46.264 107.944 46.488C106.776 46.696 105.72 46.896 104.776 47.088C103.848 47.28 103.112 47.456 102.568 47.616L101.8 43.8C102.312 43.784 103.04 43.728 103.984 43.632C104.944 43.536 106.032 43.408 107.248 43.248C108.464 43.072 109.72 42.888 111.016 42.696C112.328 42.488 113.592 42.28 114.808 42.072C116.024 41.848 117.112 41.632 118.072 41.424C119.032 41.216 119.776 41.032 120.304 40.872L121.264 44.448C120.992 44.464 120.656 44.504 120.256 44.568C119.872 44.616 119.44 44.672 118.96 44.736C118.144 44.832 117.344 45.08 116.56 45.48C115.776 45.864 115.064 46.384 114.424 47.04C113.8 47.68 113.304 48.432 112.936 49.296C112.568 50.144 112.384 51.088 112.384 52.128C112.384 53.312 112.688 54.28 113.296 55.032C113.904 55.784 114.744 56.368 115.816 56.784C116.888 57.2 118.112 57.488 119.488 57.648C119.2 57.952 118.912 58.328 118.624 58.776C118.352 59.224 118.12 59.664 117.928 60.096C117.736 60.544 117.608 60.92 117.544 61.224ZM119.56 51.72C119.256 51.208 118.872 50.688 118.408 50.16C117.96 49.632 117.552 49.192 117.184 48.84L118.72 47.592C118.944 47.784 119.216 48.056 119.536 48.408C119.856 48.76 120.168 49.12 120.472 49.488C120.776 49.856 121.016 50.168 121.192 50.424L119.56 51.72ZM121.864 49.848C121.56 49.352 121.176 48.84 120.712 48.312C120.248 47.768 119.832 47.328 119.464 46.992L121.024 45.744C121.248 45.936 121.52 46.208 121.84 46.56C122.16 46.912 122.472 47.272 122.776 47.64C123.08 48.008 123.312 48.32 123.472 48.576L121.864 49.848ZM128.944 61.728C128.928 61.424 128.872 61.024 128.776 60.528C128.696 60.032 128.608 59.592 128.512 59.208C128.112 60.184 127.656 60.984 127.144 61.608C126.744 61.256 126.256 60.928 125.68 60.624C125.12 60.336 124.608 60.136 124.144 60.024C124.864 59.16 125.424 58.208 125.824 57.168C126.24 56.128 126.536 54.928 126.712 53.568C126.888 52.192 126.976 50.608 126.976 48.816V46.584H125.08V43.584H128.224V39.768H131.608V43.584H134.2V44.952C134.792 44.056 135.312 43.12 135.76 42.144C136.208 41.152 136.512 40.312 136.672 39.624L139.864 40.488C139.752 40.824 139.632 41.168 139.504 41.52C139.392 41.856 139.256 42.192 139.096 42.528H146.896V45.36H137.68C137.28 46.048 136.88 46.68 136.48 47.256H138.376V49.344L139.264 49.104V46.056H142.192V48.24L145.24 47.352L146.248 47.736V54.048C146.248 54.912 145.976 55.528 145.432 55.896C144.888 56.248 143.992 56.536 142.744 56.76C142.712 56.36 142.64 55.96 142.528 55.56C142.432 55.16 142.32 54.808 142.192 54.504V57.36H139.264V52.296L138.376 52.536V58.008C138.376 58.216 138.424 58.36 138.52 58.44C138.632 58.504 138.84 58.536 139.144 58.536H143.104C143.616 58.536 143.96 58.408 144.136 58.152C144.312 57.88 144.432 57.328 144.496 56.496C144.72 56.608 145.024 56.736 145.408 56.88C145.792 57.008 146.192 57.136 146.608 57.264C147.024 57.376 147.376 57.464 147.664 57.528C147.472 58.648 147.232 59.496 146.944 60.072C146.672 60.664 146.304 61.064 145.84 61.272C145.376 61.48 144.76 61.584 143.992 61.584H137.896C136.952 61.584 136.28 61.44 135.88 61.152C135.496 60.864 135.304 60.392 135.304 59.736V53.448L134.104 53.808C134.072 54.88 134.016 55.904 133.936 56.88C133.856 57.84 133.744 58.584 133.6 59.112C133.344 60.088 132.928 60.768 132.352 61.152C131.776 61.536 130.936 61.728 129.832 61.728H128.944ZM128.704 58.704H129.4C129.8 58.704 130.08 58.624 130.24 58.464C130.4 58.304 130.512 58.024 130.576 57.624C130.656 57.288 130.72 56.848 130.768 56.304C130.832 55.744 130.88 55.168 130.912 54.576C130.944 53.968 130.968 53.408 130.984 52.896C131.016 52.368 131.032 51.96 131.032 51.672H130.216C130.104 52.808 129.928 54 129.688 55.248C129.448 56.48 129.12 57.632 128.704 58.704ZM134.152 50.592L135.304 50.256V48.744C135.24 48.808 135.176 48.88 135.112 48.96C135.064 49.024 135.008 49.088 134.944 49.152C134.544 48.784 134.096 48.448 133.6 48.144C133.12 47.824 132.656 47.56 132.208 47.352C132.448 47.128 132.704 46.872 132.976 46.584H130.384V48.648H134.176C134.176 48.904 134.176 49.2 134.176 49.536C134.176 49.856 134.168 50.208 134.152 50.592ZM142.192 53.664H142.552C142.792 53.664 142.968 53.624 143.08 53.544C143.192 53.464 143.248 53.304 143.248 53.064V51.12L142.192 51.432V53.664ZM149.128 60.144V56.76H158.056V45.504H150.736V42.096H169.264V45.504H161.92V56.76H170.896V60.144H149.128ZM180.976 61.992C180.912 61.752 180.792 61.456 180.616 61.104C180.456 60.752 180.264 60.392 180.04 60.024C179.832 59.672 179.616 59.384 179.392 59.16C180.208 59.032 181.056 58.824 181.936 58.536C182.816 58.232 183.656 57.872 184.456 57.456C184.28 57.264 184.104 57.064 183.928 56.856C183.768 56.632 183.608 56.408 183.448 56.184C183.128 56.536 182.792 56.872 182.44 57.192C182.104 57.496 181.768 57.776 181.432 58.032C181.128 57.696 180.728 57.344 180.232 56.976C179.752 56.608 179.328 56.336 178.96 56.16V61.68H175.528V53.088C175.336 53.216 175.144 53.344 174.952 53.472C174.776 53.6 174.584 53.728 174.376 53.856C174.248 53.584 174.048 53.272 173.776 52.92C173.52 52.568 173.232 52.224 172.912 51.888C172.592 51.536 172.296 51.264 172.024 51.072C172.552 50.784 173.144 50.4 173.8 49.92C174.456 49.424 175.112 48.88 175.768 48.288C176.44 47.68 177.048 47.072 177.592 46.464C178.152 45.84 178.6 45.256 178.936 44.712L181.744 46.752C181.552 47.04 181.352 47.328 181.144 47.616C180.936 47.904 180.72 48.184 180.496 48.456C180.88 48.44 181.32 48.424 181.816 48.408C182.312 48.376 182.832 48.352 183.376 48.336C183.504 48.208 183.648 48.056 183.808 47.88C183.984 47.704 184.176 47.512 184.384 47.304C183.984 46.92 183.528 46.528 183.016 46.128C182.504 45.712 181.984 45.32 181.456 44.952C180.944 44.584 180.48 44.296 180.064 44.088L182.008 41.712C182.232 41.84 182.456 41.976 182.68 42.12C182.904 42.264 183.128 42.416 183.352 42.576C183.768 42.064 184.168 41.512 184.552 40.92C184.952 40.328 185.232 39.848 185.392 39.48L188.128 40.992C187.872 41.424 187.504 41.952 187.024 42.576C186.56 43.184 186.104 43.744 185.656 44.256C185.8 44.368 185.936 44.48 186.064 44.592C186.208 44.704 186.344 44.808 186.472 44.904C186.952 44.328 187.416 43.76 187.864 43.2C188.312 42.624 188.712 42.088 189.064 41.592C189.432 41.096 189.712 40.688 189.904 40.368L192.688 42C192.368 42.496 191.92 43.096 191.344 43.8C190.784 44.504 190.176 45.232 189.52 45.984C188.864 46.72 188.224 47.408 187.6 48.048C187.968 48.016 188.328 47.984 188.68 47.952C189.032 47.92 189.376 47.888 189.712 47.856C189.6 47.76 189.496 47.672 189.4 47.592C189.304 47.496 189.208 47.416 189.112 47.352L191.296 45.408C191.808 45.76 192.336 46.192 192.88 46.704C193.424 47.216 193.936 47.736 194.416 48.264C194.912 48.792 195.304 49.272 195.592 49.704C195.368 49.848 195.088 50.048 194.752 50.304C194.432 50.56 194.112 50.824 193.792 51.096C193.488 51.352 193.24 51.584 193.048 51.792C192.904 51.584 192.744 51.36 192.568 51.12C192.392 50.88 192.2 50.632 191.992 50.376C191.352 50.472 190.6 50.576 189.736 50.688C188.888 50.784 188.016 50.872 187.12 50.952C187.056 51.096 186.976 51.24 186.88 51.384C186.8 51.528 186.72 51.672 186.64 51.816H191.584L193.336 53.448C192.36 55.032 191.232 56.392 189.952 57.528C190.8 57.912 191.68 58.216 192.592 58.44C193.52 58.664 194.44 58.8 195.352 58.848C194.952 59.264 194.6 59.768 194.296 60.36C194.008 60.952 193.784 61.48 193.624 61.944C192.456 61.768 191.32 61.48 190.216 61.08C189.112 60.696 188.072 60.208 187.096 59.616C185.32 60.672 183.28 61.464 180.976 61.992ZM174.736 46.92C174.48 46.504 174.12 46.056 173.656 45.576C173.208 45.08 172.768 44.696 172.336 44.424C172.8 44.2 173.312 43.896 173.872 43.512C174.432 43.112 174.992 42.68 175.552 42.216C176.112 41.752 176.616 41.296 177.064 40.848C177.528 40.4 177.88 40.016 178.12 39.696L180.76 41.76C180.376 42.208 179.928 42.68 179.416 43.176C178.904 43.656 178.368 44.136 177.808 44.616C177.248 45.096 176.696 45.536 176.152 45.936C175.624 46.336 175.152 46.664 174.736 46.92ZM178.96 56.064C179.456 55.728 179.952 55.296 180.448 54.768C180.96 54.24 181.456 53.68 181.936 53.088C182.416 52.48 182.848 51.888 183.232 51.312C182.64 51.344 182.096 51.376 181.6 51.408C181.12 51.44 180.736 51.464 180.448 51.48L179.968 49.056C179.808 49.232 179.64 49.416 179.464 49.608C179.304 49.8 179.136 49.984 178.96 50.16V56.064ZM187.096 55.8C187.688 55.352 188.176 54.872 188.56 54.36H185.656C186.088 54.888 186.568 55.368 187.096 55.8ZM209.968 60.528C209.904 60.208 209.76 59.84 209.536 59.424C209.328 58.992 209.08 58.568 208.792 58.152C208.52 57.736 208.24 57.408 207.952 57.168C210.208 56.816 211.88 56.128 212.968 55.104C214.056 54.08 214.632 52.848 214.696 51.408C214.76 50.32 214.568 49.352 214.12 48.504C213.672 47.656 213.064 46.968 212.296 46.44C211.544 45.896 210.72 45.552 209.824 45.408C209.696 46.832 209.456 48.304 209.104 49.824C208.768 51.328 208.296 52.76 207.688 54.12C207.08 55.464 206.328 56.616 205.432 57.576C204.68 58.392 203.968 58.856 203.296 58.968C202.624 59.064 201.912 58.96 201.16 58.656C200.424 58.352 199.784 57.872 199.24 57.216C198.696 56.544 198.28 55.76 197.992 54.864C197.72 53.952 197.608 52.992 197.656 51.984C197.736 50.48 198.088 49.104 198.712 47.856C199.352 46.608 200.2 45.544 201.256 44.664C202.312 43.768 203.52 43.096 204.88 42.648C206.256 42.184 207.72 41.992 209.272 42.072C210.568 42.136 211.776 42.424 212.896 42.936C214.016 43.432 214.992 44.112 215.824 44.976C216.672 45.84 217.32 46.84 217.768 47.976C218.216 49.112 218.4 50.344 218.32 51.672C218.208 53.992 217.408 55.912 215.92 57.432C214.432 58.936 212.448 59.968 209.968 60.528ZM202.984 54.984C203.528 54.472 204.024 53.728 204.472 52.752C204.936 51.76 205.328 50.648 205.648 49.416C205.968 48.168 206.184 46.904 206.296 45.624C205.304 45.912 204.424 46.376 203.656 47.016C202.904 47.64 202.312 48.392 201.88 49.272C201.448 50.152 201.2 51.12 201.136 52.176C201.104 52.8 201.168 53.344 201.328 53.808C201.504 54.272 201.752 54.656 202.072 54.96C202.376 55.264 202.68 55.272 202.984 54.984ZM10.672 93.32C10.496 93.048 10.256 92.736 9.952 92.384C9.648 92.048 9.328 91.72 8.992 91.4C8.656 91.08 8.336 90.832 8.032 90.656C9.536 89.856 10.72 88.872 11.584 87.704C12.464 86.52 13.08 85.184 13.432 83.696C13.784 82.192 13.928 80.584 13.864 78.872H17.56C17.56 79.304 17.544 79.728 17.512 80.144C17.496 80.544 17.472 80.944 17.44 81.344C18.016 80.88 18.648 80.296 19.336 79.592C20.024 78.872 20.664 78.136 21.256 77.384C20.344 77.416 19.336 77.456 18.232 77.504C17.128 77.536 16 77.576 14.848 77.624C13.696 77.672 12.592 77.72 11.536 77.768C10.48 77.816 9.536 77.864 8.704 77.912C7.888 77.944 7.264 77.976 6.832 78.008L6.664 74.312C7.224 74.344 7.968 74.368 8.896 74.384C9.824 74.4 10.848 74.408 11.968 74.408C13.104 74.392 14.264 74.376 15.448 74.36C16.648 74.328 17.808 74.288 18.928 74.24C20.048 74.192 21.064 74.136 21.976 74.072C22.888 74.008 23.608 73.936 24.136 73.856L26.488 75.68C26.12 76.352 25.672 77.064 25.144 77.816C24.632 78.568 24.08 79.312 23.488 80.048C22.896 80.784 22.304 81.472 21.712 82.112C21.136 82.752 20.592 83.288 20.08 83.72C19.904 83.512 19.664 83.272 19.36 83C19.056 82.712 18.728 82.432 18.376 82.16C18.04 81.888 17.728 81.672 17.44 81.512C17.184 84.168 16.504 86.464 15.4 88.4C14.296 90.336 12.72 91.976 10.672 93.32ZM34.432 92.192C34.304 91.92 34.112 91.584 33.856 91.184C33.616 90.768 33.344 90.36 33.04 89.96C32.736 89.544 32.44 89.208 32.152 88.952C35.144 88.008 37.624 86.72 39.592 85.088C41.56 83.44 42.992 81.328 43.888 78.752C43.104 78.768 42.232 78.792 41.272 78.824C40.328 78.856 39.368 78.896 38.392 78.944C37.416 78.976 36.488 79.008 35.608 79.04C34.728 79.072 33.96 79.104 33.304 79.136C32.664 79.168 32.208 79.192 31.936 79.208L31.696 75.224C32.32 75.272 33.12 75.304 34.096 75.32C35.072 75.336 36.12 75.344 37.24 75.344C38.376 75.344 39.504 75.336 40.624 75.32C41.744 75.304 42.776 75.28 43.72 75.248C44.68 75.2 45.456 75.144 46.048 75.08L48.448 76.328C47.904 78.952 46.984 81.312 45.688 83.408C44.408 85.504 42.816 87.296 40.912 88.784C39.008 90.272 36.848 91.408 34.432 92.192ZM57.04 93.488C56.768 92.88 56.448 92.288 56.08 91.712C55.728 91.136 55.376 90.688 55.024 90.368C56.72 89.792 58.336 89.016 59.872 88.04C61.408 87.048 62.8 85.912 64.048 84.632C63.632 84.36 63.216 84.104 62.8 83.864C62.4 83.624 62.008 83.424 61.624 83.264L63.712 80.576C64.096 80.736 64.504 80.936 64.936 81.176C65.384 81.4 65.832 81.648 66.28 81.92C66.6 81.456 66.896 80.976 67.168 80.48C67.456 79.984 67.712 79.488 67.936 78.992C67.28 79.024 66.6 79.064 65.896 79.112C65.208 79.144 64.56 79.176 63.952 79.208C63.344 79.24 62.84 79.264 62.44 79.28C61.752 80.304 60.984 81.296 60.136 82.256C59.288 83.216 58.344 84.096 57.304 84.896C56.952 84.464 56.528 84.008 56.032 83.528C55.552 83.048 55.104 82.688 54.688 82.448C55.808 81.632 56.848 80.664 57.808 79.544C58.784 78.408 59.632 77.216 60.352 75.968C61.072 74.72 61.608 73.504 61.96 72.32L65.368 73.4C65.208 73.848 65.032 74.304 64.84 74.768C64.648 75.232 64.44 75.696 64.216 76.16C64.904 76.128 65.632 76.104 66.4 76.088C67.168 76.056 67.88 76.024 68.536 75.992C69.208 75.944 69.728 75.896 70.096 75.848L72.424 77.072C71.624 79.648 70.56 81.936 69.232 83.936C69.824 84.384 70.368 84.832 70.864 85.28C71.376 85.728 71.8 86.152 72.136 86.552C71.848 86.76 71.536 87.04 71.2 87.392C70.864 87.728 70.536 88.08 70.216 88.448C69.912 88.816 69.664 89.152 69.472 89.456C69.152 89.056 68.768 88.64 68.32 88.208C67.888 87.776 67.416 87.336 66.904 86.888C65.592 88.312 64.104 89.576 62.44 90.68C60.792 91.768 58.992 92.704 57.04 93.488ZM78.16 84.8C78.176 84.512 78.176 84.136 78.16 83.672C78.16 83.208 78.16 82.744 78.16 82.28C78.16 81.816 78.152 81.44 78.136 81.152C78.36 81.168 78.848 81.192 79.6 81.224C80.352 81.24 81.272 81.256 82.36 81.272C83.448 81.272 84.624 81.28 85.888 81.296C87.168 81.296 88.448 81.296 89.728 81.296C91.008 81.296 92.208 81.296 93.328 81.296C94.464 81.28 95.432 81.264 96.232 81.248C97.032 81.216 97.576 81.184 97.864 81.152C97.848 81.408 97.832 81.776 97.816 82.256C97.816 82.72 97.816 83.184 97.816 83.648C97.832 84.112 97.84 84.48 97.84 84.752C97.472 84.736 96.904 84.72 96.136 84.704C95.368 84.672 94.464 84.648 93.424 84.632C92.384 84.616 91.272 84.608 90.088 84.608C88.904 84.608 87.712 84.608 86.512 84.608C85.312 84.608 84.16 84.616 83.056 84.632C81.968 84.648 81 84.672 80.152 84.704C79.304 84.72 78.64 84.752 78.16 84.8ZM106.432 92.192C106.304 91.92 106.112 91.584 105.856 91.184C105.616 90.768 105.344 90.36 105.04 89.96C104.736 89.544 104.44 89.208 104.152 88.952C107.144 88.008 109.624 86.72 111.592 85.088C113.56 83.44 114.992 81.328 115.888 78.752C115.104 78.768 114.232 78.792 113.272 78.824C112.328 78.856 111.368 78.896 110.392 78.944C109.416 78.976 108.488 79.008 107.608 79.04C106.728 79.072 105.96 79.104 105.304 79.136C104.664 79.168 104.208 79.192 103.936 79.208L103.696 75.224C104.32 75.272 105.12 75.304 106.096 75.32C107.072 75.336 108.12 75.344 109.24 75.344C110.376 75.344 111.504 75.336 112.624 75.32C113.744 75.304 114.776 75.28 115.72 75.248C116.68 75.2 117.456 75.144 118.048 75.08L120.448 76.328C119.904 78.952 118.984 81.312 117.688 83.408C116.408 85.504 114.816 87.296 112.912 88.784C111.008 90.272 108.848 91.408 106.432 92.192ZM134.824 93.08C134.76 92.696 134.664 92.248 134.536 91.736C134.408 91.208 134.24 90.752 134.032 90.368C135.056 90.368 135.728 90.296 136.048 90.152C136.384 89.992 136.552 89.688 136.552 89.24C136.552 89.112 136.544 88.76 136.528 88.184C136.512 87.608 136.488 86.92 136.456 86.12C135.576 87.24 134.536 88.256 133.336 89.168C132.152 90.08 130.928 90.84 129.664 91.448C129.488 91.064 129.24 90.656 128.92 90.224C128.6 89.792 128.28 89.448 127.96 89.192C128.712 88.872 129.488 88.456 130.288 87.944C131.104 87.432 131.888 86.864 132.64 86.24C133.408 85.6 134.08 84.952 134.656 84.296C133.808 84.312 133.008 84.336 132.256 84.368C131.52 84.4 130.888 84.432 130.36 84.464C129.848 84.48 129.496 84.504 129.304 84.536L129.184 81.848C129.536 81.864 130.072 81.872 130.792 81.872C131.528 81.872 132.376 81.864 133.336 81.848C134.312 81.832 135.304 81.808 136.312 81.776L136.168 78.104H139.048L139.168 81.68C140.08 81.648 140.904 81.616 141.64 81.584C142.392 81.536 142.968 81.496 143.368 81.464V84.152C143.144 84.136 142.648 84.128 141.88 84.128C141.128 84.128 140.248 84.144 139.24 84.176C139.272 85.056 139.296 85.896 139.312 86.696C139.344 87.496 139.368 88.168 139.384 88.712C139.416 89.256 139.432 89.584 139.432 89.696C139.48 90.992 139.12 91.88 138.352 92.36C137.584 92.84 136.408 93.08 134.824 93.08ZM152.32 89.84V76.208H167.68V89.84H152.32ZM155.992 86.48H164.008V79.592H155.992V86.48ZM174.16 84.8C174.176 84.512 174.176 84.136 174.16 83.672C174.16 83.208 174.16 82.744 174.16 82.28C174.16 81.816 174.152 81.44 174.136 81.152C174.36 81.168 174.848 81.192 175.6 81.224C176.352 81.24 177.272 81.256 178.36 81.272C179.448 81.272 180.624 81.28 181.888 81.296C183.168 81.296 184.448 81.296 185.728 81.296C187.008 81.296 188.208 81.296 189.328 81.296C190.464 81.28 191.432 81.264 192.232 81.248C193.032 81.216 193.576 81.184 193.864 81.152C193.848 81.408 193.832 81.776 193.816 82.256C193.816 82.72 193.816 83.184 193.816 83.648C193.832 84.112 193.84 84.48 193.84 84.752C193.472 84.736 192.904 84.72 192.136 84.704C191.368 84.672 190.464 84.648 189.424 84.632C188.384 84.616 187.272 84.608 186.088 84.608C184.904 84.608 183.712 84.608 182.512 84.608C181.312 84.608 180.16 84.616 179.056 84.632C177.968 84.648 177 84.672 176.152 84.704C175.304 84.72 174.64 84.752 174.16 84.8ZM208.36 92.672C207.032 92.592 205.952 92.184 205.12 91.448C204.288 90.712 203.88 89.768 203.896 88.616C203.912 87.944 204.128 87.328 204.544 86.768C204.976 86.208 205.568 85.76 206.32 85.424C207.088 85.072 207.984 84.896 209.008 84.896C209.2 84.896 209.384 84.904 209.56 84.92C209.736 84.92 209.912 84.928 210.088 84.944C210.072 84.32 210.048 83.632 210.016 82.88C210 82.112 209.976 81.304 209.944 80.456C209 80.488 208.088 80.512 207.208 80.528C206.344 80.528 205.584 80.512 204.928 80.48L204.736 76.904C205.296 77 206.032 77.056 206.944 77.072C207.856 77.088 208.832 77.08 209.872 77.048C209.856 76.424 209.84 75.8 209.824 75.176C209.824 74.536 209.824 73.896 209.824 73.256H213.28C213.264 73.8 213.248 74.376 213.232 74.984C213.216 75.576 213.216 76.2 213.232 76.856C214.128 76.776 214.944 76.68 215.68 76.568C216.432 76.456 217 76.336 217.384 76.208V79.736C216.936 79.832 216.352 79.92 215.632 80C214.928 80.08 214.152 80.16 213.304 80.24C213.336 81.248 213.368 82.224 213.4 83.168C213.448 84.096 213.488 84.936 213.52 85.688C214.432 86.024 215.296 86.44 216.112 86.936C216.928 87.432 217.712 87.976 218.464 88.568C218.224 88.76 217.968 89.032 217.696 89.384C217.424 89.736 217.176 90.096 216.952 90.464C216.728 90.832 216.56 91.152 216.448 91.424C216 91.008 215.528 90.624 215.032 90.272C214.552 89.904 214.056 89.568 213.544 89.264C213.384 90.544 212.856 91.456 211.96 92C211.08 92.544 209.88 92.768 208.36 92.672ZM199.144 92.888C199.032 92.248 198.936 91.424 198.856 90.416C198.792 89.408 198.744 88.296 198.712 87.08C198.696 85.848 198.696 84.576 198.712 83.264C198.728 81.952 198.768 80.672 198.832 79.424C198.896 78.176 198.984 77.024 199.096 75.968C199.208 74.896 199.336 74 199.48 73.28L202.816 74.072C202.64 74.616 202.488 75.36 202.36 76.304C202.232 77.248 202.128 78.304 202.048 79.472C201.984 80.624 201.944 81.824 201.928 83.072C201.912 84.32 201.92 85.536 201.952 86.72C202 87.888 202.072 88.96 202.168 89.936C202.264 90.896 202.384 91.68 202.528 92.288L199.144 92.888ZM208.624 89.696C209.184 89.696 209.576 89.584 209.8 89.36C210.04 89.12 210.16 88.64 210.16 87.92C209.936 87.872 209.704 87.832 209.464 87.8C209.24 87.768 209.016 87.744 208.792 87.728C208.344 87.696 207.952 87.768 207.616 87.944C207.28 88.104 207.104 88.352 207.088 88.688C207.072 89.008 207.208 89.256 207.496 89.432C207.8 89.608 208.176 89.696 208.624 89.696ZM222.976 93.992C222.88 93.432 222.728 92.856 222.52 92.264C222.328 91.672 222.072 91.136 221.752 90.656C224.888 90.432 227.496 89.808 229.576 88.784C228.584 88.384 227.624 88.032 226.696 87.728C225.768 87.408 224.92 87.16 224.152 86.984C224.392 86.632 224.672 86.2 224.992 85.688C225.312 85.16 225.64 84.6 225.976 84.008H221.104V80.936H227.656C228.024 80.232 228.36 79.56 228.664 78.92C228.984 78.28 229.24 77.72 229.432 77.24H225.328V79.664H221.656V74.24H229.912V71.696H233.944V74.24H242.296V79.64H238.696V77.24H230.464L233.224 78.032C233.032 78.448 232.808 78.912 232.552 79.424C232.296 79.92 232.032 80.424 231.76 80.936H243.016V84.008H238.312C237.768 85.496 237.08 86.792 236.248 87.896C237.272 88.36 238.272 88.848 239.248 89.36C240.24 89.856 241.152 90.36 241.984 90.872C241.568 91.24 241.152 91.712 240.736 92.288C240.32 92.864 239.976 93.432 239.704 93.992C238.824 93.416 237.856 92.832 236.8 92.24C235.744 91.664 234.656 91.104 233.536 90.56C232.224 91.488 230.696 92.216 228.952 92.744C227.208 93.272 225.216 93.688 222.976 93.992ZM232.744 86.432C233.064 86.064 233.352 85.68 233.608 85.28C233.88 84.88 234.112 84.456 234.304 84.008H230.104C229.96 84.264 229.824 84.504 229.696 84.728C229.584 84.952 229.488 85.128 229.408 85.256C229.888 85.4 230.408 85.576 230.968 85.784C231.528 85.976 232.12 86.192 232.744 86.432ZM255.208 93.488C254.072 93.488 253.264 93.312 252.784 92.96C252.32 92.624 252.088 92.064 252.088 91.28V78.272H255.808V89.384C255.808 89.624 255.864 89.792 255.976 89.888C256.104 89.984 256.344 90.032 256.696 90.032H259.12C259.744 90.032 260.152 89.832 260.344 89.432C260.552 89.016 260.696 88.304 260.776 87.296C261.048 87.44 261.392 87.592 261.808 87.752C262.24 87.912 262.68 88.064 263.128 88.208C263.576 88.352 263.968 88.464 264.304 88.544C264.08 89.888 263.816 90.92 263.512 91.64C263.224 92.344 262.824 92.824 262.312 93.08C261.8 93.352 261.088 93.488 260.176 93.488H255.208ZM247.24 88.928C246.808 88.608 246.288 88.296 245.68 87.992C245.088 87.672 244.544 87.432 244.048 87.272C244.384 86.872 244.736 86.36 245.104 85.736C245.488 85.096 245.856 84.424 246.208 83.72C246.56 83 246.872 82.296 247.144 81.608C247.432 80.92 247.632 80.32 247.744 79.808L251.2 80.984C251.024 81.592 250.784 82.264 250.48 83C250.176 83.736 249.84 84.48 249.472 85.232C249.104 85.968 248.72 86.664 248.32 87.32C247.936 87.96 247.576 88.496 247.24 88.928ZM264.688 87.608C264.032 86.296 263.272 85.104 262.408 84.032C261.544 82.96 260.592 81.976 259.552 81.08L262.12 78.896C262.792 79.408 263.48 80.032 264.184 80.768C264.888 81.504 265.552 82.28 266.176 83.096C266.8 83.896 267.32 84.672 267.736 85.424C267.416 85.552 267.048 85.76 266.632 86.048C266.232 86.32 265.856 86.6 265.504 86.888C265.152 87.176 264.88 87.416 264.688 87.608ZM258.64 78.08C258.064 77.616 257.416 77.16 256.696 76.712C255.976 76.248 255.248 75.824 254.512 75.44C253.776 75.04 253.088 74.712 252.448 74.456L254.224 71.624C254.928 71.912 255.68 72.264 256.48 72.68C257.296 73.096 258.072 73.528 258.808 73.976C259.544 74.408 260.16 74.816 260.656 75.2C260.288 75.6 259.904 76.088 259.504 76.664C259.104 77.224 258.816 77.696 258.64 78.08Z" fill="#3D3D3D"/>
</svg>
