<svg width="312" height="76" viewBox="0 0 312 76" fill="none" xmlns="http://www.w3.org/2000/svg">
<mask id="mask0_2015_372" style="mask-type:luminance" maskUnits="userSpaceOnUse" x="2" y="27" width="121" height="10">
<path d="M2 36.9873H123V27.0003H2V36.9873Z" fill="white"/>
</mask>
<g mask="url(#mask0_2015_372)">
<path fill-rule="evenodd" clip-rule="evenodd" d="M9.39048 30.5816C7.08701 30.4793 4.78354 30.3741 2.48153 30.2651L2.0293 34.4286C40.7288 36.2569 79.0008 37.0974 117.789 36.9043L117.741 32.8785C119.477 32.8747 121.213 32.8699 122.951 32.8632L122.914 28.6892C93.1513 28.7991 63.3039 28.5113 33.5558 27.709C25.7 27.4967 17.945 27.709 10.1476 26.9899L9.39048 30.5816Z" fill="#F7DD44"/>
</g>
<path d="M6.52546 33.2896V11.9536H12.1255C12.2748 11.5243 12.4241 11.0576 12.5735 10.5536C12.7228 10.0496 12.8535 9.59228 12.9655 9.18162C13.0775 8.75228 13.1428 8.47228 13.1615 8.34162L18.2295 8.76162C18.1361 9.04162 17.9401 9.49895 17.6415 10.1336C17.3615 10.7496 17.0815 11.3563 16.8015 11.9536H25.9575V33.2896H6.52546ZM10.8655 17.9456H21.6175V15.5656H10.8655V17.9456ZM10.8655 23.8256H21.6175V21.4736H10.8655V23.8256ZM10.8655 29.6776H21.6175V27.3536H10.8655V29.6776ZM41.4975 33.2336V29.3136H47.5735V20.4656H43.2335V16.4896H47.5735V8.59362H51.7455V16.4896H56.3375V20.4656H51.7455V29.3136H57.0095V33.2336H41.4975ZM35.6175 34.0456V25.7016C35.2068 26.0563 34.7775 26.411 34.3295 26.7656C33.9001 27.1203 33.4615 27.4563 33.0135 27.7736C32.6961 27.251 32.2668 26.7003 31.7255 26.1216C31.2028 25.543 30.7081 25.067 30.2415 24.6936C30.8948 24.3203 31.6041 23.8349 32.3695 23.2376C33.1535 22.6216 33.9281 21.959 34.6935 21.2496C35.4588 20.5403 36.1588 19.8216 36.7935 19.0936C37.4468 18.3469 37.9601 17.6469 38.3335 16.9936H31.7255V13.2696H35.6175V8.56562H39.6215V13.2696H41.8335L43.7095 14.8096C43.3548 15.6683 42.9348 16.5176 42.4495 17.3576C41.9641 18.1976 41.4321 19.0283 40.8535 19.8496C41.3575 20.1856 41.8801 20.531 42.4215 20.8856C42.9815 21.2403 43.5135 21.5763 44.0175 21.8936C44.5401 22.1923 44.9601 22.4256 45.2775 22.5936C45.0348 22.8363 44.7548 23.1536 44.4375 23.5456C44.1201 23.9376 43.8215 24.339 43.5415 24.7496C43.2801 25.1603 43.0655 25.5336 42.8975 25.8696C42.4308 25.5336 41.9081 25.1696 41.3295 24.7776C40.7508 24.367 40.1815 23.9563 39.6215 23.5456V34.0456H35.6175ZM64.0095 34.0736C63.9908 33.719 63.9255 33.2523 63.8135 32.6736C63.7201 32.095 63.6175 31.5816 63.5055 31.1336C63.0388 32.2723 62.5068 33.2056 61.9095 33.9336C61.4428 33.523 60.8735 33.1403 60.2015 32.7856C59.5481 32.4496 58.9508 32.2163 58.4095 32.0856C59.2495 31.0776 59.9028 29.967 60.3695 28.7536C60.8548 27.5403 61.2001 26.1403 61.4055 24.5536C61.6108 22.9483 61.7135 21.1003 61.7135 19.0096V16.4056H59.5015V12.9056H63.1695V8.45362H67.1175V12.9056H70.1415V14.5016C70.8321 13.4563 71.4388 12.3643 71.9615 11.2256C72.4841 10.0683 72.8388 9.08828 73.0255 8.28562L76.7495 9.29362C76.6188 9.68562 76.4788 10.0869 76.3295 10.4976C76.1988 10.8896 76.0401 11.2816 75.8535 11.6736H84.9535V14.9776H74.2015C73.7348 15.7803 73.2681 16.5176 72.8015 17.1896H75.0135V19.6256L76.0495 19.3456V15.7896H79.4655V18.3376L83.0215 17.3016L84.1975 17.7496V25.1136C84.1975 26.1216 83.8801 26.8403 83.2455 27.2696C82.6108 27.6803 81.5655 28.0163 80.1095 28.2776C80.0721 27.811 79.9881 27.3443 79.8575 26.8776C79.7455 26.411 79.6148 26.0003 79.4655 25.6456V28.9776H76.0495V23.0696L75.0135 23.3496V29.7336C75.0135 29.9763 75.0695 30.1443 75.1815 30.2376C75.3121 30.3123 75.5548 30.3496 75.9095 30.3496H80.5295C81.1268 30.3496 81.5281 30.2003 81.7335 29.9016C81.9388 29.5843 82.0788 28.9403 82.1535 27.9696C82.4148 28.1003 82.7695 28.2496 83.2175 28.4176C83.6655 28.567 84.1321 28.7163 84.6175 28.8656C85.1028 28.9963 85.5135 29.099 85.8495 29.1736C85.6255 30.4803 85.3455 31.4696 85.0095 32.1416C84.6921 32.8323 84.2628 33.299 83.7215 33.5416C83.1801 33.7843 82.4615 33.9056 81.5655 33.9056H74.4535C73.3521 33.9056 72.5681 33.7376 72.1015 33.4016C71.6535 33.0656 71.4295 32.515 71.4295 31.7496V24.4136L70.0295 24.8336C69.9921 26.0843 69.9268 27.279 69.8335 28.4176C69.7401 29.5376 69.6095 30.4056 69.4415 31.0216C69.1428 32.1603 68.6575 32.9536 67.9855 33.4016C67.3135 33.8496 66.3335 34.0736 65.0455 34.0736H64.0095ZM63.7295 30.5456H64.5415C65.0081 30.5456 65.3348 30.4523 65.5215 30.2656C65.7081 30.079 65.8388 29.7523 65.9135 29.2856C66.0068 28.8936 66.0815 28.3803 66.1375 27.7456C66.2121 27.0923 66.2681 26.4203 66.3055 25.7296C66.3428 25.0203 66.3708 24.367 66.3895 23.7696C66.4268 23.1536 66.4455 22.6776 66.4455 22.3416H65.4935C65.3628 23.667 65.1575 25.0576 64.8775 26.5136C64.5975 27.951 64.2148 29.295 63.7295 30.5456ZM70.0855 21.0816L71.4295 20.6896V18.9256C71.3548 19.0003 71.2801 19.0843 71.2055 19.1776C71.1495 19.2523 71.0841 19.3269 71.0095 19.4016C70.5428 18.9723 70.0201 18.5803 69.4415 18.2256C68.8815 17.8523 68.3401 17.5443 67.8175 17.3016C68.0975 17.0403 68.3961 16.7416 68.7135 16.4056H65.6895V18.8136H70.1135C70.1135 19.1123 70.1135 19.4576 70.1135 19.8496C70.1135 20.223 70.1041 20.6336 70.0855 21.0816ZM79.4655 24.6656H79.8855C80.1655 24.6656 80.3708 24.619 80.5015 24.5256C80.6321 24.4323 80.6975 24.2456 80.6975 23.9656V21.6976L79.4655 22.0616V24.6656ZM87.5575 32.2256V28.2776H97.9735V15.1456H89.4335V11.1696H111.049V15.1456H102.481V28.2776H112.953V32.2256H87.5575Z" fill="#0191FF"/>
<path d="M131.785 33.2816C130.041 33.0736 128.505 32.5776 127.177 31.7936C125.865 30.9936 124.841 29.9456 124.105 28.6496C123.369 27.3536 123.001 25.8656 123.001 24.1856C123.001 23.0656 123.241 21.9696 123.721 20.8976C124.217 19.8096 124.913 18.8096 125.809 17.8976C124.577 18.1056 123.369 18.3216 122.185 18.5456C121.017 18.7536 119.961 18.9536 119.017 19.1456C118.089 19.3376 117.353 19.5136 116.809 19.6736L116.041 15.8576C116.553 15.8416 117.281 15.7856 118.225 15.6896C119.185 15.5936 120.273 15.4656 121.489 15.3056C122.705 15.1296 123.961 14.9456 125.257 14.7536C126.569 14.5456 127.833 14.3376 129.049 14.1296C130.265 13.9056 131.353 13.6896 132.313 13.4816C133.273 13.2736 134.017 13.0896 134.545 12.9296L135.505 16.5056C135.233 16.5216 134.897 16.5616 134.497 16.6256C134.113 16.6736 133.681 16.7296 133.201 16.7936C132.385 16.8896 131.585 17.1376 130.801 17.5376C130.017 17.9216 129.305 18.4416 128.665 19.0976C128.041 19.7376 127.545 20.4896 127.177 21.3536C126.809 22.2016 126.625 23.1456 126.625 24.1856C126.625 25.3696 126.929 26.3376 127.537 27.0896C128.145 27.8416 128.985 28.4256 130.057 28.8416C131.129 29.2576 132.353 29.5456 133.729 29.7056C133.441 30.0096 133.153 30.3856 132.865 30.8336C132.593 31.2816 132.361 31.7216 132.169 32.1536C131.977 32.6016 131.849 32.9776 131.785 33.2816ZM133.801 23.7776C133.497 23.2656 133.113 22.7456 132.649 22.2176C132.201 21.6896 131.793 21.2496 131.425 20.8976L132.961 19.6496C133.185 19.8416 133.457 20.1136 133.777 20.4656C134.097 20.8176 134.409 21.1776 134.713 21.5456C135.017 21.9136 135.257 22.2256 135.433 22.4816L133.801 23.7776ZM136.105 21.9056C135.801 21.4096 135.417 20.8976 134.953 20.3696C134.489 19.8256 134.073 19.3856 133.705 19.0496L135.265 17.8016C135.489 17.9936 135.761 18.2656 136.081 18.6176C136.401 18.9696 136.713 19.3296 137.017 19.6976C137.321 20.0656 137.553 20.3776 137.713 20.6336L136.105 21.9056Z" fill="#3D3D3D"/>
<path d="M10.2 70.776V63.36H1.584V53.232H10.2V48.912H13.848V53.232H22.464V63.36H13.848V70.776H10.2ZM13.848 59.928H18.792V56.472H13.848V59.928ZM5.304 59.928H10.2V56.472H5.304V59.928ZM41.448 70.68C41.432 70.264 41.368 69.76 41.256 69.168C41.144 68.592 41.016 68.104 40.872 67.704V68.376H31.248V59.016H40.872V67.32H42.216C42.536 67.32 42.76 67.272 42.888 67.176C43.032 67.064 43.104 66.872 43.104 66.6V57.792H36.6V49.344H46.56V67.992C46.56 68.936 46.304 69.616 45.792 70.032C45.296 70.464 44.496 70.68 43.392 70.68H41.448ZM25.512 70.68V49.344H35.4V57.792H28.92V70.68H25.512ZM34.368 65.856H37.752V64.8H34.368V65.856ZM34.368 62.568H37.752V61.536H34.368V62.568ZM39.888 55.464H43.104V54.48H39.888V55.464ZM39.888 52.656H43.104V51.672H39.888V52.656ZM28.92 55.464H32.112V54.48H28.92V55.464ZM28.92 52.656H32.112V51.672H28.92V52.656ZM62.04 68.04C61.624 67.448 61.128 66.832 60.552 66.192C59.976 65.536 59.36 64.904 58.704 64.296C58.048 63.672 57.384 63.096 56.712 62.568C56.04 62.04 55.4 61.6 54.792 61.248L57.336 58.848C58.264 59.408 59.224 60.064 60.216 60.816C60.872 60.256 61.576 59.624 62.328 58.92C63.096 58.216 63.808 57.528 64.464 56.856C63.52 56.888 62.48 56.928 61.344 56.976C60.224 57.008 59.088 57.048 57.936 57.096C56.8 57.144 55.72 57.192 54.696 57.24C53.688 57.288 52.8 57.336 52.032 57.384C51.28 57.432 50.736 57.472 50.4 57.504L50.136 53.76C50.728 53.792 51.504 53.816 52.464 53.832C53.424 53.832 54.488 53.832 55.656 53.832C56.824 53.816 58.024 53.8 59.256 53.784C60.488 53.752 61.672 53.72 62.808 53.688C63.96 53.64 64.992 53.592 65.904 53.544C66.816 53.496 67.536 53.448 68.064 53.4L70.224 55.368C69.696 56.104 69.024 56.928 68.208 57.84C67.392 58.752 66.52 59.664 65.592 60.576C64.664 61.488 63.76 62.328 62.88 63.096C63.712 63.88 64.416 64.656 64.992 65.424C64.72 65.6 64.4 65.84 64.032 66.144C63.664 66.448 63.304 66.768 62.952 67.104C62.6 67.44 62.296 67.752 62.04 68.04ZM74.16 61.8C74.176 61.512 74.176 61.136 74.16 60.672C74.16 60.208 74.16 59.744 74.16 59.28C74.16 58.816 74.152 58.44 74.136 58.152C74.36 58.168 74.848 58.192 75.6 58.224C76.352 58.24 77.272 58.256 78.36 58.272C79.448 58.272 80.624 58.28 81.888 58.296C83.168 58.296 84.448 58.296 85.728 58.296C87.008 58.296 88.208 58.296 89.328 58.296C90.464 58.28 91.432 58.264 92.232 58.248C93.032 58.216 93.576 58.184 93.864 58.152C93.848 58.408 93.832 58.776 93.816 59.256C93.816 59.72 93.816 60.184 93.816 60.648C93.832 61.112 93.84 61.48 93.84 61.752C93.472 61.736 92.904 61.72 92.136 61.704C91.368 61.672 90.464 61.648 89.424 61.632C88.384 61.616 87.272 61.608 86.088 61.608C84.904 61.608 83.712 61.608 82.512 61.608C81.312 61.608 80.16 61.616 79.056 61.632C77.968 61.648 77 61.672 76.152 61.704C75.304 61.72 74.64 61.752 74.16 61.8ZM102.192 69.36L100.176 65.688C101.312 65.48 102.52 65.112 103.8 64.584C105.08 64.04 106.36 63.392 107.64 62.64C108.936 61.872 110.168 61.048 111.336 60.168C112.504 59.288 113.552 58.4 114.48 57.504C115.424 56.592 116.176 55.728 116.736 54.912C116.832 55.296 116.96 55.728 117.12 56.208C117.296 56.688 117.488 57.152 117.696 57.6C117.904 58.048 118.096 58.416 118.272 58.704C117.472 59.728 116.48 60.768 115.296 61.824C114.128 62.864 112.832 63.864 111.408 64.824C109.984 65.784 108.488 66.656 106.92 67.44C105.352 68.208 103.776 68.848 102.192 69.36ZM106.632 56.616C106.392 56.392 106.064 56.136 105.648 55.848C105.232 55.56 104.784 55.272 104.304 54.984C103.84 54.68 103.384 54.408 102.936 54.168C102.488 53.928 102.12 53.752 101.832 53.64L103.848 50.568C104.184 50.744 104.584 50.968 105.048 51.24C105.512 51.512 105.976 51.808 106.44 52.128C106.92 52.432 107.368 52.728 107.784 53.016C108.2 53.288 108.528 53.52 108.768 53.712L106.632 56.616ZM103.176 61.632C102.84 61.36 102.376 61.064 101.784 60.744C101.192 60.408 100.576 60.096 99.936 59.808C99.312 59.52 98.76 59.288 98.28 59.112L100.104 55.896C100.6 56.088 101.16 56.344 101.784 56.664C102.424 56.968 103.04 57.288 103.632 57.624C104.24 57.96 104.736 58.256 105.12 58.512L103.176 61.632ZM116.568 52.656C116.232 52.192 115.816 51.712 115.32 51.216C114.824 50.704 114.376 50.296 113.976 49.992L115.416 48.624C115.656 48.8 115.944 49.056 116.28 49.392C116.632 49.712 116.976 50.048 117.312 50.4C117.648 50.736 117.912 51.024 118.104 51.264L116.568 52.656ZM114.432 54.696C114.096 54.216 113.68 53.728 113.184 53.232C112.688 52.72 112.232 52.312 111.816 52.008L113.28 50.64C113.504 50.816 113.784 51.072 114.12 51.408C114.472 51.728 114.816 52.064 115.152 52.416C115.488 52.752 115.752 53.04 115.944 53.28L114.432 54.696ZM125.496 68.52L123.456 64.872C124.592 64.664 125.8 64.296 127.08 63.768C128.36 63.224 129.64 62.576 130.92 61.824C132.216 61.056 133.448 60.232 134.616 59.352C135.8 58.456 136.856 57.56 137.784 56.664C138.728 55.768 139.48 54.912 140.04 54.096C140.12 54.448 140.248 54.872 140.424 55.368C140.6 55.848 140.792 56.32 141 56.784C141.208 57.232 141.392 57.6 141.552 57.888C140.752 58.912 139.76 59.952 138.576 61.008C137.408 62.048 136.112 63.048 134.688 64.008C133.264 64.968 131.768 65.84 130.2 66.624C128.648 67.392 127.08 68.024 125.496 68.52ZM127.752 58.032C127.528 57.792 127.224 57.52 126.84 57.216C126.456 56.896 126.032 56.576 125.568 56.256C125.104 55.92 124.648 55.608 124.2 55.32C123.752 55.032 123.36 54.808 123.024 54.648L125.424 51.648C125.888 51.904 126.424 52.232 127.032 52.632C127.656 53.032 128.264 53.448 128.856 53.88C129.448 54.312 129.928 54.712 130.296 55.08L127.752 58.032ZM148.416 69.6C148.288 69.312 148.08 68.984 147.792 68.616C147.52 68.248 147.208 67.896 146.856 67.56C146.52 67.208 146.192 66.928 145.872 66.72C147.856 65.936 149.504 64.856 150.816 63.48C152.128 62.088 153.104 60.328 153.744 58.2L147.696 58.416L147.432 54.936C147.688 54.952 148.16 54.96 148.848 54.96C149.536 54.96 150.368 54.952 151.344 54.936C152.32 54.92 153.36 54.896 154.464 54.864C154.56 54.128 154.624 53.36 154.656 52.56C154.704 51.744 154.72 50.896 154.704 50.016L158.4 50.04C158.416 50.872 158.4 51.688 158.352 52.488C158.32 53.272 158.256 54.04 158.16 54.792C159.248 54.76 160.264 54.728 161.208 54.696C162.168 54.664 162.984 54.632 163.656 54.6C164.328 54.552 164.776 54.52 165 54.504C165 55.192 164.96 56.024 164.88 57C164.816 57.976 164.72 58.992 164.592 60.048C164.464 61.088 164.32 62.072 164.16 63C164.016 63.912 163.864 64.656 163.704 65.232C163.4 66.368 163.008 67.24 162.528 67.848C162.048 68.456 161.384 68.872 160.536 69.096C159.688 69.32 158.552 69.424 157.128 69.408C157.096 69.088 157.016 68.704 156.888 68.256C156.776 67.808 156.624 67.36 156.432 66.912C156.256 66.448 156.056 66.048 155.832 65.712C156.824 65.712 157.6 65.68 158.16 65.616C158.736 65.552 159.168 65.416 159.456 65.208C159.76 65 159.984 64.68 160.128 64.248C160.304 63.768 160.456 63.176 160.584 62.472C160.728 61.768 160.856 61.016 160.968 60.216C161.08 59.416 161.16 58.656 161.208 57.936L157.536 58.08C156.832 60.8 155.704 63.12 154.152 65.04C152.616 66.944 150.704 68.464 148.416 69.6ZM175.848 69.528C175.688 69.096 175.456 68.624 175.152 68.112C174.848 67.584 174.544 67.168 174.24 66.864C177.152 66.208 179.424 65.032 181.056 63.336C182.704 61.64 183.728 59.36 184.128 56.496L186.984 56.976C186.6 59.392 185.92 61.416 184.944 63.048C183.968 64.664 182.712 65.984 181.176 67.008C179.656 68.032 177.88 68.872 175.848 69.528ZM178.152 61.08C178.12 60.744 178.024 60.312 177.864 59.784C177.72 59.24 177.552 58.712 177.36 58.2C177.184 57.672 177.016 57.28 176.856 57.024L179.52 56.184C179.68 56.488 179.848 56.904 180.024 57.432C180.216 57.944 180.392 58.472 180.552 59.016C180.712 59.544 180.816 59.992 180.864 60.36L178.152 61.08ZM174.12 61.992C174.072 61.672 173.96 61.248 173.784 60.72C173.624 60.192 173.44 59.672 173.232 59.16C173.024 58.648 172.832 58.264 172.656 58.008L175.296 57.048C175.472 57.352 175.656 57.76 175.848 58.272C176.056 58.784 176.248 59.304 176.424 59.832C176.6 60.36 176.728 60.808 176.808 61.176L174.12 61.992ZM200.88 69.912V50.208H204.504V57.528L205.656 55.872C206.04 56.144 206.552 56.496 207.192 56.928C207.848 57.344 208.544 57.776 209.28 58.224C210.032 58.656 210.744 59.056 211.416 59.424C212.104 59.792 212.672 60.056 213.12 60.216C212.864 60.456 212.584 60.776 212.28 61.176C211.992 61.576 211.72 61.984 211.464 62.4C211.208 62.816 211 63.176 210.84 63.48C210.488 63.288 210.04 63.032 209.496 62.712C208.968 62.376 208.4 62.016 207.792 61.632C207.2 61.232 206.616 60.84 206.04 60.456C205.464 60.056 204.952 59.688 204.504 59.352V69.912H200.88ZM233.544 70.224C231.8 70.016 230.264 69.52 228.936 68.736C227.624 67.936 226.6 66.888 225.864 65.592C225.128 64.296 224.76 62.808 224.76 61.128C224.76 60.008 225 58.912 225.48 57.84C225.976 56.752 226.672 55.752 227.568 54.84C226.336 55.048 225.128 55.264 223.944 55.488C222.776 55.696 221.72 55.896 220.776 56.088C219.848 56.28 219.112 56.456 218.568 56.616L217.8 52.8C218.312 52.784 219.04 52.728 219.984 52.632C220.944 52.536 222.032 52.408 223.248 52.248C224.464 52.072 225.72 51.888 227.016 51.696C228.328 51.488 229.592 51.28 230.808 51.072C232.024 50.848 233.112 50.632 234.072 50.424C235.032 50.216 235.776 50.032 236.304 49.872L237.264 53.448C236.992 53.464 236.656 53.504 236.256 53.568C235.872 53.616 235.44 53.672 234.96 53.736C234.144 53.832 233.344 54.08 232.56 54.48C231.776 54.864 231.064 55.384 230.424 56.04C229.8 56.68 229.304 57.432 228.936 58.296C228.568 59.144 228.384 60.088 228.384 61.128C228.384 62.312 228.688 63.28 229.296 64.032C229.904 64.784 230.744 65.368 231.816 65.784C232.888 66.2 234.112 66.488 235.488 66.648C235.2 66.952 234.912 67.328 234.624 67.776C234.352 68.224 234.12 68.664 233.928 69.096C233.736 69.544 233.608 69.92 233.544 70.224ZM235.56 60.72C235.256 60.208 234.872 59.688 234.408 59.16C233.96 58.632 233.552 58.192 233.184 57.84L234.72 56.592C234.944 56.784 235.216 57.056 235.536 57.408C235.856 57.76 236.168 58.12 236.472 58.488C236.776 58.856 237.016 59.168 237.192 59.424L235.56 60.72ZM237.864 58.848C237.56 58.352 237.176 57.84 236.712 57.312C236.248 56.768 235.832 56.328 235.464 55.992L237.024 54.744C237.248 54.936 237.52 55.208 237.84 55.56C238.16 55.912 238.472 56.272 238.776 56.64C239.08 57.008 239.312 57.32 239.472 57.576L237.864 58.848ZM242.976 70.992C242.88 70.432 242.728 69.856 242.52 69.264C242.328 68.672 242.072 68.136 241.752 67.656C244.888 67.432 247.496 66.808 249.576 65.784C248.584 65.384 247.624 65.032 246.696 64.728C245.768 64.408 244.92 64.16 244.152 63.984C244.392 63.632 244.672 63.2 244.992 62.688C245.312 62.16 245.64 61.6 245.976 61.008H241.104V57.936H247.656C248.024 57.232 248.36 56.56 248.664 55.92C248.984 55.28 249.24 54.72 249.432 54.24H245.328V56.664H241.656V51.24H249.912V48.696H253.944V51.24H262.296V56.64H258.696V54.24H250.464L253.224 55.032C253.032 55.448 252.808 55.912 252.552 56.424C252.296 56.92 252.032 57.424 251.76 57.936H263.016V61.008H258.312C257.768 62.496 257.08 63.792 256.248 64.896C257.272 65.36 258.272 65.848 259.248 66.36C260.24 66.856 261.152 67.36 261.984 67.872C261.568 68.24 261.152 68.712 260.736 69.288C260.32 69.864 259.976 70.432 259.704 70.992C258.824 70.416 257.856 69.832 256.8 69.24C255.744 68.664 254.656 68.104 253.536 67.56C252.224 68.488 250.696 69.216 248.952 69.744C247.208 70.272 245.216 70.688 242.976 70.992ZM252.744 63.432C253.064 63.064 253.352 62.68 253.608 62.28C253.88 61.88 254.112 61.456 254.304 61.008H250.104C249.96 61.264 249.824 61.504 249.696 61.728C249.584 61.952 249.488 62.128 249.408 62.256C249.888 62.4 250.408 62.576 250.968 62.784C251.528 62.976 252.12 63.192 252.744 63.432ZM274.152 66.768C273.224 67.264 272.384 67.464 271.632 67.368C270.88 67.256 270.232 66.808 269.688 66.024C269.16 65.256 268.672 64.336 268.224 63.264C267.792 62.192 267.416 61.048 267.096 59.832C266.776 58.616 266.536 57.4 266.376 56.184C266.216 54.952 266.144 53.808 266.16 52.752L269.784 52.776C269.736 53.512 269.76 54.344 269.856 55.272C269.952 56.184 270.096 57.104 270.288 58.032C270.496 58.96 270.736 59.816 271.008 60.6C271.28 61.384 271.56 62.016 271.848 62.496C272.264 63.104 272.76 63.224 273.336 62.856C273.704 62.616 274.096 62.288 274.512 61.872C274.928 61.456 275.288 61.032 275.592 60.6C275.688 60.888 275.84 61.224 276.048 61.608C276.272 61.992 276.512 62.36 276.768 62.712C277.04 63.064 277.28 63.352 277.488 63.576C276.992 64.312 276.464 64.944 275.904 65.472C275.344 66 274.76 66.432 274.152 66.768ZM282.816 62.136C282.656 61.656 282.4 61.064 282.048 60.36C281.712 59.64 281.32 58.904 280.872 58.152C280.424 57.384 279.976 56.68 279.528 56.04C279.08 55.4 278.664 54.92 278.28 54.6L281.088 52.776C281.52 53.176 281.992 53.72 282.504 54.408C283.032 55.08 283.544 55.808 284.04 56.592C284.536 57.376 284.976 58.144 285.36 58.896C285.744 59.632 286.016 60.264 286.176 60.792C285.568 60.904 284.96 61.088 284.352 61.344C283.744 61.6 283.232 61.864 282.816 62.136ZM292.968 70.56C292.312 70.56 291.704 70.392 291.144 70.056C290.584 69.736 290.136 69.296 289.8 68.736C289.48 68.176 289.32 67.552 289.32 66.864C289.32 66.192 289.48 65.584 289.8 65.04C290.136 64.48 290.576 64.04 291.12 63.72C291.68 63.384 292.296 63.216 292.968 63.216C293.656 63.216 294.272 63.384 294.816 63.72C295.376 64.04 295.816 64.48 296.136 65.04C296.472 65.584 296.64 66.192 296.64 66.864C296.64 67.552 296.472 68.176 296.136 68.736C295.816 69.296 295.376 69.736 294.816 70.056C294.256 70.392 293.64 70.56 292.968 70.56ZM292.968 69C293.56 69 294.056 68.792 294.456 68.376C294.872 67.944 295.08 67.448 295.08 66.888C295.08 66.312 294.88 65.816 294.48 65.4C294.08 64.968 293.576 64.752 292.968 64.752C292.376 64.752 291.872 64.96 291.456 65.376C291.056 65.792 290.856 66.296 290.856 66.888C290.856 67.464 291.056 67.96 291.456 68.376C291.872 68.792 292.376 69 292.968 69Z" fill="#3D3D3D"/>
</svg>
