<svg width="366" height="67" viewBox="0 0 366 67" fill="none" xmlns="http://www.w3.org/2000/svg">
<mask id="mask0_2014_367" style="mask-type:luminance" maskUnits="userSpaceOnUse" x="0" y="23" width="205" height="10">
<path d="M0 32.9873H205V23.0003H0V32.9873Z" fill="white"/>
</mask>
<g mask="url(#mask0_2014_367)">
<path fill-rule="evenodd" clip-rule="evenodd" d="M12.5207 26.5816C8.61817 26.4793 4.7156 26.3741 0.815496 26.2651L0.0493164 30.4286C65.6145 32.2569 130.456 33.0974 196.172 32.9043L196.09 28.8785C199.031 28.8747 201.972 28.8699 204.916 28.8632L204.854 24.6892C154.43 24.7991 103.862 24.5113 53.4619 23.709C40.1526 23.4967 27.0139 23.709 13.8035 22.9899L12.5207 26.5816Z" fill="#F7DD44"/>
</g>
<path d="M5.764 30.1021V5.1261H17.3V14.4501H15.788C16.0493 14.8234 16.3293 15.2714 16.628 15.7941C16.9453 16.2981 17.1973 16.7461 17.384 17.1381H18.728C18.9333 16.7834 19.148 16.3448 19.372 15.8221C19.6147 15.2994 19.8013 14.8421 19.932 14.4501H18.7V5.1261H30.32V26.9661C30.32 28.0674 30.0213 28.8608 29.424 29.3461C28.8453 29.8501 27.912 30.1021 26.624 30.1021H24.496C24.4773 29.7474 24.4307 29.3368 24.356 28.8701C24.2813 28.4034 24.188 27.9648 24.076 27.5541C23.8333 27.8714 23.6093 28.1981 23.404 28.5341C23.1987 28.8701 23.0307 29.1874 22.9 29.4861C21.9667 29.0941 21.0707 28.5341 20.212 27.8061C19.372 27.0594 18.6533 26.2288 18.056 25.3141C17.4773 26.2848 16.7213 27.1341 15.788 27.8621C14.8733 28.5714 13.772 29.1408 12.484 29.5701C12.2787 29.1221 11.98 28.6088 11.588 28.0301C11.2147 27.4514 10.8413 26.9568 10.468 26.5461C11.588 26.2288 12.5027 25.8368 13.212 25.3701C13.9213 24.9034 14.4813 24.3341 14.892 23.6621H10.58V20.8901H15.788C15.8253 20.7221 15.844 20.5634 15.844 20.4141C15.8627 20.2461 15.8813 20.0781 15.9 19.9101H11.196V17.1381H13.8C13.6133 16.8208 13.4173 16.5128 13.212 16.2141C13.0253 15.9154 12.8573 15.6728 12.708 15.4861L15.032 14.4501H9.656V30.1021H5.764ZM24.496 26.2101H25.364C26.0733 26.2101 26.428 25.9301 26.428 25.3701V14.4501H20.8L23.152 15.2061C23.0773 15.4488 22.956 15.7474 22.788 16.1021C22.6387 16.4381 22.4893 16.7834 22.34 17.1381H24.748V19.9101H19.68C19.6613 20.0594 19.6427 20.2181 19.624 20.3861C19.6053 20.5541 19.5867 20.7221 19.568 20.8901H25.42V23.6621H20.912C21.36 24.1848 21.8827 24.6608 22.48 25.0901C23.0773 25.5194 23.7493 25.8928 24.496 26.2101ZM22.452 11.8181H26.428V10.8381H22.452V11.8181ZM22.452 8.7381H26.428V7.7581H22.452V8.7381ZM9.656 11.8181H13.548V10.8381H9.656V11.8181ZM9.656 8.7381H13.548V7.7581H9.656V8.7381ZM44.012 30.2421V23.9421C43.228 24.8008 42.3227 25.6314 41.296 26.4341C40.288 27.2181 39.2427 27.9181 38.16 28.5341C37.096 29.1688 36.0693 29.6821 35.08 30.0741C34.9307 29.7381 34.716 29.3648 34.436 28.9541C34.156 28.5434 33.848 28.1608 33.512 27.8061C33.1947 27.4328 32.8867 27.1248 32.588 26.8821C34.044 26.3408 35.5093 25.6221 36.984 24.7261C38.4773 23.8301 39.784 22.8688 40.904 21.8421H36.284V11.2021H44.012V10.0541H33.624V6.8901H44.012V4.4821H47.988V6.8901H58.292V10.0541H47.988V11.2021H55.772V21.8421H51.18C52.3 22.8688 53.5973 23.8301 55.072 24.7261C56.5653 25.6221 58.04 26.3408 59.496 26.8821C59.1973 27.1248 58.88 27.4328 58.544 27.8061C58.2267 28.1608 57.928 28.5434 57.648 28.9541C57.3867 29.3648 57.172 29.7381 57.004 30.0741C56.0147 29.6821 54.9693 29.1688 53.868 28.5341C52.7853 27.8994 51.7307 27.1808 50.704 26.3781C49.6773 25.5568 48.772 24.7168 47.988 23.8581V30.2421H44.012ZM47.988 18.9861H51.824V17.7541H47.988V18.9861ZM47.988 15.3181H51.824V14.0861H47.988V15.3181ZM40.26 18.9861H44.012V17.7541H40.26V18.9861ZM40.26 15.3181H44.012V14.0861H40.26V15.3181ZM65.04 28.0581V12.7141L61.764 14.8981L60 12.0421L65.824 8.4301H68.372V28.0581H65.04ZM78.9844 28.3381C78.2004 28.3381 77.4258 28.2168 76.6604 27.9741C75.9138 27.7128 75.2418 27.2554 74.6444 26.6021C74.0658 25.9301 73.6084 24.9781 73.2724 23.7461C72.9364 22.4954 72.7871 20.8901 72.8244 18.9301C72.8804 15.1968 73.4778 12.4714 74.6164 10.7541C75.7738 9.0181 77.4164 8.1501 79.5444 8.1501C80.5338 8.1501 81.4951 8.4301 82.4284 8.9901C83.3618 9.53144 84.0898 10.2128 84.6124 11.0341L82.1204 12.9381C81.8031 12.4154 81.4298 12.0048 81.0004 11.7061C80.5711 11.4074 80.0858 11.2581 79.5444 11.2581C78.4618 11.2581 77.6218 11.7341 77.0244 12.6861C76.4271 13.6381 76.1004 15.2248 76.0444 17.4461C76.3618 17.0728 76.7911 16.7741 77.3324 16.5501C77.8738 16.3261 78.4058 16.2141 78.9284 16.2141C79.9924 16.2141 80.9444 16.4568 81.7844 16.9421C82.6244 17.4274 83.2778 18.1088 83.7444 18.9861C84.2298 19.8448 84.4724 20.8714 84.4724 22.0661C84.4724 23.2794 84.2484 24.3621 83.8004 25.3141C83.3524 26.2474 82.7178 26.9848 81.8964 27.5261C81.0751 28.0674 80.1044 28.3381 78.9844 28.3381ZM78.7604 25.1461C79.4698 25.1461 80.0298 24.8754 80.4404 24.3341C80.8698 23.7928 81.0844 23.0368 81.0844 22.0661C81.0844 21.1888 80.8791 20.4981 80.4684 19.9941C80.0578 19.4714 79.5164 19.2101 78.8444 19.2101C78.0604 19.2101 77.4538 19.4621 77.0244 19.9661C76.6138 20.4701 76.4178 21.1514 76.4364 22.0101C76.4551 23.0181 76.6604 23.7928 77.0524 24.3341C77.4631 24.8754 78.0324 25.1461 78.7604 25.1461ZM89.7664 30.1581C89.4304 29.9714 89.0291 29.7848 88.5624 29.5981C88.0957 29.4114 87.6384 29.2434 87.1904 29.0941C86.7611 28.9448 86.3971 28.8421 86.0984 28.7861C86.8637 27.4048 87.4237 25.7901 87.7784 23.9421C88.1331 22.0941 88.3104 19.9381 88.3104 17.4741V7.4221H97.8584V4.4821H102.282V7.4221H112.082V11.1181H103.094V13.4701H111.102V16.9141H103.094V19.4061H109.898V30.1301H93.6304V19.4061H98.6704V11.1181H92.3424V17.5301C92.3424 20.3674 92.1184 22.8314 91.6704 24.9221C91.2224 27.0128 90.5877 28.7581 89.7664 30.1581ZM97.6624 26.6861H105.866V22.8781H97.6624V26.6861ZM126.418 30.1301V12.2381H131.234V10.9781H125.886V10.3901C125.644 10.6514 125.41 10.9221 125.186 11.2021C124.962 11.4634 124.776 11.6968 124.626 11.9021C124.309 11.6594 123.936 11.3421 123.506 10.9501C123.077 10.5394 122.648 10.1008 122.218 9.6341C121.808 9.16744 121.434 8.7101 121.098 8.2621C120.594 9.0461 120.072 9.78344 119.53 10.4741H122.442V13.2181H124.99V16.1861H122.442V17.3061H125.774V20.3581H114.602V17.3061H118.942V16.1861H115.974V13.3021C115.638 12.9848 115.237 12.6581 114.77 12.3221C114.322 11.9861 113.93 11.7341 113.594 11.5661C114.136 11.1928 114.686 10.7074 115.246 10.1101C115.806 9.4941 116.348 8.84077 116.87 8.1501C117.393 7.44077 117.85 6.74077 118.242 6.05011C118.634 5.35944 118.933 4.74344 119.138 4.2021L122.498 4.9581C122.872 5.4621 123.366 6.01277 123.982 6.6101C124.617 7.20744 125.252 7.74877 125.886 8.23411V7.6461H131.234V4.3981H134.79V7.6461H136.974C136.657 7.3661 136.321 7.09544 135.966 6.83411C135.63 6.57277 135.332 6.37677 135.07 6.2461L137.086 4.2021C137.366 4.35144 137.702 4.58477 138.094 4.9021C138.505 5.20077 138.906 5.5181 139.298 5.8541C139.69 6.17144 139.98 6.4421 140.166 6.6661C140.036 6.7781 139.868 6.92744 139.662 7.1141C139.476 7.2821 139.289 7.45944 139.102 7.6461H140.53V10.9781H134.79V12.2381H139.718V27.4421C139.718 28.3754 139.457 29.0474 138.934 29.4581C138.412 29.8874 137.6 30.1021 136.498 30.1021H135.49C135.472 29.8034 135.425 29.4208 135.35 28.9541C135.276 28.5061 135.192 28.0488 135.098 27.5821C135.005 27.1154 134.902 26.7514 134.79 26.4901V29.6541H131.234V24.0261H129.918V30.1301H126.418ZM116.058 30.0741V21.2541H125.242V30.0741H116.058ZM119.558 26.9381H121.742V24.3621H119.558V26.9381ZM134.79 26.4061H135.434C135.752 26.4061 135.966 26.3594 136.078 26.2661C136.19 26.1541 136.246 25.9488 136.246 25.6501V24.0261H134.79V26.4061ZM134.79 21.1141H136.246V19.7141H134.79V21.1141ZM134.79 16.8021H136.246V15.4301H134.79V16.8021ZM129.918 21.1141H131.234V19.7141H129.918V21.1141ZM129.918 16.8021H131.234V15.4301H129.918V16.8021ZM117.094 13.2181H118.942V11.2021C118.625 11.5941 118.308 11.9674 117.99 12.3221C117.692 12.6581 117.393 12.9568 117.094 13.2181ZM166.122 30.4661C164.872 29.9994 163.658 29.4021 162.482 28.6741C161.306 27.9648 160.205 27.0968 159.178 26.0701V28.4781C158.898 28.5714 158.441 28.6741 157.806 28.7861C157.172 28.8981 156.434 29.0194 155.594 29.1501C154.773 29.2808 153.914 29.4114 153.018 29.5421C152.122 29.6728 151.264 29.8034 150.442 29.9341C149.64 30.0648 148.94 30.1768 148.342 30.2701L147.53 26.7701C147.848 26.7328 148.305 26.6861 148.902 26.6301C149.5 26.5554 150.172 26.4714 150.918 26.3781V21.5621H147.978C147.736 23.2608 147.362 24.8474 146.858 26.3221C146.373 27.7968 145.804 28.9541 145.15 29.7941C144.87 29.5888 144.525 29.3648 144.114 29.1221C143.704 28.8794 143.284 28.6554 142.854 28.4501C142.444 28.2448 142.07 28.0861 141.734 27.9741C142.574 26.6488 143.218 25.0434 143.666 23.1581C144.114 21.2541 144.338 18.9208 144.338 16.1581V5.2101H166.682V12.6301H162.678V13.9181H166.766V16.8861H162.678V18.2301H167.998V21.5621H166.43L167.438 22.4861C167.084 22.8408 166.608 23.2794 166.01 23.8021C165.413 24.3248 164.816 24.8101 164.218 25.2581C164.872 25.6501 165.544 26.0048 166.234 26.3221C166.925 26.6394 167.634 26.9288 168.362 27.1901C167.914 27.6194 167.485 28.1421 167.074 28.7581C166.682 29.3928 166.365 29.9621 166.122 30.4661ZM148.398 9.6061H162.678V8.1501H148.398V9.6061ZM148.342 18.2301H151.954V16.8861H149.126V13.9181H151.954V12.6301H148.398V16.1581C148.398 16.4941 148.398 16.8394 148.398 17.1941C148.398 17.5301 148.38 17.8754 148.342 18.2301ZM154.866 25.8181C155.538 25.7248 156.182 25.6221 156.798 25.5101C157.414 25.3981 157.946 25.2954 158.394 25.2021C157.928 24.6608 157.489 24.0914 157.078 23.4941C156.668 22.8968 156.285 22.2528 155.93 21.5621H154.866V25.8181ZM155.762 18.2301H158.842V16.8861H155.762V18.2301ZM155.762 13.9181H158.842V12.6301H155.762V13.9181ZM161.418 23.1021C161.717 22.8781 162.025 22.6354 162.342 22.3741C162.66 22.1128 162.968 21.8421 163.266 21.5621H160.046C160.252 21.8234 160.466 22.0848 160.69 22.3461C160.933 22.6074 161.176 22.8594 161.418 23.1021ZM190.062 30.1021C190.044 29.7288 189.988 29.2901 189.894 28.7861C189.82 28.2821 189.717 27.7968 189.586 27.3301C189.474 26.8448 189.353 26.4714 189.222 26.2101H190.958C191.649 26.2101 191.994 25.9301 191.994 25.3701V14.7861H184.266V5.1261H195.886V26.9661C195.886 28.0674 195.588 28.8608 194.99 29.3461C194.412 29.8501 193.478 30.1021 192.19 30.1021H190.062ZM171.33 30.1021V5.1261H182.866V14.7861H175.222V30.1021H171.33ZM177.742 30.0181C177.518 29.6821 177.164 29.2714 176.678 28.7861C176.193 28.3194 175.726 27.9554 175.278 27.6941C176.436 27.1528 177.313 26.5834 177.91 25.9861C178.526 25.3888 178.946 24.6048 179.17 23.6341H176.118V20.4981H179.422V18.8461H176.846V15.9341H190.51V18.8461H188.018V20.4981H191.21V23.6341H188.018V29.4301H184.462V23.6341H182.698C182.418 25.2768 181.868 26.5741 181.046 27.5261C180.225 28.4781 179.124 29.3088 177.742 30.0181ZM188.018 8.90611H191.994V7.8421H188.018V8.90611ZM175.222 8.90611H179.114V7.8421H175.222V8.90611ZM188.018 12.0701H191.994V11.0341H188.018V12.0701ZM175.222 12.0701H179.114V11.0341H175.222V12.0701ZM182.894 20.4981H184.462V18.8461H182.894V20.4981Z" fill="#0191FF"/>
<path d="M215.11 29.2821C213.366 29.0741 211.83 28.5781 210.502 27.7941C209.19 26.9941 208.166 25.9461 207.43 24.6501C206.694 23.3541 206.326 21.8661 206.326 20.1861C206.326 19.0661 206.566 17.9701 207.046 16.8981C207.542 15.8101 208.238 14.8101 209.134 13.8981C207.902 14.1061 206.694 14.3221 205.51 14.5461C204.342 14.7541 203.286 14.9541 202.342 15.1461C201.414 15.3381 200.678 15.5141 200.134 15.6741L199.366 11.8581C199.878 11.8421 200.606 11.7861 201.55 11.6901C202.51 11.5941 203.598 11.4661 204.814 11.3061C206.03 11.1301 207.286 10.9461 208.582 10.7541C209.894 10.5461 211.158 10.3381 212.374 10.1301C213.59 9.9061 214.678 9.6901 215.638 9.4821C216.598 9.2741 217.342 9.0901 217.87 8.9301L218.83 12.5061C218.558 12.5221 218.222 12.5621 217.822 12.6261C217.438 12.6741 217.006 12.7301 216.526 12.7941C215.71 12.8901 214.91 13.1381 214.126 13.5381C213.342 13.9221 212.63 14.4421 211.99 15.0981C211.366 15.7381 210.87 16.4901 210.502 17.3541C210.134 18.2021 209.95 19.1461 209.95 20.1861C209.95 21.3701 210.254 22.3381 210.862 23.0901C211.47 23.8421 212.31 24.4261 213.382 24.8421C214.454 25.2581 215.678 25.5461 217.054 25.7061C216.766 26.0101 216.478 26.3861 216.19 26.8341C215.918 27.2821 215.686 27.7221 215.494 28.1541C215.302 28.6021 215.174 28.9781 215.11 29.2821ZM217.126 19.7781C216.822 19.2661 216.438 18.7461 215.974 18.2181C215.526 17.6901 215.118 17.2501 214.75 16.8981L216.286 15.6501C216.51 15.8421 216.782 16.1141 217.102 16.4661C217.422 16.8181 217.734 17.1781 218.038 17.5461C218.342 17.9141 218.582 18.2261 218.758 18.4821L217.126 19.7781ZM219.43 17.9061C219.126 17.4101 218.742 16.8981 218.278 16.3701C217.814 15.8261 217.398 15.3861 217.03 15.0501L218.59 13.8021C218.814 13.9941 219.086 14.2661 219.406 14.6181C219.726 14.9701 220.038 15.3301 220.342 15.6981C220.646 16.0661 220.878 16.3781 221.038 16.6341L219.43 17.9061ZM227.302 29.5701C226.966 29.0261 226.55 28.4661 226.054 27.8901C225.574 27.2981 225.054 26.7381 224.494 26.2101C223.95 25.6661 223.414 25.2181 222.886 24.8661L225.118 22.8501C225.486 23.0901 225.886 23.3941 226.318 23.7621C226.766 24.1301 227.214 24.5301 227.662 24.9621C228.126 25.3781 228.55 25.7861 228.934 26.1861C229.318 26.5861 229.63 26.9381 229.87 27.2421L227.302 29.5701ZM258.502 29.6181C257.478 29.6181 256.75 29.4661 256.318 29.1621C255.902 28.8581 255.694 28.3541 255.694 27.6501V19.9701L253.846 20.6421L252.646 17.6421L255.694 16.5141V9.6501H259.102V15.2661L260.182 14.8581V7.9221H263.446V13.6581L266.614 12.4821L268.006 13.0341V21.3861C268.006 22.2981 267.702 22.9461 267.094 23.3301C266.502 23.7141 265.558 24.0181 264.262 24.2421C264.198 23.6821 264.078 23.1461 263.902 22.6341C263.742 22.1061 263.59 21.6821 263.446 21.3621V25.2021H260.182V18.2901L259.102 18.6981V25.9221C259.102 26.1301 259.15 26.2821 259.246 26.3781C259.358 26.4581 259.582 26.4981 259.918 26.4981H264.19C264.75 26.4981 265.118 26.3141 265.294 25.9461C265.486 25.5781 265.622 24.9461 265.702 24.0501C265.942 24.1621 266.254 24.2901 266.638 24.4341C267.038 24.5781 267.446 24.7141 267.862 24.8421C268.294 24.9701 268.678 25.0741 269.014 25.1541C268.822 26.3701 268.59 27.3061 268.318 27.9621C268.062 28.6021 267.702 29.0341 267.238 29.2581C266.774 29.4981 266.126 29.6181 265.294 29.6181H258.502ZM246.982 27.6981L246.166 24.1941C246.55 24.1301 246.958 24.0501 247.39 23.9541C247.838 23.8421 248.302 23.7221 248.782 23.5941V16.8501H246.406V13.7541H248.782V8.42611H252.19V13.7541H254.518V16.8501H252.19V22.4901C252.654 22.3301 253.094 22.1701 253.51 22.0101C253.926 21.8501 254.294 21.6981 254.614 21.5541V24.7221C254.23 24.9301 253.718 25.1781 253.078 25.4661C252.454 25.7381 251.766 26.0181 251.014 26.3061C250.278 26.5781 249.55 26.8421 248.83 27.0981C248.126 27.3381 247.51 27.5381 246.982 27.6981ZM263.446 21.0021H264.046C264.286 21.0021 264.462 20.9621 264.574 20.8821C264.702 20.7861 264.766 20.6181 264.766 20.3781V16.5861L263.446 17.0661V21.0021ZM281.758 30.3141C281.55 29.9141 281.27 29.4741 280.918 28.9941C280.566 28.5301 280.214 28.1301 279.862 27.7941C281.366 27.1861 282.686 26.4341 283.822 25.5381C283.278 25.7301 282.606 25.9541 281.806 26.2101C281.022 26.4661 280.222 26.7141 279.406 26.9541C278.606 27.1941 277.878 27.3941 277.222 27.5541L276.574 25.1541C275.71 25.5221 274.774 25.9061 273.766 26.3061C272.758 26.6901 271.878 27.0021 271.126 27.2421L270.238 23.9061C270.606 23.8261 270.99 23.7301 271.39 23.6181C271.806 23.5061 272.238 23.3861 272.686 23.2581V16.9221H270.478V13.9941H272.686V9.1701H275.902V13.9941H277.774V16.9221H275.902V22.2261C276.27 22.0981 276.614 21.9781 276.934 21.8661C277.27 21.7381 277.566 21.6181 277.822 21.5061V24.1461C278.558 23.9861 279.342 23.8101 280.174 23.6181C281.022 23.4101 281.83 23.2101 282.598 23.0181C283.366 22.8101 284.006 22.6341 284.518 22.4901V24.9381C284.742 24.7141 284.958 24.4901 285.166 24.2661C285.39 24.0421 285.598 23.8101 285.79 23.5701C285.486 22.4341 285.254 21.1141 285.094 19.6101C284.934 18.0901 284.814 16.3301 284.734 14.3301H277.99V11.6181H284.686C284.67 11.0421 284.662 10.4501 284.662 9.8421C284.662 9.2181 284.662 8.5861 284.662 7.9461H287.83C287.814 8.5861 287.798 9.2181 287.782 9.8421C287.782 10.4501 287.782 11.0421 287.782 11.6181H289.63C289.374 11.2341 289.086 10.8421 288.766 10.4421C288.446 10.0261 288.15 9.6901 287.878 9.4341L289.99 7.8021C290.214 7.9941 290.47 8.2501 290.758 8.5701C291.062 8.8901 291.35 9.2101 291.622 9.53011C291.91 9.8501 292.134 10.1141 292.294 10.3221C292.038 10.4821 291.758 10.6821 291.454 10.9221C291.166 11.1621 290.894 11.3941 290.638 11.6181H292.51V14.3301H287.806C287.838 15.3381 287.878 16.2821 287.926 17.1621C287.974 18.0421 288.046 18.8581 288.142 19.6101C288.59 18.5221 288.942 17.3781 289.198 16.1781L292.246 17.0901C291.846 18.4021 291.398 19.6341 290.902 20.7861C290.406 21.9221 289.838 22.9861 289.198 23.9781C289.486 24.6661 289.838 25.2821 290.254 25.8261C290.51 25.0261 290.678 24.3221 290.758 23.7141C291.078 23.9221 291.518 24.1701 292.078 24.4581C292.654 24.7301 293.158 24.9621 293.59 25.1541C293.446 25.7301 293.262 26.3861 293.038 27.1221C292.83 27.8421 292.614 28.4421 292.39 28.9221C292.038 29.7061 291.518 30.1141 290.83 30.1461C290.158 30.1781 289.51 29.8741 288.886 29.2341C288.518 28.8501 288.174 28.4501 287.854 28.0341C287.55 27.6181 287.27 27.1781 287.014 26.7141C286.278 27.4501 285.478 28.1141 284.614 28.7061C283.75 29.3141 282.798 29.8501 281.758 30.3141ZM278.086 22.1541V15.6021H284.47V22.1541H278.086ZM280.678 19.7301H281.926V18.0021H280.678V19.7301ZM295.726 23.8581C295.598 23.3621 295.398 22.8501 295.126 22.3221C294.854 21.7941 294.606 21.3541 294.382 21.0021C296.83 20.6501 299.03 20.0741 300.982 19.2741V14.8101H303.67C303.382 14.5541 303.094 14.3141 302.806 14.0901C302.518 13.8501 302.246 13.6501 301.99 13.4901L302.974 12.5781H298.462V14.4981L300.814 16.1781C300.542 16.6261 300.182 17.1141 299.734 17.6421C299.286 18.1541 298.79 18.6501 298.246 19.1301C297.702 19.6101 297.158 20.0341 296.614 20.4021C296.342 20.0341 295.998 19.6581 295.582 19.2741C295.166 18.8741 294.75 18.5461 294.334 18.2901C294.814 18.0181 295.35 17.6181 295.942 17.0901C296.55 16.5461 297.07 16.0101 297.502 15.4821H294.982V9.8421H303.574V7.8501H307.366V9.8421H316.102V15.3381H313.606C314.166 15.8021 314.758 16.3621 315.382 17.0181C316.022 17.6741 316.542 18.2661 316.942 18.7941C316.542 19.0661 316.118 19.3781 315.67 19.7301C315.238 20.0661 314.846 20.4341 314.494 20.8341C314.254 20.4661 313.91 20.0341 313.462 19.5381C313.014 19.0261 312.542 18.5301 312.046 18.0501C311.566 17.5541 311.126 17.1621 310.726 16.8741L312.646 15.2181V12.5781H305.662C305.982 12.8341 306.294 13.1061 306.598 13.3941C306.902 13.6661 307.158 13.9301 307.366 14.1861C307.19 14.3301 306.958 14.5381 306.67 14.8101C306.398 15.0661 306.126 15.3301 305.854 15.6021C305.582 15.8741 305.358 16.1221 305.182 16.3461C305.07 16.2021 304.926 16.0421 304.75 15.8661C304.574 15.6901 304.382 15.4981 304.174 15.2901V17.6421C305.23 16.9701 306.174 16.2181 307.006 15.3861C307.854 14.5541 308.598 13.6501 309.238 12.6741L312.046 14.2821C311.262 15.4501 310.39 16.4901 309.43 17.4021C308.47 18.2981 307.446 19.0981 306.358 19.8021H308.11C308.542 19.8021 308.854 19.6741 309.046 19.4181C309.238 19.1461 309.366 18.6181 309.43 17.8341C309.67 17.9621 309.966 18.0981 310.318 18.2421C310.686 18.3861 311.062 18.5221 311.446 18.6501C311.83 18.7621 312.174 18.8581 312.478 18.9381C312.302 19.9941 312.086 20.7941 311.83 21.3381C311.59 21.8821 311.246 22.2501 310.798 22.4421C310.366 22.6341 309.758 22.7301 308.974 22.7301H303.742C302.606 22.7301 301.846 22.5701 301.462 22.2501C300.518 22.6021 299.558 22.9061 298.582 23.1621C297.622 23.4181 296.67 23.6501 295.726 23.8581ZM296.83 29.7621V23.8821H300.334V26.8581H303.814V23.0421H307.294V26.8581H310.702V23.4501H314.182V29.7621H296.83ZM324.166 29.9061V23.3301C322.95 24.6421 321.574 25.7781 320.038 26.7381C319.782 26.3061 319.422 25.8421 318.958 25.3461C318.51 24.8341 318.062 24.4261 317.614 24.1221C318.446 23.7221 319.23 23.2261 319.966 22.6341C320.702 22.0421 321.366 21.4101 321.958 20.7381C322.566 20.0661 323.086 19.4181 323.518 18.7941H318.622V16.1781H327.766V15.4821H321.406V13.2021H327.766V12.5061H319.174V9.8901H324.55C324.406 9.57011 324.254 9.2581 324.094 8.9541C323.95 8.6501 323.814 8.3941 323.686 8.1861L326.902 7.4421C327.126 7.7461 327.35 8.1221 327.574 8.5701C327.798 9.0021 328.006 9.4421 328.198 9.8901H331.03C331.206 9.5221 331.39 9.1061 331.582 8.64211C331.79 8.1621 331.934 7.7701 332.014 7.4661L335.614 8.0661C335.518 8.3221 335.406 8.6101 335.278 8.9301C335.15 9.2501 335.022 9.57011 334.894 9.8901H339.91V12.5061H331.342V13.2021H337.798V15.4821H331.342V16.1781H340.606V18.7941H327.43C327.366 18.9061 327.302 19.0261 327.238 19.1541C327.174 19.2661 327.102 19.3861 327.022 19.5141H337.822V29.9061H324.166ZM327.742 27.7461H334.246V27.0261H327.742V27.7461ZM327.742 25.0821H334.246V24.3621H327.742V25.0821ZM327.742 22.3941H334.246V21.6741H327.742V22.3941ZM359.11 29.2821C357.366 29.0741 355.83 28.5781 354.502 27.7941C353.19 26.9941 352.166 25.9461 351.43 24.6501C350.694 23.3541 350.326 21.8661 350.326 20.1861C350.326 19.0661 350.566 17.9701 351.046 16.8981C351.542 15.8101 352.238 14.8101 353.134 13.8981C351.902 14.1061 350.694 14.3221 349.51 14.5461C348.342 14.7541 347.286 14.9541 346.342 15.1461C345.414 15.3381 344.678 15.5141 344.134 15.6741L343.366 11.8581C343.878 11.8421 344.606 11.7861 345.55 11.6901C346.51 11.5941 347.598 11.4661 348.814 11.3061C350.03 11.1301 351.286 10.9461 352.582 10.7541C353.894 10.5461 355.158 10.3381 356.374 10.1301C357.59 9.9061 358.678 9.6901 359.638 9.4821C360.598 9.2741 361.342 9.0901 361.87 8.9301L362.83 12.5061C362.558 12.5221 362.222 12.5621 361.822 12.6261C361.438 12.6741 361.006 12.7301 360.526 12.7941C359.71 12.8901 358.91 13.1381 358.126 13.5381C357.342 13.9221 356.63 14.4421 355.99 15.0981C355.366 15.7381 354.87 16.4901 354.502 17.3541C354.134 18.2021 353.95 19.1461 353.95 20.1861C353.95 21.3701 354.254 22.3381 354.862 23.0901C355.47 23.8421 356.31 24.4261 357.382 24.8421C358.454 25.2581 359.678 25.5461 361.054 25.7061C360.766 26.0101 360.478 26.3861 360.19 26.8341C359.918 27.2821 359.686 27.7221 359.494 28.1541C359.302 28.6021 359.174 28.9781 359.11 29.2821ZM361.126 19.7781C360.822 19.2661 360.438 18.7461 359.974 18.2181C359.526 17.6901 359.118 17.2501 358.75 16.8981L360.286 15.6501C360.51 15.8421 360.782 16.1141 361.102 16.4661C361.422 16.8181 361.734 17.1781 362.038 17.5461C362.342 17.9141 362.582 18.2261 362.758 18.4821L361.126 19.7781ZM363.43 17.9061C363.126 17.4101 362.742 16.8981 362.278 16.3701C361.814 15.8261 361.398 15.3861 361.03 15.0501L362.59 13.8021C362.814 13.9941 363.086 14.2661 363.406 14.6181C363.726 14.9701 364.038 15.3301 364.342 15.6981C364.646 16.0661 364.878 16.3781 365.038 16.6341L363.43 17.9061ZM8.944 61.7861C8.928 61.4821 8.872 61.0821 8.776 60.5861C8.696 60.0901 8.608 59.6501 8.512 59.2661C8.112 60.2421 7.656 61.0421 7.144 61.6661C6.744 61.3141 6.256 60.9861 5.68 60.6821C5.12 60.3941 4.608 60.1941 4.144 60.0821C4.864 59.2181 5.424 58.2661 5.824 57.2261C6.24 56.1861 6.536 54.9861 6.712 53.6261C6.888 52.2501 6.976 50.6661 6.976 48.8741V46.6421H5.08V43.6421H8.224V39.8261H11.608V43.6421H14.2V45.0101C14.792 44.1141 15.312 43.1781 15.76 42.2021C16.208 41.2101 16.512 40.3701 16.672 39.6821L19.864 40.5461C19.752 40.8821 19.632 41.2261 19.504 41.5781C19.392 41.9141 19.256 42.2501 19.096 42.5861H26.896V45.4181H17.68C17.28 46.1061 16.88 46.7381 16.48 47.3141H18.376V49.4021L19.264 49.1621V46.1141H22.192V48.2981L25.24 47.4101L26.248 47.7941V54.1061C26.248 54.9701 25.976 55.5861 25.432 55.9541C24.888 56.3061 23.992 56.5941 22.744 56.8181C22.712 56.4181 22.64 56.0181 22.528 55.6181C22.432 55.2181 22.32 54.8661 22.192 54.5621V57.4181H19.264V52.3541L18.376 52.5941V58.0661C18.376 58.2741 18.424 58.4181 18.52 58.4981C18.632 58.5621 18.84 58.5941 19.144 58.5941H23.104C23.616 58.5941 23.96 58.4661 24.136 58.2101C24.312 57.9381 24.432 57.3861 24.496 56.5541C24.72 56.6661 25.024 56.7941 25.408 56.9381C25.792 57.0661 26.192 57.1941 26.608 57.3221C27.024 57.4341 27.376 57.5221 27.664 57.5861C27.472 58.7061 27.232 59.5541 26.944 60.1301C26.672 60.7221 26.304 61.1221 25.84 61.3301C25.376 61.5381 24.76 61.6421 23.992 61.6421H17.896C16.952 61.6421 16.28 61.4981 15.88 61.2101C15.496 60.9221 15.304 60.4501 15.304 59.7941V53.5061L14.104 53.8661C14.072 54.9381 14.016 55.9621 13.936 56.9381C13.856 57.8981 13.744 58.6421 13.6 59.1701C13.344 60.1461 12.928 60.8261 12.352 61.2101C11.776 61.5941 10.936 61.7861 9.832 61.7861H8.944ZM8.704 58.7621H9.4C9.8 58.7621 10.08 58.6821 10.24 58.5221C10.4 58.3621 10.512 58.0821 10.576 57.6821C10.656 57.3461 10.72 56.9061 10.768 56.3621C10.832 55.8021 10.88 55.2261 10.912 54.6341C10.944 54.0261 10.968 53.4661 10.984 52.9541C11.016 52.4261 11.032 52.0181 11.032 51.7301H10.216C10.104 52.8661 9.928 54.0581 9.688 55.3061C9.448 56.5381 9.12 57.6901 8.704 58.7621ZM14.152 50.6501L15.304 50.3141V48.8021C15.24 48.8661 15.176 48.9381 15.112 49.0181C15.064 49.0821 15.008 49.1461 14.944 49.2101C14.544 48.8421 14.096 48.5061 13.6 48.2021C13.12 47.8821 12.656 47.6181 12.208 47.4101C12.448 47.1861 12.704 46.9301 12.976 46.6421H10.384V48.7061H14.176C14.176 48.9621 14.176 49.2581 14.176 49.5941C14.176 49.9141 14.168 50.2661 14.152 50.6501ZM22.192 53.7221H22.552C22.792 53.7221 22.968 53.6821 23.08 53.6021C23.192 53.5221 23.248 53.3621 23.248 53.1221V51.1781L22.192 51.4901V53.7221ZM29.128 60.2021V56.8181H38.056V45.5621H30.736V42.1541H49.264V45.5621H41.92V56.8181H50.896V60.2021H29.128ZM60.976 62.0501C60.912 61.8101 60.792 61.5141 60.616 61.1621C60.456 60.8101 60.264 60.4501 60.04 60.0821C59.832 59.7301 59.616 59.4421 59.392 59.2181C60.208 59.0901 61.056 58.8821 61.936 58.5941C62.816 58.2901 63.656 57.9301 64.456 57.5141C64.28 57.3221 64.104 57.1221 63.928 56.9141C63.768 56.6901 63.608 56.4661 63.448 56.2421C63.128 56.5941 62.792 56.9301 62.44 57.2501C62.104 57.5541 61.768 57.8341 61.432 58.0901C61.128 57.7541 60.728 57.4021 60.232 57.0341C59.752 56.6661 59.328 56.3941 58.96 56.2181V61.7381H55.528V53.1461C55.336 53.2741 55.144 53.4021 54.952 53.5301C54.776 53.6581 54.584 53.7861 54.376 53.9141C54.248 53.6421 54.048 53.3301 53.776 52.9781C53.52 52.6261 53.232 52.2821 52.912 51.9461C52.592 51.5941 52.296 51.3221 52.024 51.1301C52.552 50.8421 53.144 50.4581 53.8 49.9781C54.456 49.4821 55.112 48.9381 55.768 48.3461C56.44 47.7381 57.048 47.1301 57.592 46.5221C58.152 45.8981 58.6 45.3141 58.936 44.7701L61.744 46.8101C61.552 47.0981 61.352 47.3861 61.144 47.6741C60.936 47.9621 60.72 48.2421 60.496 48.5141C60.88 48.4981 61.32 48.4821 61.816 48.4661C62.312 48.4341 62.832 48.4101 63.376 48.3941C63.504 48.2661 63.648 48.1141 63.808 47.9381C63.984 47.7621 64.176 47.5701 64.384 47.3621C63.984 46.9781 63.528 46.5861 63.016 46.1861C62.504 45.7701 61.984 45.3781 61.456 45.0101C60.944 44.6421 60.48 44.3541 60.064 44.1461L62.008 41.7701C62.232 41.8981 62.456 42.0341 62.68 42.1781C62.904 42.3221 63.128 42.4741 63.352 42.6341C63.768 42.1221 64.168 41.5701 64.552 40.9781C64.952 40.3861 65.232 39.9061 65.392 39.5381L68.128 41.0501C67.872 41.4821 67.504 42.0101 67.024 42.6341C66.56 43.2421 66.104 43.8021 65.656 44.3141C65.8 44.4261 65.936 44.5381 66.064 44.6501C66.208 44.7621 66.344 44.8661 66.472 44.9621C66.952 44.3861 67.416 43.8181 67.864 43.2581C68.312 42.6821 68.712 42.1461 69.064 41.6501C69.432 41.1541 69.712 40.7461 69.904 40.4261L72.688 42.0581C72.368 42.5541 71.92 43.1541 71.344 43.8581C70.784 44.5621 70.176 45.2901 69.52 46.0421C68.864 46.7781 68.224 47.4661 67.6 48.1061C67.968 48.0741 68.328 48.0421 68.68 48.0101C69.032 47.9781 69.376 47.9461 69.712 47.9141C69.6 47.8181 69.496 47.7301 69.4 47.6501C69.304 47.5541 69.208 47.4741 69.112 47.4101L71.296 45.4661C71.808 45.8181 72.336 46.2501 72.88 46.7621C73.424 47.2741 73.936 47.7941 74.416 48.3221C74.912 48.8501 75.304 49.3301 75.592 49.7621C75.368 49.9061 75.088 50.1061 74.752 50.3621C74.432 50.6181 74.112 50.8821 73.792 51.1541C73.488 51.4101 73.24 51.6421 73.048 51.8501C72.904 51.6421 72.744 51.4181 72.568 51.1781C72.392 50.9381 72.2 50.6901 71.992 50.4341C71.352 50.5301 70.6 50.6341 69.736 50.7461C68.888 50.8421 68.016 50.9301 67.12 51.0101C67.056 51.1541 66.976 51.2981 66.88 51.4421C66.8 51.5861 66.72 51.7301 66.64 51.8741H71.584L73.336 53.5061C72.36 55.0901 71.232 56.4501 69.952 57.5861C70.8 57.9701 71.68 58.2741 72.592 58.4981C73.52 58.7221 74.44 58.8581 75.352 58.9061C74.952 59.3221 74.6 59.8261 74.296 60.4181C74.008 61.0101 73.784 61.5381 73.624 62.0021C72.456 61.8261 71.32 61.5381 70.216 61.1381C69.112 60.7541 68.072 60.2661 67.096 59.6741C65.32 60.7301 63.28 61.5221 60.976 62.0501ZM54.736 46.9781C54.48 46.5621 54.12 46.1141 53.656 45.6341C53.208 45.1381 52.768 44.7541 52.336 44.4821C52.8 44.2581 53.312 43.9541 53.872 43.5701C54.432 43.1701 54.992 42.7381 55.552 42.2741C56.112 41.8101 56.616 41.3541 57.064 40.9061C57.528 40.4581 57.88 40.0741 58.12 39.7541L60.76 41.8181C60.376 42.2661 59.928 42.7381 59.416 43.2341C58.904 43.7141 58.368 44.1941 57.808 44.6741C57.248 45.1541 56.696 45.5941 56.152 45.9941C55.624 46.3941 55.152 46.7221 54.736 46.9781ZM58.96 56.1221C59.456 55.7861 59.952 55.3541 60.448 54.8261C60.96 54.2981 61.456 53.7381 61.936 53.1461C62.416 52.5381 62.848 51.9461 63.232 51.3701C62.64 51.4021 62.096 51.4341 61.6 51.4661C61.12 51.4981 60.736 51.5221 60.448 51.5381L59.968 49.1141C59.808 49.2901 59.64 49.4741 59.464 49.6661C59.304 49.8581 59.136 50.0421 58.96 50.2181V56.1221ZM67.096 55.8581C67.688 55.4101 68.176 54.9301 68.56 54.4181H65.656C66.088 54.9461 66.568 55.4261 67.096 55.8581ZM89.968 60.5861C89.904 60.2661 89.76 59.8981 89.536 59.4821C89.328 59.0501 89.08 58.6261 88.792 58.2101C88.52 57.7941 88.24 57.4661 87.952 57.2261C90.208 56.8741 91.88 56.1861 92.968 55.1621C94.056 54.1381 94.632 52.9061 94.696 51.4661C94.76 50.3781 94.568 49.4101 94.12 48.5621C93.672 47.7141 93.064 47.0261 92.296 46.4981C91.544 45.9541 90.72 45.6101 89.824 45.4661C89.696 46.8901 89.456 48.3621 89.104 49.8821C88.768 51.3861 88.296 52.8181 87.688 54.1781C87.08 55.5221 86.328 56.6741 85.432 57.6341C84.68 58.4501 83.968 58.9141 83.296 59.0261C82.624 59.1221 81.912 59.0181 81.16 58.7141C80.424 58.4101 79.784 57.9301 79.24 57.2741C78.696 56.6021 78.28 55.8181 77.992 54.9221C77.72 54.0101 77.608 53.0501 77.656 52.0421C77.736 50.5381 78.088 49.1621 78.712 47.9141C79.352 46.6661 80.2 45.6021 81.256 44.7221C82.312 43.8261 83.52 43.1541 84.88 42.7061C86.256 42.2421 87.72 42.0501 89.272 42.1301C90.568 42.1941 91.776 42.4821 92.896 42.9941C94.016 43.4901 94.992 44.1701 95.824 45.0341C96.672 45.8981 97.32 46.8981 97.768 48.0341C98.216 49.1701 98.4 50.4021 98.32 51.7301C98.208 54.0501 97.408 55.9701 95.92 57.4901C94.432 58.9941 92.448 60.0261 89.968 60.5861ZM82.984 55.0421C83.528 54.5301 84.024 53.7861 84.472 52.8101C84.936 51.8181 85.328 50.7061 85.648 49.4741C85.968 48.2261 86.184 46.9621 86.296 45.6821C85.304 45.9701 84.424 46.4341 83.656 47.0741C82.904 47.6981 82.312 48.4501 81.88 49.3301C81.448 50.2101 81.2 51.1781 81.136 52.2341C81.104 52.8581 81.168 53.4021 81.328 53.8661C81.504 54.3301 81.752 54.7141 82.072 55.0181C82.376 55.3221 82.68 55.3301 82.984 55.0421ZM106.672 61.3781C106.496 61.1061 106.256 60.7941 105.952 60.4421C105.648 60.1061 105.328 59.7781 104.992 59.4581C104.656 59.1381 104.336 58.8901 104.032 58.7141C105.536 57.9141 106.72 56.9301 107.584 55.7621C108.464 54.5781 109.08 53.2421 109.432 51.7541C109.784 50.2501 109.928 48.6421 109.864 46.9301H113.56C113.56 47.3621 113.544 47.7861 113.512 48.2021C113.496 48.6021 113.472 49.0021 113.44 49.4021C114.016 48.9381 114.648 48.3541 115.336 47.6501C116.024 46.9301 116.664 46.1941 117.256 45.4421C116.344 45.4741 115.336 45.5141 114.232 45.5621C113.128 45.5941 112 45.6341 110.848 45.6821C109.696 45.7301 108.592 45.7781 107.536 45.8261C106.48 45.8741 105.536 45.9221 104.704 45.9701C103.888 46.0021 103.264 46.0341 102.832 46.0661L102.664 42.3701C103.224 42.4021 103.968 42.4261 104.896 42.4421C105.824 42.4581 106.848 42.4661 107.968 42.4661C109.104 42.4501 110.264 42.4341 111.448 42.4181C112.648 42.3861 113.808 42.3461 114.928 42.2981C116.048 42.2501 117.064 42.1941 117.976 42.1301C118.888 42.0661 119.608 41.9941 120.136 41.9141L122.488 43.7381C122.12 44.4101 121.672 45.1221 121.144 45.8741C120.632 46.6261 120.08 47.3701 119.488 48.1061C118.896 48.8421 118.304 49.5301 117.712 50.1701C117.136 50.8101 116.592 51.3461 116.08 51.7781C115.904 51.5701 115.664 51.3301 115.36 51.0581C115.056 50.7701 114.728 50.4901 114.376 50.2181C114.04 49.9461 113.728 49.7301 113.44 49.5701C113.184 52.2261 112.504 54.5221 111.4 56.4581C110.296 58.3941 108.72 60.0341 106.672 61.3781ZM130.432 60.2501C130.304 59.9781 130.112 59.6421 129.856 59.2421C129.616 58.8261 129.344 58.4181 129.04 58.0181C128.736 57.6021 128.44 57.2661 128.152 57.0101C131.144 56.0661 133.624 54.7781 135.592 53.1461C137.56 51.4981 138.992 49.3861 139.888 46.8101C139.104 46.8261 138.232 46.8501 137.272 46.8821C136.328 46.9141 135.368 46.9541 134.392 47.0021C133.416 47.0341 132.488 47.0661 131.608 47.0981C130.728 47.1301 129.96 47.1621 129.304 47.1941C128.664 47.2261 128.208 47.2501 127.936 47.2661L127.696 43.2821C128.32 43.3301 129.12 43.3621 130.096 43.3781C131.072 43.3941 132.12 43.4021 133.24 43.4021C134.376 43.4021 135.504 43.3941 136.624 43.3781C137.744 43.3621 138.776 43.3381 139.72 43.3061C140.68 43.2581 141.456 43.2021 142.048 43.1381L144.448 44.3861C143.904 47.0101 142.984 49.3701 141.688 51.4661C140.408 53.5621 138.816 55.3541 136.912 56.8421C135.008 58.3301 132.848 59.4661 130.432 60.2501ZM153.04 61.5461C152.768 60.9381 152.448 60.3461 152.08 59.7701C151.728 59.1941 151.376 58.7461 151.024 58.4261C152.72 57.8501 154.336 57.0741 155.872 56.0981C157.408 55.1061 158.8 53.9701 160.048 52.6901C159.632 52.4181 159.216 52.1621 158.8 51.9221C158.4 51.6821 158.008 51.4821 157.624 51.3221L159.712 48.6341C160.096 48.7941 160.504 48.9941 160.936 49.2341C161.384 49.4581 161.832 49.7061 162.28 49.9781C162.6 49.5141 162.896 49.0341 163.168 48.5381C163.456 48.0421 163.712 47.5461 163.936 47.0501C163.28 47.0821 162.6 47.1221 161.896 47.1701C161.208 47.2021 160.56 47.2341 159.952 47.2661C159.344 47.2981 158.84 47.3221 158.44 47.3381C157.752 48.3621 156.984 49.3541 156.136 50.3141C155.288 51.2741 154.344 52.1541 153.304 52.9541C152.952 52.5221 152.528 52.0661 152.032 51.5861C151.552 51.1061 151.104 50.7461 150.688 50.5061C151.808 49.6901 152.848 48.7221 153.808 47.6021C154.784 46.4661 155.632 45.2741 156.352 44.0261C157.072 42.7781 157.608 41.5621 157.96 40.3781L161.368 41.4581C161.208 41.9061 161.032 42.3621 160.84 42.8261C160.648 43.2901 160.44 43.7541 160.216 44.2181C160.904 44.1861 161.632 44.1621 162.4 44.1461C163.168 44.1141 163.88 44.0821 164.536 44.0501C165.208 44.0021 165.728 43.9541 166.096 43.9061L168.424 45.1301C167.624 47.7061 166.56 49.9941 165.232 51.9941C165.824 52.4421 166.368 52.8901 166.864 53.3381C167.376 53.7861 167.8 54.2101 168.136 54.6101C167.848 54.8181 167.536 55.0981 167.2 55.4501C166.864 55.7861 166.536 56.1381 166.216 56.5061C165.912 56.8741 165.664 57.2101 165.472 57.5141C165.152 57.1141 164.768 56.6981 164.32 56.2661C163.888 55.8341 163.416 55.3941 162.904 54.9461C161.592 56.3701 160.104 57.6341 158.44 58.7381C156.792 59.8261 154.992 60.7621 153.04 61.5461ZM174.16 52.8581C174.176 52.5701 174.176 52.1941 174.16 51.7301C174.16 51.2661 174.16 50.8021 174.16 50.3381C174.16 49.8741 174.152 49.4981 174.136 49.2101C174.36 49.2261 174.848 49.2501 175.6 49.2821C176.352 49.2981 177.272 49.3141 178.36 49.3301C179.448 49.3301 180.624 49.3381 181.888 49.3541C183.168 49.3541 184.448 49.3541 185.728 49.3541C187.008 49.3541 188.208 49.3541 189.328 49.3541C190.464 49.3381 191.432 49.3221 192.232 49.3061C193.032 49.2741 193.576 49.2421 193.864 49.2101C193.848 49.4661 193.832 49.8341 193.816 50.3141C193.816 50.7781 193.816 51.2421 193.816 51.7061C193.832 52.1701 193.84 52.5381 193.84 52.8101C193.472 52.7941 192.904 52.7781 192.136 52.7621C191.368 52.7301 190.464 52.7061 189.424 52.6901C188.384 52.6741 187.272 52.6661 186.088 52.6661C184.904 52.6661 183.712 52.6661 182.512 52.6661C181.312 52.6661 180.16 52.6741 179.056 52.6901C177.968 52.7061 177 52.7301 176.152 52.7621C175.304 52.7781 174.64 52.8101 174.16 52.8581ZM202.432 60.2501C202.304 59.9781 202.112 59.6421 201.856 59.2421C201.616 58.8261 201.344 58.4181 201.04 58.0181C200.736 57.6021 200.44 57.2661 200.152 57.0101C203.144 56.0661 205.624 54.7781 207.592 53.1461C209.56 51.4981 210.992 49.3861 211.888 46.8101C211.104 46.8261 210.232 46.8501 209.272 46.8821C208.328 46.9141 207.368 46.9541 206.392 47.0021C205.416 47.0341 204.488 47.0661 203.608 47.0981C202.728 47.1301 201.96 47.1621 201.304 47.1941C200.664 47.2261 200.208 47.2501 199.936 47.2661L199.696 43.2821C200.32 43.3301 201.12 43.3621 202.096 43.3781C203.072 43.3941 204.12 43.4021 205.24 43.4021C206.376 43.4021 207.504 43.3941 208.624 43.3781C209.744 43.3621 210.776 43.3381 211.72 43.3061C212.68 43.2581 213.456 43.2021 214.048 43.1381L216.448 44.3861C215.904 47.0101 214.984 49.3701 213.688 51.4661C212.408 53.5621 210.816 55.3541 208.912 56.8421C207.008 58.3301 204.848 59.4661 202.432 60.2501ZM230.824 61.1381C230.76 60.7541 230.664 60.3061 230.536 59.7941C230.408 59.2661 230.24 58.8101 230.032 58.4261C231.056 58.4261 231.728 58.3541 232.048 58.2101C232.384 58.0501 232.552 57.7461 232.552 57.2981C232.552 57.1701 232.544 56.8181 232.528 56.2421C232.512 55.6661 232.488 54.9781 232.456 54.1781C231.576 55.2981 230.536 56.3141 229.336 57.2261C228.152 58.1381 226.928 58.8981 225.664 59.5061C225.488 59.1221 225.24 58.7141 224.92 58.2821C224.6 57.8501 224.28 57.5061 223.96 57.2501C224.712 56.9301 225.488 56.5141 226.288 56.0021C227.104 55.4901 227.888 54.9221 228.64 54.2981C229.408 53.6581 230.08 53.0101 230.656 52.3541C229.808 52.3701 229.008 52.3941 228.256 52.4261C227.52 52.4581 226.888 52.4901 226.36 52.5221C225.848 52.5381 225.496 52.5621 225.304 52.5941L225.184 49.9061C225.536 49.9221 226.072 49.9301 226.792 49.9301C227.528 49.9301 228.376 49.9221 229.336 49.9061C230.312 49.8901 231.304 49.8661 232.312 49.8341L232.168 46.1621H235.048L235.168 49.7381C236.08 49.7061 236.904 49.6741 237.64 49.6421C238.392 49.5941 238.968 49.5541 239.368 49.5221V52.2101C239.144 52.1941 238.648 52.1861 237.88 52.1861C237.128 52.1861 236.248 52.2021 235.24 52.2341C235.272 53.1141 235.296 53.9541 235.312 54.7541C235.344 55.5541 235.368 56.2261 235.384 56.7701C235.416 57.3141 235.432 57.6421 235.432 57.7541C235.48 59.0501 235.12 59.9381 234.352 60.4181C233.584 60.8981 232.408 61.1381 230.824 61.1381ZM248.32 57.8981V44.2661H263.68V57.8981H248.32ZM251.992 54.5381H260.008V47.6501H251.992V54.5381ZM270.16 52.8581C270.176 52.5701 270.176 52.1941 270.16 51.7301C270.16 51.2661 270.16 50.8021 270.16 50.3381C270.16 49.8741 270.152 49.4981 270.136 49.2101C270.36 49.2261 270.848 49.2501 271.6 49.2821C272.352 49.2981 273.272 49.3141 274.36 49.3301C275.448 49.3301 276.624 49.3381 277.888 49.3541C279.168 49.3541 280.448 49.3541 281.728 49.3541C283.008 49.3541 284.208 49.3541 285.328 49.3541C286.464 49.3381 287.432 49.3221 288.232 49.3061C289.032 49.2741 289.576 49.2421 289.864 49.2101C289.848 49.4661 289.832 49.8341 289.816 50.3141C289.816 50.7781 289.816 51.2421 289.816 51.7061C289.832 52.1701 289.84 52.5381 289.84 52.8101C289.472 52.7941 288.904 52.7781 288.136 52.7621C287.368 52.7301 286.464 52.7061 285.424 52.6901C284.384 52.6741 283.272 52.6661 282.088 52.6661C280.904 52.6661 279.712 52.6661 278.512 52.6661C277.312 52.6661 276.16 52.6741 275.056 52.6901C273.968 52.7061 273 52.7301 272.152 52.7621C271.304 52.7781 270.64 52.8101 270.16 52.8581ZM304.36 60.7301C303.032 60.6501 301.952 60.2421 301.12 59.5061C300.288 58.7701 299.88 57.8261 299.896 56.6741C299.912 56.0021 300.128 55.3861 300.544 54.8261C300.976 54.2661 301.568 53.8181 302.32 53.4821C303.088 53.1301 303.984 52.9541 305.008 52.9541C305.2 52.9541 305.384 52.9621 305.56 52.9781C305.736 52.9781 305.912 52.9861 306.088 53.0021C306.072 52.3781 306.048 51.6901 306.016 50.9381C306 50.1701 305.976 49.3621 305.944 48.5141C305 48.5461 304.088 48.5701 303.208 48.5861C302.344 48.5861 301.584 48.5701 300.928 48.5381L300.736 44.9621C301.296 45.0581 302.032 45.1141 302.944 45.1301C303.856 45.1461 304.832 45.1381 305.872 45.1061C305.856 44.4821 305.84 43.8581 305.824 43.2341C305.824 42.5941 305.824 41.9541 305.824 41.3141H309.28C309.264 41.8581 309.248 42.4341 309.232 43.0421C309.216 43.6341 309.216 44.2581 309.232 44.9141C310.128 44.8341 310.944 44.7381 311.68 44.6261C312.432 44.5141 313 44.3941 313.384 44.2661V47.7941C312.936 47.8901 312.352 47.9781 311.632 48.0581C310.928 48.1381 310.152 48.2181 309.304 48.2981C309.336 49.3061 309.368 50.2821 309.4 51.2261C309.448 52.1541 309.488 52.9941 309.52 53.7461C310.432 54.0821 311.296 54.4981 312.112 54.9941C312.928 55.4901 313.712 56.0341 314.464 56.6261C314.224 56.8181 313.968 57.0901 313.696 57.4421C313.424 57.7941 313.176 58.1541 312.952 58.5221C312.728 58.8901 312.56 59.2101 312.448 59.4821C312 59.0661 311.528 58.6821 311.032 58.3301C310.552 57.9621 310.056 57.6261 309.544 57.3221C309.384 58.6021 308.856 59.5141 307.96 60.0581C307.08 60.6021 305.88 60.8261 304.36 60.7301ZM295.144 60.9461C295.032 60.3061 294.936 59.4821 294.856 58.4741C294.792 57.4661 294.744 56.3541 294.712 55.1381C294.696 53.9061 294.696 52.6341 294.712 51.3221C294.728 50.0101 294.768 48.7301 294.832 47.4821C294.896 46.2341 294.984 45.0821 295.096 44.0261C295.208 42.9541 295.336 42.0581 295.48 41.3381L298.816 42.1301C298.64 42.6741 298.488 43.4181 298.36 44.3621C298.232 45.3061 298.128 46.3621 298.048 47.5301C297.984 48.6821 297.944 49.8821 297.928 51.1301C297.912 52.3781 297.92 53.5941 297.952 54.7781C298 55.9461 298.072 57.0181 298.168 57.9941C298.264 58.9541 298.384 59.7381 298.528 60.3461L295.144 60.9461ZM304.624 57.7541C305.184 57.7541 305.576 57.6421 305.8 57.4181C306.04 57.1781 306.16 56.6981 306.16 55.9781C305.936 55.9301 305.704 55.8901 305.464 55.8581C305.24 55.8261 305.016 55.8021 304.792 55.7861C304.344 55.7541 303.952 55.8261 303.616 56.0021C303.28 56.1621 303.104 56.4101 303.088 56.7461C303.072 57.0661 303.208 57.3141 303.496 57.4901C303.8 57.6661 304.176 57.7541 304.624 57.7541ZM318.976 62.0501C318.88 61.4901 318.728 60.9141 318.52 60.3221C318.328 59.7301 318.072 59.1941 317.752 58.7141C320.888 58.4901 323.496 57.8661 325.576 56.8421C324.584 56.4421 323.624 56.0901 322.696 55.7861C321.768 55.4661 320.92 55.2181 320.152 55.0421C320.392 54.6901 320.672 54.2581 320.992 53.7461C321.312 53.2181 321.64 52.6581 321.976 52.0661H317.104V48.9941H323.656C324.024 48.2901 324.36 47.6181 324.664 46.9781C324.984 46.3381 325.24 45.7781 325.432 45.2981H321.328V47.7221H317.656V42.2981H325.912V39.7541H329.944V42.2981H338.296V47.6981H334.696V45.2981H326.464L329.224 46.0901C329.032 46.5061 328.808 46.9701 328.552 47.4821C328.296 47.9781 328.032 48.4821 327.76 48.9941H339.016V52.0661H334.312C333.768 53.5541 333.08 54.8501 332.248 55.9541C333.272 56.4181 334.272 56.9061 335.248 57.4181C336.24 57.9141 337.152 58.4181 337.984 58.9301C337.568 59.2981 337.152 59.7701 336.736 60.3461C336.32 60.9221 335.976 61.4901 335.704 62.0501C334.824 61.4741 333.856 60.8901 332.8 60.2981C331.744 59.7221 330.656 59.1621 329.536 58.6181C328.224 59.5461 326.696 60.2741 324.952 60.8021C323.208 61.3301 321.216 61.7461 318.976 62.0501ZM328.744 54.4901C329.064 54.1221 329.352 53.7381 329.608 53.3381C329.88 52.9381 330.112 52.5141 330.304 52.0661H326.104C325.96 52.3221 325.824 52.5621 325.696 52.7861C325.584 53.0101 325.488 53.1861 325.408 53.3141C325.888 53.4581 326.408 53.6341 326.968 53.8421C327.528 54.0341 328.12 54.2501 328.744 54.4901ZM351.208 61.5461C350.072 61.5461 349.264 61.3701 348.784 61.0181C348.32 60.6821 348.088 60.1221 348.088 59.3381V46.3301H351.808V57.4421C351.808 57.6821 351.864 57.8501 351.976 57.9461C352.104 58.0421 352.344 58.0901 352.696 58.0901H355.12C355.744 58.0901 356.152 57.8901 356.344 57.4901C356.552 57.0741 356.696 56.3621 356.776 55.3541C357.048 55.4981 357.392 55.6501 357.808 55.8101C358.24 55.9701 358.68 56.1221 359.128 56.2661C359.576 56.4101 359.968 56.5221 360.304 56.6021C360.08 57.9461 359.816 58.9781 359.512 59.6981C359.224 60.4021 358.824 60.8821 358.312 61.1381C357.8 61.4101 357.088 61.5461 356.176 61.5461H351.208ZM343.24 56.9861C342.808 56.6661 342.288 56.3541 341.68 56.0501C341.088 55.7301 340.544 55.4901 340.048 55.3301C340.384 54.9301 340.736 54.4181 341.104 53.7941C341.488 53.1541 341.856 52.4821 342.208 51.7781C342.56 51.0581 342.872 50.3541 343.144 49.6661C343.432 48.9781 343.632 48.3781 343.744 47.8661L347.2 49.0421C347.024 49.6501 346.784 50.3221 346.48 51.0581C346.176 51.7941 345.84 52.5381 345.472 53.2901C345.104 54.0261 344.72 54.7221 344.32 55.3781C343.936 56.0181 343.576 56.5541 343.24 56.9861ZM360.688 55.6661C360.032 54.3541 359.272 53.1621 358.408 52.0901C357.544 51.0181 356.592 50.0341 355.552 49.1381L358.12 46.9541C358.792 47.4661 359.48 48.0901 360.184 48.8261C360.888 49.5621 361.552 50.3381 362.176 51.1541C362.8 51.9541 363.32 52.7301 363.736 53.4821C363.416 53.6101 363.048 53.8181 362.632 54.1061C362.232 54.3781 361.856 54.6581 361.504 54.9461C361.152 55.2341 360.88 55.4741 360.688 55.6661ZM354.64 46.1381C354.064 45.6741 353.416 45.2181 352.696 44.7701C351.976 44.3061 351.248 43.8821 350.512 43.4981C349.776 43.0981 349.088 42.7701 348.448 42.5141L350.224 39.6821C350.928 39.9701 351.68 40.3221 352.48 40.7381C353.296 41.1541 354.072 41.5861 354.808 42.0341C355.544 42.4661 356.16 42.8741 356.656 43.2581C356.288 43.6581 355.904 44.1461 355.504 44.7221C355.104 45.2821 354.816 45.7541 354.64 46.1381Z" fill="#3D3D3D"/>
</svg>
