<svg width="328" height="77" viewBox="0 0 328 77" fill="none" xmlns="http://www.w3.org/2000/svg">
<mask id="mask0_2015_368" style="mask-type:luminance" maskUnits="userSpaceOnUse" x="69" y="62" width="259" height="10">
<path d="M69 71.9873H328V62.0003H69V71.9873Z" fill="white"/>
</mask>
<g mask="url(#mask0_2015_368)">
<path fill-rule="evenodd" clip-rule="evenodd" d="M84.8191 65.5816C79.8885 65.4793 74.9579 65.3741 70.0305 65.2651L69.0625 69.4286C151.899 71.2569 233.82 72.0974 316.846 71.9043L316.743 67.8785C320.459 67.8747 324.175 67.8699 327.894 67.8632L327.816 63.6892C264.109 63.7991 200.221 63.5113 136.545 62.709C119.73 62.4967 103.13 62.709 86.4397 61.9899L84.8191 65.5816Z" fill="#F7DD44"/>
</g>
<path d="M3.38546 28.7621C3.14546 28.5861 2.84146 28.4021 2.47346 28.2101C2.10546 28.0341 1.72946 27.8661 1.34546 27.7061C0.961455 27.5461 0.617455 27.4341 0.313455 27.3701C1.06546 26.0741 1.62546 24.5781 1.99346 22.8821C2.36146 21.1861 2.54546 19.1541 2.54546 16.7861V7.4021H22.0575V13.3781H5.95346V14.1701H22.9935V16.6901H19.3935C19.9375 17.1861 20.4815 17.7061 21.0255 18.2501C21.5695 18.7781 22.0575 19.2741 22.4895 19.7381C22.0895 19.9941 21.6575 20.3301 21.1935 20.7461C20.7295 21.1621 20.3455 21.5621 20.0415 21.9461C19.8815 21.7221 19.7055 21.4901 19.5135 21.2501C19.3375 21.0101 19.1375 20.7621 18.9135 20.5061C18.4815 20.5541 17.9695 20.6021 17.3775 20.6501C16.8015 20.6981 16.1855 20.7381 15.5295 20.7701V21.9701H20.4015V24.6101H15.5295V25.8821H22.6815V28.4981H5.42546V25.8821H12.0255V24.6101H6.96146V21.9701H12.0255V21.0101C10.9375 21.0741 9.91346 21.1301 8.95346 21.1781C8.00946 21.2101 7.25746 21.2261 6.69746 21.2261L6.31346 18.5381C6.63346 18.5221 7.02546 18.5141 7.48946 18.5141C7.95346 18.4981 8.46546 18.4821 9.02546 18.4661C9.20146 18.1781 9.37746 17.8741 9.55346 17.5541C9.72946 17.2341 9.88946 16.9461 10.0335 16.6901H5.95346V16.7861C5.95346 19.2981 5.73746 21.5781 5.30546 23.6261C4.87346 25.6741 4.23346 27.3861 3.38546 28.7621ZM5.95346 10.8581H18.6255V9.9221H5.95346V10.8581ZM12.6015 18.3701C13.3055 18.3381 14.0095 18.3141 14.7135 18.2981C15.4175 18.2661 16.0655 18.2341 16.6575 18.2021C16.4655 18.0261 16.2655 17.8661 16.0575 17.7221C15.8655 17.5621 15.6735 17.4021 15.4815 17.2421L16.2015 16.6901H13.6095C13.2575 17.2821 12.9215 17.8421 12.6015 18.3701ZM45.3615 29.0741C44.5135 28.5621 43.7215 27.8981 42.9855 27.0821C42.2495 26.2661 41.6015 25.3621 41.0415 24.3701V26.8421C40.6575 26.9861 40.1375 27.1461 39.4815 27.3221C38.8255 27.4981 38.1135 27.6821 37.3455 27.8741C36.5935 28.0661 35.8735 28.2421 35.1855 28.4021C34.4975 28.5621 33.9215 28.6901 33.4575 28.7861L32.7375 25.3541C32.9775 25.3221 33.2895 25.2821 33.6735 25.2341C34.0735 25.1701 34.5055 25.0981 34.9695 25.0181V20.4101C34.6655 20.6821 34.3695 20.9621 34.0815 21.2501C33.7935 21.5381 33.5615 21.7861 33.3855 21.9941C32.9535 21.5461 32.4575 20.9381 31.8975 20.1701V28.8341H28.5615V21.5381C28.3535 21.9221 28.1375 22.2901 27.9135 22.6421C27.7055 22.9781 27.4975 23.2821 27.2895 23.5541C26.9375 23.2661 26.4975 22.9621 25.9695 22.6421C25.4415 22.3221 24.9535 22.0581 24.5055 21.8501C25.0495 21.2101 25.5775 20.4421 26.0895 19.5461C26.6175 18.6501 27.0815 17.7301 27.4815 16.7861C27.8975 15.8421 28.2015 14.9781 28.3935 14.1941H25.3215V11.1221H28.5615V7.0421H31.8975V11.1221H34.3455V14.1941H31.8975V15.3941C32.1215 15.7141 32.4015 16.0821 32.7375 16.4981C33.0895 16.9141 33.4575 17.3381 33.8415 17.7701C34.2415 18.1861 34.6175 18.5701 34.9695 18.9221V7.4021H45.9855V18.2021H45.3855L47.4255 20.6021C46.9775 20.9541 46.4575 21.3301 45.8655 21.7301C45.2735 22.1301 44.6895 22.5061 44.1135 22.8581C44.6415 23.5941 45.2255 24.2581 45.8655 24.8501C46.5055 25.4421 47.1455 25.9221 47.7855 26.2901C47.3535 26.5461 46.9215 26.9381 46.4895 27.4661C46.0575 28.0101 45.6815 28.5461 45.3615 29.0741ZM38.3295 24.3461C38.7935 24.2501 39.2255 24.1541 39.6255 24.0581C40.0415 23.9461 40.4015 23.8501 40.7055 23.7701C40.2575 22.8741 39.8895 21.9541 39.6015 21.0101C39.3295 20.0501 39.1535 19.1141 39.0735 18.2021H38.3295V24.3461ZM38.3295 15.3221H42.5535V14.0261H38.3295V15.3221ZM38.3295 11.5301H42.5535V10.2581H38.3295V11.5301ZM42.6015 20.1221C43.0495 19.8341 43.4895 19.5221 43.9215 19.1861C44.3535 18.8341 44.7375 18.5061 45.0735 18.2021H42.0735C42.1215 18.5221 42.1935 18.8421 42.2895 19.1621C42.3855 19.4821 42.4895 19.8021 42.6015 20.1221ZM51.6255 27.4181C51.5135 26.7301 51.4175 25.8981 51.3375 24.9221C51.2735 23.9301 51.2255 22.8581 51.1935 21.7061C51.1775 20.5381 51.1775 19.3461 51.1935 18.1301C51.2255 16.8981 51.2735 15.6981 51.3375 14.5301C51.4175 13.3461 51.5135 12.2581 51.6255 11.2661C51.7535 10.2581 51.9055 9.3941 52.0815 8.6741L55.5375 9.3941C55.3455 9.9701 55.1855 10.7221 55.0575 11.6501C54.9295 12.5781 54.8255 13.6021 54.7455 14.7221C54.6655 15.8261 54.6095 16.9701 54.5775 18.1541C54.5615 19.3221 54.5695 20.4581 54.6015 21.5621C54.6335 22.6661 54.6895 23.6741 54.7695 24.5861C54.8655 25.4821 54.9855 26.2021 55.1295 26.7461L51.6255 27.4181ZM62.5455 26.2181C60.9295 26.2181 59.6575 25.9621 58.7295 25.4501C57.8015 24.9381 57.2575 24.1461 57.0975 23.0741C56.9695 22.1781 57.1215 21.1061 57.5535 19.8581L60.6255 20.6021C60.4335 21.0661 60.3695 21.4421 60.4335 21.7301C60.5935 22.3701 61.5215 22.6901 63.2175 22.6901C63.9215 22.6901 64.6575 22.6421 65.4255 22.5461C66.2095 22.4501 66.9695 22.3301 67.7055 22.1861C68.4415 22.0421 69.0975 21.8981 69.6735 21.7541C69.6255 22.0581 69.5775 22.4341 69.5295 22.8821C69.4815 23.3301 69.4495 23.7861 69.4335 24.2501C69.4175 24.7141 69.4175 25.1221 69.4335 25.4741C68.7295 25.6661 67.9615 25.8181 67.1295 25.9301C66.2975 26.0421 65.4815 26.1221 64.6815 26.1701C63.8815 26.2021 63.1695 26.2181 62.5455 26.2181ZM58.4655 14.4821L58.2975 10.8581C58.9215 10.9541 59.6815 11.0101 60.5775 11.0261C61.4895 11.0421 62.4335 11.0341 63.4095 11.0021C64.3855 10.9541 65.3135 10.8741 66.1935 10.7621C67.0735 10.6501 67.8015 10.5141 68.3775 10.3541L68.2335 13.9061C67.5935 14.0341 66.8415 14.1461 65.9775 14.2421C65.1135 14.3221 64.2175 14.3861 63.2895 14.4341C62.3775 14.4821 61.4975 14.5141 60.6495 14.5301C59.8015 14.5301 59.0735 14.5141 58.4655 14.4821ZM75.7695 29.1461C75.4175 28.7781 74.9855 28.4101 74.4735 28.0421C73.9615 27.6901 73.4735 27.4021 73.0095 27.1781C73.5375 26.7461 74.0895 26.2021 74.6655 25.5461C75.2575 24.8741 75.7375 24.2421 76.1055 23.6501C75.9775 22.9461 75.8095 22.3621 75.6015 21.8981H76.6095C76.8975 21.8981 77.0895 21.8581 77.1855 21.7781C77.2975 21.6981 77.3535 21.5381 77.3535 21.2981V21.2021C76.5695 21.2661 75.8415 21.3221 75.1695 21.3701C74.4975 21.4181 73.9695 21.4501 73.5855 21.4661L73.0575 18.9941C73.5215 18.9781 74.1295 18.9541 74.8815 18.9221C75.6495 18.8741 76.4735 18.8181 77.3535 18.7541V18.2981H79.0335C79.1295 18.2181 79.2175 18.1381 79.2975 18.0581C79.3935 17.9781 79.4815 17.8981 79.5615 17.8181H73.3455V15.6821H83.8335L84.4335 16.6181C84.2255 16.8261 83.9535 17.0901 83.6175 17.4101C83.2975 17.7301 82.9535 18.0501 82.5855 18.3701C83.0495 18.3221 83.4735 18.2821 83.8575 18.2501C84.2415 18.2021 84.5615 18.1621 84.8175 18.1301V19.6661C85.0575 19.3461 85.2735 19.0021 85.4655 18.6341C85.6735 18.2661 85.8575 17.8821 86.0175 17.4821C85.6495 17.0501 85.2975 16.6581 84.9615 16.3061C84.6255 15.9381 84.3375 15.6581 84.0975 15.4661L86.1135 13.6181C86.2095 13.6981 86.3135 13.7861 86.4255 13.8821C86.5375 13.9781 86.6495 14.0901 86.7615 14.2181C86.7935 14.0421 86.8095 13.8581 86.8095 13.6661C86.8255 13.4741 86.8415 13.2821 86.8575 13.0901H84.7215V10.3061H86.8815V6.8501H89.8575V10.3061H94.2255C94.0815 11.1541 93.9295 12.0981 93.7695 13.1381C93.6095 14.1781 93.4975 15.2181 93.4335 16.2581C93.3855 17.2981 93.4175 18.2501 93.5295 19.1141C93.6415 18.8741 93.7375 18.6501 93.8175 18.4421C93.9135 18.2181 93.9935 18.0261 94.0575 17.8661C94.2815 18.1061 94.5935 18.4181 94.9935 18.8021C95.4095 19.1861 95.8095 19.4981 96.1935 19.7381C95.6815 21.1301 95.0815 22.2181 94.3935 23.0021C94.0095 23.4501 93.5775 23.6741 93.0975 23.6741C92.6175 23.6741 92.2175 23.4981 91.8975 23.1461C91.5935 22.7781 91.3375 22.2741 91.1295 21.6341C90.9215 20.9781 90.7775 20.2501 90.6975 19.4501C90.3775 19.6581 90.0095 19.9141 89.5935 20.2181C89.1935 20.5221 88.8655 20.8021 88.6095 21.0581C88.5455 20.9301 88.4655 20.7861 88.3695 20.6261C88.2735 20.4661 88.1615 20.3061 88.0335 20.1461C87.5695 20.9781 87.0175 21.7221 86.3775 22.3781C85.7535 23.0341 85.0655 23.6261 84.3135 24.1541C84.1855 23.9461 83.9855 23.7061 83.7135 23.4341C83.4575 23.1461 83.1855 22.8741 82.8975 22.6181C82.6095 22.3621 82.3535 22.1621 82.1295 22.0181C82.8655 21.6021 83.5375 21.0901 84.1455 20.4821C83.6975 20.5461 83.1775 20.6101 82.5855 20.6741C81.9935 20.7381 81.3615 20.8101 80.6895 20.8901V22.4021C80.6895 23.7461 80.0415 24.5301 78.7455 24.7541L79.2015 25.0181C78.7375 25.8181 78.2015 26.5701 77.5935 27.2741C77.0015 27.9941 76.3935 28.6181 75.7695 29.1461ZM74.4975 15.1301V10.8821H83.6175V15.1301H74.4975ZM73.3455 10.3301V8.0501H77.2575V6.8021H80.7615V8.0501H84.5535V10.3301H73.3455ZM92.3535 29.0021C92.1135 28.5861 91.7855 28.0981 91.3695 27.5381C90.9695 26.9941 90.5375 26.4581 90.0735 25.9301C89.6255 25.3861 89.2015 24.9221 88.8015 24.5381L91.1055 22.5701C91.5695 22.9701 92.0495 23.4261 92.5455 23.9381C93.0575 24.4341 93.5375 24.9461 93.9855 25.4741C94.4495 25.9861 94.8335 26.4661 95.1375 26.9141C94.6895 27.1541 94.1935 27.4821 93.6495 27.8981C93.1055 28.3141 92.6735 28.6821 92.3535 29.0021ZM85.7055 28.8581C85.6415 28.3941 85.5455 27.8661 85.4175 27.2741C85.2895 26.6981 85.1535 26.1301 85.0095 25.5701C84.8655 24.9941 84.7215 24.4981 84.5775 24.0821L87.7215 23.2421C87.8815 23.5941 88.0415 24.0581 88.2015 24.6341C88.3775 25.1941 88.5375 25.7861 88.6815 26.4101C88.8415 27.0181 88.9615 27.5621 89.0415 28.0421C88.5935 28.1061 88.0415 28.2101 87.3855 28.3541C86.7295 28.5141 86.1695 28.6821 85.7055 28.8581ZM80.8335 29.0261C80.7855 28.5461 80.7135 28.0181 80.6175 27.4421C80.5375 26.8661 80.4415 26.2981 80.3295 25.7381C80.2335 25.1781 80.1215 24.6901 79.9935 24.2741L83.2095 23.6261C83.3375 23.9781 83.4655 24.4421 83.5935 25.0181C83.7375 25.5781 83.8655 26.1621 83.9775 26.7701C84.0895 27.3781 84.1615 27.9221 84.1935 28.4021C83.7455 28.4341 83.1935 28.5061 82.5375 28.6181C81.8815 28.7301 81.3135 28.8661 80.8335 29.0261ZM90.6255 18.6581C90.5615 17.7621 90.5535 16.8341 90.6015 15.8741C90.6495 14.8981 90.7375 13.9701 90.8655 13.0901H89.8335C89.8015 13.8101 89.7375 14.4981 89.6415 15.1541C89.5455 15.7941 89.4255 16.4101 89.2815 17.0021C89.5535 17.3061 89.8015 17.6021 90.0255 17.8901C90.2495 18.1781 90.4495 18.4341 90.6255 18.6581ZM77.4495 13.3541H80.6655V12.6581H77.4495V13.3541ZM98.7135 28.9541C98.6015 28.6981 98.4175 28.3941 98.1615 28.0421C97.9215 27.6901 97.6575 27.3461 97.3695 27.0101C97.0815 26.6581 96.8175 26.3861 96.5775 26.1941C98.1135 25.5381 99.3375 24.6901 100.249 23.6501C101.177 22.6101 101.745 21.2501 101.953 19.5701H97.8735V16.2581H102.049V13.1861H101.233C100.929 13.7301 100.625 14.2261 100.321 14.6741C100.033 15.1221 99.7535 15.4821 99.4815 15.7541C99.0815 15.4341 98.6095 15.1221 98.0655 14.8181C97.5215 14.5141 96.9935 14.2981 96.4815 14.1701C96.9295 13.6901 97.3615 13.1301 97.7775 12.4901C98.1935 11.8501 98.5695 11.1781 98.9055 10.4741C99.2575 9.7701 99.5455 9.09011 99.7695 8.4341C100.009 7.7621 100.177 7.1701 100.273 6.6581L103.705 7.4981C103.625 7.8501 103.505 8.2341 103.345 8.6501C103.201 9.0661 103.033 9.5061 102.841 9.97011H108.241V13.1861H105.409V16.2581H108.817V19.5701H105.457C105.697 20.0981 106.041 20.6901 106.489 21.3461C106.953 22.0021 107.449 22.6341 107.977 23.2421C108.505 23.8341 108.977 24.3221 109.393 24.7061V9.5621H118.705V26.6021H109.393V25.1141C109.105 25.3221 108.785 25.5621 108.433 25.8341C108.097 26.1061 107.777 26.3861 107.473 26.6741C107.169 26.9461 106.929 27.1941 106.753 27.4181C106.337 26.9541 105.897 26.3941 105.433 25.7381C104.969 25.0821 104.529 24.4101 104.113 23.7221C103.537 24.8741 102.785 25.8901 101.857 26.7701C100.945 27.6501 99.8975 28.3781 98.7135 28.9541ZM112.849 23.3861H115.321V12.8501H112.849V23.3861ZM131.545 27.9461C130.169 27.9461 129.057 27.8101 128.209 27.5381C127.361 27.2661 126.745 26.8101 126.361 26.1701C125.993 25.5301 125.809 24.6581 125.809 23.5541V7.6661L129.649 7.8821C129.617 8.1701 129.585 8.6341 129.553 9.2741C129.521 9.8981 129.497 10.5621 129.481 11.2661C129.465 11.8581 129.449 12.5141 129.433 13.2341C129.433 13.9541 129.433 14.7461 129.433 15.6101V22.8101C129.433 23.4341 129.609 23.8581 129.961 24.0821C130.313 24.2901 130.913 24.3941 131.761 24.3941C133.409 24.3941 134.921 24.1061 136.297 23.5301C137.689 22.9381 138.921 22.1781 139.993 21.2501C140.009 21.6501 140.041 22.1061 140.089 22.6181C140.153 23.1141 140.225 23.5941 140.305 24.0581C140.401 24.5061 140.481 24.8581 140.545 25.1141C139.409 25.9621 138.057 26.6421 136.489 27.1541C134.937 27.6821 133.289 27.9461 131.545 27.9461ZM161.953 28.2821C160.209 28.0741 158.673 27.5781 157.345 26.7941C156.017 25.9941 154.985 24.9461 154.249 23.6501C153.513 22.3541 153.145 20.8661 153.145 19.1861C153.145 18.0661 153.385 16.9701 153.865 15.8981C154.361 14.8101 155.057 13.8101 155.953 12.8981C154.721 13.1061 153.513 13.3221 152.329 13.5461C151.161 13.7541 150.105 13.9541 149.161 14.1461C148.233 14.3381 147.497 14.5141 146.953 14.6741L146.185 10.8581C146.697 10.8421 147.433 10.7861 148.393 10.6901C149.353 10.5941 150.441 10.4661 151.657 10.3061C152.873 10.1301 154.129 9.9461 155.425 9.75411C156.721 9.5461 157.977 9.3381 159.193 9.1301C160.409 8.9061 161.497 8.6901 162.457 8.4821C163.417 8.2741 164.161 8.0901 164.689 7.9301L165.649 11.5061C165.377 11.5221 165.041 11.5621 164.641 11.6261C164.257 11.6741 163.825 11.7301 163.345 11.7941C162.529 11.8901 161.729 12.1381 160.945 12.5381C160.161 12.9221 159.449 13.4421 158.809 14.0981C158.185 14.7381 157.689 15.4901 157.321 16.3541C156.953 17.2021 156.769 18.1461 156.769 19.1861C156.769 20.3701 157.073 21.3381 157.681 22.0901C158.289 22.8421 159.129 23.4261 160.201 23.8421C161.273 24.2581 162.497 24.5461 163.873 24.7061C163.585 25.0101 163.297 25.3861 163.009 25.8341C162.737 26.2821 162.505 26.7221 162.313 27.1541C162.121 27.6021 162.001 27.9781 161.953 28.2821ZM178.393 24.8261C177.465 25.3221 176.625 25.5221 175.873 25.4261C175.121 25.3141 174.473 24.8661 173.929 24.0821C173.401 23.3141 172.913 22.3941 172.465 21.3221C172.033 20.2501 171.657 19.1061 171.337 17.8901C171.017 16.6741 170.777 15.4581 170.617 14.2421C170.457 13.0101 170.385 11.8661 170.401 10.8101L174.025 10.8341C173.977 11.5701 174.001 12.4021 174.097 13.3301C174.193 14.2421 174.337 15.1621 174.529 16.0901C174.737 17.0181 174.977 17.8741 175.249 18.6581C175.521 19.4421 175.801 20.0741 176.089 20.5541C176.505 21.1621 177.001 21.2821 177.577 20.9141C177.945 20.6741 178.337 20.3461 178.753 19.9301C179.169 19.5141 179.529 19.0901 179.833 18.6581C179.929 18.9461 180.081 19.2821 180.289 19.6661C180.513 20.0501 180.753 20.4181 181.009 20.7701C181.281 21.1221 181.521 21.4101 181.729 21.6341C181.233 22.3701 180.705 23.0021 180.145 23.5301C179.585 24.0581 179.001 24.4901 178.393 24.8261ZM187.057 20.1941C186.897 19.7141 186.641 19.1221 186.289 18.4181C185.953 17.6981 185.561 16.9621 185.113 16.2101C184.665 15.4421 184.217 14.7381 183.769 14.0981C183.321 13.4581 182.905 12.9781 182.521 12.6581L185.329 10.8341C185.761 11.2341 186.233 11.7781 186.745 12.4661C187.273 13.1381 187.785 13.8661 188.281 14.6501C188.777 15.4341 189.217 16.2021 189.601 16.9541C189.985 17.6901 190.257 18.3221 190.417 18.8501C189.809 18.9621 189.201 19.1461 188.593 19.4021C187.985 19.6581 187.473 19.9221 187.057 20.1941ZM204.889 28.1621C203.513 28.1621 202.377 27.9781 201.481 27.6101C200.585 27.2421 199.921 26.7461 199.489 26.1221C199.057 25.4981 198.841 24.8021 198.841 24.0341C198.841 23.2821 199.017 22.6421 199.369 22.1141C199.737 21.5701 200.217 21.1541 200.809 20.8661C201.417 20.5781 202.073 20.4341 202.777 20.4341C203.673 20.4341 204.433 20.6101 205.057 20.9621C205.697 21.2981 206.217 21.7541 206.617 22.3301C207.017 22.9061 207.305 23.5381 207.481 24.2261C208.377 23.6021 208.825 22.6581 208.825 21.3941C208.825 20.7861 208.673 20.2341 208.369 19.7381C208.065 19.2261 207.633 18.8181 207.073 18.5141C206.513 18.2101 205.857 18.0581 205.105 18.0581C204.033 18.0581 203.137 18.1781 202.417 18.4181C201.697 18.6421 201.057 19.0021 200.497 19.4981C200.193 19.7541 199.809 20.0821 199.345 20.4821C198.881 20.8661 198.441 21.2261 198.025 21.5621L195.577 18.9701C196.249 18.5861 196.969 18.1061 197.737 17.5301C198.521 16.9381 199.313 16.2821 200.113 15.5621C200.913 14.8421 201.681 14.0981 202.417 13.3301C203.153 12.5461 203.825 11.7701 204.433 11.0021C203.713 11.1461 202.977 11.2901 202.225 11.4341C201.489 11.5621 200.793 11.6661 200.137 11.7461C199.481 11.8261 198.929 11.8821 198.481 11.9141L197.833 8.5541C198.249 8.5861 198.785 8.5861 199.441 8.5541C200.097 8.5221 200.801 8.4741 201.553 8.41011C202.321 8.3301 203.073 8.2421 203.809 8.1461C204.545 8.0341 205.201 7.9221 205.777 7.8101C206.353 7.6821 206.785 7.5541 207.073 7.42611L209.785 9.20211C209.241 10.2261 208.521 11.2901 207.625 12.3941C206.729 13.4981 205.761 14.5701 204.721 15.6101C204.897 15.5461 205.089 15.5061 205.297 15.4901C205.521 15.4581 205.745 15.4421 205.969 15.4421C207.329 15.4421 208.497 15.6901 209.473 16.1861C210.465 16.6821 211.225 17.3781 211.753 18.2741C212.297 19.1701 212.569 20.2101 212.569 21.3941C212.569 22.6421 212.257 23.7781 211.633 24.8021C211.009 25.8261 210.121 26.6421 208.969 27.2501C207.833 27.8581 206.473 28.1621 204.889 28.1621ZM204.097 24.9221H204.385C204.273 24.4421 204.089 24.0501 203.833 23.7461C203.577 23.4421 203.225 23.2901 202.777 23.2901C202.617 23.2901 202.465 23.3381 202.321 23.4341C202.177 23.5141 202.105 23.6661 202.105 23.8901C202.105 24.1461 202.249 24.3701 202.537 24.5621C202.841 24.7381 203.361 24.8581 204.097 24.9221ZM220.273 27.8981C220.081 27.7061 219.801 27.4901 219.433 27.2501C219.065 27.0101 218.681 26.7861 218.281 26.5781C217.897 26.3541 217.561 26.2021 217.273 26.1221C218.265 25.0341 219.201 23.6581 220.081 21.9941C220.961 20.3141 221.721 18.5541 222.361 16.7141C221.593 16.8101 220.849 16.9221 220.129 17.0501C219.425 17.1621 218.825 17.2901 218.329 17.4341C218.313 17.1621 218.265 16.8181 218.185 16.4021C218.121 15.9701 218.041 15.5541 217.945 15.1541C217.865 14.7381 217.777 14.4181 217.681 14.1941C218.033 14.1621 218.505 14.1221 219.097 14.0741C219.689 14.0261 220.345 13.9781 221.065 13.9301C221.801 13.8661 222.537 13.8101 223.273 13.7621C223.545 12.7861 223.761 11.8341 223.921 10.9061C224.097 9.97811 224.217 9.0981 224.281 8.2661L227.785 8.8901C227.593 10.3301 227.265 11.8741 226.801 13.5221C227.057 13.5061 227.281 13.4981 227.473 13.4981C227.681 13.4981 227.865 13.4981 228.025 13.4981C228.697 13.4981 229.297 13.6021 229.825 13.8101C230.369 14.0181 230.801 14.3781 231.121 14.8901C231.457 15.4021 231.657 16.1141 231.721 17.0261C231.801 17.9221 231.713 19.0661 231.457 20.4581C231.201 21.9141 230.921 23.1141 230.617 24.0581C230.313 24.9861 229.953 25.7141 229.537 26.2421C229.137 26.7541 228.657 27.1141 228.097 27.3221C227.537 27.5301 226.873 27.6341 226.105 27.6341C225.145 27.6341 224.305 27.4901 223.585 27.2021C223.601 26.8981 223.601 26.5461 223.585 26.1461C223.585 25.7301 223.569 25.3221 223.537 24.9221C223.505 24.5061 223.449 24.1541 223.369 23.8661C223.737 23.9781 224.145 24.0741 224.593 24.1541C225.041 24.2341 225.425 24.2741 225.745 24.2741C225.985 24.2741 226.201 24.2261 226.393 24.1301C226.601 24.0341 226.801 23.8421 226.993 23.5541C227.185 23.2661 227.377 22.8261 227.569 22.2341C227.761 21.6421 227.953 20.8421 228.145 19.8341C228.353 18.8261 228.433 18.0821 228.385 17.6021C228.353 17.1061 228.225 16.7781 228.001 16.6181C227.777 16.4581 227.481 16.3781 227.113 16.3781C226.953 16.3781 226.769 16.3781 226.561 16.3781C226.353 16.3781 226.129 16.3861 225.889 16.4021C225.393 17.8901 224.825 19.3541 224.185 20.7941C223.561 22.2181 222.913 23.5461 222.241 24.7781C221.569 25.9941 220.913 27.0341 220.273 27.8981ZM237.361 21.8021C237.121 21.3701 236.777 20.8501 236.329 20.2421C235.897 19.6181 235.409 18.9941 234.865 18.3701C234.337 17.7301 233.825 17.1541 233.329 16.6421C232.833 16.1141 232.417 15.7221 232.081 15.4661L234.721 13.2821C235.057 13.5701 235.481 13.9701 235.993 14.4821C236.505 14.9941 237.033 15.5461 237.577 16.1381C238.121 16.7301 238.625 17.3141 239.089 17.8901C239.569 18.4661 239.945 18.9701 240.217 19.4021L237.361 21.8021ZM250.273 28.6661C250.209 28.3461 250.089 27.9621 249.913 27.5141C249.753 27.0821 249.553 26.6501 249.313 26.2181C249.089 25.7701 248.849 25.4021 248.593 25.1141C251.137 25.2261 253.089 24.9701 254.449 24.3461C255.825 23.7221 256.513 22.8261 256.513 21.6581C256.513 21.0661 256.265 20.5861 255.769 20.2181C255.273 19.8501 254.601 19.6661 253.753 19.6661C253.049 19.6661 252.297 19.7621 251.497 19.9541C250.713 20.1461 249.969 20.4821 249.265 20.9621C248.561 21.4261 247.977 22.0661 247.513 22.8821L244.345 21.5141C244.665 20.9381 244.937 20.2341 245.161 19.4021C245.385 18.5541 245.569 17.6741 245.713 16.7621C245.873 15.8501 245.977 14.9861 246.025 14.1701C246.073 13.3541 246.073 12.6821 246.025 12.1541L249.745 12.6101C249.761 13.3781 249.705 14.2341 249.577 15.1781C249.449 16.1221 249.257 17.0661 249.001 18.0101C249.817 17.5141 250.649 17.1381 251.497 16.8821C252.361 16.6101 253.161 16.4741 253.897 16.4741C255.209 16.4741 256.353 16.7061 257.329 17.1701C258.321 17.6181 259.089 18.2421 259.633 19.0421C260.177 19.8261 260.449 20.7221 260.449 21.7301C260.449 22.9781 260.089 24.1141 259.369 25.1381C258.649 26.1621 257.537 26.9861 256.033 27.6101C254.529 28.2501 252.609 28.6021 250.273 28.6661ZM254.233 13.2341C253.673 12.8021 252.985 12.3621 252.169 11.9141C251.369 11.4661 250.545 11.0741 249.697 10.7381C248.865 10.4021 248.129 10.1781 247.489 10.0661L249.265 7.0181C249.697 7.1301 250.217 7.3061 250.825 7.5461C251.433 7.7701 252.065 8.0341 252.721 8.3381C253.377 8.6261 253.993 8.9221 254.569 9.2261C255.145 9.5301 255.625 9.8101 256.009 10.0661L254.233 13.2341ZM274.801 26.8181C273.697 26.8181 272.705 26.7061 271.825 26.4821C270.945 26.2421 270.177 25.8101 269.521 25.1861C268.881 24.5461 268.353 23.6341 267.937 22.4501L271.057 20.6741C271.249 21.4581 271.641 22.0581 272.233 22.4741C272.825 22.8901 273.681 23.0981 274.801 23.0981C275.793 23.0981 276.841 23.0501 277.945 22.9541C279.049 22.8421 280.097 22.6981 281.089 22.5221C282.081 22.3461 282.897 22.1461 283.537 21.9221C283.521 22.2581 283.537 22.6821 283.585 23.1941C283.633 23.6901 283.697 24.1861 283.777 24.6821C283.873 25.1621 283.969 25.5461 284.065 25.8341C283.409 26.0421 282.569 26.2181 281.545 26.3621C280.521 26.5061 279.425 26.6181 278.257 26.6981C277.089 26.7781 275.937 26.8181 274.801 26.8181ZM270.697 12.7541V9.1541C271.177 9.3141 271.785 9.4341 272.521 9.51411C273.257 9.59411 274.049 9.64211 274.897 9.6581C275.761 9.6741 276.617 9.6661 277.465 9.63411C278.313 9.5861 279.097 9.5141 279.817 9.41811C280.553 9.3221 281.153 9.2021 281.617 9.0581V12.6821C281.217 12.7941 280.649 12.8901 279.913 12.9701C279.193 13.0501 278.393 13.1061 277.513 13.1381C276.649 13.1701 275.769 13.1781 274.873 13.1621C273.993 13.1461 273.185 13.1061 272.449 13.0421C271.713 12.9781 271.129 12.8821 270.697 12.7541ZM306.649 28.7621C304.857 28.8421 303.281 28.6501 301.921 28.1861C300.577 27.7381 299.521 27.0421 298.753 26.0981C298.001 25.1541 297.625 23.9941 297.625 22.6181C297.625 21.9141 297.753 21.2661 298.009 20.6741C298.281 20.0661 298.649 19.5061 299.113 18.9941C298.073 19.1861 297.073 19.4021 296.113 19.6421C295.153 19.8661 294.289 20.0981 293.521 20.3381C292.753 20.5781 292.129 20.8181 291.649 21.0581L290.401 17.7461C290.609 17.7141 290.921 17.6581 291.337 17.5781C291.769 17.4981 292.329 17.3941 293.017 17.2661C293.577 17.1541 294.201 16.8661 294.889 16.4021C295.593 15.9381 296.305 15.3781 297.025 14.7221C297.761 14.0661 298.457 13.3861 299.113 12.6821C299.769 11.9621 300.329 11.2981 300.793 10.6901C299.833 10.8981 298.849 11.0981 297.841 11.2901C296.849 11.4661 296.025 11.5701 295.369 11.6021L294.361 8.31411C294.969 8.31411 295.681 8.2821 296.497 8.2181C297.313 8.1541 298.137 8.0661 298.969 7.9541C299.817 7.8421 300.593 7.7141 301.297 7.5701C302.001 7.4101 302.553 7.2341 302.953 7.0421L305.929 8.9381C305.385 10.0101 304.593 11.1701 303.553 12.4181C302.513 13.6661 301.313 14.8341 299.953 15.9221C301.201 15.6821 302.401 15.4581 303.553 15.2501C304.721 15.0261 305.745 14.8341 306.625 14.6741C307.505 14.4981 308.137 14.3701 308.521 14.2901L309.073 17.7221C308.753 17.7221 308.361 17.7381 307.897 17.7701C307.449 17.7861 306.969 17.8181 306.457 17.8661C305.625 17.9461 304.809 18.1621 304.009 18.5141C303.225 18.8501 302.577 19.3461 302.065 20.0021C301.553 20.6421 301.297 21.4661 301.297 22.4741C301.297 23.4981 301.889 24.2341 303.073 24.6821C304.257 25.1141 305.841 25.2501 307.825 25.0901C307.617 25.4261 307.425 25.8181 307.249 26.2661C307.073 26.6981 306.929 27.1381 306.817 27.5861C306.721 28.0341 306.665 28.4261 306.649 28.7621ZM17.7855 68.2821C16.0415 68.0741 14.5055 67.5781 13.1775 66.7941C11.8655 65.9941 10.8415 64.9461 10.1055 63.6501C9.36946 62.3541 9.00146 60.8661 9.00146 59.1861C9.00146 58.0661 9.24146 56.9701 9.72146 55.8981C10.2175 54.8101 10.9135 53.8101 11.8095 52.8981C10.5775 53.1061 9.36946 53.3221 8.18546 53.5461C7.01746 53.7541 5.96146 53.9541 5.01746 54.1461C4.08946 54.3381 3.35346 54.5141 2.80946 54.6741L2.04146 50.8581C2.55346 50.8421 3.28146 50.7861 4.22546 50.6901C5.18546 50.5941 6.27346 50.4661 7.48946 50.3061C8.70546 50.1301 9.96146 49.9461 11.2575 49.7541C12.5695 49.5461 13.8335 49.3381 15.0495 49.1301C16.2655 48.9061 17.3535 48.6901 18.3135 48.4821C19.2735 48.2741 20.0175 48.0901 20.5455 47.9301L21.5055 51.5061C21.2335 51.5221 20.8975 51.5621 20.4975 51.6261C20.1135 51.6741 19.6815 51.7301 19.2015 51.7941C18.3855 51.8901 17.5855 52.1381 16.8015 52.5381C16.0175 52.9221 15.3055 53.4421 14.6655 54.0981C14.0415 54.7381 13.5455 55.4901 13.1775 56.3541C12.8095 57.2021 12.6255 58.1461 12.6255 59.1861C12.6255 60.3701 12.9295 61.3381 13.5375 62.0901C14.1455 62.8421 14.9855 63.4261 16.0575 63.8421C17.1295 64.2581 18.3535 64.5461 19.7295 64.7061C19.4415 65.0101 19.1535 65.3861 18.8655 65.8341C18.5935 66.2821 18.3615 66.7221 18.1695 67.1541C17.9775 67.6021 17.8495 67.9781 17.7855 68.2821ZM19.8015 58.7781C19.4975 58.2661 19.1135 57.7461 18.6495 57.2181C18.2015 56.6901 17.7935 56.2501 17.4255 55.8981L18.9615 54.6501C19.1855 54.8421 19.4575 55.1141 19.7775 55.4661C20.0975 55.8181 20.4095 56.1781 20.7135 56.5461C21.0175 56.9141 21.2575 57.2261 21.4335 57.4821L19.8015 58.7781ZM22.1055 56.9061C21.8015 56.4101 21.4175 55.8981 20.9535 55.3701C20.4895 54.8261 20.0735 54.3861 19.7055 54.0501L21.2655 52.8021C21.4895 52.9941 21.7615 53.2661 22.0815 53.6181C22.4015 53.9701 22.7135 54.3301 23.0175 54.6981C23.3215 55.0661 23.5535 55.3781 23.7135 55.6341L22.1055 56.9061ZM39.7935 68.6421C37.6975 68.7541 35.8895 68.6581 34.3695 68.3541C32.8655 68.0501 31.7055 67.4901 30.8895 66.6741C30.0735 65.8581 29.6655 64.7541 29.6655 63.3621C29.6655 62.3381 29.9935 61.4581 30.6495 60.7221C31.3055 59.9701 32.1935 59.4181 33.3135 59.0661C34.4495 58.7141 35.7215 58.6021 37.1295 58.7301C36.9695 58.4741 36.8095 58.2261 36.6495 57.9861C36.5055 57.7301 36.3535 57.4741 36.1935 57.2181C34.7695 57.4741 33.3615 57.6661 31.9695 57.7941C30.5775 57.9221 29.3535 57.9781 28.2975 57.9621L27.6735 54.8421C28.5695 54.8901 29.6335 54.8661 30.8655 54.7701C32.0975 54.6741 33.3615 54.5221 34.6575 54.3141C34.5455 54.0581 34.4335 53.8101 34.3215 53.5701C34.2095 53.3141 34.0975 53.0581 33.9855 52.8021C33.0575 52.9141 32.1615 53.0101 31.2975 53.0901C30.4495 53.1701 29.6975 53.2101 29.0415 53.2101L28.3935 50.1621C29.7215 50.2101 31.2335 50.1381 32.9295 49.9461C32.7695 49.4821 32.6415 49.0501 32.5455 48.6501C32.4495 48.2341 32.3695 47.8661 32.3055 47.5461L35.7855 47.1141C35.8175 47.4181 35.8735 47.7701 35.9535 48.1701C36.0495 48.5541 36.1695 48.9701 36.3135 49.4181C37.1615 49.2421 37.9695 49.0581 38.7375 48.8661C39.5055 48.6581 40.1615 48.4421 40.7055 48.2181L41.5695 51.2421C41.0415 51.4181 40.4175 51.5941 39.6975 51.7701C38.9775 51.9461 38.2015 52.1141 37.3695 52.2741C37.4655 52.4981 37.5695 52.7301 37.6815 52.9701C37.7935 53.2101 37.9055 53.4421 38.0175 53.6661C39.1055 53.4261 40.1135 53.1621 41.0415 52.8741C41.9855 52.5861 42.7535 52.2901 43.3455 51.9861L44.4735 54.9141C43.8655 55.2181 43.1375 55.5061 42.2895 55.7781C41.4575 56.0501 40.5615 56.2981 39.6015 56.5221C40.1135 57.3061 40.6415 58.0341 41.1855 58.7061C41.7295 59.3781 42.2895 59.9461 42.8655 60.4101L40.6095 62.6901C39.7935 62.1461 38.9535 61.7861 38.0895 61.6101C37.2415 61.4341 36.4575 61.4021 35.7375 61.5141C35.0175 61.6101 34.4335 61.8101 33.9855 62.1141C33.5535 62.4021 33.3375 62.7461 33.3375 63.1461C33.3375 63.8021 33.6575 64.2901 34.2975 64.6101C34.9535 64.9301 35.8575 65.1221 37.0095 65.1861C38.1615 65.2501 39.4815 65.2261 40.9695 65.1141C40.7775 65.4181 40.5935 65.7941 40.4175 66.2421C40.2415 66.6741 40.0975 67.1061 39.9855 67.5381C39.8735 67.9701 39.8095 68.3381 39.7935 68.6421ZM60.8895 68.1621C59.5135 68.1621 58.3775 67.9781 57.4815 67.6101C56.5855 67.2421 55.9215 66.7461 55.4895 66.1221C55.0575 65.4981 54.8415 64.8021 54.8415 64.0341C54.8415 63.2821 55.0175 62.6421 55.3695 62.1141C55.7375 61.5701 56.2175 61.1541 56.8095 60.8661C57.4175 60.5781 58.0735 60.4341 58.7775 60.4341C59.6735 60.4341 60.4335 60.6101 61.0575 60.9621C61.6975 61.2981 62.2175 61.7541 62.6175 62.3301C63.0175 62.9061 63.3055 63.5381 63.4815 64.2261C64.3775 63.6021 64.8255 62.6581 64.8255 61.3941C64.8255 60.7861 64.6735 60.2341 64.3695 59.7381C64.0655 59.2261 63.6335 58.8181 63.0735 58.5141C62.5135 58.2101 61.8575 58.0581 61.1055 58.0581C60.0335 58.0581 59.1375 58.1781 58.4175 58.4181C57.6975 58.6421 57.0575 59.0021 56.4975 59.4981C56.1935 59.7541 55.8095 60.0821 55.3455 60.4821C54.8815 60.8661 54.4415 61.2261 54.0255 61.5621L51.5775 58.9701C52.2495 58.5861 52.9695 58.1061 53.7375 57.5301C54.5215 56.9381 55.3135 56.2821 56.1135 55.5621C56.9135 54.8421 57.6815 54.0981 58.4175 53.3301C59.1535 52.5461 59.8255 51.7701 60.4335 51.0021C59.7135 51.1461 58.9775 51.2901 58.2255 51.4341C57.4895 51.5621 56.7935 51.6661 56.1375 51.7461C55.4815 51.8261 54.9295 51.8821 54.4815 51.9141L53.8335 48.5541C54.2495 48.5861 54.7855 48.5861 55.4415 48.5541C56.0975 48.5221 56.8015 48.4741 57.5535 48.4101C58.3215 48.3301 59.0735 48.2421 59.8095 48.1461C60.5455 48.0341 61.2015 47.9221 61.7775 47.8101C62.3535 47.6821 62.7855 47.5541 63.0735 47.4261L65.7855 49.2021C65.2415 50.2261 64.5215 51.2901 63.6255 52.3941C62.7295 53.4981 61.7615 54.5701 60.7215 55.6101C60.8975 55.5461 61.0895 55.5061 61.2975 55.4901C61.5215 55.4581 61.7455 55.4421 61.9695 55.4421C63.3295 55.4421 64.4975 55.6901 65.4735 56.1861C66.4655 56.6821 67.2255 57.3781 67.7535 58.2741C68.2975 59.1701 68.5695 60.2101 68.5695 61.3941C68.5695 62.6421 68.2575 63.7781 67.6335 64.8021C67.0095 65.8261 66.1215 66.6421 64.9695 67.2501C63.8335 67.8581 62.4735 68.1621 60.8895 68.1621ZM60.0975 64.9221H60.3855C60.2735 64.4421 60.0895 64.0501 59.8335 63.7461C59.5775 63.4421 59.2255 63.2901 58.7775 63.2901C58.6175 63.2901 58.4655 63.3381 58.3215 63.4341C58.1775 63.5141 58.1055 63.6661 58.1055 63.8901C58.1055 64.1461 58.2495 64.3701 58.5375 64.5621C58.8415 64.7381 59.3615 64.8581 60.0975 64.9221Z" fill="#3D3D3D"/>
<path d="M84.3375 69.4661V64.3981C83.5161 65.1261 82.6015 65.8074 81.5935 66.4421C80.5855 67.0768 79.5588 67.6461 78.5135 68.1501C77.4868 68.6541 76.5068 69.0648 75.5735 69.3821C75.3868 68.9341 75.0975 68.3928 74.7055 67.7581C74.3135 67.1234 73.9215 66.6101 73.5295 66.2181C74.3321 65.9568 75.2001 65.6301 76.1335 65.2381C77.0668 64.8274 78.0001 64.3701 78.9335 63.8661C79.8668 63.3434 80.7255 62.8021 81.5095 62.2421H73.5855V59.1621H84.3375V58.3221H76.6375V55.4101H84.3375V54.6261H75.2655V51.6021H79.9415C79.8481 51.3594 79.7548 51.1261 79.6615 50.9021C79.5681 50.6594 79.4748 50.4541 79.3815 50.2861H73.5855V47.1781H76.9175C76.7681 46.7674 76.6001 46.3381 76.4135 45.8901C76.2455 45.4421 76.0868 45.0874 75.9375 44.8261L79.3255 43.3421C79.4748 43.6034 79.6428 43.9581 79.8295 44.4061C80.0348 44.8354 80.2215 45.2741 80.3895 45.7221C80.5761 46.1514 80.7161 46.4968 80.8095 46.7581L79.7455 47.1781H81.7055V43.5381H85.4295V47.1781H86.8015V43.5381H90.5255V47.1781H92.9615L91.1975 46.6181C91.3281 46.3754 91.4868 46.0394 91.6735 45.6101C91.8788 45.1621 92.0748 44.7234 92.2615 44.2941C92.4481 43.8461 92.5695 43.5101 92.6255 43.2861L96.4055 44.3221C96.2375 44.6768 96.0041 45.1434 95.7055 45.7221C95.4255 46.3008 95.1828 46.7861 94.9775 47.1781H98.8975V50.2861H93.0175C92.9241 50.4541 92.8308 50.6594 92.7375 50.9021C92.6441 51.1261 92.5508 51.3594 92.4575 51.6021H96.8535V54.6261H88.1735V55.4101H95.6775V58.3221H88.1735V59.1621H98.8975V62.2421H90.9735C91.7575 62.8021 92.6161 63.3434 93.5495 63.8661C94.4828 64.3701 95.4161 64.8274 96.3495 65.2381C97.2828 65.6301 98.1508 65.9568 98.9535 66.2181C98.5615 66.6101 98.1695 67.1234 97.7775 67.7581C97.4041 68.3928 97.1148 68.9341 96.9095 69.3821C95.9948 69.0648 95.0148 68.6541 93.9695 68.1501C92.9428 67.6461 91.9255 67.0861 90.9175 66.4701C89.9281 65.8354 89.0135 65.1541 88.1735 64.4261V69.4661H84.3375ZM84.2255 51.6021H88.1735C88.2481 51.4154 88.3321 51.2101 88.4255 50.9861C88.5188 50.7621 88.6121 50.5288 88.7055 50.2861H83.6935C83.7868 50.5288 83.8801 50.7621 83.9735 50.9861C84.0668 51.2101 84.1508 51.4154 84.2255 51.6021ZM105.225 69.4941C104.983 69.0648 104.609 68.5234 104.105 67.8701C103.62 67.2354 103.135 66.7128 102.649 66.3021C104.572 65.7608 106.084 64.9674 107.185 63.9221C108.305 62.8768 108.931 61.5048 109.061 59.8061C107.232 61.1314 105.179 62.2328 102.901 63.1101C102.771 62.7741 102.575 62.3914 102.313 61.9621C102.052 61.5328 101.772 61.1221 101.473 60.7301C101.193 60.3381 100.923 60.0208 100.661 59.7781C102.267 59.3488 103.797 58.7048 105.253 57.8461C106.709 56.9874 107.951 56.0728 108.977 55.1021H103.797V44.0981H124.657V55.1021H119.085C119.925 55.8674 120.859 56.5581 121.885 57.1741C122.912 57.7714 123.939 58.2754 124.965 58.6861C126.011 59.0781 126.953 59.3488 127.793 59.4981C127.345 59.9088 126.879 60.4688 126.393 61.1781C125.908 61.8874 125.544 62.5408 125.301 63.1381C123.659 62.5781 121.951 61.7288 120.177 60.5901V69.0461H116.089V58.3781H117.181C116.603 57.8741 116.061 57.3514 115.557 56.8101C115.053 56.2501 114.605 55.6808 114.213 55.1021H113.933C113.037 56.2781 112.011 57.3794 110.853 58.4061L112.981 58.6021C113.019 61.3088 112.347 63.5674 110.965 65.3781C109.584 67.1701 107.671 68.5421 105.225 69.4941ZM108.025 48.3821H112.169V47.1221H108.025V48.3821ZM116.341 48.3821H120.429V47.1221H116.341V48.3821ZM108.025 52.0781H112.169V50.8461H108.025V52.0781ZM116.341 52.0781H120.429V50.8461H116.341V52.0781ZM138.209 69.2141V66.5821C137.649 66.7128 136.987 66.8528 136.221 67.0021C135.456 67.1514 134.663 67.2914 133.841 67.4221C133.039 67.5714 132.283 67.7021 131.573 67.8141C130.883 67.9448 130.323 68.0381 129.893 68.0941L129.305 64.7341C129.567 64.7341 129.884 64.7154 130.257 64.6781C130.649 64.6408 131.069 64.6034 131.517 64.5661V56.1661H129.389V53.3101H155.093V56.1661H142.157V65.8821C143.352 65.3594 144.491 64.6688 145.573 63.8101C145.107 63.1941 144.696 62.5408 144.341 61.8501C144.005 61.1408 143.744 60.4128 143.557 59.6661H142.633V56.7821H152.517L154.169 58.1821C153.777 59.2088 153.283 60.2074 152.685 61.1781C152.107 62.1301 151.453 63.0448 150.725 63.9221C151.491 64.4261 152.265 64.8554 153.049 65.2101C153.833 65.5648 154.552 65.8261 155.205 65.9941C154.739 66.4421 154.309 66.9741 153.917 67.5901C153.544 68.2061 153.255 68.7474 153.049 69.2141C152.303 68.9901 151.509 68.6448 150.669 68.1781C149.829 67.7114 148.999 67.1421 148.177 66.4701C146.871 67.5714 145.499 68.4861 144.061 69.2141C143.837 68.8408 143.548 68.4301 143.193 67.9821C142.839 67.5341 142.493 67.1328 142.157 66.7781V69.2141H138.209ZM133.113 52.4981V43.8741H151.397V52.4981H133.113ZM136.977 50.1181H147.533V49.2781H136.977V50.1181ZM136.977 47.0381H147.533V46.2821H136.977V47.0381ZM135.465 64.0621C136.511 63.9128 137.425 63.7821 138.209 63.6701V62.7181H135.465V64.0621ZM135.465 60.4221H138.209V59.4421H135.465V60.4221ZM135.465 57.1461H138.209V56.1661H135.465V57.1461ZM148.065 61.4581C148.569 60.8794 149.008 60.2821 149.381 59.6661H147.057C147.3 60.2821 147.636 60.8794 148.065 61.4581ZM158.369 69.1021V56.3061H182.169V65.9381C182.169 67.0208 181.843 67.8048 181.189 68.2901C180.555 68.7754 179.603 69.0181 178.333 69.0181H176.065C176.047 68.6634 175.991 68.2434 175.897 67.7581C175.804 67.2728 175.701 66.8154 175.589 66.3861H163.997V60.1701H176.485V65.2941H177.185C177.559 65.2941 177.82 65.2474 177.969 65.1541C178.137 65.0421 178.221 64.8088 178.221 64.4541V59.3021H162.345V69.1021H158.369ZM162.737 55.4101V49.1941H177.773V55.4101H162.737ZM157.585 48.3261V45.1341H168.057V43.3141H172.397V45.1341H182.841V48.3261H157.585ZM166.545 52.7781H173.965V51.7141H166.545V52.7781ZM167.665 63.7261H172.761V62.6621H167.665V63.7261ZM200.537 67.6741C200.463 67.3008 200.295 66.8714 200.033 66.3861C199.791 65.8821 199.501 65.3874 199.165 64.9021C198.848 64.4168 198.521 64.0341 198.185 63.7541C200.817 63.3434 202.768 62.5408 204.037 61.3461C205.307 60.1514 205.979 58.7141 206.053 57.0341C206.128 55.7648 205.904 54.6354 205.381 53.6461C204.859 52.6568 204.149 51.8541 203.253 51.2381C202.376 50.6034 201.415 50.2021 200.369 50.0341C200.22 51.6954 199.94 53.4128 199.529 55.1861C199.137 56.9408 198.587 58.6114 197.877 60.1981C197.168 61.7661 196.291 63.1101 195.245 64.2301C194.368 65.1821 193.537 65.7234 192.753 65.8541C191.969 65.9661 191.139 65.8448 190.261 65.4901C189.403 65.1354 188.656 64.5754 188.021 63.8101C187.387 63.0261 186.901 62.1114 186.565 61.0661C186.248 60.0021 186.117 58.8821 186.173 57.7061C186.267 55.9514 186.677 54.3461 187.405 52.8901C188.152 51.4341 189.141 50.1928 190.373 49.1661C191.605 48.1208 193.015 47.3368 194.601 46.8141C196.207 46.2728 197.915 46.0488 199.725 46.1421C201.237 46.2168 202.647 46.5528 203.953 47.1501C205.26 47.7288 206.399 48.5221 207.369 49.5301C208.359 50.5381 209.115 51.7048 209.637 53.0301C210.16 54.3554 210.375 55.7928 210.281 57.3421C210.151 60.0488 209.217 62.2888 207.481 64.0621C205.745 65.8168 203.431 67.0208 200.537 67.6741ZM192.389 61.2061C193.024 60.6088 193.603 59.7408 194.125 58.6021C194.667 57.4448 195.124 56.1474 195.497 54.7101C195.871 53.2541 196.123 51.7794 196.253 50.2861C195.096 50.6221 194.069 51.1634 193.173 51.9101C192.296 52.6381 191.605 53.5154 191.101 54.5421C190.597 55.5688 190.308 56.6981 190.233 57.9301C190.196 58.6581 190.271 59.2928 190.457 59.8341C190.663 60.3754 190.952 60.8234 191.325 61.1781C191.68 61.5328 192.035 61.5421 192.389 61.2061ZM212.941 67.0581V66.0501C212.941 65.1728 213.081 64.3141 213.361 63.4741C213.641 62.6154 214.108 61.7288 214.761 60.8141C215.433 59.8994 216.339 58.9008 217.477 57.8181C218.037 57.2768 218.569 56.7354 219.073 56.1941C219.577 55.6528 219.988 55.1208 220.305 54.5981C220.623 54.0568 220.791 53.5528 220.809 53.0861C220.828 52.2088 220.632 51.5554 220.221 51.1261C219.829 50.6968 219.251 50.4821 218.485 50.4821C217.739 50.4821 217.197 50.7528 216.861 51.2941C216.525 51.8354 216.357 52.6008 216.357 53.5901H213.025C213.025 51.5928 213.529 50.0434 214.537 48.9421C215.564 47.8408 216.88 47.2901 218.485 47.2901C219.568 47.2901 220.539 47.5234 221.397 47.9901C222.275 48.4381 222.956 49.1008 223.441 49.9781C223.945 50.8368 224.179 51.9008 224.141 53.1701C224.123 54.0661 223.917 54.8781 223.525 55.6061C223.152 56.3341 222.639 57.0528 221.985 57.7621C221.351 58.4528 220.613 59.1994 219.773 60.0021C218.971 60.8048 218.252 61.5608 217.617 62.2701C217.001 62.9794 216.637 63.5581 216.525 64.0061H223.749V67.0581H212.941ZM231.903 67.3381C230.372 67.3381 229.178 66.9554 228.319 66.1901C227.46 65.4248 226.863 64.2954 226.527 62.8021C226.191 61.3088 226.023 59.4608 226.023 57.2581C226.023 55.0368 226.191 53.1794 226.527 51.6861C226.863 50.1928 227.46 49.0634 228.319 48.2981C229.178 47.5328 230.372 47.1501 231.903 47.1501C233.434 47.1501 234.619 47.5328 235.459 48.2981C236.299 49.0634 236.887 50.1928 237.223 51.6861C237.578 53.1794 237.755 55.0368 237.755 57.2581C237.755 59.4608 237.578 61.3088 237.223 62.8021C236.887 64.2954 236.299 65.4248 235.459 66.1901C234.619 66.9554 233.434 67.3381 231.903 67.3381ZM231.903 64.1461C232.538 64.1461 233.032 63.9501 233.387 63.5581C233.76 63.1474 234.022 62.4474 234.171 61.4581C234.339 60.4501 234.423 59.0501 234.423 57.2581C234.423 55.4661 234.339 54.0661 234.171 53.0581C234.022 52.0501 233.76 51.3501 233.387 50.9581C233.032 50.5474 232.538 50.3421 231.903 50.3421C231.268 50.3421 230.764 50.5474 230.391 50.9581C230.018 51.3501 229.747 52.0501 229.579 53.0581C229.43 54.0661 229.355 55.4661 229.355 57.2581C229.355 59.0501 229.43 60.4501 229.579 61.4581C229.747 62.4474 230.018 63.1474 230.391 63.5581C230.764 63.9501 231.268 64.1461 231.903 64.1461ZM252.286 69.1581V63.4461H240.022V59.8901H244.39V54.0661C244.147 54.3274 243.904 54.5888 243.662 54.8501C243.438 55.1114 243.195 55.3634 242.934 55.6061C242.523 55.1768 242.038 54.7474 241.478 54.3181C240.936 53.8888 240.32 53.4968 239.63 53.1421C240.563 52.3021 241.459 51.3314 242.318 50.2301C243.176 49.1101 243.932 47.9528 244.586 46.7581C245.258 45.5448 245.752 44.3968 246.07 43.3141L249.934 44.5181C249.822 44.8541 249.691 45.1901 249.542 45.5261C249.411 45.8621 249.271 46.1981 249.122 46.5341H264.466V50.2021H256.57V52.8901H262.282V56.4461H256.57V59.8901H265.642V63.4461H256.57V69.1581H252.286ZM245.342 52.8901H252.286V50.2021H247.162C246.882 50.6688 246.583 51.1261 246.266 51.5741C245.967 52.0221 245.659 52.4608 245.342 52.8901ZM248.646 59.8901H252.286V56.4461H248.646V59.8901ZM270.934 69.1021V56.4461C270.654 56.8008 270.355 57.1554 270.038 57.5101C269.664 57.1181 269.179 56.7168 268.582 56.3061C268.003 55.8954 267.443 55.5688 266.902 55.3261C267.536 54.6728 268.162 53.8421 268.778 52.8341C269.394 51.8074 269.963 50.7248 270.486 49.5861C271.008 48.4474 271.447 47.3461 271.802 46.2821C272.156 45.1994 272.39 44.2754 272.502 43.5101L276.422 44.3781C276.086 45.9461 275.591 47.5608 274.938 49.2221V64.3421C275.591 63.9688 276.291 63.5208 277.038 62.9981C277.803 62.4568 278.55 61.8874 279.278 61.2901C280.024 60.6928 280.678 60.1141 281.238 59.5541H275.75V55.9141H282.61V54.0661H277.318V44.1541H291.906V54.0661H286.614V55.9141H293.474V59.5541H287.93C288.564 60.1888 289.302 60.8328 290.142 61.4861C291 62.1394 291.85 62.7461 292.69 63.3061C293.548 63.8474 294.286 64.2768 294.902 64.5941C294.416 65.0048 293.95 65.5088 293.502 66.1061C293.072 66.6848 292.699 67.2354 292.382 67.7581C291.504 67.2354 290.552 66.5728 289.526 65.7701C288.499 64.9488 287.528 64.0808 286.614 63.1661V69.0741H282.61V63.0821C281.695 64.0154 280.706 64.9021 279.642 65.7421C278.578 66.5821 277.598 67.2728 276.702 67.8141C276.235 67.0114 275.647 66.2368 274.938 65.4901V69.1021H270.934ZM281.574 50.4821H287.622V47.7381H281.574V50.4821ZM306.802 68.5981V65.0141H307.754V51.9661H311.618V65.0141H312.906V48.0461H306.97V44.5461H321.306V48.0461H316.77V53.7301H320.886V57.5101H316.77V65.0141H321.754V68.5981H306.802ZM297.058 68.6821V60.1701H306.018V68.6821H297.058ZM296.19 51.5181V48.3261H306.914V51.5181H296.19ZM297.478 59.2741V56.2781H305.514V59.2741H297.478ZM297.478 47.4301V44.4341H305.514V47.4301H297.478ZM297.478 55.3821V52.4141H305.514V55.3821H297.478ZM300.558 65.4621H302.518V63.3621H300.558V65.4621Z" fill="#0191FF"/>
</svg>
