<svg width="146" height="146" viewBox="0 0 146 146" fill="none" xmlns="http://www.w3.org/2000/svg">
<g filter="url(#filter0_i_420_14180)">
<path d="M72.7644 139.529C109.637 139.529 139.529 109.637 139.529 72.7644C139.529 35.8915 109.637 6 72.7644 6C35.8915 6 6 35.8915 6 72.7644C6 109.637 35.8915 139.529 72.7644 139.529Z" fill="white"/>
</g>
<path d="M72.7644 142.36C111.201 142.36 142.36 111.201 142.36 72.7644C142.36 34.3276 111.201 3.16839 72.7644 3.16839C34.3276 3.16839 3.16839 34.3276 3.16839 72.7644C3.16839 111.201 34.3276 142.36 72.7644 142.36Z" stroke="url(#paint0_linear_420_14180)" stroke-width="5.66322"/>
<path d="M46.8847 27.5878C45.2572 27.4875 43.5237 28.0281 42.0987 29.0258C40.6811 30.031 39.5645 31.456 39.1112 33.0315C39.022 33.3288 39.1911 33.5239 39.4976 33.4904C39.9026 33.4458 40.3002 33.3715 40.6904 33.2656C41.0824 33.1634 41.4744 33.0445 41.8497 32.8921C42.0374 32.816 42.2232 32.7342 42.4053 32.6451C42.5892 32.5596 42.775 32.4704 42.9533 32.3738C43.3138 32.1843 43.6556 31.9613 43.9901 31.7291C45.3259 30.7964 46.4574 29.5646 47.1801 28.108C47.3157 27.8293 47.1913 27.6045 46.8829 27.5878H46.8847Z" fill="#CBAE50"/>
<path d="M35.5908 30.7967C34.7101 31.2965 33.9465 31.9337 33.2888 32.6118C32.6534 33.3123 32.1183 34.0499 31.7616 34.8209C31.5795 35.2037 31.4272 35.5827 31.3231 35.9654C31.2209 36.35 31.154 36.7272 31.128 37.0932C31.0686 37.8233 31.1838 38.5219 31.4606 39.1406C31.5665 39.3747 31.8601 39.3784 32.1406 39.1517C33.64 37.9775 34.7937 36.5878 35.5332 35.1516C35.9066 34.4382 36.1686 33.708 36.2968 32.9872C36.4343 32.2756 36.4361 31.5677 36.2763 30.9026C36.215 30.6499 35.9215 30.6035 35.5908 30.7967Z" fill="#CBAE50"/>
<path d="M41.2995 37.2593C40.796 37.956 40.2534 38.5877 39.6496 39.1042C39.0681 39.643 38.4197 40.0648 37.7731 40.4085C37.448 40.5776 37.108 40.7132 36.7754 40.8284C36.4428 40.9454 36.1066 41.0328 35.7666 41.0866C35.0847 41.1925 34.414 41.187 33.7656 41.0272C33.5203 40.9659 33.4497 40.6872 33.6077 40.3732C34.4549 38.7401 35.7684 37.4767 37.1637 36.806C37.866 36.4734 38.5832 36.282 39.2706 36.2412C39.9673 36.2096 40.6306 36.3266 41.2289 36.6016C41.4555 36.7057 41.4834 36.9899 41.2957 37.2574L41.2995 37.2593Z" fill="#CBAE50"/>
<path d="M28.1184 38.819C27.3511 39.4785 26.7231 40.2514 26.2104 41.0447C25.7199 41.8548 25.3408 42.6816 25.1383 43.5083C25.0343 43.9208 24.9563 44.3184 24.9302 44.716C24.9042 45.1117 24.9117 45.4963 24.9563 45.8605C25.0399 46.5869 25.2888 47.2521 25.6808 47.8039C25.8295 48.0138 26.1175 47.9599 26.3497 47.6831C27.5926 46.2395 28.4547 44.6528 28.9043 43.1015C29.1291 42.3286 29.2499 41.5631 29.235 40.8292C29.235 40.1046 29.0976 39.4116 28.8133 38.7892C28.7055 38.5533 28.4083 38.5644 28.1203 38.8171L28.1184 38.819Z" fill="#CBAE50"/>
<path d="M34.9678 44.0535C34.6073 44.8357 34.1986 45.5584 33.7062 46.1827C33.238 46.8237 32.6844 47.3625 32.1177 47.8232C31.8316 48.0517 31.5232 48.2487 31.2203 48.4289C30.9175 48.6073 30.6035 48.7578 30.2802 48.8785C29.6318 49.1145 28.9723 49.239 28.3071 49.2074C28.0544 49.1962 27.9318 48.9343 28.0266 48.5961C28.5412 46.8292 29.5835 45.3355 30.8246 44.4084C31.447 43.9457 32.1177 43.6206 32.781 43.4478C33.4591 43.2843 34.1317 43.2695 34.7745 43.4237C35.0179 43.4813 35.0997 43.7544 34.9678 44.0535Z" fill="#CBAE50"/>
<path d="M22.3381 48.1394C21.712 48.9365 21.2494 49.8171 20.8982 50.6959C20.5768 51.5859 20.3631 52.4721 20.3278 53.323C20.3055 53.7466 20.3092 54.1554 20.3576 54.5493C20.4096 54.9431 20.4932 55.3184 20.6084 55.6677C20.7236 56.017 20.8685 56.3403 21.0506 56.6376C21.2364 56.9348 21.4519 57.2005 21.6971 57.4328C21.8848 57.6093 22.156 57.4996 22.3288 57.1838C23.2671 55.5265 23.804 53.8005 23.9415 52.1897C24.0139 51.3871 23.9805 50.6142 23.8244 49.897C23.6814 49.1873 23.4157 48.5314 23.0144 47.9778C22.862 47.7678 22.5722 47.8347 22.34 48.1413L22.3381 48.1394Z" fill="#CBAE50"/>
<path d="M30.0745 51.9452C29.8738 52.7813 29.6137 53.5709 29.2514 54.2769C28.9207 54.9959 28.4785 55.6313 28.0141 56.1943C27.7781 56.4748 27.5161 56.7294 27.2505 56.9635C26.9885 57.1976 26.7098 57.4075 26.4181 57.5877C26.1264 57.768 25.818 57.9185 25.5059 58.0374C25.1975 58.1581 24.876 58.2455 24.5453 58.2956C24.2945 58.3328 24.1236 58.1005 24.1496 57.7512C24.3094 55.9193 25.0414 54.249 26.0781 53.099C26.6002 52.5249 27.1929 52.0753 27.8115 51.7762C28.4451 51.4826 29.1028 51.3395 29.7605 51.3656C30.0113 51.3748 30.1432 51.6275 30.0726 51.9452H30.0745Z" fill="#CBAE50"/>
<path d="M18.4851 58.4118C18.2678 58.867 18.0652 59.3278 17.9203 59.796C17.7754 60.2642 17.6602 60.7361 17.5748 61.2006C17.493 61.6669 17.4614 62.1314 17.4484 62.5792C17.4428 62.804 17.4466 63.025 17.4559 63.2443C17.4689 63.4617 17.4949 63.6772 17.5246 63.8871C17.5859 64.307 17.6769 64.7083 17.7959 65.0836C17.9129 65.4589 18.0783 65.8119 18.2585 66.1315C18.6282 66.7725 19.0871 67.289 19.6686 67.6494C19.8897 67.7869 20.1257 67.6253 20.2427 67.2816C20.8317 65.4719 21.0398 63.6772 20.8447 62.0701C20.7704 61.2712 20.5679 60.515 20.2855 59.8462C20.0049 59.1773 19.6148 58.5865 19.1113 58.122C18.9199 57.9455 18.6505 58.0681 18.4814 58.4137L18.4851 58.4118Z" fill="#CBAE50"/>
<path d="M26.816 60.6318C26.8105 61.0628 26.7603 61.4809 26.7083 61.8896C26.6562 62.3002 26.5764 62.696 26.4686 63.0787C26.3646 63.4614 26.2549 63.8349 26.11 64.1879C26.0394 64.3644 25.9614 64.5372 25.8778 64.7062C25.7979 64.8753 25.718 65.0407 25.6288 65.2023C25.4523 65.5237 25.2535 65.8247 25.0324 66.1052C24.8113 66.3858 24.5902 66.6459 24.3376 66.88C23.8415 67.3482 23.2544 67.7123 22.6357 67.939C22.3998 68.0245 22.1787 67.8294 22.1434 67.482C21.9353 65.6519 22.3459 63.8757 23.1225 62.5418C23.5331 61.8785 24.0069 61.3174 24.5679 60.9068C25.129 60.4962 25.7459 60.2249 26.3961 60.1227C26.6432 60.0837 26.8235 60.3048 26.816 60.6318Z" fill="#CBAE50"/>
<path d="M16.7105 69.2389C16.181 71.1915 16.285 73.1944 16.8331 74.7829C16.9019 74.9817 16.9706 75.1749 17.0542 75.3626C17.1397 75.5484 17.2326 75.7286 17.3311 75.9014C17.5261 76.2451 17.7435 76.5609 17.9813 76.8396C18.2191 77.1183 18.4737 77.3636 18.7524 77.5679C19.0366 77.7723 19.3376 77.9377 19.6535 78.0603C19.8931 78.1532 20.1031 77.9507 20.1439 77.5921C20.1997 77.1202 20.2499 76.6538 20.2591 76.1949C20.2647 75.9664 20.2629 75.7397 20.2536 75.5149C20.2424 75.2901 20.2294 75.069 20.2183 74.8479C20.1904 74.4095 20.1347 73.9803 20.0511 73.566C20.0102 73.3579 19.9619 73.1554 19.908 72.9547C19.8578 72.754 19.8077 72.559 19.7464 72.3658C19.6274 71.9812 19.4825 71.6133 19.3153 71.2677C19.1444 70.9203 18.9735 70.5952 18.7654 70.2942C18.3585 69.6922 17.8476 69.1887 17.2753 68.832C17.0598 68.6964 16.8034 68.8691 16.7124 69.2407L16.7105 69.2389Z" fill="#CBAE50"/>
<path d="M25.3164 69.7952C25.6007 71.4952 25.5022 73.1172 25.0396 74.5255C24.982 74.7002 24.9114 74.873 24.8445 75.0402C24.7795 75.2074 24.7089 75.3709 24.6309 75.5288C24.4748 75.8465 24.2964 76.1456 24.0921 76.4243C23.8896 76.703 23.6592 76.9575 23.4139 77.1879C23.1743 77.4164 22.9104 77.619 22.6243 77.788C22.4069 77.9181 22.1598 77.7657 22.0502 77.4332C21.9109 76.9947 21.8254 76.5488 21.7567 76.1085C21.7232 75.8874 21.6991 75.6681 21.6805 75.4489C21.6601 75.2315 21.6526 75.0142 21.6619 74.7986C21.6731 74.3695 21.7121 73.9496 21.7771 73.5464C21.8105 73.3439 21.8496 73.1469 21.896 72.9537C21.9462 72.7605 22.0075 72.5729 22.0725 72.3908C22.2044 72.0248 22.3605 71.681 22.5407 71.3652C22.7172 71.0494 22.9402 70.7614 23.1705 70.505C23.6406 69.9922 24.1775 69.6057 24.8074 69.3791C25.0489 69.2936 25.2533 69.4738 25.3146 69.7971L25.3164 69.7952Z" fill="#CBAE50"/>
<path d="M17.0383 80.1725C17.0085 80.6742 17.0104 81.1739 17.042 81.6626C17.0587 81.9078 17.0791 82.1493 17.1107 82.389C17.1497 82.6268 17.1943 82.8609 17.2464 83.0913C17.3504 83.5521 17.4805 83.9961 17.6347 84.4179C17.7889 84.8396 17.9932 85.2335 18.2013 85.6014C18.4131 85.9692 18.6454 86.3074 18.8925 86.6102C19.1489 86.9131 19.4294 87.1787 19.7174 87.4091C20.2971 87.868 20.9232 88.1727 21.5846 88.2935C21.8373 88.3381 22.0026 88.1003 21.9859 87.738C21.9358 86.7849 21.7555 85.8819 21.5382 85.0273C21.4248 84.6018 21.2762 84.1931 21.122 83.801C20.9734 83.4072 20.8024 83.03 20.6092 82.6751C20.4197 82.3203 20.193 81.9877 19.9775 81.6774C19.7564 81.3672 19.5167 81.0811 19.2585 80.8228C18.7457 80.3082 18.1437 79.9105 17.5195 79.6653C17.2817 79.5724 17.0643 79.7898 17.0401 80.1707L17.0383 80.1725Z" fill="#CBAE50"/>
<path d="M25.594 79.1057C25.7519 79.5089 25.8782 79.9139 25.9748 80.3152C26.0231 80.5159 26.0622 80.7166 26.0956 80.9172C26.1365 81.116 26.1718 81.313 26.1978 81.5099C26.2517 81.9038 26.274 82.2939 26.2684 82.6767C26.2647 83.0594 26.2572 83.431 26.2071 83.7951C26.1606 84.1593 26.0863 84.5142 25.9841 84.8579C25.8894 85.1979 25.7779 85.523 25.633 85.8333C25.345 86.452 24.9455 87.0075 24.4439 87.4515C24.2563 87.6206 23.9813 87.5203 23.8234 87.21C23.3998 86.3962 23.0802 85.5472 22.9446 84.7C22.8702 84.2782 22.8182 83.8602 22.8108 83.4514C22.8108 83.0408 22.8387 82.6414 22.8963 82.2586C22.9576 81.8759 23.03 81.5118 23.1619 81.1643C23.2883 80.8188 23.4425 80.4955 23.6227 80.2001C23.9869 79.6074 24.4383 79.1299 25.018 78.7862C25.2372 78.6561 25.4751 78.7955 25.5921 79.102L25.594 79.1057Z" fill="#CBAE50"/>
<path d="M19.4372 90.872C19.4614 91.1247 19.5041 91.3737 19.5561 91.617C19.6063 91.8604 19.6657 92.102 19.7308 92.3398C19.7958 92.5776 19.8664 92.8098 19.9444 93.0402C20.0206 93.2706 20.1061 93.4935 20.2064 93.7072C20.6021 94.5693 21.061 95.3552 21.6389 95.985C22.748 97.2707 24.1619 97.9786 25.4922 97.9581C25.7467 97.9544 25.8675 97.6832 25.7764 97.332C25.6557 96.8694 25.507 96.4253 25.3361 96.0017C25.1708 95.5744 24.9998 95.1564 24.7992 94.7643C24.3867 93.984 23.9482 93.2576 23.4243 92.6408C23.2943 92.4847 23.1568 92.3379 23.023 92.1949C22.8911 92.0499 22.7555 91.9125 22.6161 91.7824C22.3374 91.5204 22.042 91.2882 21.7373 91.0857C21.1186 90.6844 20.4832 90.4001 19.8125 90.283C19.558 90.2385 19.3963 90.4911 19.4372 90.8739V90.872Z" fill="#CBAE50"/>
<path d="M27.6264 88.171C27.736 88.3586 27.8419 88.5425 27.9459 88.7228C28.0481 88.9067 28.1447 89.0925 28.2321 89.2801C28.3194 89.4659 28.3993 89.6554 28.4717 89.8431C28.5405 90.0326 28.6092 90.2203 28.678 90.406C28.9455 91.1492 29.0663 91.9147 29.1369 92.6393C29.226 94.1052 28.9492 95.4893 28.1317 96.5669C27.9775 96.7713 27.697 96.723 27.4759 96.4536C27.186 96.0987 26.9222 95.7271 26.6881 95.3481C26.4596 94.9654 26.2775 94.5659 26.1159 94.1702C25.7833 93.3806 25.6328 92.5575 25.5882 91.7883C25.5789 91.5951 25.5734 91.4075 25.5827 91.218C25.5938 91.0285 25.6142 90.8427 25.6421 90.6624C25.6978 90.3001 25.7833 89.9546 25.9004 89.6313C26.127 88.9866 26.5116 88.4181 27.004 87.974C27.1916 87.805 27.4592 87.8923 27.6264 88.1728V88.171Z" fill="#CBAE50"/>
<path d="M23.9005 100.909C24.0492 101.395 24.2591 101.849 24.4783 102.289C24.705 102.726 24.9373 103.153 25.2178 103.536C25.4965 103.92 25.7919 104.279 26.0985 104.608C26.2545 104.771 26.4069 104.931 26.5722 105.076C26.7376 105.221 26.9066 105.356 27.0757 105.485C28.419 106.523 29.9444 106.936 31.2449 106.65C31.4939 106.594 31.5589 106.306 31.3991 105.981C31.1892 105.551 30.9551 105.146 30.7042 104.764C30.4571 104.377 30.2063 104.002 29.9295 103.658C29.3684 102.976 28.7962 102.352 28.157 101.852C26.9104 100.838 25.5002 100.229 24.1476 100.256C23.8894 100.264 23.7816 100.543 23.8987 100.91L23.9005 100.909Z" fill="#CBAE50"/>
<path d="M31.3897 96.6358C31.6721 96.9572 31.9583 97.2694 32.2016 97.6019C32.4525 97.9308 32.6568 98.2782 32.8612 98.6163C33.0637 98.9563 33.2384 99.3038 33.3833 99.6549C33.4576 99.8296 33.5189 100.012 33.5821 100.186C33.6471 100.361 33.7047 100.536 33.7549 100.712C34.1357 102.13 34.1395 103.542 33.5542 104.762C33.4446 104.993 33.1585 105.002 32.8891 104.781C32.5342 104.491 32.2035 104.179 31.8969 103.854C31.596 103.525 31.3396 103.17 31.1017 102.813C30.6187 102.106 30.3084 101.329 30.1096 100.586C29.7399 99.0753 29.9387 97.6335 30.7395 96.5671C30.8899 96.3646 31.1705 96.3961 31.3897 96.6377V96.6358Z" fill="#CBAE50"/>
<path d="M30.2751 109.861C30.3364 109.972 30.3996 110.08 30.4646 110.19C30.5315 110.296 30.6021 110.4 30.6727 110.502C30.8158 110.706 30.9625 110.905 31.1149 111.098C31.2672 111.292 31.4233 111.479 31.5849 111.66C31.6648 111.751 31.7466 111.838 31.8283 111.925C31.9138 112.009 31.9992 112.091 32.0866 112.172C32.7851 112.813 33.5172 113.354 34.2919 113.711C34.6747 113.895 35.0574 114.043 35.4345 114.153C35.8117 114.264 36.1982 114.322 36.5642 114.35C37.3018 114.402 37.9929 114.3 38.606 114.026C38.8401 113.921 38.8438 113.629 38.6246 113.341C38.3348 112.962 38.0263 112.609 37.7049 112.284C37.3816 111.96 37.0658 111.637 36.7277 111.355C36.0458 110.796 35.3565 110.301 34.6338 109.935C34.4536 109.842 34.2696 109.761 34.0894 109.681C33.911 109.599 33.7327 109.525 33.5525 109.46C33.1939 109.328 32.8316 109.227 32.4712 109.161C31.7447 109.034 31.0517 109.016 30.3866 109.17C30.1339 109.227 30.0837 109.523 30.2732 109.859L30.2751 109.861Z" fill="#CBAE50"/>
<path d="M36.7631 104.182C36.9359 104.312 37.1049 104.44 37.2721 104.566C37.4394 104.696 37.5991 104.83 37.7515 104.968C37.9038 105.105 38.0525 105.246 38.1918 105.393C38.3293 105.54 38.4668 105.687 38.6024 105.831C39.1375 106.415 39.5518 107.069 39.8955 107.71C40.0627 108.035 40.2021 108.369 40.3117 108.709C40.4195 109.049 40.5161 109.376 40.5681 109.716C40.6796 110.389 40.6628 111.073 40.4975 111.723C40.4362 111.968 40.1556 112.039 39.8491 111.873C39.4441 111.658 39.0576 111.418 38.6953 111.158C38.3312 110.9 38.0116 110.597 37.7088 110.296C37.0956 109.696 36.633 109.001 36.2949 108.308C36.2113 108.133 36.1332 107.963 36.0682 107.786C36.005 107.608 35.9512 107.429 35.9066 107.251C35.8155 106.896 35.7598 106.543 35.7412 106.199C35.6985 105.518 35.8322 104.843 36.1128 104.243C36.2206 104.014 36.5011 103.99 36.7631 104.182Z" fill="#CBAE50"/>
<path d="M38.2846 117.366C39.6242 118.878 41.3279 119.937 42.974 120.348C43.3846 120.453 43.7878 120.524 44.1798 120.559C44.5737 120.591 44.9601 120.576 45.3261 120.531C46.0582 120.439 46.7159 120.206 47.2658 119.818C47.4758 119.667 47.42 119.385 47.1506 119.142C46.792 118.826 46.4223 118.54 46.0452 118.281C45.8538 118.153 45.6643 118.029 45.4785 117.904C45.289 117.782 45.0976 117.668 44.9063 117.561C44.5235 117.343 44.1241 117.169 43.7413 116.996C43.3549 116.827 42.9666 116.686 42.5764 116.576C42.3813 116.52 42.1881 116.474 41.993 116.435C41.8017 116.392 41.6122 116.353 41.4227 116.323C41.0455 116.264 40.6702 116.236 40.306 116.241C39.5703 116.258 38.8829 116.383 38.2642 116.663C38.0282 116.769 38.0375 117.07 38.2883 117.362L38.2846 117.366Z" fill="#CBAE50"/>
<path d="M43.5309 110.523C45.1102 111.218 46.381 112.228 47.3006 113.373C47.5292 113.661 47.7298 113.962 47.9045 114.274C48.081 114.582 48.2352 114.889 48.3541 115.21C48.5956 115.849 48.7089 116.526 48.6755 117.193C48.6644 117.444 48.4005 117.572 48.068 117.466C47.6295 117.332 47.204 117.17 46.7971 116.986C46.695 116.94 46.5946 116.894 46.4962 116.843C46.3995 116.791 46.3029 116.736 46.21 116.682C46.0224 116.57 45.8385 116.455 45.6601 116.334C45.3071 116.089 44.9689 115.842 44.6773 115.552C44.3837 115.266 44.118 114.967 43.8839 114.658C43.7669 114.504 43.6591 114.348 43.5588 114.19C43.4603 114.031 43.3749 113.863 43.295 113.698C43.137 113.367 43.0126 113.033 42.9271 112.698C42.7525 112.035 42.7469 111.353 42.9048 110.709C42.9643 110.463 43.2355 110.385 43.5309 110.523Z" fill="#CBAE50"/>
<path d="M47.5913 123.16C47.987 123.476 48.4125 123.735 48.8379 123.98C49.2653 124.219 49.6963 124.441 50.1422 124.598C51.0266 124.927 51.9091 125.147 52.7582 125.184C53.1799 125.208 53.5905 125.2 53.9807 125.161C54.3708 125.122 54.7499 125.03 55.0991 124.918C55.7996 124.688 56.4015 124.331 56.8679 123.85C57.0444 123.668 56.9403 123.389 56.6282 123.207C56.2158 122.965 55.7996 122.755 55.3778 122.575C54.9561 122.397 54.5436 122.217 54.1219 122.085C53.7038 121.944 53.2802 121.851 52.8715 121.754C52.4609 121.661 52.0522 121.6 51.649 121.566C51.4483 121.55 51.2477 121.54 51.0489 121.538C50.8519 121.533 50.6606 121.531 50.4692 121.538C50.0883 121.553 49.7149 121.598 49.3582 121.674C49.0014 121.748 48.6559 121.86 48.3345 121.99C48.0149 122.12 47.712 122.284 47.4371 122.48C47.2271 122.631 47.2922 122.923 47.595 123.162L47.5913 123.16Z" fill="#CBAE50"/>
<path d="M51.4201 115.432C51.8382 115.536 52.2506 115.639 52.6389 115.782C53.0291 115.919 53.397 116.092 53.7574 116.257C54.4746 116.597 55.11 117.043 55.6748 117.51C55.9535 117.749 56.2099 118.006 56.4403 118.279C56.6706 118.554 56.8824 118.821 57.0608 119.115C57.4194 119.696 57.6609 120.334 57.7538 121.001C57.7891 121.253 57.5569 121.419 57.2094 121.383C56.7524 121.337 56.3046 121.259 55.8699 121.155C55.4351 121.053 55.0264 120.895 54.6288 120.729C54.2368 120.557 53.8559 120.38 53.514 120.15C53.1703 119.925 52.8526 119.681 52.5646 119.425C52.4197 119.297 52.2841 119.163 52.154 119.029C52.0258 118.89 51.9088 118.743 51.7992 118.596C51.5799 118.301 51.3941 117.996 51.2455 117.686C51.0987 117.372 50.9854 117.06 50.9185 116.731C50.8516 116.402 50.8238 116.07 50.8386 115.737C50.8498 115.484 51.1006 115.356 51.4183 115.434L51.4201 115.432Z" fill="#CBAE50"/>
<path d="M98.3314 28.1331C99.0542 29.5897 100.186 30.8197 101.52 31.7524C101.854 31.9846 102.196 32.2076 102.556 32.3971C102.735 32.4937 102.92 32.581 103.104 32.6665C103.287 32.7556 103.472 32.8374 103.66 32.9136C104.035 33.0659 104.427 33.1848 104.819 33.287C105.208 33.391 105.607 33.4672 106.01 33.5118C106.317 33.5453 106.486 33.3502 106.397 33.0529C105.945 31.4774 104.829 30.0542 103.413 29.0472C101.99 28.0514 100.256 27.5089 98.6305 27.6111C98.3221 27.6278 98.1977 27.8526 98.3333 28.1313L98.3314 28.1331Z" fill="#CBAE50"/>
<path d="M104.23 37.2589C104.733 37.9557 105.276 38.5874 105.879 39.1039C106.461 39.6427 107.109 40.0644 107.756 40.4081C108.081 40.5772 108.421 40.7128 108.754 40.828C109.086 40.9451 109.423 41.0324 109.763 41.0863C110.444 41.1922 111.115 41.1866 111.763 41.0268C112.009 40.9655 112.079 40.6868 111.921 40.3728C111.074 38.7397 109.761 37.4763 108.365 36.8056C107.663 36.473 106.946 36.2817 106.258 36.2408C105.562 36.2092 104.898 36.3263 104.3 36.6012C104.074 36.7053 104.046 36.9895 104.233 37.2571L104.23 37.2589Z" fill="#CBAE50"/>
<path d="M109.939 30.7963C110.819 31.2961 111.583 31.9333 112.241 32.6115C112.876 33.3119 113.411 34.0495 113.768 34.8206C113.95 35.2033 114.102 35.5823 114.206 35.965C114.309 36.3496 114.375 36.7268 114.401 37.0928C114.461 37.823 114.346 38.5215 114.069 39.1402C113.963 39.3743 113.669 39.378 113.389 39.1514C111.89 37.9772 110.736 36.5874 109.996 35.1513C109.623 34.4378 109.361 33.7077 109.233 32.9868C109.095 32.2752 109.093 31.5673 109.253 30.9022C109.314 30.6495 109.608 30.6031 109.939 30.7963Z" fill="#CBAE50"/>
<path d="M110.562 44.0532C110.922 44.8354 111.331 45.5581 111.823 46.1824C112.291 46.8234 112.845 47.3622 113.412 47.8229C113.698 48.0514 114.006 48.2484 114.309 48.4286C114.612 48.607 114.926 48.7575 115.249 48.8782C115.898 49.1142 116.557 49.2387 117.222 49.2071C117.475 49.1959 117.598 48.934 117.503 48.5958C116.988 46.8289 115.946 45.3352 114.705 44.4081C114.082 43.9454 113.412 43.6203 112.749 43.4475C112.07 43.284 111.398 43.2692 110.755 43.4234C110.512 43.481 110.43 43.7541 110.562 44.0532Z" fill="#CBAE50"/>
<path d="M117.412 38.8186C118.179 39.4782 118.807 40.2511 119.32 41.0444C119.811 41.8545 120.19 42.6813 120.392 43.508C120.496 43.9205 120.574 44.3181 120.6 44.7157C120.626 45.1114 120.619 45.496 120.574 45.8602C120.491 46.5866 120.242 47.2518 119.85 47.8036C119.701 48.0135 119.413 47.9596 119.181 47.6828C117.938 46.2392 117.076 44.6525 116.626 43.1012C116.401 42.3283 116.281 41.5628 116.295 40.8289C116.295 40.1043 116.433 39.4113 116.717 38.7889C116.825 38.553 117.122 38.5641 117.41 38.8168L117.412 38.8186Z" fill="#CBAE50"/>
<path d="M115.456 51.9426C115.656 52.7787 115.917 53.5683 116.279 54.2743C116.61 54.9933 117.052 55.6287 117.516 56.1917C117.752 56.4722 118.014 56.7268 118.28 56.9609C118.542 57.195 118.82 57.4049 119.112 57.5851C119.404 57.7653 119.712 57.9158 120.024 58.0347C120.333 58.1555 120.654 58.2428 120.985 58.293C121.236 58.3302 121.407 58.0979 121.381 57.7486C121.221 55.9167 120.487 54.2464 119.452 53.0964C118.93 52.5223 118.337 52.0727 117.719 51.7735C117.085 51.48 116.427 51.3369 115.77 51.3629C115.519 51.3722 115.387 51.6249 115.458 51.9426H115.456Z" fill="#CBAE50"/>
<path d="M123.193 48.1368C123.819 48.9338 124.281 49.8145 124.633 50.6933C124.954 51.5832 125.168 52.4695 125.203 53.3204C125.225 53.744 125.222 54.1528 125.173 54.5466C125.121 54.9405 125.038 55.3158 124.922 55.6651C124.807 56.0144 124.662 56.3377 124.48 56.6349C124.294 56.9322 124.079 57.1979 123.834 57.4301C123.646 57.6066 123.375 57.497 123.202 57.1812C122.264 55.5239 121.727 53.7979 121.589 52.1871C121.517 51.3844 121.55 50.6115 121.706 49.8944C121.849 49.1847 122.115 48.5288 122.516 47.9752C122.669 47.7652 122.959 47.8321 123.191 48.1387L123.193 48.1368Z" fill="#CBAE50"/>
<path d="M118.713 60.6303C118.718 61.0614 118.768 61.4794 118.82 61.8882C118.872 62.2988 118.952 62.6945 119.06 63.0772C119.164 63.46 119.274 63.8334 119.419 64.1864C119.489 64.3629 119.567 64.5357 119.651 64.7048C119.731 64.8738 119.811 65.0392 119.9 65.2008C120.076 65.5223 120.275 65.8232 120.496 66.1038C120.717 66.3843 120.938 66.6444 121.191 66.8785C121.687 67.3467 122.274 67.7109 122.893 67.9375C123.129 68.023 123.35 67.8279 123.385 67.4805C123.593 65.6505 123.183 63.8743 122.406 62.5403C121.996 61.877 121.522 61.3159 120.961 60.9053C120.4 60.4947 119.783 60.2235 119.133 60.1213C118.885 60.0823 118.705 60.3034 118.713 60.6303Z" fill="#CBAE50"/>
<path d="M127.045 58.4103C127.263 58.8655 127.465 59.3263 127.61 59.7945C127.755 60.2627 127.87 60.7346 127.956 61.199C128.038 61.6654 128.069 62.1299 128.082 62.5776C128.088 62.8024 128.084 63.0235 128.075 63.2428C128.062 63.4601 128.036 63.6757 128.006 63.8856C127.945 64.3055 127.854 64.7068 127.735 65.0821C127.618 65.4574 127.452 65.8104 127.272 66.13C126.902 66.771 126.443 67.2875 125.862 67.6479C125.641 67.7854 125.405 67.6238 125.288 67.28C124.699 65.4704 124.491 63.6757 124.686 62.0686C124.76 61.2696 124.963 60.5135 125.245 59.8446C125.526 59.1758 125.916 58.585 126.419 58.1205C126.611 57.944 126.88 58.0666 127.049 58.4122L127.045 58.4103Z" fill="#CBAE50"/>
<path d="M120.214 69.7926C119.93 71.4926 120.028 73.1146 120.491 74.5229C120.548 74.6975 120.619 74.8703 120.686 75.0376C120.751 75.2048 120.822 75.3683 120.9 75.5262C121.056 75.8439 121.234 76.143 121.438 76.4217C121.641 76.7004 121.871 76.9549 122.117 77.1853C122.356 77.4138 122.62 77.6163 122.906 77.7854C123.124 77.9155 123.371 77.7631 123.48 77.4306C123.62 76.9921 123.705 76.5462 123.774 76.1059C123.807 75.8848 123.831 75.6655 123.85 75.4463C123.87 75.2289 123.878 75.0115 123.869 74.796C123.857 74.3668 123.818 73.9469 123.753 73.5438C123.72 73.3413 123.681 73.1443 123.634 72.9511C123.584 72.7579 123.523 72.5702 123.458 72.3882C123.326 72.0221 123.17 71.6784 122.99 71.3626C122.813 71.0467 122.59 70.7588 122.36 70.5024C121.89 69.9896 121.353 69.6031 120.723 69.3764C120.482 69.291 120.277 69.4712 120.216 69.7945L120.214 69.7926Z" fill="#CBAE50"/>
<path d="M128.82 69.2362C129.35 71.1889 129.246 73.1918 128.698 74.7803C128.629 74.9791 128.56 75.1723 128.475 75.36C128.389 75.5458 128.296 75.726 128.198 75.8987C128.003 76.2425 127.785 76.5583 127.548 76.837C127.31 77.1157 127.055 77.3609 126.777 77.5653C126.492 77.7697 126.191 77.935 125.875 78.0577C125.636 78.1506 125.426 77.948 125.385 77.5895C125.329 77.1176 125.279 76.6512 125.27 76.1923C125.264 75.9638 125.266 75.7371 125.275 75.5123C125.286 75.2875 125.299 75.0664 125.311 74.8453C125.338 74.4068 125.394 73.9777 125.478 73.5633C125.519 73.3553 125.567 73.1527 125.621 72.9521C125.671 72.7514 125.721 72.5564 125.783 72.3631C125.901 71.9785 126.046 71.6107 126.214 71.2651C126.384 70.9177 126.555 70.5925 126.764 70.2915C127.17 69.6896 127.681 69.1861 128.254 68.8294C128.469 68.6937 128.725 68.8665 128.817 69.2381L128.82 69.2362Z" fill="#CBAE50"/>
<path d="M119.935 79.1055C119.777 79.5087 119.651 79.9137 119.554 80.315C119.506 80.5157 119.467 80.7163 119.433 80.917C119.393 81.1158 119.357 81.3127 119.331 81.5097C119.277 81.9035 119.255 82.2937 119.261 82.6764C119.264 83.0592 119.272 83.4307 119.322 83.7949C119.368 84.159 119.443 84.5139 119.545 84.8576C119.64 85.1976 119.751 85.5228 119.896 85.833C120.184 86.4517 120.583 87.0072 121.085 87.4513C121.273 87.6204 121.548 87.52 121.706 87.2097C122.129 86.396 122.449 85.5469 122.584 84.6997C122.659 84.278 122.711 83.8599 122.718 83.4512C122.718 83.0406 122.69 82.6411 122.633 82.2584C122.571 81.8757 122.499 81.5115 122.367 81.1641C122.241 80.8185 122.087 80.4952 121.906 80.1998C121.542 79.6071 121.091 79.1297 120.511 78.7859C120.292 78.6559 120.054 78.7952 119.937 79.1018L119.935 79.1055Z" fill="#CBAE50"/>
<path d="M128.491 80.1713C128.52 80.6729 128.518 81.1727 128.487 81.6613C128.47 81.9065 128.45 82.1481 128.418 82.3877C128.379 82.6256 128.334 82.8597 128.282 83.09C128.178 83.5508 128.048 83.9949 127.894 84.4166C127.74 84.8383 127.536 85.2322 127.327 85.6001C127.116 85.968 126.883 86.3061 126.636 86.6089C126.38 86.9118 126.099 87.1775 125.811 87.4078C125.232 87.8668 124.606 88.1715 123.944 88.2922C123.692 88.3368 123.526 88.099 123.543 87.7367C123.593 86.7836 123.773 85.8806 123.991 85.026C124.104 84.6005 124.253 84.1918 124.407 83.7998C124.555 83.4059 124.726 83.0287 124.92 82.6739C125.109 82.319 125.336 81.9864 125.551 81.6762C125.772 81.3659 126.012 81.0798 126.27 80.8215C126.783 80.3069 127.385 79.9093 128.009 79.664C128.247 79.5711 128.465 79.7885 128.489 80.1694L128.491 80.1713Z" fill="#CBAE50"/>
<path d="M117.902 88.1719C117.793 88.3596 117.687 88.5435 117.583 88.7237C117.48 88.9077 117.384 89.0935 117.297 89.2811C117.209 89.4669 117.129 89.6564 117.057 89.8441C116.988 90.0336 116.919 90.2212 116.851 90.407C116.583 91.1502 116.462 91.9157 116.392 92.6403C116.303 94.1062 116.579 95.4903 117.397 96.5679C117.551 96.7723 117.832 96.7239 118.053 96.4545C118.343 96.0997 118.606 95.7281 118.84 95.3491C119.069 94.9664 119.251 94.5669 119.413 94.1712C119.745 93.3816 119.896 92.5585 119.94 91.7893C119.95 91.5961 119.955 91.4084 119.946 91.2189C119.935 91.0294 119.914 90.8436 119.886 90.6634C119.831 90.3011 119.745 89.9555 119.628 89.6323C119.402 88.9876 119.017 88.4191 118.525 87.975C118.337 87.8059 118.069 87.8933 117.902 88.1738V88.1719Z" fill="#CBAE50"/>
<path d="M126.092 90.8717C126.068 91.1244 126.025 91.3733 125.973 91.6167C125.923 91.8601 125.864 92.1017 125.799 92.3395C125.733 92.5773 125.663 92.8095 125.585 93.0399C125.509 93.2703 125.423 93.4932 125.323 93.7069C124.927 94.569 124.468 95.3549 123.89 95.9847C122.781 97.2704 121.367 97.9783 120.037 97.9578C119.783 97.9541 119.662 97.6829 119.753 97.3317C119.874 96.8691 120.022 96.425 120.193 96.0014C120.359 95.5741 120.529 95.1561 120.73 94.764C121.143 93.9837 121.581 93.2573 122.105 92.6405C122.235 92.4844 122.373 92.3376 122.506 92.1945C122.638 92.0496 122.774 91.9121 122.913 91.7821C123.192 91.5201 123.487 91.2879 123.792 91.0854C124.411 90.6841 125.046 90.3998 125.717 90.2827C125.971 90.2381 126.133 90.4908 126.092 90.8736V90.8717Z" fill="#CBAE50"/>
<path d="M114.14 96.6352C113.858 96.9566 113.572 97.2687 113.328 97.6013C113.078 97.9302 112.873 98.2776 112.669 98.6157C112.466 98.9557 112.292 99.3032 112.147 99.6543C112.073 99.829 112.011 100.011 111.948 100.186C111.883 100.36 111.825 100.535 111.775 100.711C111.394 102.129 111.391 103.541 111.976 104.762C112.086 104.992 112.372 105.001 112.641 104.78C112.996 104.49 113.327 104.178 113.633 103.853C113.934 103.524 114.191 103.17 114.428 102.813C114.911 102.105 115.222 101.328 115.421 100.585C115.79 99.0747 115.591 97.6329 114.791 96.5665C114.64 96.3639 114.36 96.3955 114.14 96.6371V96.6352Z" fill="#CBAE50"/>
<path d="M121.629 100.908C121.48 101.395 121.271 101.848 121.051 102.288C120.825 102.725 120.592 103.152 120.312 103.535C120.033 103.92 119.738 104.278 119.431 104.607C119.275 104.771 119.123 104.93 118.957 105.075C118.792 105.22 118.623 105.356 118.454 105.484C117.111 106.523 115.585 106.935 114.285 106.649C114.036 106.593 113.971 106.305 114.131 105.98C114.341 105.551 114.575 105.146 114.825 104.763C115.073 104.377 115.323 104.001 115.6 103.658C116.161 102.976 116.734 102.352 117.373 101.852C118.619 100.837 120.029 100.228 121.382 100.256C121.64 100.263 121.748 100.542 121.631 100.91L121.629 100.908Z" fill="#CBAE50"/>
<path d="M108.767 104.182C108.595 104.312 108.426 104.44 108.258 104.566C108.091 104.696 107.931 104.83 107.779 104.967C107.625 105.105 107.478 105.246 107.339 105.393C107.201 105.54 107.064 105.686 106.928 105.831C106.393 106.415 105.979 107.069 105.635 107.71C105.468 108.035 105.328 108.369 105.219 108.709C105.111 109.049 105.014 109.376 104.962 109.716C104.851 110.389 104.868 111.073 105.033 111.723C105.094 111.968 105.375 112.039 105.681 111.873C106.087 111.658 106.473 111.418 106.835 111.158C107.199 110.9 107.519 110.597 107.822 110.296C108.435 109.696 108.898 109.001 109.236 108.308C109.319 108.133 109.397 107.962 109.462 107.786C109.526 107.608 109.579 107.429 109.624 107.251C109.715 106.896 109.771 106.543 109.789 106.199C109.832 105.517 109.698 104.843 109.418 104.243C109.31 104.014 109.029 103.99 108.767 104.182Z" fill="#CBAE50"/>
<path d="M115.255 109.861C115.193 109.972 115.13 110.08 115.065 110.19C114.998 110.295 114.928 110.4 114.857 110.502C114.714 110.706 114.567 110.905 114.415 111.098C114.263 111.291 114.107 111.479 113.945 111.659C113.865 111.75 113.783 111.838 113.701 111.925C113.616 112.008 113.531 112.09 113.443 112.172C112.745 112.813 112.013 113.354 111.238 113.71C110.855 113.894 110.472 114.043 110.095 114.153C109.718 114.264 109.332 114.322 108.966 114.349C108.228 114.401 107.537 114.299 106.924 114.026C106.69 113.92 106.686 113.629 106.905 113.341C107.195 112.962 107.503 112.609 107.825 112.283C108.148 111.96 108.464 111.637 108.802 111.354C109.484 110.795 110.173 110.301 110.896 109.935C111.076 109.842 111.26 109.76 111.44 109.681C111.619 109.599 111.797 109.524 111.977 109.459C112.336 109.327 112.698 109.227 113.059 109.16C113.785 109.034 114.478 109.015 115.143 109.17C115.396 109.227 115.446 109.523 115.257 109.859L115.255 109.861Z" fill="#CBAE50"/>
<path d="M101.999 110.523C100.419 111.218 99.1487 112.229 98.229 113.374C98.0005 113.662 97.7998 113.962 97.6252 114.275C97.4487 114.583 97.2945 114.89 97.1755 115.211C96.934 115.85 96.8207 116.526 96.8541 117.193C96.8653 117.444 97.1291 117.572 97.4617 117.467C97.9001 117.333 98.3256 117.171 98.7325 116.987C98.8347 116.941 98.935 116.894 99.0335 116.844C99.1301 116.792 99.2267 116.736 99.3196 116.682C99.5072 116.571 99.6912 116.456 99.8695 116.335C100.223 116.09 100.561 115.843 100.852 115.553C101.146 115.267 101.412 114.968 101.646 114.659C101.763 114.505 101.871 114.349 101.971 114.191C102.069 114.031 102.155 113.864 102.235 113.699C102.393 113.368 102.517 113.034 102.603 112.699C102.777 112.036 102.783 111.354 102.625 110.709C102.565 110.464 102.294 110.386 101.999 110.523Z" fill="#CBAE50"/>
<path d="M107.243 117.366C105.904 118.879 104.2 119.938 102.554 120.348C102.143 120.454 101.74 120.525 101.348 120.56C100.954 120.592 100.568 120.577 100.202 120.532C99.4698 120.439 98.8139 120.207 98.2621 119.819C98.0522 119.668 98.1079 119.386 98.3773 119.142C98.7359 118.827 99.1056 118.54 99.4828 118.282C99.6741 118.154 99.8636 118.03 100.049 117.905C100.239 117.782 100.43 117.669 100.622 117.561C101.004 117.344 101.404 117.169 101.787 116.997C102.173 116.827 102.561 116.686 102.952 116.577C103.147 116.521 103.34 116.474 103.535 116.435C103.726 116.393 103.916 116.354 104.105 116.324C104.482 116.265 104.858 116.237 105.222 116.242C105.958 116.259 106.645 116.383 107.264 116.664C107.5 116.77 107.49 117.071 107.24 117.363L107.243 117.366Z" fill="#CBAE50"/>
<path d="M94.1101 115.431C93.6921 115.535 93.2796 115.637 92.8913 115.78C92.5012 115.917 92.1333 116.09 91.7729 116.256C91.0557 116.596 90.4203 117.042 89.8555 117.508C89.5768 117.748 89.3204 118.004 89.09 118.277C88.8597 118.552 88.6478 118.82 88.4695 119.113C88.1109 119.695 87.8694 120.332 87.7765 120.999C87.7412 121.252 87.9734 121.417 88.3209 121.382C88.7779 121.335 89.2257 121.257 89.6604 121.153C90.0952 121.051 90.5039 120.893 90.9015 120.728C91.2935 120.555 91.6744 120.378 92.0163 120.148C92.36 119.923 92.6777 119.68 92.9657 119.423C93.1106 119.295 93.2462 119.161 93.3763 119.028C93.5045 118.888 93.6215 118.742 93.7311 118.595C93.9504 118.299 94.1361 117.995 94.2848 117.684C94.4316 117.37 94.5449 117.058 94.6118 116.729C94.6787 116.401 94.7065 116.068 94.6917 115.735C94.6805 115.483 94.4297 115.355 94.112 115.433L94.1101 115.431Z" fill="#CBAE50"/>
<path d="M97.938 123.157C97.5422 123.473 97.1168 123.731 96.6913 123.976C96.264 124.216 95.8329 124.437 95.387 124.595C94.5027 124.924 93.6202 125.143 92.7711 125.18C92.3493 125.204 91.9387 125.197 91.5486 125.158C91.1584 125.119 90.7794 125.026 90.4301 124.914C89.7297 124.684 89.1277 124.327 88.6614 123.846C88.4849 123.664 88.5889 123.385 88.901 123.203C89.3135 122.962 89.7297 122.752 90.1514 122.572C90.5732 122.393 90.9856 122.213 91.4074 122.081C91.8254 121.94 92.249 121.847 92.6578 121.75C93.0684 121.657 93.4771 121.596 93.8803 121.563C94.0809 121.546 94.2816 121.537 94.4804 121.535C94.6773 121.529 94.8687 121.527 95.0601 121.535C95.4409 121.55 95.8144 121.594 96.1711 121.671C96.5278 121.745 96.8734 121.856 97.1948 121.986C97.5144 122.116 97.8172 122.28 98.0922 122.477C98.3021 122.627 98.2371 122.919 97.9343 123.159L97.938 123.157Z" fill="#CBAE50"/>
<path d="M61.9605 20.4767C61.836 20.3448 61.6372 20.3188 61.483 20.4154C61.3288 20.5102 61.2638 20.7015 61.3269 20.8706L65.1896 31.2898C65.2453 31.4384 65.3865 31.5369 65.5463 31.5369H79.9805C80.1403 31.5369 80.2815 31.4384 80.3372 31.2898L84.1998 20.8706C84.263 20.7015 84.198 20.512 84.0438 20.4154C83.8895 20.3207 83.6908 20.3467 83.5663 20.4767C83.5588 20.486 82.7544 21.3295 81.582 22.0708C80.7181 22.617 79.5011 23.2004 78.2377 23.2004C77.9609 23.2004 77.6822 23.1726 77.4054 23.1094C75.5846 22.7007 74.1447 20.9077 73.1266 17.7827C73.0764 17.6267 72.9297 17.5208 72.7662 17.5208H72.7587C72.5934 17.5208 72.4485 17.6267 72.3983 17.7827C71.3802 20.9077 69.9403 22.6988 68.1195 23.1094C66.5756 23.4568 64.9963 22.7359 63.9448 22.0708C62.7705 21.3295 61.9679 20.486 61.9605 20.4767Z" fill="#CBAE50"/>
<path d="M61.7757 19.1523C62.404 18.524 62.404 17.5052 61.7757 16.8769C61.1473 16.2485 60.1286 16.2485 59.5003 16.8769C58.8719 17.5052 58.8719 18.524 59.5003 19.1523C60.1286 19.7806 61.1473 19.7806 61.7757 19.1523Z" fill="#CBAE50"/>
<path d="M84.8927 19.6265C85.7813 19.6265 86.5016 18.9061 86.5016 18.0175C86.5016 17.1289 85.7813 16.4086 84.8927 16.4086C84.004 16.4086 83.2837 17.1289 83.2837 18.0175C83.2837 18.9061 84.004 19.6265 84.8927 19.6265Z" fill="#CBAE50"/>
<path d="M73.3798 16.6344C74.2008 16.2943 74.5906 15.3531 74.2506 14.5322C73.9105 13.7112 72.9693 13.3214 72.1484 13.6614C71.3274 14.0015 70.9375 14.9427 71.2776 15.7636C71.6176 16.5846 72.5588 16.9745 73.3798 16.6344Z" fill="#CBAE50"/>
<path d="M55.1934 22.917L55.5279 23.9482C55.5446 23.9983 55.591 24.0336 55.6449 24.0336H56.7281C56.847 24.0336 56.8972 24.186 56.8005 24.2547L55.9236 24.892C55.8809 24.9236 55.8623 24.9793 55.879 25.0295L56.2134 26.0606C56.2506 26.174 56.1205 26.2669 56.0239 26.1981L55.147 25.5609C55.1043 25.5293 55.0467 25.5293 55.0021 25.5609L54.1251 26.1981C54.0285 26.2687 53.9003 26.174 53.9356 26.0606L54.2701 25.0295C54.2868 24.9793 54.2701 24.9236 54.2255 24.892L53.3485 24.2547C53.2519 24.1841 53.3021 24.0336 53.421 24.0336H54.5042C54.558 24.0336 54.6045 24.0002 54.6212 23.9482L54.9556 22.917C54.9928 22.8037 55.1526 22.8037 55.1897 22.917H55.1934Z" fill="#CBAE50"/>
<path d="M90.5702 22.917L90.9046 23.9482C90.9213 23.9983 90.9677 24.0336 91.0216 24.0336H92.1048C92.2237 24.0336 92.2739 24.186 92.1773 24.2547L91.3003 24.892C91.2576 24.9236 91.239 24.9793 91.2557 25.0295L91.5902 26.0606C91.6273 26.174 91.4973 26.2669 91.4007 26.1981L90.5237 25.5609C90.481 25.5293 90.4234 25.5293 90.3788 25.5609L89.5018 26.1981C89.4052 26.2687 89.277 26.174 89.3123 26.0606L89.6468 25.0295C89.6635 24.9793 89.6468 24.9236 89.6022 24.892L88.7252 24.2547C88.6286 24.1841 88.6788 24.0336 88.7977 24.0336H89.8809C89.9347 24.0336 89.9812 24.0002 89.9979 23.9482L90.3323 22.917C90.3695 22.8037 90.5293 22.8037 90.5664 22.917H90.5702Z" fill="#CBAE50"/>
<path d="M72.9518 123.099L73.4869 124.749C73.5129 124.831 73.5891 124.885 73.6746 124.885H75.408C75.5975 124.885 75.6774 125.128 75.5232 125.24L74.1205 126.26C74.0517 126.31 74.022 126.399 74.0499 126.479L74.585 128.129C74.6444 128.309 74.4363 128.46 74.2821 128.348L72.8794 127.328C72.8106 127.278 72.7177 127.278 72.649 127.328L71.2463 128.348C71.0921 128.46 70.8858 128.309 70.9434 128.129L71.4785 126.479C71.5045 126.397 71.4767 126.31 71.4079 126.26L70.0052 125.24C69.851 125.128 69.9309 124.885 70.1204 124.885H71.8538C71.9393 124.885 72.0136 124.829 72.0415 124.749L72.5765 123.099C72.636 122.919 72.8905 122.919 72.95 123.099H72.9518Z" fill="#CBAE50"/>
<path d="M64.1995 123.051L64.534 124.082C64.5507 124.132 64.5971 124.168 64.651 124.168H65.7342C65.8531 124.168 65.9033 124.32 65.8066 124.389L64.9297 125.026C64.887 125.057 64.8684 125.113 64.8851 125.163L65.2196 126.195C65.2567 126.308 65.1267 126.401 65.03 126.332L64.1531 125.695C64.1104 125.663 64.0509 125.663 64.0082 125.695L63.1312 126.332C63.0346 126.403 62.9064 126.308 62.9417 126.195L63.2762 125.163C63.2929 125.113 63.2762 125.057 63.2316 125.026L62.3546 124.389C62.258 124.318 62.3082 124.168 62.4271 124.168H63.5103C63.5641 124.168 63.6106 124.134 63.6273 124.082L63.9617 123.051C63.9989 122.938 64.1587 122.938 64.1958 123.051H64.1995Z" fill="#CBAE50"/>
<path d="M81.5658 123.051L81.9002 124.082C81.9169 124.132 81.9634 124.168 82.0172 124.168H83.1004C83.2193 124.168 83.2695 124.32 83.1729 124.389L82.2959 125.026C82.2532 125.057 82.2346 125.113 82.2513 125.163L82.5858 126.195C82.6229 126.308 82.4929 126.401 82.3963 126.332L81.5193 125.695C81.4766 125.663 81.419 125.663 81.3744 125.695L80.4975 126.332C80.4008 126.403 80.2726 126.308 80.3079 126.195L80.6424 125.163C80.6591 125.113 80.6424 125.057 80.5978 125.026L79.7208 124.389C79.6242 124.318 79.6744 124.168 79.7933 124.168H80.8765C80.9304 124.168 80.9768 124.134 80.9935 124.082L81.3279 123.051C81.3651 122.938 81.5249 122.938 81.562 123.051H81.5658Z" fill="#CBAE50"/>
<path d="M50.3505 57.9111V47.7311C50.1656 47.982 49.9676 48.2328 49.7563 48.4837C49.5583 48.7214 49.3866 48.9128 49.2414 49.058C49.0962 48.8996 48.8849 48.7148 48.6076 48.5035C48.3435 48.279 48.1191 48.1206 47.9342 48.0282C48.1983 47.7641 48.4888 47.4142 48.8057 46.9785C49.1358 46.5428 49.4064 46.1599 49.6177 45.8298L50.3505 46.3051V45.4931H54.2324V44.2849H49.8356V42.344H54.2324V39.8089H56.3515V42.344H58.3717C58.1208 42.0931 57.8435 41.8489 57.5399 41.6112C57.2362 41.3735 56.9721 41.1887 56.7476 41.0567L57.9558 39.8089C58.1538 39.9278 58.3981 40.106 58.6886 40.3437C58.9791 40.5681 59.2629 40.7992 59.5402 41.0369C59.8175 41.2745 60.0287 41.4792 60.174 41.6508C60.0816 41.7168 59.9693 41.8159 59.8373 41.9479C59.7185 42.0667 59.5864 42.1988 59.4412 42.344H60.7087V44.2849H56.3515V45.4931H60.2532V56.1484C60.2532 56.7558 60.075 57.1981 59.7185 57.4753C59.3752 57.7658 58.847 57.9111 58.134 57.9111H57.1636C57.1504 57.7262 57.1173 57.4952 57.0645 57.2179C57.0249 56.9406 56.9787 56.6699 56.9259 56.4059C56.8731 56.1286 56.8137 55.9173 56.7476 55.7721H57.5597C57.7973 55.7721 57.969 55.7325 58.0746 55.6532C58.1802 55.574 58.233 55.4222 58.233 55.1977V53.5539H56.3515V57.5348H54.2324V53.5539H52.3905V57.9111H50.3505ZM45.1417 57.9309V50.8009C44.8908 51.065 44.6267 51.3291 44.3495 51.5931C44.0854 51.844 43.8147 52.0883 43.5374 52.3259C43.3262 52.0751 43.0753 51.8044 42.7848 51.5139C42.4944 51.2102 42.2303 50.966 41.9926 50.7811C42.666 50.2662 43.2998 49.6852 43.8939 49.0382C44.5013 48.3913 45.036 47.7311 45.4982 47.0577C45.9735 46.3711 46.3498 45.7373 46.6271 45.1564H42.7056V43.1956H45.1021V39.8485H47.2212V43.1956H48.7265L49.5781 43.9681C49.2744 44.6546 48.9311 45.3478 48.5482 46.0476C48.1653 46.7474 47.7428 47.4274 47.2807 48.0876C47.5975 48.3385 47.9408 48.6025 48.3105 48.8798C48.6934 49.1571 49.0565 49.4145 49.3998 49.6522C49.7563 49.8899 50.0468 50.0813 50.2713 50.2266C50.0336 50.4378 49.7959 50.6887 49.5583 50.9792C49.3206 51.2564 49.1292 51.5205 48.9839 51.7714C48.7331 51.5997 48.4558 51.4017 48.1521 51.1772C47.8616 50.9528 47.5645 50.7151 47.2609 50.4642V57.9309H45.1417ZM56.3515 51.8506H58.233V50.4444H56.3515V51.8506ZM56.3515 48.7412H58.233V47.3548H56.3515V48.7412ZM52.3905 51.8506H54.2324V50.4444H52.3905V51.8506ZM52.3905 48.7412H54.2324V47.3548H52.3905V48.7412ZM70.5124 58.1487C70.42 57.9771 70.2813 57.7724 70.0965 57.5348C69.9116 57.3103 69.7136 57.0858 69.5023 56.8614C69.2911 56.6501 69.0996 56.4851 68.928 56.3662C69.6542 56.0362 70.3011 55.6929 70.8689 55.3364C71.4499 54.9667 71.9516 54.5243 72.3741 54.0094C71.9516 54.1414 71.4367 54.2933 70.8293 54.4649C70.2351 54.6366 69.5881 54.8148 68.8884 54.9997C68.1886 55.1845 67.4822 55.3628 66.7692 55.5344C66.0562 55.7061 65.3762 55.8645 64.7292 56.0097C64.0954 56.1418 63.5475 56.254 63.0854 56.3464L62.5902 53.8113C62.7619 53.7849 62.9599 53.7585 63.1844 53.7321C63.4221 53.7057 63.6729 53.6661 63.937 53.6133V40.819H71.1264V52.2071C71.3904 52.1411 71.6347 52.0817 71.8592 52.0289C72.0836 51.976 72.2817 51.9232 72.4533 51.8704V53.9302C73.0739 53.1512 73.5426 52.1543 73.8595 50.9396C74.1764 49.7248 74.3414 48.1272 74.3547 46.1467H71.8394V43.8492H74.3547V40.0862H76.6521V43.8492H80.6528C80.6528 43.9813 80.6528 44.2255 80.6528 44.582C80.6528 44.9253 80.6462 45.295 80.633 45.6911C80.633 46.074 80.633 46.4041 80.633 46.6814C80.633 48.2394 80.6132 49.6324 80.5736 50.8603C80.5339 52.0883 80.4613 53.1116 80.3557 53.9302C80.2369 54.9072 80.0322 55.6731 79.7417 56.2276C79.4512 56.7822 79.0617 57.1717 78.5732 57.3961C78.0979 57.6206 77.5037 57.7328 76.7907 57.7328H75.5826C75.5298 57.3631 75.4506 56.9538 75.3449 56.5049C75.2525 56.056 75.1733 55.7325 75.1073 55.5344H76.3748C76.6917 55.5344 76.9558 55.4948 77.167 55.4156C77.3783 55.3364 77.5499 55.1581 77.682 54.8808C77.8272 54.6036 77.946 54.1678 78.0385 53.5737C78.1441 52.9531 78.2233 52.0487 78.2761 50.8603C78.3289 49.6588 78.3553 48.3385 78.3553 46.8993V46.1467H76.6521C76.6389 47.8631 76.4936 49.3617 76.2164 50.6425C75.9391 51.91 75.5364 53.0059 75.0082 53.9302C74.4933 54.8544 73.8595 55.6532 73.1069 56.3266C72.3543 57 71.4895 57.6074 70.5124 58.1487ZM66.2344 53.2172C66.6569 53.138 67.0861 53.0587 67.5218 52.9795C67.9575 52.9003 68.38 52.8145 68.7893 52.722V50.9H66.2344V53.2172ZM66.2344 48.9194H68.7893V46.9389H66.2344V48.9194ZM66.2344 44.9385H68.7893V42.958H66.2344V44.9385ZM84.1583 57.3961V55.3562H88.2977C88.06 54.8676 87.7629 54.3593 87.4064 53.8312C87.0499 53.2898 86.7066 52.8343 86.3765 52.4646L88.1392 51.3951H85.3665V49.2759H91.3081V47.7113H88.0798V46.1268C87.4196 46.589 86.7594 47.0181 86.0993 47.4142C85.4391 47.7971 84.8317 48.1206 84.2772 48.3847C84.1319 48.0942 83.9273 47.7575 83.6632 47.3746C83.4123 46.9917 83.135 46.6682 82.8314 46.4041C83.65 46.1004 84.495 45.6911 85.3665 45.1762C86.2379 44.648 87.0763 44.0671 87.8817 43.4333C88.7004 42.7995 89.4332 42.1526 90.0801 41.4924C90.7271 40.8322 91.2289 40.2182 91.5854 39.6505L93.8234 39.9872C94.2855 40.6209 94.8532 41.2415 95.5266 41.8489C96.2 42.4562 96.9196 43.0306 97.6854 43.5719C98.4644 44.1133 99.25 44.5952 100.042 45.0177C100.834 45.4403 101.58 45.777 102.28 46.0278C102.029 46.3051 101.759 46.6352 101.468 47.0181C101.191 47.3878 100.934 47.7839 100.696 48.2064C99.5339 47.7047 98.2928 46.9983 96.9724 46.0872V47.7113H93.8036V49.2759H99.666V51.3951H96.715L98.6757 52.2071C98.4248 52.7353 98.1475 53.2832 97.8439 53.851C97.5402 54.4055 97.2563 54.9072 96.9922 55.3562H100.775V57.3961H84.1583ZM88.7928 45.6317H96.3585C95.6323 45.0904 94.9457 44.5226 94.2987 43.9284C93.6517 43.3343 93.1038 42.7335 92.6548 42.1262C92.2455 42.6543 91.6976 43.2287 91.011 43.8492C90.3244 44.4566 89.585 45.0508 88.7928 45.6317ZM93.8036 55.3562H96.3188L94.8731 54.6828C95.0579 54.3923 95.2494 54.049 95.4474 53.6529C95.6587 53.2568 95.8567 52.8607 96.0416 52.4646C96.2264 52.0553 96.3849 51.6988 96.5169 51.3951H93.8036V55.3562ZM89.0899 55.3562H91.3081V51.3951H88.2977C88.5485 51.6856 88.806 52.0289 89.0701 52.425C89.3341 52.8079 89.585 53.1974 89.8227 53.5935C90.0735 53.9764 90.2716 54.3131 90.4168 54.6036L89.0899 55.3562Z" fill="#144F93"/>
<path d="M53.7103 78.2749C53.5809 78.0396 53.3986 77.7632 53.1633 77.4456C52.9398 77.1398 52.7281 76.8869 52.5281 76.6869C53.3163 76.3105 54.0397 75.8694 54.6984 75.3636C55.3571 74.8578 55.957 74.3049 56.4981 73.705C56.11 72.8816 55.7747 71.9347 55.4924 70.8642C55.2101 69.782 54.9925 68.5469 54.8396 67.1589H50.1814V68.8704H54.2573C54.2573 69.4939 54.2455 70.1291 54.222 70.776C54.1985 71.4112 54.1573 72.0111 54.0985 72.5757C54.0514 73.1404 53.9867 73.6226 53.9044 74.0226C53.7515 74.846 53.4515 75.4165 53.0045 75.7341C52.5575 76.0517 51.9341 76.2105 51.1342 76.2105H50.1991C50.1873 76.0223 50.1579 75.7988 50.1109 75.54C50.0638 75.2695 50.0109 75.0107 49.9521 74.7637C49.905 74.5049 49.8462 74.3049 49.7756 74.1637H50.7637C51.1989 74.1637 51.4871 74.099 51.6283 73.9697C51.7694 73.8403 51.8753 73.6109 51.9459 73.2815C52.0165 72.9639 52.0694 72.5757 52.1047 72.117C52.14 71.6465 52.1576 71.176 52.1576 70.7054H50.1109C50.052 71.87 49.9344 72.8992 49.758 73.7932C49.5933 74.6754 49.3698 75.4635 49.0875 76.1576C48.8052 76.8398 48.4523 77.4691 48.0288 78.0455C47.8877 77.9397 47.6818 77.8161 47.4113 77.675C47.1525 77.5338 46.8996 77.4044 46.6525 77.2868C46.4055 77.1809 46.2291 77.1104 46.1232 77.0751C46.5937 76.4869 46.9643 75.7929 47.2348 74.993C47.5054 74.1814 47.6994 73.2286 47.8171 72.1346C47.9347 71.0407 47.9935 69.7585 47.9935 68.2881V65.2004H54.6808C54.6572 64.7534 54.6337 64.2887 54.6102 63.8065C54.5984 63.3124 54.5925 62.8066 54.5925 62.289H56.6922C56.6922 62.7949 56.6981 63.2948 56.7099 63.7888C56.7334 64.2711 56.7569 64.7416 56.7804 65.2004H59.3918C59.1095 64.8945 58.8096 64.6063 58.492 64.3358C58.1861 64.0652 57.8979 63.8359 57.6274 63.6477L58.9331 62.3067C59.2036 62.4714 59.5036 62.6949 59.8329 62.9772C60.1623 63.2477 60.474 63.5242 60.7681 63.8065C61.0622 64.0888 61.2915 64.3358 61.4562 64.5475C61.3504 64.6063 61.2268 64.7004 61.0857 64.8298C60.9445 64.9475 60.7975 65.071 60.6446 65.2004H62.4267V67.1589H56.9569C57.1451 68.9116 57.4803 70.4172 57.9626 71.6759C58.6096 70.5702 59.1036 69.3586 59.4448 68.0411L61.4386 68.6587C60.8975 70.576 60.0917 72.2934 59.0213 73.8109C59.5389 74.6107 60.1741 75.2518 60.9269 75.7341C61.0328 75.393 61.1269 75.0401 61.2092 74.6754C61.3033 74.3108 61.368 73.9873 61.4033 73.705C61.5327 73.7991 61.715 73.905 61.9503 74.0226C62.1973 74.1285 62.4443 74.2284 62.6913 74.3225C62.9384 74.4049 63.1442 74.4696 63.3089 74.5166C63.2148 75.0577 63.0736 75.6223 62.8854 76.2105C62.6972 76.7986 62.5031 77.275 62.3032 77.6397C62.1267 77.9808 61.8679 78.1926 61.5268 78.2749C61.1974 78.369 60.8445 78.3043 60.4681 78.0808C59.9388 77.775 59.4271 77.4162 58.9331 77.0045C58.4508 76.5928 57.9979 76.0987 57.5744 75.5224C57.0333 76.0752 56.4393 76.5869 55.7924 77.0574C55.1454 77.5162 54.4514 77.922 53.7103 78.2749ZM69.9432 78.5219C69.8608 78.3455 69.7373 78.1455 69.5727 77.922C69.4197 77.7103 69.2492 77.4985 69.061 77.2868C68.8845 77.0751 68.7198 76.9104 68.5669 76.7928C69.8491 76.2752 70.8842 75.6165 71.6723 74.8166C72.4722 74.0167 73.0721 73.0757 73.4721 71.9935C73.8838 70.9113 74.1308 69.6879 74.2131 68.3234H71.1077V66.3826H69.4844V72.117C70.0373 71.9758 70.549 71.8406 71.0195 71.7112C71.5018 71.57 71.8841 71.4583 72.1664 71.3759V73.2815C71.8958 73.3756 71.5371 73.4991 71.0901 73.6521C70.6548 73.7932 70.1726 73.9461 69.6432 74.1108C69.1257 74.2755 68.5963 74.4402 68.0552 74.6049C67.5259 74.7578 67.026 74.9048 66.5555 75.046C66.0849 75.1754 65.685 75.2812 65.3556 75.3636L64.7557 73.2286C65.0498 73.1698 65.4203 73.0933 65.8673 72.9992C66.3261 72.8933 66.8201 72.7757 67.3495 72.6463V66.3826H65.0733V64.4064H71.7959V66.3296H74.2484V62.3067H76.3305V66.3296H80.4416V68.147C80.4416 69.7115 80.4122 71.076 80.3534 72.2405C80.2946 73.3933 80.2181 74.3284 80.124 75.046C80.0182 75.9282 79.8358 76.5987 79.577 77.0574C79.3183 77.5162 78.9595 77.8279 78.5007 77.9926C78.042 78.169 77.4656 78.2572 76.7716 78.2572H75.5541C75.5306 77.9514 75.4718 77.5809 75.3777 77.1457C75.2836 76.7222 75.1836 76.3811 75.0777 76.1223H76.5246C76.8657 76.1223 77.1303 76.0929 77.3186 76.0341C77.5185 75.9635 77.6773 75.8223 77.795 75.6106C77.9126 75.3989 78.0067 75.0695 78.0773 74.6225C78.1596 74.1402 78.2302 73.358 78.289 72.2758C78.3478 71.1936 78.3772 69.8761 78.3772 68.3234H76.2952C76.154 70.8642 75.5659 72.9463 74.5307 74.5696C73.4956 76.1929 71.9664 77.5103 69.9432 78.5219ZM90.0578 78.416V75.3459H83.0177V73.4756H90.0578V72.5757C89.4579 72.611 88.8992 72.6463 88.3816 72.6816C87.864 72.7051 87.47 72.7228 87.1994 72.7345L87.0053 71.2171C86.5819 71.5582 86.1172 71.917 85.6114 72.2934C85.1056 72.6581 84.6822 72.9404 84.341 73.1404L83.2294 71.6053C83.4412 71.4877 83.7117 71.3289 84.0411 71.1289C84.3822 70.9172 84.7351 70.6878 85.0997 70.4408C85.4762 70.1937 85.8291 69.9526 86.1584 69.7173C86.4995 69.4821 86.776 69.2762 86.9877 69.0998C87.023 69.2409 87.0818 69.4174 87.1641 69.6291C87.2465 69.8409 87.3288 70.0467 87.4112 70.2467C87.5053 70.4349 87.5759 70.5819 87.6229 70.6878C87.517 70.7937 87.3935 70.8995 87.2524 71.0054C87.3935 71.0054 87.5523 71.0054 87.7288 71.0054C87.917 70.9936 88.1169 70.9819 88.3287 70.9701C88.4698 70.8407 88.6286 70.6937 88.8051 70.529C88.9815 70.3525 89.1697 70.1643 89.3697 69.9644C89.0286 69.6703 88.6404 69.3527 88.2052 69.0116C87.7699 68.6704 87.3935 68.3881 87.0759 68.1646C86.8995 68.3176 86.7113 68.5058 86.5113 68.7293C86.3113 68.9528 86.1467 69.141 86.0173 69.2939C85.8173 69.0586 85.5644 68.8057 85.2585 68.5352C84.9645 68.2529 84.6704 67.9882 84.3763 67.7412C84.0823 67.4824 83.8235 67.2765 83.6 67.1236L84.7821 65.8709C84.9821 66.0003 85.2174 66.1708 85.4879 66.3826C85.7585 66.5943 86.0349 66.8178 86.3172 67.053C86.5995 67.2883 86.8465 67.5 87.0583 67.6882L87.9581 66.6649C88.0522 66.7237 88.1464 66.7884 88.2405 66.859C88.3463 66.9295 88.4581 67.006 88.5757 67.0883C88.7639 66.8884 88.9698 66.6472 89.1933 66.3649C89.4168 66.0826 89.6226 65.8062 89.8108 65.5356H83.5647V63.8065H90.0049V62.2361H92.281V63.8065H98.7389V65.5356H96.9215L98.1213 66.5766C97.9214 66.7884 97.6685 67.0413 97.3626 67.3354C97.0686 67.6294 96.7686 67.9176 96.4628 68.1999C96.1569 68.4822 95.8805 68.7175 95.6335 68.9057C95.4688 68.7175 95.2453 68.5058 94.963 68.2705C94.6924 68.0235 94.4572 67.8353 94.2572 67.7059C94.4689 67.553 94.716 67.3471 94.9983 67.0883C95.2923 66.8178 95.5747 66.5414 95.8452 66.259C96.1275 65.9767 96.3569 65.7356 96.5333 65.5356H91.0989L91.8046 65.9414C91.6635 66.1179 91.4812 66.3414 91.2577 66.6119C91.0342 66.8825 90.8048 67.153 90.5695 67.4236C90.3343 67.6824 90.1225 67.9117 89.9343 68.1117C90.0637 68.2058 90.1813 68.2999 90.2872 68.394C90.4048 68.4881 90.5107 68.5705 90.6048 68.641C91.0165 68.194 91.3929 67.7647 91.7341 67.353C92.0869 66.9413 92.3398 66.6237 92.4928 66.4002L93.922 67.3883C93.7102 67.6706 93.4279 68.0117 93.075 68.4117C92.7221 68.7998 92.3398 69.2115 91.9281 69.6468C91.5164 70.0702 91.1165 70.4702 90.7283 70.8466C91.0812 70.8231 91.4223 70.7995 91.7517 70.776C92.0811 70.7525 92.3869 70.7348 92.6692 70.7231C92.5751 70.5584 92.481 70.4055 92.3869 70.2643C92.2928 70.1114 92.2046 69.9879 92.1222 69.8938L93.7102 69.1527C93.8749 69.3645 94.0749 69.6703 94.3101 70.0702C94.5572 70.4584 94.7983 70.8584 95.0336 71.2701C95.2688 71.67 95.4453 72.017 95.5629 72.3111C95.4335 72.3581 95.2571 72.4346 95.0336 72.5405C94.8101 72.6346 94.5866 72.7345 94.3631 72.8404C94.1513 72.9463 93.9867 73.0404 93.869 73.1227C93.822 73.0169 93.7632 72.8875 93.6926 72.7345C93.6338 72.5816 93.5632 72.4228 93.4809 72.2581C93.3162 72.2699 93.1221 72.2876 92.8986 72.3111C92.6869 72.3346 92.4634 72.3581 92.2281 72.3817V73.4756H99.2859V75.3459H92.2281V78.416H90.0578ZM97.8743 73.0169C97.7214 72.8522 97.5038 72.6522 97.2215 72.4169C96.9509 72.1699 96.6568 71.917 96.3392 71.6582C96.0216 71.3994 95.704 71.1583 95.3864 70.9348C95.0806 70.7113 94.8159 70.529 94.5925 70.3878L95.8276 69.0469C96.1687 69.2704 96.551 69.5468 96.9744 69.8761C97.3979 70.1937 97.8037 70.5113 98.1919 70.8289C98.5801 71.1348 98.88 71.3936 99.0918 71.6053C98.9271 71.7582 98.7154 71.9817 98.4566 72.2758C98.1978 72.5699 98.0037 72.8169 97.8743 73.0169Z" fill="#144F93"/>
<mask id="path-60-outside-1_420_14180" maskUnits="userSpaceOnUse" x="28.6902" y="80.4434" width="89" height="34" fill="black">
<rect fill="white" x="28.6902" y="80.4434" width="89" height="34"/>
<path d="M41.1294 82.8019C42.5319 82.8019 43.8811 83.0372 45.1771 83.5076C46.482 83.9781 47.6448 84.7281 48.6656 85.7578C49.6953 86.7875 50.5075 88.1545 51.1022 89.8588C51.7058 91.5542 52.012 93.6357 52.0209 96.1034C52.0209 98.4202 51.759 100.488 51.2353 102.308C50.7205 104.119 49.9793 105.659 49.0118 106.928C48.0442 108.198 46.877 109.165 45.51 109.831C44.143 110.488 42.6162 110.816 40.9297 110.816C39.11 110.816 37.5034 110.466 36.1097 109.764C34.7161 109.054 33.5932 108.091 32.7411 106.875C31.8978 105.65 31.3874 104.274 31.2099 102.747H36.8953C37.1172 103.742 37.5832 104.514 38.2934 105.064C39.0035 105.606 39.8823 105.876 40.9297 105.876C42.705 105.876 44.0542 105.104 44.9774 103.56C45.9005 102.006 46.3666 99.8804 46.3754 97.1819H46.189C45.7807 97.9808 45.2304 98.6687 44.538 99.2457C43.8456 99.8138 43.0512 100.253 42.1546 100.564C41.267 100.875 40.3216 101.03 39.3186 101.03C37.712 101.03 36.2784 100.653 35.0179 99.8981C33.7575 99.1436 32.7633 98.1051 32.0354 96.7825C31.3075 95.4599 30.9436 93.9508 30.9436 92.2554C30.9347 90.4269 31.3564 88.798 32.2085 87.3689C33.0607 85.9398 34.2501 84.8213 35.7769 84.0136C37.3125 83.1969 39.0967 82.7931 41.1294 82.8019ZM41.1694 87.329C40.2728 87.329 39.4739 87.542 38.7727 87.9681C38.0803 88.3941 37.53 88.9667 37.1217 89.6857C36.7222 90.4047 36.5269 91.208 36.5358 92.0957C36.5358 92.9922 36.7311 93.7999 37.1217 94.5189C37.5211 95.2291 38.0626 95.7972 38.7461 96.2232C39.4384 96.6404 40.2284 96.849 41.1161 96.849C41.7818 96.849 42.3988 96.7248 42.9669 96.4762C43.5349 96.2277 44.0276 95.8859 44.4448 95.451C44.8709 95.0072 45.2037 94.4968 45.4434 93.9198C45.6831 93.3428 45.8029 92.7303 45.8029 92.0823C45.794 91.2213 45.5899 90.4313 45.1904 89.7123C44.791 88.9933 44.2406 88.4163 43.5394 87.9814C42.8381 87.5464 42.0481 87.329 41.1694 87.329ZM52.603 105.65V101.11L63.9872 83.1748H67.9017V89.4593H65.5849L58.4083 100.817V101.03H74.5857V105.65H52.603ZM65.6915 110.443V104.265L65.798 102.255V83.1748H71.2038V110.443H65.6915ZM78.2835 110.79C77.4047 110.79 76.6502 110.479 76.02 109.858C75.3986 109.227 75.088 108.473 75.088 107.594C75.088 106.724 75.3986 105.979 76.02 105.357C76.6502 104.736 77.4047 104.425 78.2835 104.425C79.1357 104.425 79.8813 104.736 80.5204 105.357C81.1595 105.979 81.4791 106.724 81.4791 107.594C81.4791 108.18 81.3282 108.717 81.0264 109.205C80.7334 109.684 80.3473 110.071 79.868 110.364C79.3886 110.648 78.8605 110.79 78.2835 110.79ZM82.4015 110.443V107.57L89.1146 101.354C89.6856 100.802 90.1644 100.305 90.5512 99.8626C90.9441 99.4206 91.2419 98.9878 91.4445 98.5642C91.647 98.1344 91.7483 97.6709 91.7483 97.1736C91.7483 96.6211 91.6225 96.1453 91.3708 95.7463C91.1191 95.3411 90.7753 95.0311 90.3394 94.8162C89.9035 94.5952 89.4093 94.4847 88.8568 94.4847C88.2797 94.4847 87.7763 94.6013 87.3466 94.8346C86.9168 95.0679 86.5853 95.4025 86.352 95.8384C86.1187 96.2742 86.0021 96.793 86.0021 97.3946H82.2173C82.2173 96.1607 82.4966 95.0894 83.0553 94.1808C83.614 93.2722 84.3967 92.5693 85.4035 92.072C86.4103 91.5747 87.5706 91.3261 88.8844 91.3261C90.235 91.3261 91.4107 91.5655 92.4114 92.0444C93.4182 92.5171 94.2009 93.174 94.7596 94.015C95.3183 94.8561 95.5976 95.82 95.5976 96.9066C95.5976 97.6187 95.4564 98.3217 95.174 99.0154C94.8977 99.7091 94.4035 100.48 93.6914 101.327C92.9792 102.168 91.9755 103.178 90.6801 104.356L87.9267 107.055V107.184H95.8462V110.443H82.4015ZM101.408 101.523C100.163 101.523 99.1603 101.091 98.3997 100.226C97.639 99.3619 97.2587 98.195 97.2587 96.7255C97.2587 95.2733 97.639 94.1237 98.3997 93.2766C99.1603 92.4122 100.163 91.98 101.408 91.98C102.635 91.98 103.629 92.4122 104.39 93.2766C105.168 94.1237 105.557 95.2733 105.557 96.7255C105.557 98.195 105.168 99.3619 104.39 100.226C103.629 101.091 102.635 101.523 101.408 101.523ZM111.106 110.729C109.879 110.729 108.876 110.305 108.098 109.458C107.337 108.611 106.957 107.453 106.957 105.983C106.957 104.514 107.337 103.355 108.098 102.508C108.876 101.644 109.879 101.212 111.106 101.212C112.351 101.212 113.354 101.644 114.114 102.508C114.875 103.355 115.255 104.514 115.255 105.983C115.255 107.453 114.875 108.611 114.114 109.458C113.354 110.305 112.351 110.729 111.106 110.729ZM100.396 111.04L98.9442 110.003L112.169 91.6429L113.596 92.6801L100.396 111.04ZM111.106 108.369C112.299 108.369 112.896 107.574 112.896 105.983C112.896 104.393 112.299 103.597 111.106 103.597C109.913 103.597 109.317 104.393 109.317 105.983C109.317 107.574 109.913 108.369 111.106 108.369ZM101.408 99.1372C102.583 99.1372 103.171 98.3333 103.171 96.7255C103.171 95.1523 102.583 94.3657 101.408 94.3657C100.215 94.3657 99.6185 95.1523 99.6185 96.7255C99.6185 98.3333 100.215 99.1372 101.408 99.1372Z"/>
</mask>
<path d="M41.1294 82.8019C42.5319 82.8019 43.8811 83.0372 45.1771 83.5076C46.482 83.9781 47.6448 84.7281 48.6656 85.7578C49.6953 86.7875 50.5075 88.1545 51.1022 89.8588C51.7058 91.5542 52.012 93.6357 52.0209 96.1034C52.0209 98.4202 51.759 100.488 51.2353 102.308C50.7205 104.119 49.9793 105.659 49.0118 106.928C48.0442 108.198 46.877 109.165 45.51 109.831C44.143 110.488 42.6162 110.816 40.9297 110.816C39.11 110.816 37.5034 110.466 36.1097 109.764C34.7161 109.054 33.5932 108.091 32.7411 106.875C31.8978 105.65 31.3874 104.274 31.2099 102.747H36.8953C37.1172 103.742 37.5832 104.514 38.2934 105.064C39.0035 105.606 39.8823 105.876 40.9297 105.876C42.705 105.876 44.0542 105.104 44.9774 103.56C45.9005 102.006 46.3666 99.8804 46.3754 97.1819H46.189C45.7807 97.9808 45.2304 98.6687 44.538 99.2457C43.8456 99.8138 43.0512 100.253 42.1546 100.564C41.267 100.875 40.3216 101.03 39.3186 101.03C37.712 101.03 36.2784 100.653 35.0179 99.8981C33.7575 99.1436 32.7633 98.1051 32.0354 96.7825C31.3075 95.4599 30.9436 93.9508 30.9436 92.2554C30.9347 90.4269 31.3564 88.798 32.2085 87.3689C33.0607 85.9398 34.2501 84.8213 35.7769 84.0136C37.3125 83.1969 39.0967 82.7931 41.1294 82.8019ZM41.1694 87.329C40.2728 87.329 39.4739 87.542 38.7727 87.9681C38.0803 88.3941 37.53 88.9667 37.1217 89.6857C36.7222 90.4047 36.5269 91.208 36.5358 92.0957C36.5358 92.9922 36.7311 93.7999 37.1217 94.5189C37.5211 95.2291 38.0626 95.7972 38.7461 96.2232C39.4384 96.6404 40.2284 96.849 41.1161 96.849C41.7818 96.849 42.3988 96.7248 42.9669 96.4762C43.5349 96.2277 44.0276 95.8859 44.4448 95.451C44.8709 95.0072 45.2037 94.4968 45.4434 93.9198C45.6831 93.3428 45.8029 92.7303 45.8029 92.0823C45.794 91.2213 45.5899 90.4313 45.1904 89.7123C44.791 88.9933 44.2406 88.4163 43.5394 87.9814C42.8381 87.5464 42.0481 87.329 41.1694 87.329ZM52.603 105.65V101.11L63.9872 83.1748H67.9017V89.4593H65.5849L58.4083 100.817V101.03H74.5857V105.65H52.603ZM65.6915 110.443V104.265L65.798 102.255V83.1748H71.2038V110.443H65.6915ZM78.2835 110.79C77.4047 110.79 76.6502 110.479 76.02 109.858C75.3986 109.227 75.088 108.473 75.088 107.594C75.088 106.724 75.3986 105.979 76.02 105.357C76.6502 104.736 77.4047 104.425 78.2835 104.425C79.1357 104.425 79.8813 104.736 80.5204 105.357C81.1595 105.979 81.4791 106.724 81.4791 107.594C81.4791 108.18 81.3282 108.717 81.0264 109.205C80.7334 109.684 80.3473 110.071 79.868 110.364C79.3886 110.648 78.8605 110.79 78.2835 110.79ZM82.4015 110.443V107.57L89.1146 101.354C89.6856 100.802 90.1644 100.305 90.5512 99.8626C90.9441 99.4206 91.2419 98.9878 91.4445 98.5642C91.647 98.1344 91.7483 97.6709 91.7483 97.1736C91.7483 96.6211 91.6225 96.1453 91.3708 95.7463C91.1191 95.3411 90.7753 95.0311 90.3394 94.8162C89.9035 94.5952 89.4093 94.4847 88.8568 94.4847C88.2797 94.4847 87.7763 94.6013 87.3466 94.8346C86.9168 95.0679 86.5853 95.4025 86.352 95.8384C86.1187 96.2742 86.0021 96.793 86.0021 97.3946H82.2173C82.2173 96.1607 82.4966 95.0894 83.0553 94.1808C83.614 93.2722 84.3967 92.5693 85.4035 92.072C86.4103 91.5747 87.5706 91.3261 88.8844 91.3261C90.235 91.3261 91.4107 91.5655 92.4114 92.0444C93.4182 92.5171 94.2009 93.174 94.7596 94.015C95.3183 94.8561 95.5976 95.82 95.5976 96.9066C95.5976 97.6187 95.4564 98.3217 95.174 99.0154C94.8977 99.7091 94.4035 100.48 93.6914 101.327C92.9792 102.168 91.9755 103.178 90.6801 104.356L87.9267 107.055V107.184H95.8462V110.443H82.4015ZM101.408 101.523C100.163 101.523 99.1603 101.091 98.3997 100.226C97.639 99.3619 97.2587 98.195 97.2587 96.7255C97.2587 95.2733 97.639 94.1237 98.3997 93.2766C99.1603 92.4122 100.163 91.98 101.408 91.98C102.635 91.98 103.629 92.4122 104.39 93.2766C105.168 94.1237 105.557 95.2733 105.557 96.7255C105.557 98.195 105.168 99.3619 104.39 100.226C103.629 101.091 102.635 101.523 101.408 101.523ZM111.106 110.729C109.879 110.729 108.876 110.305 108.098 109.458C107.337 108.611 106.957 107.453 106.957 105.983C106.957 104.514 107.337 103.355 108.098 102.508C108.876 101.644 109.879 101.212 111.106 101.212C112.351 101.212 113.354 101.644 114.114 102.508C114.875 103.355 115.255 104.514 115.255 105.983C115.255 107.453 114.875 108.611 114.114 109.458C113.354 110.305 112.351 110.729 111.106 110.729ZM100.396 111.04L98.9442 110.003L112.169 91.6429L113.596 92.6801L100.396 111.04ZM111.106 108.369C112.299 108.369 112.896 107.574 112.896 105.983C112.896 104.393 112.299 103.597 111.106 103.597C109.913 103.597 109.317 104.393 109.317 105.983C109.317 107.574 109.913 108.369 111.106 108.369ZM101.408 99.1372C102.583 99.1372 103.171 98.3333 103.171 96.7255C103.171 95.1523 102.583 94.3657 101.408 94.3657C100.215 94.3657 99.6185 95.1523 99.6185 96.7255C99.6185 98.3333 100.215 99.1372 101.408 99.1372Z" fill="url(#paint1_linear_420_14180)"/>
<path d="M41.1294 82.8019L41.12 84.9629H41.1294V82.8019ZM45.1771 83.5076L44.4397 85.5389L44.4442 85.5405L45.1771 83.5076ZM48.6656 85.7578L47.1309 87.2792L47.1375 87.2859L48.6656 85.7578ZM51.1022 89.8588L49.0618 90.5708L49.0664 90.5836L51.1022 89.8588ZM52.0209 96.1034H54.1819L54.1819 96.0956L52.0209 96.1034ZM51.2353 102.308L49.1586 101.71L49.1567 101.717L51.2353 102.308ZM49.0118 106.928L50.7304 108.238L49.0118 106.928ZM45.51 109.831L46.4459 111.779L46.4562 111.774L45.51 109.831ZM36.1097 109.764L35.1286 111.69L35.1384 111.695L36.1097 109.764ZM32.7411 106.875L30.9611 108.1L30.9662 108.108L30.9714 108.115L32.7411 106.875ZM31.2099 102.747V100.586H28.7831L29.0634 102.997L31.2099 102.747ZM36.8953 102.747L39.0044 102.277L38.6271 100.586H36.8953V102.747ZM38.2934 105.064L36.9696 106.772L36.9763 106.778L36.9831 106.783L38.2934 105.064ZM44.9774 103.56L46.8323 104.668L46.8351 104.664L44.9774 103.56ZM46.3754 97.1819L48.5364 97.189L48.5435 95.0209H46.3754V97.1819ZM46.189 97.1819V95.0209H44.8666L44.2648 96.1984L46.189 97.1819ZM44.538 99.2457L45.9087 100.916L45.9151 100.911L45.9214 100.906L44.538 99.2457ZM42.1546 100.564L41.4471 98.522L41.4408 98.5242L42.1546 100.564ZM35.0179 99.8981L33.908 101.752L35.0179 99.8981ZM32.0354 96.7825L30.1422 97.8244L32.0354 96.7825ZM30.9436 92.2554H33.1046L33.1046 92.2449L30.9436 92.2554ZM32.2085 87.3689L34.0646 88.4756L32.2085 87.3689ZM35.7769 84.0136L36.7875 85.9237L36.7915 85.9216L35.7769 84.0136ZM38.7727 87.9681L37.6506 86.1212L37.6401 86.1277L38.7727 87.9681ZM37.1217 89.6857L35.2426 88.6185L35.2375 88.6273L35.2326 88.6362L37.1217 89.6857ZM36.5358 92.0957H38.6968V92.0848L38.6967 92.074L36.5358 92.0957ZM37.1217 94.5189L35.2228 95.5504L35.2304 95.5645L35.2382 95.5784L37.1217 94.5189ZM38.7461 96.2232L37.6029 98.0571L37.6168 98.0657L37.6308 98.0742L38.7461 96.2232ZM42.9669 96.4762L42.1007 94.4964H42.1007L42.9669 96.4762ZM44.4448 95.451L42.8859 93.9544L42.8853 93.9551L44.4448 95.451ZM45.4434 93.9198L47.4391 94.7487H47.4391L45.4434 93.9198ZM45.8029 92.0823H47.9639V92.0712L47.9638 92.0601L45.8029 92.0823ZM45.1904 89.7123L47.0795 88.6628V88.6628L45.1904 89.7123ZM43.5394 87.9814L44.6784 86.145L44.6784 86.145L43.5394 87.9814ZM41.1294 84.9629C42.2849 84.9629 43.3842 85.1558 44.4397 85.5389L45.9145 81.4763C44.378 80.9186 42.779 80.641 41.1294 80.641V84.9629ZM44.4442 85.5405C45.4334 85.8972 46.3256 86.4669 47.1309 87.2792L50.2002 84.2364C48.964 82.9894 47.5305 82.059 45.9101 81.4747L44.4442 85.5405ZM47.1375 87.2859C47.8888 88.0372 48.5492 89.1017 49.0619 90.5708L53.1425 89.1468C52.4657 87.2073 51.5017 85.5378 50.1936 84.2298L47.1375 87.2859ZM49.0664 90.5836C49.5639 91.9809 49.8516 93.8036 49.8599 96.1112L54.1819 96.0956C54.1724 93.4679 53.8477 91.1275 53.138 89.134L49.0664 90.5836ZM49.8599 96.1034C49.8599 98.2613 49.6156 100.123 49.1586 101.71L53.312 102.906C53.9025 100.854 54.1819 98.579 54.1819 96.1034H49.8599ZM49.1567 101.717C48.7028 103.314 48.0702 104.599 47.2931 105.618L50.7304 108.238C51.8884 106.719 52.7382 104.924 53.3139 102.899L49.1567 101.717ZM47.2931 105.618C46.5197 106.633 45.6123 107.377 44.5638 107.888L46.4562 111.774C48.1416 110.953 49.5688 109.762 50.7304 108.238L47.2931 105.618ZM44.574 107.883C43.5304 108.385 42.3289 108.655 40.9297 108.655V112.977C42.9036 112.977 44.7556 112.591 46.4459 111.779L44.574 107.883ZM40.9297 108.655C39.3913 108.655 38.127 108.36 37.0811 107.834L35.1384 111.695C36.8797 112.571 38.8287 112.977 40.9297 112.977V108.655ZM37.0908 107.839C35.9949 107.28 35.1492 106.546 34.5108 105.635L30.9714 108.115C32.0373 109.636 33.4374 110.828 35.1286 111.69L37.0908 107.839ZM34.5211 105.65C33.8846 104.725 33.4946 103.687 33.3564 102.498L29.0634 102.997C29.2802 104.862 29.911 106.575 30.9611 108.1L34.5211 105.65ZM31.2099 104.908H36.8953V100.586H31.2099V104.908ZM34.7862 103.218C35.1023 104.634 35.8086 105.873 36.9696 106.772L39.6171 103.356C39.3579 103.155 39.1322 102.849 39.0044 102.277L34.7862 103.218ZM36.9831 106.783C38.1321 107.659 39.4938 108.037 40.9297 108.037V103.715C40.2707 103.715 39.8749 103.553 39.6037 103.346L36.9831 106.783ZM40.9297 108.037C43.478 108.037 45.5255 106.855 46.8323 104.668L43.1225 102.451C42.5829 103.354 41.932 103.715 40.9297 103.715V108.037ZM46.8351 104.664C48.0297 102.654 48.5268 100.097 48.5364 97.189L44.2145 97.1748C44.2063 99.6641 43.7714 101.359 43.1197 102.456L46.8351 104.664ZM46.3754 95.0209H46.189V99.3429H46.3754V95.0209ZM44.2648 96.1984C43.9899 96.7364 43.6239 97.1945 43.1546 97.5856L45.9214 100.906C46.8368 100.143 47.5716 99.2252 48.1132 98.1654L44.2648 96.1984ZM43.1672 97.5751C42.6838 97.9718 42.1168 98.2899 41.4471 98.522L42.8622 102.606C43.9855 102.216 45.0075 101.656 45.9087 100.916L43.1672 97.5751ZM41.4408 98.5242C40.7974 98.7494 40.0948 98.8689 39.3186 98.8689V103.191C40.5485 103.191 41.7366 103 42.8685 102.604L41.4408 98.5242ZM39.3186 98.8689C38.0651 98.8689 37.0219 98.5791 36.1278 98.0439L33.908 101.752C35.5349 102.726 37.3588 103.191 39.3186 103.191V98.8689ZM36.1278 98.0439C35.2052 97.4917 34.4773 96.7375 33.9286 95.7406L30.1422 97.8244C31.0493 99.4726 32.3097 100.796 33.908 101.752L36.1278 98.0439ZM33.9286 95.7406C33.3972 94.7748 33.1046 93.6321 33.1046 92.2554H28.7826C28.7826 94.2696 29.2179 96.1449 30.1422 97.8244L33.9286 95.7406ZM33.1046 92.2449C33.0974 90.7694 33.4334 89.5341 34.0646 88.4756L30.3524 86.2622C29.2793 88.0619 28.7721 90.0843 28.7826 92.2659L33.1046 92.2449ZM34.0646 88.4756C34.7059 87.4001 35.5968 86.5536 36.7875 85.9237L34.7663 82.1035C32.9034 83.0891 31.4154 84.4795 30.3524 86.2622L34.0646 88.4756ZM36.7915 85.9216C37.9626 85.2988 39.3838 84.9553 41.12 84.9629L41.1388 80.641C38.8095 80.6308 36.6624 81.0951 34.7622 82.1056L36.7915 85.9216ZM41.1694 85.168C39.915 85.168 38.721 85.4709 37.6506 86.1213L39.8948 89.8149C40.2269 89.6131 40.6307 89.4899 41.1694 89.4899V85.168ZM37.6401 86.1277C36.6323 86.7479 35.8274 87.5887 35.2426 88.6185L39.0008 90.7528C39.2325 90.3447 39.5284 90.0404 39.9053 89.8085L37.6401 86.1277ZM35.2326 88.6362C34.637 89.7084 34.3626 90.8857 34.3749 92.1173L38.6967 92.074C38.6912 91.5303 38.8075 91.1009 39.0107 90.7351L35.2326 88.6362ZM34.3748 92.0957C34.3748 93.3172 34.6441 94.4852 35.2228 95.5504L39.0206 93.4874C38.8181 93.1147 38.6968 92.6672 38.6968 92.0957H34.3748ZM35.2382 95.5784C35.8133 96.6009 36.6078 97.4368 37.6029 98.0571L39.8892 94.3894C39.5173 94.1575 39.2289 93.8573 39.0051 93.4595L35.2382 95.5784ZM37.6308 98.0742C38.6923 98.7138 39.8752 99.01 41.1161 99.01V94.688C40.5817 94.688 40.1846 94.5671 39.8614 94.3723L37.6308 98.0742ZM41.1161 99.01C42.0577 99.01 42.9721 98.8327 43.833 98.456L42.1007 94.4964C41.8254 94.6169 41.506 94.688 41.1161 94.688V99.01ZM43.833 98.456C44.6542 98.0968 45.3844 97.5932 46.0043 96.9469L42.8853 93.9551C42.6708 94.1787 42.4157 94.3586 42.1007 94.4964L43.833 98.456ZM46.0037 96.9475C46.6184 96.3072 47.0981 95.5695 47.4391 94.7487L43.4477 93.0908C43.3093 93.424 43.1233 93.7071 42.8859 93.9544L46.0037 96.9475ZM47.4391 94.7487C47.7919 93.8992 47.9639 93.0041 47.9639 92.0823H43.6419C43.6419 92.4566 43.5742 92.7864 43.4477 93.0908L47.4391 94.7487ZM47.9638 92.0601C47.9514 90.8568 47.6619 89.7112 47.0795 88.6628L43.3014 90.7618C43.5178 91.1514 43.6367 91.5858 43.642 92.1046L47.9638 92.0601ZM47.0795 88.6628C46.5005 87.6208 45.6916 86.7734 44.6784 86.145L42.4003 89.8178C42.7897 90.0593 43.0814 90.3658 43.3014 90.7618L47.0795 88.6628ZM44.6784 86.145C43.6127 85.4839 42.4234 85.168 41.1694 85.168V89.4899C41.6729 89.4899 42.0636 89.6089 42.4003 89.8178L44.6784 86.145ZM52.603 105.65H50.442V107.811H52.603V105.65ZM52.603 101.11L50.7785 99.9517L50.442 100.482V101.11H52.603ZM63.9872 83.1748V81.0138H62.7993L62.1627 82.0167L63.9872 83.1748ZM67.9017 83.1748H70.0627V81.0138H67.9017V83.1748ZM67.9017 89.4593V91.6203H70.0627V89.4593H67.9017ZM65.5849 89.4593V87.2983H64.3942L63.7581 88.305L65.5849 89.4593ZM58.4083 100.817L56.5814 99.6625L56.2473 100.191V100.817H58.4083ZM58.4083 101.03H56.2473V103.191H58.4083V101.03ZM74.5857 101.03H76.7467V98.8689H74.5857V101.03ZM74.5857 105.65V107.811H76.7467V105.65H74.5857ZM65.6915 110.443H63.5305V112.604H65.6915V110.443ZM65.6915 104.265L63.5335 104.151L63.5305 104.208V104.265H65.6915ZM65.798 102.255L67.9559 102.369L67.959 102.312V102.255H65.798ZM65.798 83.1748V81.0138H63.637V83.1748H65.798ZM71.2038 83.1748H73.3648V81.0138H71.2038V83.1748ZM71.2038 110.443V112.604H73.3648V110.443H71.2038ZM54.764 105.65V101.11H50.442V105.65H54.764ZM54.4275 102.268L65.8116 84.3328L62.1627 82.0167L50.7785 99.9517L54.4275 102.268ZM63.9872 85.3357H67.9017V81.0138H63.9872V85.3357ZM65.7407 83.1748V89.4593H70.0627V83.1748H65.7407ZM67.9017 87.2983H65.5849V91.6203H67.9017V87.2983ZM63.7581 88.305L56.5814 99.6625L60.2351 101.971L67.4118 90.6137L63.7581 88.305ZM56.2473 100.817V101.03H60.5692V100.817H56.2473ZM58.4083 103.191H74.5857V98.8689H58.4083V103.191ZM72.4247 101.03V105.65H76.7467V101.03H72.4247ZM74.5857 103.489H52.603V107.811H74.5857V103.489ZM67.8524 110.443V104.265H63.5305V110.443H67.8524ZM67.8494 104.38L67.9559 102.369L63.64 102.141L63.5335 104.151L67.8494 104.38ZM67.959 102.255V83.1748H63.637V102.255H67.959ZM65.798 85.3357H71.2038V81.0138H65.798V85.3357ZM69.0428 83.1748V110.443H73.3648V83.1748H69.0428ZM71.2038 108.282H65.6915V112.604H71.2038V108.282ZM76.02 109.858L74.4811 111.375L74.4919 111.386L74.5028 111.396L76.02 109.858ZM76.02 105.357L74.5028 103.818L74.4974 103.824L74.4919 103.829L76.02 105.357ZM80.5204 105.357L79.014 106.907L80.5204 105.357ZM81.0264 109.205L79.1882 108.069L79.1824 108.078L81.0264 109.205ZM79.868 110.364L80.9696 112.223L80.9823 112.215L80.9948 112.207L79.868 110.364ZM78.2835 108.629C77.9771 108.629 77.7663 108.545 77.5372 108.319L74.5028 111.396C75.5342 112.413 76.8324 112.951 78.2835 112.951V108.629ZM77.5588 108.34C77.3329 108.111 77.2489 107.9 77.2489 107.594H72.927C72.927 109.045 73.4643 110.343 74.4811 111.375L77.5588 108.34ZM77.2489 107.594C77.2489 107.304 77.3273 107.106 77.548 106.885L74.4919 103.829C73.47 104.851 72.927 106.145 72.927 107.594H77.2489ZM77.5372 106.896C77.7663 106.67 77.9771 106.586 78.2835 106.586V102.264C76.8324 102.264 75.5342 102.802 74.5028 103.818L77.5372 106.896ZM78.2835 106.586C78.545 106.586 78.7577 106.657 79.014 106.907L82.0268 103.808C81.0049 102.814 79.7263 102.264 78.2835 102.264V106.586ZM79.014 106.907C79.2463 107.132 79.3181 107.324 79.3181 107.594H83.64C83.64 106.124 83.0727 104.825 82.0268 103.808L79.014 106.907ZM79.3181 107.594C79.3181 107.787 79.2744 107.929 79.1882 108.069L82.8645 110.341C83.3819 109.504 83.64 108.573 83.64 107.594H79.3181ZM79.1824 108.078C79.0683 108.265 78.9279 108.405 78.7411 108.52L80.9948 112.207C81.7667 111.736 82.3986 111.104 82.8703 110.332L79.1824 108.078ZM78.7663 108.504C78.6326 108.584 78.4872 108.629 78.2835 108.629V112.951C79.2337 112.951 80.1446 112.712 80.9696 112.223L78.7663 108.504ZM82.4015 110.443H80.2405V112.604H82.4015V110.443ZM82.4015 107.57L80.9333 105.985L80.2405 106.626V107.57H82.4015ZM89.1146 101.354L90.5828 102.94L90.6003 102.924L90.6174 102.907L89.1146 101.354ZM90.5512 99.8626L88.9361 98.4269L88.9305 98.4332L88.9249 98.4396L90.5512 99.8626ZM91.4445 98.5642L93.394 99.4965L93.3991 99.4856L91.4445 98.5642ZM91.3708 95.7463L89.5352 96.8866L89.5391 96.8929L89.543 96.8992L91.3708 95.7463ZM90.3394 94.8162L89.3621 96.7436L89.373 96.7491L89.3839 96.7545L90.3394 94.8162ZM86.352 95.8384L88.2573 96.8581L88.2573 96.8581L86.352 95.8384ZM86.0021 97.3946V99.5556H88.1631V97.3946H86.0021ZM82.2173 97.3946H80.0563V99.5556H82.2173V97.3946ZM83.0553 94.1808L84.8961 95.3127L83.0553 94.1808ZM85.4035 92.072L84.4466 90.1345L85.4035 92.072ZM92.4114 92.0444L91.4786 93.9937L91.4858 93.9971L91.493 94.0005L92.4114 92.0444ZM94.7596 94.015L92.9595 95.2107V95.2107L94.7596 94.015ZM95.174 99.0154L93.1725 98.2006L93.1694 98.2082L93.1664 98.2159L95.174 99.0154ZM93.6914 101.327L95.3406 102.723L95.3456 102.717L93.6914 101.327ZM90.6801 104.356L89.2257 102.758L89.1962 102.785L89.1676 102.813L90.6801 104.356ZM87.9267 107.055L86.4142 105.511L85.7657 106.147V107.055H87.9267ZM87.9267 107.184H85.7657V109.345H87.9267V107.184ZM95.8462 107.184H98.0072V105.023H95.8462V107.184ZM95.8462 110.443V112.604H98.0072V110.443H95.8462ZM84.5625 110.443V107.57H80.2405V110.443H84.5625ZM83.8697 109.156L90.5828 102.94L87.6465 99.7688L80.9333 105.985L83.8697 109.156ZM90.6174 102.907C91.2175 102.327 91.7405 101.785 92.1775 101.286L88.9249 98.4396C88.5884 98.8241 88.1537 99.2771 87.6119 99.8015L90.6174 102.907ZM92.1663 101.298C92.6606 100.742 93.0848 100.143 93.394 99.4965L89.495 97.6318C89.3989 97.8327 89.2276 98.0989 88.9361 98.4269L92.1663 101.298ZM93.3991 99.4856C93.7439 98.7542 93.9093 97.9743 93.9093 97.1736H89.5874C89.5874 97.3675 89.5502 97.5146 89.4898 97.6427L93.3991 99.4856ZM93.9093 97.1736C93.9093 96.2841 93.7029 95.3931 93.1985 94.5934L89.543 96.8992C89.5468 96.9051 89.5556 96.9201 89.5648 96.955C89.5746 96.9921 89.5874 97.0614 89.5874 97.1736H93.9093ZM93.2064 94.606C92.7374 93.8511 92.0858 93.2678 91.2949 92.8779L89.3839 96.7545C89.4648 96.7943 89.5007 96.8311 89.5352 96.8866L93.2064 94.606ZM91.3167 92.8888C90.5404 92.4952 89.7042 92.3237 88.8568 92.3237V96.6457C89.1145 96.6457 89.2667 96.6952 89.3621 96.7436L91.3167 92.8888ZM88.8568 92.3237C87.9846 92.3237 87.1144 92.5018 86.3156 92.9354L88.3776 96.7338C88.4383 96.7008 88.5749 96.6457 88.8568 96.6457V92.3237ZM86.3156 92.9354C85.5104 93.3725 84.877 94.0149 84.4468 94.8187L88.2573 96.8581C88.2937 96.7901 88.3232 96.7633 88.3776 96.7338L86.3156 92.9354ZM84.4468 94.8187C84.0129 95.6293 83.8411 96.5137 83.8411 97.3946H88.1631C88.1631 97.0723 88.2246 96.9192 88.2573 96.8581L84.4468 94.8187ZM86.0021 95.2337H82.2173V99.5556H86.0021V95.2337ZM84.3783 97.3946C84.3783 96.4965 84.5779 95.8303 84.8961 95.3127L81.2145 93.0489C80.4154 94.3485 80.0563 95.8249 80.0563 97.3946H84.3783ZM84.8961 95.3127C85.2304 94.7691 85.6981 94.3367 86.3605 94.0095L84.4466 90.1345C83.0954 90.8018 81.9976 91.7753 81.2145 93.0489L84.8961 95.3127ZM86.3605 94.0095C87.0231 93.6823 87.8463 93.4871 88.8844 93.4871V89.1651C87.295 89.1651 85.7976 89.4672 84.4466 90.1345L86.3605 94.0095ZM88.8844 93.4871C89.9812 93.4871 90.8255 93.6812 91.4786 93.9937L93.3442 90.0951C91.9959 89.4499 90.4889 89.1651 88.8844 89.1651V93.4871ZM91.493 94.0005C92.1794 94.3228 92.6415 94.7319 92.9595 95.2107L96.5597 92.8194C95.7604 91.6161 94.657 90.7114 93.3298 90.0883L91.493 94.0005ZM92.9595 95.2107C93.2647 95.6702 93.4366 96.2114 93.4366 96.9066H97.7586C97.7586 95.4285 97.3718 94.042 96.5597 92.8194L92.9595 95.2107ZM93.4366 96.9066C93.4366 97.3251 93.3551 97.752 93.1725 98.2006L97.1755 99.8302C97.5577 98.8913 97.7586 97.9124 97.7586 96.9066H93.4366ZM93.1664 98.2159C93.0061 98.6183 92.6652 99.1891 92.0372 99.9363L95.3456 102.717C96.1418 101.77 96.7894 100.8 97.1816 99.8149L93.1664 98.2159ZM92.0422 99.9304C91.415 100.671 90.4871 101.61 89.2257 102.758L92.1345 105.955C93.4639 104.745 94.5435 103.665 95.3406 102.723L92.0422 99.9304ZM89.1676 102.813L86.4142 105.511L89.4392 108.598L92.1926 105.9L89.1676 102.813ZM85.7657 107.055V107.184H90.0877V107.055H85.7657ZM87.9267 109.345H95.8462V105.023H87.9267V109.345ZM93.6852 107.184V110.443H98.0072V107.184H93.6852ZM95.8462 108.282H82.4015V112.604H95.8462V108.282ZM98.3997 100.226L96.7774 101.654L98.3997 100.226ZM98.3997 93.2766L100.008 94.7204L100.015 94.7123L100.022 94.7042L98.3997 93.2766ZM104.39 93.2766L102.768 94.7042L102.783 94.7214L102.798 94.7383L104.39 93.2766ZM104.39 100.226L102.784 98.7807L102.776 98.7896L102.768 98.7987L104.39 100.226ZM108.098 109.458L106.49 110.902L106.498 110.911L106.507 110.92L108.098 109.458ZM108.098 102.508L106.492 101.063L106.49 101.064L108.098 102.508ZM114.114 102.508L112.492 103.936L112.499 103.944L112.506 103.952L114.114 102.508ZM114.114 109.458L112.506 108.014L114.114 109.458ZM100.396 111.04L99.1404 112.798L100.893 114.051L102.151 112.301L100.396 111.04ZM98.9442 110.003L97.1908 108.74L95.9227 110.5L97.6882 111.761L98.9442 110.003ZM112.169 91.6429L113.44 89.8952L111.685 88.6184L110.416 90.3798L112.169 91.6429ZM113.596 92.6801L115.35 93.9416L116.605 92.1966L114.867 90.9325L113.596 92.6801ZM101.408 99.3619C100.727 99.3619 100.336 99.1559 100.022 98.7987L96.7774 101.654C97.9844 103.025 99.5988 103.684 101.408 103.684V99.3619ZM100.022 98.7987C99.6959 98.4282 99.4197 97.8188 99.4197 96.7255H95.0977C95.0977 98.5711 95.5821 100.296 96.7774 101.654L100.022 98.7987ZM99.4197 96.7255C99.4197 95.6547 99.6927 95.071 100.008 94.7204L96.7918 91.8328C95.5853 93.1764 95.0977 94.8919 95.0977 96.7255H99.4197ZM100.022 94.7042C100.336 94.347 100.727 94.141 101.408 94.141V89.819C99.5988 89.819 97.9844 90.4774 96.7774 91.849L100.022 94.7042ZM101.408 94.141C102.061 94.141 102.447 94.3397 102.768 94.7042L106.012 91.849C104.812 90.4846 103.21 89.819 101.408 89.819V94.141ZM102.798 94.7383C103.121 95.0898 103.396 95.6669 103.396 96.7255H107.718C107.718 94.8797 107.215 93.1576 105.982 91.8149L102.798 94.7383ZM103.396 96.7255C103.396 97.8069 103.118 98.4095 102.784 98.7807L105.996 101.672C107.218 100.314 107.718 98.583 107.718 96.7255H103.396ZM102.768 98.7987C102.447 99.1631 102.061 99.3619 101.408 99.3619V103.684C103.21 103.684 104.812 103.018 106.012 101.654L102.768 98.7987ZM111.106 108.568C110.438 108.568 110.029 108.365 109.69 107.996L106.507 110.92C107.724 112.245 109.319 112.89 111.106 112.89V108.568ZM109.706 108.014C109.395 107.668 109.118 107.079 109.118 105.983H104.796C104.796 107.826 105.28 109.554 106.49 110.902L109.706 108.014ZM109.118 105.983C109.118 104.887 109.395 104.298 109.706 103.952L106.49 101.064C105.28 102.413 104.796 104.14 104.796 105.983H109.118ZM109.704 103.954C110.048 103.573 110.453 103.373 111.106 103.373V99.0507C109.305 99.0507 107.705 99.7151 106.492 101.063L109.704 103.954ZM111.106 103.373C111.787 103.373 112.178 103.579 112.492 103.936L115.737 101.081C114.53 99.7091 112.915 99.0507 111.106 99.0507V103.373ZM112.506 103.952C112.817 104.298 113.094 104.887 113.094 105.983H117.416C117.416 104.14 116.933 102.413 115.722 101.064L112.506 103.952ZM113.094 105.983C113.094 107.079 112.817 107.668 112.506 108.014L115.722 110.902C116.933 109.554 117.416 107.826 117.416 105.983H113.094ZM112.506 108.014C112.197 108.359 111.802 108.568 111.106 108.568V112.89C112.9 112.89 114.511 112.251 115.722 110.902L112.506 108.014ZM101.652 109.281L100.2 108.244L97.6882 111.761L99.1404 112.798L101.652 109.281ZM100.698 111.266L113.923 92.9059L110.416 90.3798L97.1908 108.74L100.698 111.266ZM110.898 93.3905L112.325 94.4278L114.867 90.9325L113.44 89.8952L110.898 93.3905ZM111.841 91.4187L98.6418 109.778L102.151 112.301L115.35 93.9416L111.841 91.4187ZM111.106 110.53C112.23 110.53 113.387 110.123 114.177 109.069C114.879 108.132 115.057 106.986 115.057 105.983H110.735C110.735 106.253 110.709 106.418 110.687 106.503C110.667 106.586 110.66 106.555 110.719 106.476C110.75 106.436 110.792 106.39 110.847 106.346C110.902 106.302 110.958 106.269 111.011 106.245C111.118 106.198 111.167 106.208 111.106 106.208V110.53ZM115.057 105.983C115.057 104.98 114.879 103.834 114.177 102.897C113.387 101.844 112.23 101.436 111.106 101.436V105.758C111.167 105.758 111.118 105.768 111.011 105.721C110.958 105.698 110.902 105.664 110.847 105.62C110.792 105.577 110.75 105.531 110.719 105.49C110.66 105.411 110.667 105.381 110.687 105.464C110.709 105.549 110.735 105.714 110.735 105.983H115.057ZM111.106 101.436C109.983 101.436 108.826 101.844 108.035 102.897C107.333 103.834 107.156 104.98 107.156 105.983H111.478C111.478 105.714 111.504 105.549 111.525 105.464C111.546 105.381 111.552 105.411 111.493 105.49C111.463 105.531 111.421 105.577 111.366 105.62C111.311 105.664 111.254 105.698 111.201 105.721C111.095 105.768 111.046 105.758 111.106 105.758V101.436ZM107.156 105.983C107.156 106.986 107.333 108.132 108.035 109.069C108.826 110.123 109.983 110.53 111.106 110.53V106.208C111.046 106.208 111.095 106.198 111.201 106.245C111.254 106.269 111.311 106.302 111.366 106.346C111.421 106.39 111.463 106.436 111.493 106.476C111.552 106.555 111.546 106.586 111.525 106.503C111.504 106.418 111.478 106.253 111.478 105.983H107.156ZM101.408 101.298C102.544 101.298 103.697 100.873 104.475 99.8097C105.16 98.8723 105.332 97.7288 105.332 96.7255H101.01C101.01 97.0028 100.984 97.1757 100.961 97.2689C100.939 97.3605 100.93 97.3354 100.986 97.2588C101.051 97.1692 101.156 97.0778 101.283 97.0201C101.397 96.968 101.457 96.9762 101.408 96.9762V101.298ZM105.332 96.7255C105.332 95.7323 105.158 94.5939 104.461 93.6621C103.677 92.6121 102.526 92.2047 101.408 92.2047V96.5267C101.463 96.5267 101.409 96.5358 101.299 96.4867C101.244 96.4623 101.186 96.4277 101.129 96.3826C101.073 96.3376 101.03 96.2906 100.999 96.2492C100.938 96.1679 100.944 96.1349 100.964 96.2154C100.985 96.2981 101.01 96.4597 101.01 96.7255H105.332ZM101.408 92.2047C100.293 92.2047 99.1373 92.6035 98.3438 93.65C97.6359 94.5836 97.4575 95.7274 97.4575 96.7255H101.779C101.779 96.4617 101.805 96.3026 101.825 96.2226C101.845 96.1452 101.85 96.1798 101.788 96.2613C101.756 96.3026 101.713 96.3486 101.658 96.3922C101.603 96.4358 101.547 96.4686 101.495 96.4915C101.391 96.5371 101.344 96.5267 101.408 96.5267V92.2047ZM97.4575 96.7255C97.4575 97.7336 97.6333 98.8824 98.3303 99.8219C99.117 100.882 100.275 101.298 101.408 101.298V96.9762C101.35 96.9762 101.402 96.9666 101.511 97.0152C101.564 97.0394 101.622 97.0735 101.676 97.1177C101.731 97.1618 101.772 97.2073 101.801 97.2466C101.858 97.3236 101.85 97.3503 101.828 97.2618C101.806 97.1713 101.779 97.0009 101.779 96.7255H97.4575Z" fill="white" mask="url(#path-60-outside-1_420_14180)"/>
<defs>
<filter id="filter0_i_420_14180" x="0.33667" y="0.336792" width="144.855" height="144.855" filterUnits="userSpaceOnUse" color-interpolation-filters="sRGB">
<feFlood flood-opacity="0" result="BackgroundImageFix"/>
<feBlend mode="normal" in="SourceGraphic" in2="BackgroundImageFix" result="shape"/>
<feColorMatrix in="SourceAlpha" type="matrix" values="0 0 0 0 0 0 0 0 0 0 0 0 0 0 0 0 0 0 127 0" result="hardAlpha"/>
<feOffset/>
<feGaussianBlur stdDeviation="1.42607"/>
<feComposite in2="hardAlpha" operator="arithmetic" k2="-1" k3="1"/>
<feColorMatrix type="matrix" values="0 0 0 0 0 0 0 0 0 0 0 0 0 0 0 0 0 0 0.25 0"/>
<feBlend mode="normal" in2="shape" result="effect1_innerShadow_420_14180"/>
</filter>
<linearGradient id="paint0_linear_420_14180" x1="72.7644" y1="6" x2="72.7644" y2="139.529" gradientUnits="userSpaceOnUse">
<stop stop-color="white"/>
<stop offset="1" stop-color="#A97E11"/>
</linearGradient>
<linearGradient id="paint1_linear_420_14180" x1="72.6902" y1="86.3184" x2="72.6902" y2="114.756" gradientUnits="userSpaceOnUse">
<stop stop-color="#FFAD1B"/>
<stop offset="1" stop-color="#FE7A0F"/>
</linearGradient>
</defs>
</svg>
