<svg width="247" height="76" viewBox="0 0 247 76" fill="none" xmlns="http://www.w3.org/2000/svg">
<path d="M3.144 26.7616C2.904 26.5856 2.6 26.4016 2.232 26.2096C1.864 26.0336 1.488 25.8656 1.104 25.7056C0.72 25.5456 0.376 25.4336 0.072 25.3696C0.824 24.0736 1.384 22.5776 1.752 20.8816C2.12 19.1856 2.304 17.1536 2.304 14.7856V5.40162H21.816V11.3776H5.712V12.1696H22.752V14.6896H19.152C19.696 15.1856 20.24 15.7056 20.784 16.2496C21.328 16.7776 21.816 17.2736 22.248 17.7376C21.848 17.9936 21.416 18.3296 20.952 18.7456C20.488 19.1616 20.104 19.5616 19.8 19.9456C19.64 19.7216 19.464 19.4896 19.272 19.2496C19.096 19.0096 18.896 18.7616 18.672 18.5056C18.24 18.5536 17.728 18.6016 17.136 18.6496C16.56 18.6976 15.944 18.7376 15.288 18.7696V19.9696H20.16V22.6096H15.288V23.8816H22.44V26.4976H5.184V23.8816H11.784V22.6096H6.72V19.9696H11.784V19.0096C10.696 19.0736 9.672 19.1296 8.712 19.1776C7.768 19.2096 7.016 19.2256 6.456 19.2256L6.072 16.5376C6.392 16.5216 6.784 16.5136 7.248 16.5136C7.712 16.4976 8.224 16.4816 8.784 16.4656C8.96 16.1776 9.136 15.8736 9.312 15.5536C9.488 15.2336 9.648 14.9456 9.792 14.6896H5.712V14.7856C5.712 17.2976 5.496 19.5776 5.064 21.6256C4.632 23.6736 3.992 25.3856 3.144 26.7616ZM5.712 8.85762H18.384V7.92162H5.712V8.85762ZM12.36 16.3696C13.064 16.3376 13.768 16.3136 14.472 16.2976C15.176 16.2656 15.824 16.2336 16.416 16.2016C16.224 16.0256 16.024 15.8656 15.816 15.7216C15.624 15.5616 15.432 15.4016 15.24 15.2416L15.96 14.6896H13.368C13.016 15.2816 12.68 15.8416 12.36 16.3696ZM45.12 27.0736C44.272 26.5616 43.48 25.8976 42.744 25.0816C42.008 24.2656 41.36 23.3616 40.8 22.3696V24.8416C40.416 24.9856 39.896 25.1456 39.24 25.3216C38.584 25.4976 37.872 25.6816 37.104 25.8736C36.352 26.0656 35.632 26.2416 34.944 26.4016C34.256 26.5616 33.68 26.6896 33.216 26.7856L32.496 23.3536C32.736 23.3216 33.048 23.2816 33.432 23.2336C33.832 23.1696 34.264 23.0976 34.728 23.0176V18.4096C34.424 18.6816 34.128 18.9616 33.84 19.2496C33.552 19.5376 33.32 19.7856 33.144 19.9936C32.712 19.5456 32.216 18.9376 31.656 18.1696V26.8336H28.32V19.5376C28.112 19.9216 27.896 20.2896 27.672 20.6416C27.464 20.9776 27.256 21.2816 27.048 21.5536C26.696 21.2656 26.256 20.9616 25.728 20.6416C25.2 20.3216 24.712 20.0576 24.264 19.8496C24.808 19.2096 25.336 18.4416 25.848 17.5456C26.376 16.6496 26.84 15.7296 27.24 14.7856C27.656 13.8416 27.96 12.9776 28.152 12.1936H25.08V9.12162H28.32V5.04162H31.656V9.12162H34.104V12.1936H31.656V13.3936C31.88 13.7136 32.16 14.0816 32.496 14.4976C32.848 14.9136 33.216 15.3376 33.6 15.7696C34 16.1856 34.376 16.5696 34.728 16.9216V5.40162H45.744V16.2016H45.144L47.184 18.6016C46.736 18.9536 46.216 19.3296 45.624 19.7296C45.032 20.1296 44.448 20.5056 43.872 20.8576C44.4 21.5936 44.984 22.2576 45.624 22.8496C46.264 23.4416 46.904 23.9216 47.544 24.2896C47.112 24.5456 46.68 24.9376 46.248 25.4656C45.816 26.0096 45.44 26.5456 45.12 27.0736ZM38.088 22.3456C38.552 22.2496 38.984 22.1536 39.384 22.0576C39.8 21.9456 40.16 21.8496 40.464 21.7696C40.016 20.8736 39.648 19.9536 39.36 19.0096C39.088 18.0496 38.912 17.1136 38.832 16.2016H38.088V22.3456ZM38.088 13.3216H42.312V12.0256H38.088V13.3216ZM38.088 9.52962H42.312V8.25762H38.088V9.52962ZM42.36 18.1216C42.808 17.8336 43.248 17.5216 43.68 17.1856C44.112 16.8336 44.496 16.5056 44.832 16.2016H41.832C41.88 16.5216 41.952 16.8416 42.048 17.1616C42.144 17.4816 42.248 17.8016 42.36 18.1216ZM61.968 25.5856C61.904 25.2656 61.76 24.8976 61.536 24.4816C61.328 24.0496 61.08 23.6256 60.792 23.2096C60.52 22.7936 60.24 22.4656 59.952 22.2256C62.208 21.8736 63.88 21.1856 64.968 20.1616C66.056 19.1376 66.632 17.9056 66.696 16.4656C66.76 15.3776 66.568 14.4096 66.12 13.5616C65.672 12.7136 65.064 12.0256 64.296 11.4976C63.544 10.9536 62.72 10.6096 61.824 10.4656C61.696 11.8896 61.456 13.3616 61.104 14.8816C60.768 16.3856 60.296 17.8176 59.688 19.1776C59.08 20.5216 58.328 21.6736 57.432 22.6336C56.68 23.4496 55.968 23.9136 55.296 24.0256C54.624 24.1216 53.912 24.0176 53.16 23.7136C52.424 23.4096 51.784 22.9296 51.24 22.2736C50.696 21.6016 50.28 20.8176 49.992 19.9216C49.72 19.0096 49.608 18.0496 49.656 17.0416C49.736 15.5376 50.088 14.1616 50.712 12.9136C51.352 11.6656 52.2 10.6016 53.256 9.72162C54.312 8.82562 55.52 8.15362 56.88 7.70562C58.256 7.24162 59.72 7.04962 61.272 7.12962C62.568 7.19362 63.776 7.48162 64.896 7.99362C66.016 8.48962 66.992 9.16962 67.824 10.0336C68.672 10.8976 69.32 11.8976 69.768 13.0336C70.216 14.1696 70.4 15.4016 70.32 16.7296C70.208 19.0496 69.408 20.9696 67.92 22.4896C66.432 23.9936 64.448 25.0256 61.968 25.5856ZM54.984 20.0416C55.528 19.5296 56.024 18.7856 56.472 17.8096C56.936 16.8176 57.328 15.7056 57.648 14.4736C57.968 13.2256 58.184 11.9616 58.296 10.6816C57.304 10.9696 56.424 11.4336 55.656 12.0736C54.904 12.6976 54.312 13.4496 53.88 14.3296C53.448 15.2096 53.2 16.1776 53.136 17.2336C53.104 17.8576 53.168 18.4016 53.328 18.8656C53.504 19.3296 53.752 19.7136 54.072 20.0176C54.376 20.3216 54.68 20.3296 54.984 20.0416ZM79.896 26.8336V15.5776H78.672C78.528 20.4896 77.448 24.2336 75.432 26.8096C75.032 26.4576 74.544 26.1136 73.968 25.7776C73.392 25.4416 72.88 25.1936 72.432 25.0336C73.376 23.8976 74.064 22.5936 74.496 21.1216C74.928 19.6336 75.176 17.7856 75.24 15.5776H72.96V12.4096H75.24V8.66562H73.272V5.61762H85.32V8.66562H83.328V12.4096H85.728V15.5776H83.328V26.8336H79.896ZM85.392 26.7136C85.28 26.3936 85.112 26.0416 84.888 25.6576C84.664 25.2736 84.424 24.9056 84.168 24.5536C83.912 24.1856 83.672 23.8896 83.448 23.6656C84.568 23.2976 85.72 22.7696 86.904 22.0816C88.104 21.3776 89.232 20.5776 90.288 19.6816C91.344 18.7696 92.224 17.8176 92.928 16.8256L95.592 19.0336C94.776 20.1376 93.816 21.1856 92.712 22.1776C91.624 23.1536 90.448 24.0336 89.184 24.8176C87.936 25.5856 86.672 26.2176 85.392 26.7136ZM86.232 20.1136C85.976 19.6656 85.64 19.1776 85.224 18.6496C84.808 18.1056 84.408 17.6816 84.024 17.3776C85.096 16.8816 86.168 16.2576 87.24 15.5056C88.312 14.7536 89.288 13.9536 90.168 13.1056C91.048 12.2416 91.736 11.4256 92.232 10.6576L94.896 12.8896C94.24 13.7376 93.456 14.6096 92.544 15.5056C91.632 16.3856 90.64 17.2256 89.568 18.0256C88.496 18.8256 87.384 19.5216 86.232 20.1136ZM86.568 13.1056C86.312 12.6576 85.968 12.1856 85.536 11.6896C85.12 11.1776 84.712 10.7696 84.312 10.4656C85.16 10.0816 86.032 9.59362 86.928 9.00162C87.824 8.39362 88.664 7.72962 89.448 7.00962C90.232 6.28962 90.872 5.56962 91.368 4.84962L94.032 6.93762C93.456 7.68962 92.76 8.44962 91.944 9.21762C91.128 9.98562 90.256 10.7056 89.328 11.3776C88.416 12.0336 87.496 12.6096 86.568 13.1056ZM78.672 12.4096H79.896V8.66562H78.672V12.4096ZM99.384 25.4176C99.272 24.7296 99.176 23.8976 99.096 22.9216C99.032 21.9296 98.984 20.8576 98.952 19.7056C98.936 18.5376 98.936 17.3456 98.952 16.1296C98.984 14.8976 99.032 13.6976 99.096 12.5296C99.176 11.3456 99.272 10.2576 99.384 9.26562C99.512 8.25762 99.664 7.39362 99.84 6.67362L103.296 7.39362C103.104 7.96962 102.944 8.72162 102.816 9.64962C102.688 10.5776 102.584 11.6016 102.504 12.7216C102.424 13.8256 102.368 14.9696 102.336 16.1536C102.32 17.3216 102.328 18.4576 102.36 19.5616C102.392 20.6656 102.448 21.6736 102.528 22.5856C102.624 23.4816 102.744 24.2016 102.888 24.7456L99.384 25.4176ZM110.304 24.2176C108.688 24.2176 107.416 23.9616 106.488 23.4496C105.56 22.9376 105.016 22.1456 104.856 21.0736C104.728 20.1776 104.88 19.1056 105.312 17.8576L108.384 18.6016C108.192 19.0656 108.128 19.4416 108.192 19.7296C108.352 20.3696 109.28 20.6896 110.976 20.6896C111.68 20.6896 112.416 20.6416 113.184 20.5456C113.968 20.4496 114.728 20.3296 115.464 20.1856C116.2 20.0416 116.856 19.8976 117.432 19.7536C117.384 20.0576 117.336 20.4336 117.288 20.8816C117.24 21.3296 117.208 21.7856 117.192 22.2496C117.176 22.7136 117.176 23.1216 117.192 23.4736C116.488 23.6656 115.72 23.8176 114.888 23.9296C114.056 24.0416 113.24 24.1216 112.44 24.1696C111.64 24.2016 110.928 24.2176 110.304 24.2176ZM106.224 12.4816L106.056 8.85762C106.68 8.95362 107.44 9.00962 108.336 9.02562C109.248 9.04162 110.192 9.03362 111.168 9.00162C112.144 8.95362 113.072 8.87362 113.952 8.76162C114.832 8.64962 115.56 8.51362 116.136 8.35362L115.992 11.9056C115.352 12.0336 114.6 12.1456 113.736 12.2416C112.872 12.3216 111.976 12.3856 111.048 12.4336C110.136 12.4816 109.256 12.5136 108.408 12.5296C107.56 12.5296 106.832 12.5136 106.224 12.4816ZM122.232 16.4416C121.976 15.9136 121.656 15.4016 121.272 14.9056C120.888 14.3936 120.488 13.9536 120.072 13.5856C121.112 13.1376 122.144 12.5856 123.168 11.9296C124.208 11.2736 125.192 10.5536 126.12 9.76962C127.048 8.96962 127.88 8.14562 128.616 7.29762C129.368 6.43362 129.984 5.56962 130.464 4.70562L133.752 5.18562C134.264 5.95362 134.904 6.72162 135.672 7.48962C136.456 8.25762 137.312 8.98562 138.24 9.67362C139.168 10.3616 140.12 10.9856 141.096 11.5456C142.072 12.1056 143.016 12.5536 143.928 12.8896C143.72 13.1456 143.488 13.4736 143.232 13.8736C142.976 14.2576 142.72 14.6576 142.464 15.0736C142.224 15.4736 142.016 15.8496 141.84 16.2016C140.624 15.6096 139.36 14.8496 138.048 13.9216V15.6976H125.904V14.1376C125.296 14.5856 124.68 15.0096 124.056 15.4096C123.432 15.7936 122.824 16.1376 122.232 16.4416ZM124.632 26.7856V17.2576H139.344V26.7856H124.632ZM128.304 23.6896H135.624V20.3776H128.304V23.6896ZM127.968 12.5296H136.2C135.368 11.8416 134.584 11.1296 133.848 10.3936C133.128 9.65762 132.512 8.92162 132 8.18562C131.552 8.87362 130.976 9.59362 130.272 10.3456C129.584 11.0816 128.816 11.8096 127.968 12.5296ZM150.648 26.2576V19.9456C149.672 20.9216 148.864 21.8416 148.224 22.7056L145.584 20.2096C146.192 19.7456 146.928 19.1296 147.792 18.3616C148.672 17.5936 149.624 16.8096 150.648 16.0096V13.1296C149.96 13.2896 149.304 13.4416 148.68 13.5856C148.056 13.7136 147.544 13.8096 147.144 13.8736L146.424 10.6816C146.856 10.6656 147.456 10.6016 148.224 10.4896C149.008 10.3616 149.816 10.2096 150.648 10.0336V5.64162H153.936V9.19362C154.192 9.11362 154.368 9.04162 154.464 8.97762L156.264 10.3696L154.728 13.2016C155.544 12.7536 156.36 12.3936 157.176 12.1216C157.992 11.8496 158.784 11.7136 159.552 11.7136C160.912 11.7136 162.104 11.9696 163.128 12.4816C164.152 12.9936 164.952 13.7136 165.528 14.6416C166.104 15.5536 166.392 16.6256 166.392 17.8576C166.392 19.7936 165.696 21.4416 164.304 22.8016C162.912 24.1456 160.832 25.0496 158.064 25.5136C157.984 25.1936 157.84 24.8176 157.632 24.3856C157.44 23.9376 157.208 23.4976 156.936 23.0656C156.68 22.6336 156.424 22.2816 156.168 22.0096C157.416 21.8816 158.544 21.6656 159.552 21.3616C160.56 21.0416 161.352 20.6016 161.928 20.0416C162.52 19.4816 162.816 18.7536 162.816 17.8576C162.816 16.8656 162.544 16.1056 162 15.5776C161.456 15.0336 160.64 14.7616 159.552 14.7616C158.72 14.7616 157.816 14.9856 156.84 15.4336C155.88 15.8816 154.912 16.4576 153.936 17.1616V26.2576H150.648ZM180.12 25.5376C178.584 25.5376 177.4 25.4016 176.568 25.1296C175.736 24.8736 175.152 24.4336 174.816 23.8096C174.496 23.1696 174.336 22.2896 174.336 21.1696V15.1936C173.36 15.3056 172.456 15.4336 171.624 15.5776C170.808 15.7056 170.104 15.8416 169.512 15.9856L169.224 12.5296C169.8 12.4496 170.528 12.3616 171.408 12.2656C172.288 12.1696 173.264 12.0736 174.336 11.9776V6.96162H177.696V11.6896C178.448 11.6256 179.208 11.5696 179.976 11.5216C180.76 11.4576 181.528 11.4016 182.28 11.3536V6.24162H185.712V11.1376C186.752 11.0736 187.696 11.0256 188.544 10.9936C189.408 10.9616 190.112 10.9456 190.656 10.9456V14.4496C189.408 14.3536 187.76 14.3296 185.712 14.3776V15.7696C185.712 17.1776 185.376 18.2336 184.704 18.9376C184.048 19.6256 182.864 20.0336 181.152 20.1616C181.072 19.6496 180.92 19.0896 180.696 18.4816C180.472 17.8576 180.2 17.3616 179.88 16.9936C180.712 16.9936 181.32 16.9056 181.704 16.7296C182.088 16.5376 182.28 16.2176 182.28 15.7696V14.5216C181.528 14.5536 180.76 14.6016 179.976 14.6656C179.208 14.7136 178.448 14.7776 177.696 14.8576V20.6416C177.696 21.2336 177.864 21.6416 178.2 21.8656C178.536 22.0736 179.232 22.1776 180.288 22.1776C180.928 22.1776 181.68 22.1456 182.544 22.0816C183.408 22.0016 184.264 21.9056 185.112 21.7936C185.96 21.6656 186.68 21.5216 187.272 21.3616C187.176 21.6816 187.08 22.0736 186.984 22.5376C186.904 23.0016 186.848 23.4576 186.816 23.9056C186.784 24.3376 186.776 24.6976 186.792 24.9856C185.816 25.1616 184.728 25.2976 183.528 25.3936C182.344 25.4896 181.208 25.5376 180.12 25.5376ZM197.136 26.4256C196.848 26.2496 196.496 26.0576 196.08 25.8496C195.664 25.6576 195.24 25.4816 194.808 25.3216C194.392 25.1616 194.008 25.0416 193.656 24.9616C194.072 24.3856 194.504 23.6496 194.952 22.7536C195.4 21.8576 195.848 20.8576 196.296 19.7536C196.744 18.6496 197.176 17.5056 197.592 16.3216C198.008 15.1216 198.392 13.9376 198.744 12.7696C197.864 12.8496 197.04 12.9056 196.272 12.9376C195.52 12.9696 194.904 12.9616 194.424 12.9136L194.04 9.38562C194.68 9.46562 195.496 9.49762 196.488 9.48162C197.496 9.46562 198.552 9.40162 199.656 9.28962C199.832 8.50562 199.968 7.78562 200.064 7.12962C200.176 6.45762 200.24 5.87362 200.256 5.37762L203.976 5.88162C203.912 6.29762 203.824 6.75362 203.712 7.24962C203.6 7.74562 203.48 8.27362 203.352 8.83362C204.52 8.64162 205.496 8.41762 206.28 8.16162L206.736 11.4496C206.256 11.6096 205.632 11.7696 204.864 11.9296C204.112 12.0736 203.296 12.2096 202.416 12.3376C202.048 13.6176 201.64 14.9296 201.192 16.2736C200.76 17.6016 200.312 18.8976 199.848 20.1616C199.384 21.4256 198.92 22.6016 198.456 23.6896C197.992 24.7616 197.552 25.6736 197.136 26.4256ZM213.336 25.4416C212.04 25.6656 210.776 25.7536 209.544 25.7056C208.328 25.6736 207.192 25.5376 206.136 25.2976C205.096 25.0576 204.176 24.7376 203.376 24.3376C202.592 23.9216 201.984 23.4496 201.552 22.9216L203.232 20.2096C203.824 20.7536 204.648 21.1936 205.704 21.5296C206.776 21.8656 208.016 22.0576 209.424 22.1056C210.832 22.1536 212.344 22.0176 213.96 21.6976C213.832 22.0336 213.712 22.4336 213.6 22.8976C213.504 23.3456 213.432 23.8016 213.384 24.2656C213.336 24.7136 213.32 25.1056 213.336 25.4416ZM212.592 17.0416C212.08 16.8656 211.472 16.7136 210.768 16.5856C210.064 16.4416 209.32 16.3296 208.536 16.2496C207.752 16.1536 206.984 16.0896 206.232 16.0576C205.48 16.0096 204.792 16.0016 204.168 16.0336L204.624 12.6016C205.216 12.5856 205.912 12.6016 206.712 12.6496C207.528 12.6816 208.368 12.7456 209.232 12.8416C210.096 12.9376 210.92 13.0416 211.704 13.1536C212.504 13.2656 213.192 13.3856 213.768 13.5136L212.592 17.0416Z" fill="#444444"/>
<rect x="0.260742" y="36" width="147" height="40" rx="2" fill="#0072FF"/>
<path d="M8.74074 63.556C8.29274 63.052 7.74208 62.52 7.08874 61.96C6.45408 61.4 5.80074 60.9147 5.12874 60.504C6.39808 59.6267 7.53674 58.5907 8.54474 57.396C9.57141 56.1827 10.4301 54.9133 11.1207 53.588C11.8301 52.2627 12.3154 50.984 12.5767 49.752L16.7487 51.124C16.3754 52.6547 15.8154 54.1853 15.0687 55.716C14.3221 57.228 13.4167 58.656 12.3527 60C11.2887 61.344 10.0847 62.5293 8.74074 63.556ZM26.9407 62.8C26.6047 61.9227 26.1754 60.98 25.6527 59.972C25.1301 58.9453 24.5607 57.928 23.9447 56.92C23.3287 55.912 22.6941 54.988 22.0407 54.148C21.3874 53.2893 20.7714 52.5893 20.1927 52.048L23.6087 49.724C24.2807 50.34 24.9807 51.068 25.7087 51.908C26.4367 52.748 27.1461 53.6533 27.8367 54.624C28.5274 55.576 29.1621 56.556 29.7407 57.564C30.3381 58.5533 30.8421 59.5053 31.2527 60.42C30.6181 60.7187 29.9181 61.0733 29.1527 61.484C28.3874 61.876 27.6501 62.3147 26.9407 62.8ZM27.4167 49.808C26.6327 49.808 25.9607 49.5373 25.4007 48.996C24.8594 48.436 24.5887 47.764 24.5887 46.98C24.5887 46.2147 24.8594 45.5613 25.4007 45.02C25.9607 44.46 26.6327 44.18 27.4167 44.18C28.1821 44.18 28.8354 44.46 29.3767 45.02C29.9367 45.5613 30.2167 46.2147 30.2167 46.98C30.2167 47.764 29.9367 48.436 29.3767 48.996C28.8354 49.5373 28.1821 49.808 27.4167 49.808ZM27.4167 48.464C27.8274 48.464 28.1727 48.324 28.4527 48.044C28.7327 47.7453 28.8727 47.3907 28.8727 46.98C28.8727 46.5693 28.7327 46.224 28.4527 45.944C28.1727 45.664 27.8274 45.524 27.4167 45.524C27.0061 45.524 26.6514 45.664 26.3527 45.944C26.0727 46.224 25.9327 46.5693 25.9327 46.98C25.9327 47.3907 26.0727 47.7453 26.3527 48.044C26.6514 48.324 27.0061 48.464 27.4167 48.464ZM44.3287 68.848V60.952C43.0221 61.6427 41.6781 62.2773 40.2967 62.856C38.9154 63.4347 37.5341 63.9387 36.1527 64.368C35.9661 63.8267 35.6581 63.2013 35.2287 62.492C34.8181 61.7827 34.3887 61.1387 33.9407 60.56C36.6661 59.8507 39.2421 58.9173 41.6687 57.76C44.1141 56.6027 46.2607 55.268 48.1087 53.756C47.1194 53.7747 46.0927 53.8027 45.0287 53.84C43.9834 53.8587 42.9847 53.8867 42.0327 53.924C41.0807 53.9613 40.2501 53.9987 39.5407 54.036C38.8314 54.0547 38.3274 54.0827 38.0287 54.12V50.004C38.4207 50.0413 38.9901 50.0787 39.7367 50.116C40.4834 50.1347 41.3421 50.1533 42.3127 50.172C43.2834 50.172 44.2914 50.172 45.3367 50.172C46.3821 50.172 47.3901 50.172 48.3607 50.172C49.3501 50.1533 50.2274 50.1347 50.9927 50.116C51.7581 50.0787 52.3367 50.0413 52.7287 50.004L55.0527 52.244C54.1754 53.4013 53.1954 54.484 52.1127 55.492C51.0301 56.4813 49.8727 57.4147 48.6407 58.292V68.848H44.3287ZM49.0887 49.808C48.8087 49.6587 48.3234 49.4533 47.6327 49.192C46.9607 48.9307 46.2141 48.66 45.3927 48.38C44.5714 48.0813 43.7874 47.82 43.0407 47.596C42.2941 47.3533 41.6967 47.1853 41.2487 47.092L42.9007 43.312C43.2741 43.368 43.8154 43.508 44.5247 43.732C45.2341 43.9373 45.9994 44.18 46.8207 44.46C47.6421 44.74 48.4074 45.02 49.1167 45.3C49.8447 45.5613 50.3861 45.7853 50.7407 45.972L49.0887 49.808ZM56.0327 65.208C55.7527 64.8907 55.3421 64.4893 54.8007 64.004C54.2594 63.5 53.6621 62.9867 53.0087 62.464C52.3741 61.9413 51.7674 61.4747 51.1887 61.064C50.6287 60.6533 50.1901 60.3733 49.8727 60.224L52.2527 57.088C52.6261 57.256 53.1114 57.536 53.7087 57.928C54.3247 58.3013 54.9687 58.7213 55.6407 59.188C56.3127 59.6547 56.9287 60.112 57.4887 60.56C58.0674 61.008 58.5061 61.3907 58.8047 61.708L56.0327 65.208ZM75.8847 65.796L73.6167 64.032C73.6727 63.752 73.7101 63.1827 73.7287 62.324C73.7661 61.4467 73.7847 60.3547 73.7847 59.048C73.8034 57.7227 73.8127 56.2573 73.8127 54.652C73.8127 52.6733 73.7941 51.1147 73.7567 49.976C73.7194 48.8187 73.6727 47.9227 73.6167 47.288H78.0687C78.0127 47.7733 77.9661 48.6693 77.9287 49.976C77.9101 51.2827 77.9007 52.7667 77.9007 54.428V60.084C78.6847 59.748 79.5154 59.3467 80.3927 58.88C81.2887 58.4133 82.1661 57.928 83.0247 57.424C83.8834 56.9013 84.6674 56.388 85.3767 55.884C86.0861 55.3613 86.6647 54.8853 87.1127 54.456C87.1127 54.9227 87.1407 55.4827 87.1967 56.136C87.2527 56.7707 87.3274 57.3773 87.4207 57.956C87.5141 58.516 87.6074 58.936 87.7007 59.216C87.0661 59.7387 86.2541 60.3173 85.2647 60.952C84.2754 61.5867 83.2114 62.212 82.0727 62.828C80.9341 63.444 79.8234 64.0133 78.7407 64.536C77.6581 65.0587 76.7061 65.4787 75.8847 65.796ZM63.8447 66.16C63.5087 65.6187 63.0514 65.0493 62.4727 64.452C61.8941 63.836 61.3341 63.3133 60.7927 62.884C62.3794 62.0627 63.6301 61.1853 64.5447 60.252C65.4781 59.3 66.1407 58.2453 66.5327 57.088C66.9434 55.912 67.1487 54.596 67.1487 53.14C67.1674 51.684 67.0554 50.032 66.8127 48.184L70.8447 47.848C71.2554 50.816 71.3114 53.4387 71.0127 55.716C70.7141 57.9933 69.9861 59.9907 68.8287 61.708C67.6901 63.4067 66.0287 64.8907 63.8447 66.16ZM100.777 69.1C100.646 68.6333 100.45 68.148 100.189 67.644C99.9274 67.14 99.6381 66.6827 99.3207 66.272V68.596H90.3607V60.308H99.3207V65.768C101.206 65.264 102.895 64.508 104.389 63.5C103.829 62.7347 103.343 61.9227 102.933 61.064C102.541 60.2053 102.214 59.328 101.953 58.432H100.049V55.016H101.981C101.589 54.6987 101.159 54.4 100.693 54.12C100.245 53.8213 99.7687 53.588 99.2647 53.42C99.8061 52.8973 100.235 52.384 100.553 51.88C100.889 51.376 101.131 50.8067 101.281 50.172C101.43 49.5373 101.505 48.7533 101.505 47.82V44.068H111.165V49.836C111.165 50.1347 111.202 50.3213 111.277 50.396C111.351 50.4707 111.538 50.508 111.837 50.508C112.117 50.508 112.303 50.3867 112.397 50.144C112.49 49.9013 112.527 49.332 112.509 48.436C112.77 48.5293 113.097 48.6413 113.489 48.772C113.899 48.884 114.329 48.9867 114.777 49.08C115.225 49.1733 115.626 49.248 115.981 49.304C115.869 50.6667 115.673 51.712 115.393 52.44C115.131 53.1493 114.749 53.644 114.245 53.924C113.759 54.1853 113.125 54.316 112.341 54.316H110.381C109.223 54.316 108.421 54.176 107.973 53.896C107.525 53.616 107.301 53.0933 107.301 52.328V47.456H105.397V48.128C105.397 49.5467 105.21 50.8067 104.837 51.908C104.463 52.9907 103.819 54.0267 102.905 55.016H112.677L114.217 56.556C113.694 57.8627 113.087 59.0947 112.397 60.252C111.706 61.4093 110.913 62.4827 110.017 63.472C110.801 63.976 111.659 64.4053 112.593 64.76C113.526 65.1147 114.506 65.3667 115.533 65.516C115.122 65.9827 114.73 66.552 114.357 67.224C114.002 67.9147 113.731 68.5213 113.545 69.044C112.238 68.82 111.043 68.456 109.961 67.952C108.878 67.4667 107.898 66.8787 107.021 66.188C106.106 66.8413 105.126 67.4107 104.081 67.896C103.054 68.4 101.953 68.8013 100.777 69.1ZM89.2407 51.292V48.212H100.049V51.292H89.2407ZM90.6127 47.316V44.124H99.0127V47.316H90.6127ZM90.5847 59.328V56.22H99.0127V59.328H90.5847ZM90.5847 55.324V52.216H99.0127V55.324H90.5847ZM107.245 61.008C107.618 60.5973 107.945 60.1773 108.225 59.748C108.505 59.3187 108.747 58.88 108.953 58.432H105.761C106.115 59.384 106.61 60.2427 107.245 61.008ZM93.8607 65.488H95.8487V63.416H93.8607V65.488ZM124.241 65.208V54.26H128.917V53.476H117.549V50.62H128.917V49.864H119.873V43.704H140.621V49.864H132.977V50.62H142.945V53.476H132.977V54.26H139.557V65.208H124.241ZM118.613 68.932V55.716H122.505V65.88H142.861V68.932H118.613ZM128.021 62.884H135.777V62.072H128.021V62.884ZM128.021 60.14H135.777V59.328H128.021V60.14ZM128.021 57.396H135.777V56.584H128.021V57.396ZM123.625 47.288H125.837V46.28H123.625V47.288ZM129.169 47.288H131.353V46.28H129.169V47.288ZM134.685 47.288H136.869V46.28H134.685V47.288Z" fill="white"/>
<path d="M163.757 68.512C162.349 68.512 161.085 68.376 159.965 68.104C158.861 67.832 157.981 67.392 157.325 66.784C156.669 66.176 156.341 65.368 156.341 64.36C156.341 63.56 156.573 62.832 157.037 62.176C157.501 61.52 158.141 60.928 158.957 60.4C159.789 59.856 160.741 59.36 161.813 58.912V58.792C161.813 58.376 161.677 58.056 161.405 57.832C161.149 57.608 160.829 57.48 160.445 57.448C159.757 57.368 159.149 57.432 158.621 57.64C158.109 57.848 157.525 58.28 156.869 58.936C156.677 59.112 156.405 59.368 156.053 59.704C155.701 60.04 155.341 60.376 154.973 60.712C154.621 61.048 154.333 61.32 154.109 61.528L151.565 58.984C152.637 58.328 153.661 57.472 154.637 56.416C155.613 55.344 156.469 54.2 157.205 52.984C155.509 53.064 154.277 53.088 153.509 53.056L153.365 49.696C153.925 49.744 154.677 49.768 155.621 49.768C156.581 49.768 157.605 49.744 158.693 49.696C159.013 48.752 159.205 47.84 159.269 46.96L162.773 47.152C162.741 47.536 162.693 47.92 162.629 48.304C162.565 48.688 162.477 49.072 162.365 49.456C163.501 49.376 164.549 49.272 165.509 49.144C166.485 49.016 167.229 48.88 167.741 48.736L167.933 51.976C167.485 52.056 166.901 52.144 166.181 52.24C165.461 52.32 164.669 52.4 163.805 52.48C162.957 52.56 162.077 52.64 161.165 52.72C161.005 53.072 160.829 53.416 160.637 53.752C160.445 54.088 160.245 54.416 160.037 54.736C160.469 54.64 160.901 54.592 161.333 54.592C162.277 54.592 163.109 54.824 163.829 55.288C164.565 55.736 165.037 56.536 165.245 57.688C166.109 57.416 166.989 57.168 167.885 56.944C168.797 56.704 169.709 56.472 170.621 56.248L171.629 59.512C170.477 59.64 169.365 59.816 168.293 60.04C167.237 60.248 166.253 60.48 165.341 60.736V63.808H161.837V62.032C161.197 62.352 160.693 62.68 160.325 63.016C159.957 63.336 159.773 63.64 159.773 63.928C159.773 64.424 160.061 64.752 160.637 64.912C161.213 65.056 162.181 65.128 163.541 65.128C164.101 65.128 164.749 65.088 165.485 65.008C166.237 64.928 166.973 64.832 167.693 64.72C168.429 64.592 169.045 64.456 169.541 64.312C169.493 64.6 169.445 64.984 169.397 65.464C169.365 65.928 169.341 66.392 169.325 66.856C169.309 67.304 169.309 67.664 169.325 67.936C168.557 68.112 167.653 68.248 166.613 68.344C165.589 68.456 164.637 68.512 163.757 68.512ZM184.421 66.76C183.317 66.76 182.325 66.648 181.445 66.424C180.565 66.184 179.797 65.752 179.141 65.128C178.501 64.488 177.973 63.576 177.557 62.392L180.677 60.616C180.869 61.4 181.261 62 181.853 62.416C182.445 62.832 183.301 63.04 184.421 63.04C185.413 63.04 186.461 62.992 187.565 62.896C188.669 62.784 189.717 62.64 190.709 62.464C191.701 62.288 192.517 62.088 193.157 61.864C193.141 62.2 193.157 62.624 193.205 63.136C193.253 63.632 193.317 64.128 193.397 64.624C193.493 65.104 193.589 65.488 193.685 65.776C193.029 65.984 192.189 66.16 191.165 66.304C190.141 66.448 189.045 66.56 187.877 66.64C186.709 66.72 185.557 66.76 184.421 66.76ZM180.317 52.696V49.096C180.797 49.256 181.405 49.376 182.141 49.456C182.877 49.536 183.669 49.584 184.517 49.6C185.381 49.616 186.237 49.608 187.085 49.576C187.933 49.528 188.717 49.456 189.437 49.36C190.173 49.264 190.773 49.144 191.237 49V52.624C190.837 52.736 190.269 52.832 189.533 52.912C188.813 52.992 188.013 53.048 187.133 53.08C186.269 53.112 185.389 53.12 184.493 53.104C183.613 53.088 182.805 53.048 182.069 52.984C181.333 52.92 180.749 52.824 180.317 52.696ZM196.349 51.112C196.045 50.6 195.661 50.08 195.197 49.552C194.749 49.024 194.341 48.584 193.973 48.232L195.533 46.984C195.741 47.176 196.005 47.448 196.325 47.8C196.645 48.152 196.957 48.52 197.261 48.904C197.565 49.272 197.805 49.584 197.981 49.84L196.349 51.112ZM194.045 52.96C193.741 52.448 193.357 51.928 192.893 51.4C192.445 50.856 192.037 50.416 191.669 50.08L193.229 48.832C193.437 49.024 193.701 49.296 194.021 49.648C194.341 50 194.653 50.368 194.957 50.752C195.261 51.12 195.501 51.432 195.677 51.688L194.045 52.96ZM207.869 68.968C207.517 68.664 207.085 68.36 206.573 68.056C206.077 67.752 205.597 67.512 205.133 67.336C205.629 66.824 206.117 66.152 206.597 65.32C207.077 64.472 207.485 63.56 207.821 62.584C208.173 61.608 208.397 60.664 208.493 59.752L211.685 60.424C211.637 60.824 211.573 61.224 211.493 61.624C211.413 62.024 211.317 62.424 211.205 62.824C211.493 63.24 211.837 63.616 212.237 63.952V59.392H207.701V56.368H220.541V59.392H215.573V60.64H219.725V63.52H215.573V65.368C215.797 65.4 216.029 65.432 216.269 65.464C216.525 65.48 216.781 65.488 217.037 65.488C217.885 65.488 218.645 65.472 219.317 65.44C219.989 65.392 220.541 65.336 220.973 65.272C220.829 65.704 220.701 66.232 220.589 66.856C220.493 67.464 220.429 68.04 220.397 68.584H217.037C215.437 68.584 214.077 68.36 212.957 67.912C211.837 67.464 210.877 66.76 210.077 65.8C209.773 66.408 209.429 66.984 209.045 67.528C208.677 68.072 208.285 68.552 207.869 68.968ZM199.973 68.704C199.957 68.4 199.909 68.024 199.829 67.576C199.765 67.128 199.685 66.688 199.589 66.256C199.493 65.808 199.389 65.456 199.277 65.2H200.717C201.037 65.2 201.261 65.16 201.389 65.08C201.517 64.984 201.581 64.784 201.581 64.48V61.696C201.037 61.904 200.541 62.088 200.093 62.248C199.661 62.408 199.341 62.52 199.133 62.584L198.365 58.984C198.733 58.904 199.197 58.792 199.757 58.648C200.333 58.488 200.941 58.304 201.581 58.096V54.256H198.821V51.04H201.581V46.888H204.965V51.04H206.885V54.256H204.965V56.944C205.477 56.768 205.917 56.608 206.285 56.464C206.669 56.304 206.941 56.176 207.101 56.08V59.368C206.941 59.464 206.669 59.6 206.285 59.776C205.901 59.936 205.461 60.12 204.965 60.328V66.112C204.965 67.04 204.693 67.704 204.149 68.104C203.621 68.504 202.821 68.704 201.749 68.704H199.973ZM208.109 55.624V47.248H219.557V55.624H208.109ZM211.493 53.272H216.173V52.456H211.493V53.272ZM211.493 50.416H216.173V49.6H211.493V50.416ZM232.133 68.992V64.912C231.461 65.456 230.693 65.984 229.829 66.496C228.965 67.008 228.093 67.464 227.213 67.864C226.349 68.28 225.557 68.584 224.837 68.776C224.677 68.344 224.445 67.888 224.141 67.408C223.837 66.928 223.493 66.512 223.109 66.16C223.717 66 224.389 65.776 225.125 65.488C225.877 65.2 226.637 64.872 227.405 64.504C228.189 64.12 228.925 63.72 229.613 63.304H223.013V60.808H232.133V59.584C231.189 59.856 230.165 60.08 229.061 60.256C227.957 60.416 226.765 60.536 225.485 60.616C225.421 60.184 225.301 59.728 225.125 59.248C224.965 58.752 224.797 58.328 224.621 57.976C225.709 57.976 226.709 57.928 227.621 57.832C228.533 57.736 229.381 57.608 230.165 57.448C229.573 57.304 228.981 57.176 228.389 57.064C227.797 56.952 227.229 56.864 226.685 56.8C226.909 56.576 227.181 56.288 227.501 55.936C227.821 55.584 228.165 55.2 228.533 54.784H225.053L225.077 53.296H223.205V48.256H231.941V46.72H235.661V48.256H244.469V53.152H242.597V54.784H239.597C239.293 55.136 238.981 55.48 238.661 55.816C238.357 56.136 238.029 56.44 237.677 56.728C238.477 56.92 239.293 57.136 240.125 57.376C240.957 57.616 241.797 57.888 242.645 58.192C242.341 58.528 242.021 58.944 241.685 59.44C241.349 59.936 241.093 60.368 240.917 60.736C240.085 60.4 239.133 60.048 238.061 59.68C236.989 59.312 235.869 58.96 234.701 58.624C234.397 58.768 234.077 58.904 233.741 59.032C233.421 59.16 233.077 59.28 232.709 59.392H235.565V60.808H244.781V63.304H238.397C239.405 63.864 240.477 64.368 241.613 64.816C242.749 65.264 243.773 65.616 244.685 65.872C244.333 66.224 243.989 66.664 243.653 67.192C243.317 67.72 243.061 68.2 242.885 68.632C242.165 68.424 241.365 68.112 240.485 67.696C239.605 67.296 238.733 66.84 237.869 66.328C237.021 65.816 236.253 65.288 235.565 64.744V68.992H232.133ZM234.341 52.216H241.109V50.776H235.493C235.333 50.968 235.157 51.192 234.965 51.448C234.773 51.688 234.565 51.944 234.341 52.216ZM226.541 52.216H230.693C230.917 51.944 231.125 51.688 231.317 51.448C231.525 51.208 231.709 50.984 231.869 50.776H226.541V52.216ZM234.053 55.912C234.341 55.736 234.613 55.56 234.869 55.384C235.125 55.192 235.373 54.992 235.613 54.784H232.157C231.869 55.088 231.661 55.32 231.533 55.48C232.285 55.592 233.125 55.736 234.053 55.912Z" fill="#444444"/>
</svg>
