<svg width="340" height="278" viewBox="0 0 340 278" fill="none" xmlns="http://www.w3.org/2000/svg">
<path d="M10.56 233.76C9.456 233.76 8.464 233.648 7.584 233.424C6.704 233.184 5.936 232.752 5.28 232.128C4.64 231.488 4.112 230.576 3.696 229.392L6.816 227.616C7.008 228.4 7.4 229 7.992 229.416C8.584 229.832 9.44 230.04 10.56 230.04C11.552 230.04 12.6 229.992 13.704 229.896C14.808 229.784 15.856 229.64 16.848 229.464C17.84 229.288 18.656 229.088 19.296 228.864C19.28 229.2 19.296 229.624 19.344 230.136C19.392 230.632 19.456 231.128 19.536 231.624C19.632 232.104 19.728 232.488 19.824 232.776C19.168 232.984 18.328 233.16 17.304 233.304C16.28 233.448 15.184 233.56 14.016 233.64C12.848 233.72 11.696 233.76 10.56 233.76ZM6.456 219.696V216.096C6.936 216.256 7.544 216.376 8.28 216.456C9.016 216.536 9.808 216.584 10.656 216.6C11.52 216.616 12.376 216.608 13.224 216.576C14.072 216.528 14.856 216.456 15.576 216.36C16.312 216.264 16.912 216.144 17.376 216V219.624C16.976 219.736 16.408 219.832 15.672 219.912C14.952 219.992 14.152 220.048 13.272 220.08C12.408 220.112 11.528 220.12 10.632 220.104C9.752 220.088 8.944 220.048 8.208 219.984C7.472 219.92 6.888 219.824 6.456 219.696ZM22.488 218.112C22.184 217.6 21.8 217.08 21.336 216.552C20.888 216.024 20.48 215.584 20.112 215.232L21.672 213.984C21.88 214.176 22.144 214.448 22.464 214.8C22.784 215.152 23.096 215.52 23.4 215.904C23.704 216.272 23.944 216.584 24.12 216.84L22.488 218.112ZM20.184 219.96C19.88 219.448 19.496 218.928 19.032 218.4C18.584 217.856 18.176 217.416 17.808 217.08L19.368 215.832C19.576 216.024 19.84 216.296 20.16 216.648C20.48 217 20.792 217.368 21.096 217.752C21.4 218.12 21.64 218.432 21.816 218.688L20.184 219.96ZM27.672 235.056V216.768H32.472C32.6 216.4 32.728 216 32.856 215.568C32.984 215.136 33.096 214.744 33.192 214.392C33.288 214.024 33.344 213.784 33.36 213.672L37.704 214.032C37.624 214.272 37.456 214.664 37.2 215.208C36.96 215.736 36.72 216.256 36.48 216.768H44.328V235.056H27.672ZM31.392 221.904H40.608V219.864H31.392V221.904ZM31.392 226.944H40.608V224.928H31.392V226.944ZM31.392 231.96H40.608V229.968H31.392V231.96ZM60.6 235.776C59.512 235.776 58.744 235.608 58.296 235.272C57.848 234.952 57.624 234.416 57.624 233.664V229.344L49.2 229.944L48.912 226.728L57.624 226.104V224.688C56.92 224.784 56.224 224.872 55.536 224.952C54.848 225.016 54.176 225.072 53.52 225.12C53.456 224.8 53.36 224.44 53.232 224.04C53.104 223.64 52.968 223.256 52.824 222.888C52.696 222.504 52.568 222.192 52.44 221.952C53.352 221.92 54.368 221.848 55.488 221.736C56.608 221.608 57.744 221.448 58.896 221.256C60.048 221.064 61.128 220.832 62.136 220.56C63.144 220.272 63.992 219.96 64.68 219.624L66.888 222.432C66.088 222.736 65.208 223.024 64.248 223.296C63.304 223.552 62.328 223.792 61.32 224.016V225.84L70.776 225.168L71.064 228.384L61.32 229.08V231.744C61.32 231.984 61.376 232.152 61.488 232.248C61.6 232.344 61.832 232.392 62.184 232.392H65.52C65.92 232.392 66.224 232.32 66.432 232.176C66.656 232.032 66.816 231.776 66.912 231.408C67.024 231.024 67.112 230.48 67.176 229.776C67.432 229.904 67.784 230.048 68.232 230.208C68.696 230.352 69.168 230.496 69.648 230.64C70.128 230.768 70.528 230.872 70.848 230.952C70.64 232.248 70.392 233.248 70.104 233.952C69.832 234.64 69.448 235.112 68.952 235.368C68.472 235.64 67.792 235.776 66.912 235.776H60.6ZM49.296 221.664V216.24H57.912V213.768H61.944V216.24H70.68V221.64H67.08V219.24H52.968V221.664H49.296ZM85.968 234.528C85.904 234.208 85.76 233.84 85.536 233.424C85.328 232.992 85.08 232.568 84.792 232.152C84.52 231.736 84.24 231.408 83.952 231.168C86.208 230.816 87.88 230.128 88.968 229.104C90.056 228.08 90.632 226.848 90.696 225.408C90.76 224.32 90.568 223.352 90.12 222.504C89.672 221.656 89.064 220.968 88.296 220.44C87.544 219.896 86.72 219.552 85.824 219.408C85.696 220.832 85.456 222.304 85.104 223.824C84.768 225.328 84.296 226.76 83.688 228.12C83.08 229.464 82.328 230.616 81.432 231.576C80.68 232.392 79.968 232.856 79.296 232.968C78.624 233.064 77.912 232.96 77.16 232.656C76.424 232.352 75.784 231.872 75.24 231.216C74.696 230.544 74.28 229.76 73.992 228.864C73.72 227.952 73.608 226.992 73.656 225.984C73.736 224.48 74.088 223.104 74.712 221.856C75.352 220.608 76.2 219.544 77.256 218.664C78.312 217.768 79.52 217.096 80.88 216.648C82.256 216.184 83.72 215.992 85.272 216.072C86.568 216.136 87.776 216.424 88.896 216.936C90.016 217.432 90.992 218.112 91.824 218.976C92.672 219.84 93.32 220.84 93.768 221.976C94.216 223.112 94.4 224.344 94.32 225.672C94.208 227.992 93.408 229.912 91.92 231.432C90.432 232.936 88.448 233.968 85.968 234.528ZM78.984 228.984C79.528 228.472 80.024 227.728 80.472 226.752C80.936 225.76 81.328 224.648 81.648 223.416C81.968 222.168 82.184 220.904 82.296 219.624C81.304 219.912 80.424 220.376 79.656 221.016C78.904 221.64 78.312 222.392 77.88 223.272C77.448 224.152 77.2 225.12 77.136 226.176C77.104 226.8 77.168 227.344 77.328 227.808C77.504 228.272 77.752 228.656 78.072 228.96C78.376 229.264 78.68 229.272 78.984 228.984ZM99.144 235.704C98.904 235.528 98.6 235.344 98.232 235.152C97.864 234.976 97.488 234.808 97.104 234.648C96.72 234.488 96.376 234.376 96.072 234.312C96.824 233.016 97.384 231.52 97.752 229.824C98.12 228.128 98.304 226.096 98.304 223.728V214.344H117.816V220.32H101.712V221.112H118.752V223.632H115.152C115.696 224.128 116.24 224.648 116.784 225.192C117.328 225.72 117.816 226.216 118.248 226.68C117.848 226.936 117.416 227.272 116.952 227.688C116.488 228.104 116.104 228.504 115.8 228.888C115.64 228.664 115.464 228.432 115.272 228.192C115.096 227.952 114.896 227.704 114.672 227.448C114.24 227.496 113.728 227.544 113.136 227.592C112.56 227.64 111.944 227.68 111.288 227.712V228.912H116.16V231.552H111.288V232.824H118.44V235.44H101.184V232.824H107.784V231.552H102.72V228.912H107.784V227.952C106.696 228.016 105.672 228.072 104.712 228.12C103.768 228.152 103.016 228.168 102.456 228.168L102.072 225.48C102.392 225.464 102.784 225.456 103.248 225.456C103.712 225.44 104.224 225.424 104.784 225.408C104.96 225.12 105.136 224.816 105.312 224.496C105.488 224.176 105.648 223.888 105.792 223.632H101.712V223.728C101.712 226.24 101.496 228.52 101.064 230.568C100.632 232.616 99.992 234.328 99.144 235.704ZM101.712 217.8H114.384V216.864H101.712V217.8ZM108.36 225.312C109.064 225.28 109.768 225.256 110.472 225.24C111.176 225.208 111.824 225.176 112.416 225.144C112.224 224.968 112.024 224.808 111.816 224.664C111.624 224.504 111.432 224.344 111.24 224.184L111.96 223.632H109.368C109.016 224.224 108.68 224.784 108.36 225.312ZM141.12 236.016C140.272 235.504 139.48 234.84 138.744 234.024C138.008 233.208 137.36 232.304 136.8 231.312V233.784C136.416 233.928 135.896 234.088 135.24 234.264C134.584 234.44 133.872 234.624 133.104 234.816C132.352 235.008 131.632 235.184 130.944 235.344C130.256 235.504 129.68 235.632 129.216 235.728L128.496 232.296C128.736 232.264 129.048 232.224 129.432 232.176C129.832 232.112 130.264 232.04 130.728 231.96V227.352C130.424 227.624 130.128 227.904 129.84 228.192C129.552 228.48 129.32 228.728 129.144 228.936C128.712 228.488 128.216 227.88 127.656 227.112V235.776H124.32V228.48C124.112 228.864 123.896 229.232 123.672 229.584C123.464 229.92 123.256 230.224 123.048 230.496C122.696 230.208 122.256 229.904 121.728 229.584C121.2 229.264 120.712 229 120.264 228.792C120.808 228.152 121.336 227.384 121.848 226.488C122.376 225.592 122.84 224.672 123.24 223.728C123.656 222.784 123.96 221.92 124.152 221.136H121.08V218.064H124.32V213.984H127.656V218.064H130.104V221.136H127.656V222.336C127.88 222.656 128.16 223.024 128.496 223.44C128.848 223.856 129.216 224.28 129.6 224.712C130 225.128 130.376 225.512 130.728 225.864V214.344H141.744V225.144H141.144L143.184 227.544C142.736 227.896 142.216 228.272 141.624 228.672C141.032 229.072 140.448 229.448 139.872 229.8C140.4 230.536 140.984 231.2 141.624 231.792C142.264 232.384 142.904 232.864 143.544 233.232C143.112 233.488 142.68 233.88 142.248 234.408C141.816 234.952 141.44 235.488 141.12 236.016ZM134.088 231.288C134.552 231.192 134.984 231.096 135.384 231C135.8 230.888 136.16 230.792 136.464 230.712C136.016 229.816 135.648 228.896 135.36 227.952C135.088 226.992 134.912 226.056 134.832 225.144H134.088V231.288ZM134.088 222.264H138.312V220.968H134.088V222.264ZM134.088 218.472H138.312V217.2H134.088V218.472ZM138.36 227.064C138.808 226.776 139.248 226.464 139.68 226.128C140.112 225.776 140.496 225.448 140.832 225.144H137.832C137.88 225.464 137.952 225.784 138.048 226.104C138.144 226.424 138.248 226.744 138.36 227.064ZM147.384 234.36C147.272 233.672 147.176 232.84 147.096 231.864C147.032 230.872 146.984 229.8 146.952 228.648C146.936 227.48 146.936 226.288 146.952 225.072C146.984 223.84 147.032 222.64 147.096 221.472C147.176 220.288 147.272 219.2 147.384 218.208C147.512 217.2 147.664 216.336 147.84 215.616L151.296 216.336C151.104 216.912 150.944 217.664 150.816 218.592C150.688 219.52 150.584 220.544 150.504 221.664C150.424 222.768 150.368 223.912 150.336 225.096C150.32 226.264 150.328 227.4 150.36 228.504C150.392 229.608 150.448 230.616 150.528 231.528C150.624 232.424 150.744 233.144 150.888 233.688L147.384 234.36ZM158.304 233.16C156.688 233.16 155.416 232.904 154.488 232.392C153.56 231.88 153.016 231.088 152.856 230.016C152.728 229.12 152.88 228.048 153.312 226.8L156.384 227.544C156.192 228.008 156.128 228.384 156.192 228.672C156.352 229.312 157.28 229.632 158.976 229.632C159.68 229.632 160.416 229.584 161.184 229.488C161.968 229.392 162.728 229.272 163.464 229.128C164.2 228.984 164.856 228.84 165.432 228.696C165.384 229 165.336 229.376 165.288 229.824C165.24 230.272 165.208 230.728 165.192 231.192C165.176 231.656 165.176 232.064 165.192 232.416C164.488 232.608 163.72 232.76 162.888 232.872C162.056 232.984 161.24 233.064 160.44 233.112C159.64 233.144 158.928 233.16 158.304 233.16ZM154.224 221.424L154.056 217.8C154.68 217.896 155.44 217.952 156.336 217.968C157.248 217.984 158.192 217.976 159.168 217.944C160.144 217.896 161.072 217.816 161.952 217.704C162.832 217.592 163.56 217.456 164.136 217.296L163.992 220.848C163.352 220.976 162.6 221.088 161.736 221.184C160.872 221.264 159.976 221.328 159.048 221.376C158.136 221.424 157.256 221.456 156.408 221.472C155.56 221.472 154.832 221.456 154.224 221.424ZM185.544 272.224C183.8 272.016 182.264 271.52 180.936 270.736C179.624 269.936 178.6 268.888 177.864 267.592C177.128 266.296 176.76 264.808 176.76 263.128C176.76 262.008 177 260.912 177.48 259.84C177.976 258.752 178.672 257.752 179.568 256.84C178.336 257.048 177.128 257.264 175.944 257.488C174.776 257.696 173.72 257.896 172.776 258.088C171.848 258.28 171.112 258.456 170.568 258.616L169.8 254.8C170.312 254.784 171.04 254.728 171.984 254.632C172.944 254.536 174.032 254.408 175.248 254.248C176.464 254.072 177.72 253.888 179.016 253.696C180.328 253.488 181.592 253.28 182.808 253.072C184.024 252.848 185.112 252.632 186.072 252.424C187.032 252.216 187.776 252.032 188.304 251.872L189.264 255.448C188.992 255.464 188.656 255.504 188.256 255.568C187.872 255.616 187.44 255.672 186.96 255.736C186.144 255.832 185.344 256.08 184.56 256.48C183.776 256.864 183.064 257.384 182.424 258.04C181.8 258.68 181.304 259.432 180.936 260.296C180.568 261.144 180.384 262.088 180.384 263.128C180.384 264.312 180.688 265.28 181.296 266.032C181.904 266.784 182.744 267.368 183.816 267.784C184.888 268.2 186.112 268.488 187.488 268.648C187.2 268.952 186.912 269.328 186.624 269.776C186.352 270.224 186.12 270.664 185.928 271.096C185.736 271.544 185.608 271.92 185.544 272.224ZM187.56 262.72C187.256 262.208 186.872 261.688 186.408 261.16C185.96 260.632 185.552 260.192 185.184 259.84L186.72 258.592C186.944 258.784 187.216 259.056 187.536 259.408C187.856 259.76 188.168 260.12 188.472 260.488C188.776 260.856 189.016 261.168 189.192 261.424L187.56 262.72ZM189.864 260.848C189.56 260.352 189.176 259.84 188.712 259.312C188.248 258.768 187.832 258.328 187.464 257.992L189.024 256.744C189.248 256.936 189.52 257.208 189.84 257.56C190.16 257.912 190.472 258.272 190.776 258.64C191.08 259.008 191.312 259.32 191.472 259.576L189.864 260.848ZM202.56 270.76C201.456 270.76 200.464 270.648 199.584 270.424C198.704 270.184 197.936 269.752 197.28 269.128C196.64 268.488 196.112 267.576 195.696 266.392L198.816 264.616C199.008 265.4 199.4 266 199.992 266.416C200.584 266.832 201.44 267.04 202.56 267.04C203.552 267.04 204.6 266.992 205.704 266.896C206.808 266.784 207.856 266.64 208.848 266.464C209.84 266.288 210.656 266.088 211.296 265.864C211.28 266.2 211.296 266.624 211.344 267.136C211.392 267.632 211.456 268.128 211.536 268.624C211.632 269.104 211.728 269.488 211.824 269.776C211.168 269.984 210.328 270.16 209.304 270.304C208.28 270.448 207.184 270.56 206.016 270.64C204.848 270.72 203.696 270.76 202.56 270.76ZM198.456 256.696V253.096C198.936 253.256 199.544 253.376 200.28 253.456C201.016 253.536 201.808 253.584 202.656 253.6C203.52 253.616 204.376 253.608 205.224 253.576C206.072 253.528 206.856 253.456 207.576 253.36C208.312 253.264 208.912 253.144 209.376 253V256.624C208.976 256.736 208.408 256.832 207.672 256.912C206.952 256.992 206.152 257.048 205.272 257.08C204.408 257.112 203.528 257.12 202.632 257.104C201.752 257.088 200.944 257.048 200.208 256.984C199.472 256.92 198.888 256.824 198.456 256.696ZM214.488 255.112C214.184 254.6 213.8 254.08 213.336 253.552C212.888 253.024 212.48 252.584 212.112 252.232L213.672 250.984C213.88 251.176 214.144 251.448 214.464 251.8C214.784 252.152 215.096 252.52 215.4 252.904C215.704 253.272 215.944 253.584 216.12 253.84L214.488 255.112ZM212.184 256.96C211.88 256.448 211.496 255.928 211.032 255.4C210.584 254.856 210.176 254.416 209.808 254.08L211.368 252.832C211.576 253.024 211.84 253.296 212.16 253.648C212.48 254 212.792 254.368 213.096 254.752C213.4 255.12 213.64 255.432 213.816 255.688L212.184 256.96ZM226.008 272.968C225.656 272.664 225.224 272.36 224.712 272.056C224.216 271.752 223.736 271.512 223.272 271.336C223.768 270.824 224.256 270.152 224.736 269.32C225.216 268.472 225.624 267.56 225.96 266.584C226.312 265.608 226.536 264.664 226.632 263.752L229.824 264.424C229.776 264.824 229.712 265.224 229.632 265.624C229.552 266.024 229.456 266.424 229.344 266.824C229.632 267.24 229.976 267.616 230.376 267.952V263.392H225.84V260.368H238.68V263.392H233.712V264.64H237.864V267.52H233.712V269.368C233.936 269.4 234.168 269.432 234.408 269.464C234.664 269.48 234.92 269.488 235.176 269.488C236.024 269.488 236.784 269.472 237.456 269.44C238.128 269.392 238.68 269.336 239.112 269.272C238.968 269.704 238.84 270.232 238.728 270.856C238.632 271.464 238.568 272.04 238.536 272.584H235.176C233.576 272.584 232.216 272.36 231.096 271.912C229.976 271.464 229.016 270.76 228.216 269.8C227.912 270.408 227.568 270.984 227.184 271.528C226.816 272.072 226.424 272.552 226.008 272.968ZM218.112 272.704C218.096 272.4 218.048 272.024 217.968 271.576C217.904 271.128 217.824 270.688 217.728 270.256C217.632 269.808 217.528 269.456 217.416 269.2H218.856C219.176 269.2 219.4 269.16 219.528 269.08C219.656 268.984 219.72 268.784 219.72 268.48V265.696C219.176 265.904 218.68 266.088 218.232 266.248C217.8 266.408 217.48 266.52 217.272 266.584L216.504 262.984C216.872 262.904 217.336 262.792 217.896 262.648C218.472 262.488 219.08 262.304 219.72 262.096V258.256H216.96V255.04H219.72V250.888H223.104V255.04H225.024V258.256H223.104V260.944C223.616 260.768 224.056 260.608 224.424 260.464C224.808 260.304 225.08 260.176 225.24 260.08V263.368C225.08 263.464 224.808 263.6 224.424 263.776C224.04 263.936 223.6 264.12 223.104 264.328V270.112C223.104 271.04 222.832 271.704 222.288 272.104C221.76 272.504 220.96 272.704 219.888 272.704H218.112ZM226.248 259.624V251.248H237.696V259.624H226.248ZM229.632 257.272H234.312V256.456H229.632V257.272ZM229.632 254.416H234.312V253.6H229.632V254.416ZM250.272 272.992V268.912C249.6 269.456 248.832 269.984 247.968 270.496C247.104 271.008 246.232 271.464 245.352 271.864C244.488 272.28 243.696 272.584 242.976 272.776C242.816 272.344 242.584 271.888 242.28 271.408C241.976 270.928 241.632 270.512 241.248 270.16C241.856 270 242.528 269.776 243.264 269.488C244.016 269.2 244.776 268.872 245.544 268.504C246.328 268.12 247.064 267.72 247.752 267.304H241.152V264.808H250.272V263.584C249.328 263.856 248.304 264.08 247.2 264.256C246.096 264.416 244.904 264.536 243.624 264.616C243.56 264.184 243.44 263.728 243.264 263.248C243.104 262.752 242.936 262.328 242.76 261.976C243.848 261.976 244.848 261.928 245.76 261.832C246.672 261.736 247.52 261.608 248.304 261.448C247.712 261.304 247.12 261.176 246.528 261.064C245.936 260.952 245.368 260.864 244.824 260.8C245.048 260.576 245.32 260.288 245.64 259.936C245.96 259.584 246.304 259.2 246.672 258.784H243.192L243.216 257.296H241.344V252.256H250.08V250.72H253.8V252.256H262.608V257.152H260.736V258.784H257.736C257.432 259.136 257.12 259.48 256.8 259.816C256.496 260.136 256.168 260.44 255.816 260.728C256.616 260.92 257.432 261.136 258.264 261.376C259.096 261.616 259.936 261.888 260.784 262.192C260.48 262.528 260.16 262.944 259.824 263.44C259.488 263.936 259.232 264.368 259.056 264.736C258.224 264.4 257.272 264.048 256.2 263.68C255.128 263.312 254.008 262.96 252.84 262.624C252.536 262.768 252.216 262.904 251.88 263.032C251.56 263.16 251.216 263.28 250.848 263.392H253.704V264.808H262.92V267.304H256.536C257.544 267.864 258.616 268.368 259.752 268.816C260.888 269.264 261.912 269.616 262.824 269.872C262.472 270.224 262.128 270.664 261.792 271.192C261.456 271.72 261.2 272.2 261.024 272.632C260.304 272.424 259.504 272.112 258.624 271.696C257.744 271.296 256.872 270.84 256.008 270.328C255.16 269.816 254.392 269.288 253.704 268.744V272.992H250.272ZM252.48 256.216H259.248V254.776H253.632C253.472 254.968 253.296 255.192 253.104 255.448C252.912 255.688 252.704 255.944 252.48 256.216ZM244.68 256.216H248.832C249.056 255.944 249.264 255.688 249.456 255.448C249.664 255.208 249.848 254.984 250.008 254.776H244.68V256.216ZM252.192 259.912C252.48 259.736 252.752 259.56 253.008 259.384C253.264 259.192 253.512 258.992 253.752 258.784H250.296C250.008 259.088 249.8 259.32 249.672 259.48C250.424 259.592 251.264 259.736 252.192 259.912ZM274.608 266.464C274.544 265.824 274.48 265.08 274.416 264.232C274.352 263.384 274.288 262.504 274.224 261.592C274.16 260.664 274.096 259.768 274.032 258.904C273.984 258.024 273.944 257.232 273.912 256.528C273.88 255.824 273.864 255.272 273.864 254.872V251.368H278.136V254.872C278.136 255.272 278.12 255.824 278.088 256.528C278.056 257.232 278.008 258.024 277.944 258.904C277.896 259.768 277.84 260.664 277.776 261.592C277.712 262.504 277.648 263.384 277.584 264.232C277.52 265.08 277.456 265.824 277.392 266.464H274.608ZM276 272.68C275.36 272.68 274.808 272.448 274.344 271.984C273.88 271.52 273.648 270.968 273.648 270.328C273.648 269.672 273.88 269.12 274.344 268.672C274.808 268.224 275.36 268 276 268C276.656 268 277.208 268.224 277.656 268.672C278.12 269.12 278.352 269.672 278.352 270.328C278.352 270.968 278.12 271.52 277.656 271.984C277.208 272.448 276.656 272.68 276 272.68ZM284.208 266.464C284.144 265.824 284.08 265.08 284.016 264.232C283.952 263.384 283.888 262.504 283.824 261.592C283.76 260.664 283.696 259.768 283.632 258.904C283.584 258.024 283.544 257.232 283.512 256.528C283.48 255.824 283.464 255.272 283.464 254.872V251.368H287.736V254.872C287.736 255.272 287.72 255.824 287.688 256.528C287.656 257.232 287.608 258.024 287.544 258.904C287.496 259.768 287.44 260.664 287.376 261.592C287.312 262.504 287.248 263.384 287.184 264.232C287.12 265.08 287.056 265.824 286.992 266.464H284.208ZM285.6 272.68C284.96 272.68 284.408 272.448 283.944 271.984C283.48 271.52 283.248 270.968 283.248 270.328C283.248 269.672 283.48 269.12 283.944 268.672C284.408 268.224 284.96 268 285.6 268C286.256 268 286.808 268.224 287.256 268.672C287.72 269.12 287.952 269.672 287.952 270.328C287.952 270.968 287.72 271.52 287.256 271.984C286.808 272.448 286.256 272.68 285.6 272.68Z" fill="#444444"/>
<path d="M9.968 273.156V270.524C9.408 270.655 8.74533 270.795 7.98 270.944C7.21467 271.093 6.42133 271.233 5.6 271.364C4.79733 271.513 4.04133 271.644 3.332 271.756C2.64133 271.887 2.08133 271.98 1.652 272.036L1.064 268.676C1.32533 268.676 1.64267 268.657 2.016 268.62C2.408 268.583 2.828 268.545 3.276 268.508V260.108H1.148V257.252H26.852V260.108H13.916V269.824C15.1107 269.301 16.2493 268.611 17.332 267.752C16.8653 267.136 16.4547 266.483 16.1 265.792C15.764 265.083 15.5027 264.355 15.316 263.608H14.392V260.724H24.276L25.928 262.124C25.536 263.151 25.0413 264.149 24.444 265.12C23.8653 266.072 23.212 266.987 22.484 267.864C23.2493 268.368 24.024 268.797 24.808 269.152C25.592 269.507 26.3107 269.768 26.964 269.936C26.4973 270.384 26.068 270.916 25.676 271.532C25.3027 272.148 25.0133 272.689 24.808 273.156C24.0613 272.932 23.268 272.587 22.428 272.12C21.588 271.653 20.7573 271.084 19.936 270.412C18.6293 271.513 17.2573 272.428 15.82 273.156C15.596 272.783 15.3067 272.372 14.952 271.924C14.5973 271.476 14.252 271.075 13.916 270.72V273.156H9.968ZM4.872 256.44V247.816H23.156V256.44H4.872ZM8.736 254.06H19.292V253.22H8.736V254.06ZM8.736 250.98H19.292V250.224H8.736V250.98ZM7.224 268.004C8.26933 267.855 9.184 267.724 9.968 267.612V266.66H7.224V268.004ZM7.224 264.364H9.968V263.384H7.224V264.364ZM7.224 261.088H9.968V260.108H7.224V261.088ZM19.824 265.4C20.328 264.821 20.7667 264.224 21.14 263.608H18.816C19.0587 264.224 19.3947 264.821 19.824 265.4ZM48.944 268.592C48.9253 268.405 48.8973 268.2 48.86 267.976C48.8413 267.752 48.8133 267.519 48.776 267.276H41.384V261.48H43.792V260.472H41.048V258.036H43.792V257.112H40.432V268.34H36.988V254.564H40.88C40.768 254.228 40.6467 253.883 40.516 253.528C40.404 253.173 40.2827 252.847 40.152 252.548H36.596V249.524H43.288V247.508H47.46V249.524H54.516V252.548H50.792C50.6987 252.865 50.596 253.201 50.484 253.556C50.372 253.911 50.26 254.247 50.148 254.564H53.816V265.876C53.816 266.828 53.536 267.519 52.976 267.948C52.416 268.377 51.576 268.592 50.456 268.592H48.944ZM30.072 272.96L28.532 269.068C28.868 268.956 29.26 268.825 29.708 268.676C30.156 268.508 30.5947 268.34 31.024 268.172C31.4533 268.004 31.7893 267.855 32.032 267.724V260.864H29.12V257.476H35.616V267.108C35.616 267.929 36.372 268.527 37.884 268.9C39.396 269.255 41.58 269.432 44.436 269.432C46.956 269.432 49.1213 269.395 50.932 269.32C52.7613 269.227 54.1893 269.087 55.216 268.9C55.104 269.18 54.9827 269.563 54.852 270.048C54.7213 270.515 54.6093 271 54.516 271.504C54.4227 272.027 54.3667 272.484 54.348 272.876H44.436C42.4013 272.876 40.712 272.773 39.368 272.568C38.024 272.381 36.932 272.101 36.092 271.728C35.2707 271.355 34.608 270.916 34.104 270.412C33.5627 270.823 32.9093 271.271 32.144 271.756C31.3973 272.241 30.7067 272.643 30.072 272.96ZM33.572 254.284C33.2547 253.836 32.8533 253.36 32.368 252.856C31.9013 252.333 31.4067 251.839 30.884 251.372C30.3613 250.887 29.8667 250.476 29.4 250.14L31.948 247.732C32.396 248.012 32.8907 248.376 33.432 248.824C33.992 249.272 34.5333 249.748 35.056 250.252C35.5787 250.737 36.0173 251.195 36.372 251.624C36.1293 251.811 35.8213 252.072 35.448 252.408C35.0933 252.725 34.7387 253.052 34.384 253.388C34.048 253.724 33.7773 254.023 33.572 254.284ZM49.336 265.176H49.448C49.7653 265.176 49.9893 265.12 50.12 265.008C50.2693 264.877 50.344 264.663 50.344 264.364V257.112H47.04V258.036H49.616V260.472H47.04V261.48H49.336V265.176ZM44.436 254.564H46.62C46.844 253.967 47.0773 253.295 47.32 252.548H43.708C43.8573 252.903 43.9973 253.267 44.128 253.64C44.2587 253.995 44.3613 254.303 44.436 254.564ZM44.408 264.98H46.284V263.804H44.408V264.98ZM72.296 271.616C72.2213 271.243 72.0533 270.813 71.792 270.328C71.5493 269.824 71.26 269.329 70.924 268.844C70.6067 268.359 70.28 267.976 69.944 267.696C72.576 267.285 74.5267 266.483 75.796 265.288C77.0653 264.093 77.7373 262.656 77.812 260.976C77.8867 259.707 77.6627 258.577 77.14 257.588C76.6173 256.599 75.908 255.796 75.012 255.18C74.1347 254.545 73.1733 254.144 72.128 253.976C71.9787 255.637 71.6987 257.355 71.288 259.128C70.896 260.883 70.3453 262.553 69.636 264.14C68.9267 265.708 68.0493 267.052 67.004 268.172C66.1267 269.124 65.296 269.665 64.512 269.796C63.728 269.908 62.8973 269.787 62.02 269.432C61.1613 269.077 60.4147 268.517 59.78 267.752C59.1453 266.968 58.66 266.053 58.324 265.008C58.0067 263.944 57.876 262.824 57.932 261.648C58.0253 259.893 58.436 258.288 59.164 256.832C59.9107 255.376 60.9 254.135 62.132 253.108C63.364 252.063 64.7733 251.279 66.36 250.756C67.9653 250.215 69.6733 249.991 71.484 250.084C72.996 250.159 74.4053 250.495 75.712 251.092C77.0187 251.671 78.1573 252.464 79.128 253.472C80.1173 254.48 80.8733 255.647 81.396 256.972C81.9187 258.297 82.1333 259.735 82.04 261.284C81.9093 263.991 80.976 266.231 79.24 268.004C77.504 269.759 75.1893 270.963 72.296 271.616ZM64.148 265.148C64.7827 264.551 65.3613 263.683 65.884 262.544C66.4253 261.387 66.8827 260.089 67.256 258.652C67.6293 257.196 67.8813 255.721 68.012 254.228C66.8547 254.564 65.828 255.105 64.932 255.852C64.0547 256.58 63.364 257.457 62.86 258.484C62.356 259.511 62.0667 260.64 61.992 261.872C61.9547 262.6 62.0293 263.235 62.216 263.776C62.4213 264.317 62.7107 264.765 63.084 265.12C63.4387 265.475 63.7933 265.484 64.148 265.148ZM88.48 267.556C88.032 267.052 87.4813 266.52 86.828 265.96C86.1933 265.4 85.54 264.915 84.868 264.504C86.1373 263.627 87.276 262.591 88.284 261.396C89.3107 260.183 90.1693 258.913 90.86 257.588C91.5693 256.263 92.0547 254.984 92.316 253.752L96.488 255.124C96.1147 256.655 95.5547 258.185 94.808 259.716C94.0613 261.228 93.156 262.656 92.092 264C91.028 265.344 89.824 266.529 88.48 267.556ZM106.68 266.8C106.344 265.923 105.915 264.98 105.392 263.972C104.869 262.945 104.3 261.928 103.684 260.92C103.068 259.912 102.433 258.988 101.78 258.148C101.127 257.289 100.511 256.589 99.932 256.048L103.348 253.724C104.02 254.34 104.72 255.068 105.448 255.908C106.176 256.748 106.885 257.653 107.576 258.624C108.267 259.576 108.901 260.556 109.48 261.564C110.077 262.553 110.581 263.505 110.992 264.42C110.357 264.719 109.657 265.073 108.892 265.484C108.127 265.876 107.389 266.315 106.68 266.8ZM107.156 253.808C106.372 253.808 105.7 253.537 105.14 252.996C104.599 252.436 104.328 251.764 104.328 250.98C104.328 250.215 104.599 249.561 105.14 249.02C105.7 248.46 106.372 248.18 107.156 248.18C107.921 248.18 108.575 248.46 109.116 249.02C109.676 249.561 109.956 250.215 109.956 250.98C109.956 251.764 109.676 252.436 109.116 252.996C108.575 253.537 107.921 253.808 107.156 253.808ZM107.156 252.464C107.567 252.464 107.912 252.324 108.192 252.044C108.472 251.745 108.612 251.391 108.612 250.98C108.612 250.569 108.472 250.224 108.192 249.944C107.912 249.664 107.567 249.524 107.156 249.524C106.745 249.524 106.391 249.664 106.092 249.944C105.812 250.224 105.672 250.569 105.672 250.98C105.672 251.391 105.812 251.745 106.092 252.044C106.391 252.324 106.745 252.464 107.156 252.464ZM124.068 272.848V264.952C122.761 265.643 121.417 266.277 120.036 266.856C118.655 267.435 117.273 267.939 115.892 268.368C115.705 267.827 115.397 267.201 114.968 266.492C114.557 265.783 114.128 265.139 113.68 264.56C116.405 263.851 118.981 262.917 121.408 261.76C123.853 260.603 126 259.268 127.848 257.756C126.859 257.775 125.832 257.803 124.768 257.84C123.723 257.859 122.724 257.887 121.772 257.924C120.82 257.961 119.989 257.999 119.28 258.036C118.571 258.055 118.067 258.083 117.768 258.12V254.004C118.16 254.041 118.729 254.079 119.476 254.116C120.223 254.135 121.081 254.153 122.052 254.172C123.023 254.172 124.031 254.172 125.076 254.172C126.121 254.172 127.129 254.172 128.1 254.172C129.089 254.153 129.967 254.135 130.732 254.116C131.497 254.079 132.076 254.041 132.468 254.004L134.792 256.244C133.915 257.401 132.935 258.484 131.852 259.492C130.769 260.481 129.612 261.415 128.38 262.292V272.848H124.068ZM128.828 253.808C128.548 253.659 128.063 253.453 127.372 253.192C126.7 252.931 125.953 252.66 125.132 252.38C124.311 252.081 123.527 251.82 122.78 251.596C122.033 251.353 121.436 251.185 120.988 251.092L122.64 247.312C123.013 247.368 123.555 247.508 124.264 247.732C124.973 247.937 125.739 248.18 126.56 248.46C127.381 248.74 128.147 249.02 128.856 249.3C129.584 249.561 130.125 249.785 130.48 249.972L128.828 253.808ZM135.772 269.208C135.492 268.891 135.081 268.489 134.54 268.004C133.999 267.5 133.401 266.987 132.748 266.464C132.113 265.941 131.507 265.475 130.928 265.064C130.368 264.653 129.929 264.373 129.612 264.224L131.992 261.088C132.365 261.256 132.851 261.536 133.448 261.928C134.064 262.301 134.708 262.721 135.38 263.188C136.052 263.655 136.668 264.112 137.228 264.56C137.807 265.008 138.245 265.391 138.544 265.708L135.772 269.208ZM155.624 269.796L153.356 268.032C153.412 267.752 153.449 267.183 153.468 266.324C153.505 265.447 153.524 264.355 153.524 263.048C153.543 261.723 153.552 260.257 153.552 258.652C153.552 256.673 153.533 255.115 153.496 253.976C153.459 252.819 153.412 251.923 153.356 251.288H157.808C157.752 251.773 157.705 252.669 157.668 253.976C157.649 255.283 157.64 256.767 157.64 258.428V264.084C158.424 263.748 159.255 263.347 160.132 262.88C161.028 262.413 161.905 261.928 162.764 261.424C163.623 260.901 164.407 260.388 165.116 259.884C165.825 259.361 166.404 258.885 166.852 258.456C166.852 258.923 166.88 259.483 166.936 260.136C166.992 260.771 167.067 261.377 167.16 261.956C167.253 262.516 167.347 262.936 167.44 263.216C166.805 263.739 165.993 264.317 165.004 264.952C164.015 265.587 162.951 266.212 161.812 266.828C160.673 267.444 159.563 268.013 158.48 268.536C157.397 269.059 156.445 269.479 155.624 269.796ZM143.584 270.16C143.248 269.619 142.791 269.049 142.212 268.452C141.633 267.836 141.073 267.313 140.532 266.884C142.119 266.063 143.369 265.185 144.284 264.252C145.217 263.3 145.88 262.245 146.272 261.088C146.683 259.912 146.888 258.596 146.888 257.14C146.907 255.684 146.795 254.032 146.552 252.184L150.584 251.848C150.995 254.816 151.051 257.439 150.752 259.716C150.453 261.993 149.725 263.991 148.568 265.708C147.429 267.407 145.768 268.891 143.584 270.16Z" fill="#0072FF"/>
<circle cx="21.2607" cy="21" r="21" fill="#00C6FF"/>
<circle cx="58.2607" cy="21" r="21" fill="#00C6FF"/>
<circle cx="94.2607" cy="21" r="21" fill="#00C6FF"/>
<circle cx="131.261" cy="21" r="21" fill="#00C6FF"/>
<path d="M22.6247 34.66C22.2887 34.2307 21.8314 33.764 21.2527 33.26C20.6741 32.756 20.1327 32.364 19.6287 32.084C20.7114 31.2627 21.6261 30.4413 22.3727 29.62C23.1194 28.7987 23.7261 27.8747 24.1927 26.848C24.6781 25.8027 25.0327 24.5707 25.2567 23.152C25.4994 21.7333 25.6301 20.0347 25.6487 18.056H23.1847V15.256H20.2727C20.7394 15.6667 21.2247 16.1333 21.7287 16.656C22.2514 17.1787 22.7367 17.7013 23.1847 18.224C23.6514 18.7467 24.0247 19.204 24.3047 19.596C23.8007 19.8947 23.2967 20.2587 22.7927 20.688C22.3074 21.0987 21.8314 21.556 21.3647 22.06C21.3087 21.9667 21.2527 21.8733 21.1967 21.78C21.1407 21.6867 21.0661 21.5933 20.9727 21.5C20.5061 22.8813 19.8994 24.272 19.1527 25.672C19.7314 26.1947 20.2727 26.736 20.7767 27.296C21.2994 27.8373 21.7474 28.3693 22.1207 28.892C21.6727 29.2467 21.1594 29.6853 20.5807 30.208C20.0021 30.7307 19.5261 31.2253 19.1527 31.692C18.8541 31.3 18.5087 30.8893 18.1167 30.46C17.7434 30.0307 17.3421 29.6013 16.9127 29.172C16.1661 30.18 15.3447 31.1227 14.4487 32C13.5527 32.8587 12.6101 33.624 11.6207 34.296C11.3221 33.8667 10.9021 33.3813 10.3607 32.84C9.81941 32.2987 9.28741 31.8507 8.76474 31.496C9.77274 30.8987 10.7247 30.18 11.6207 29.34C12.5167 28.4813 13.3287 27.5573 14.0567 26.568C13.4594 26.064 12.8527 25.5973 12.2367 25.168C11.6394 24.72 11.0701 24.3373 10.5287 24.02L13.1047 21.108C13.5901 21.3693 14.0847 21.6773 14.5887 22.032C15.0927 22.368 15.6061 22.732 16.1287 23.124C16.6887 21.9293 17.1087 20.716 17.3887 19.484L20.0487 20.324C19.5634 19.764 19.0407 19.204 18.4807 18.644C17.9207 18.084 17.4074 17.636 16.9407 17.3L19.3767 15.256H13.9727L16.3247 16.712C15.7647 17.608 15.0834 18.5227 14.2807 19.456C13.4967 20.3893 12.6941 21.192 11.8727 21.864C11.5367 21.5093 11.0794 21.0987 10.5007 20.632C9.92208 20.1653 9.38074 19.8013 8.87674 19.54C9.30608 19.2227 9.76341 18.8213 10.2487 18.336C10.7527 17.8507 11.2381 17.3373 11.7047 16.796C12.1714 16.2547 12.5541 15.7413 12.8527 15.256H9.52074V11.784H14.6167V8.256H18.8167V11.784H23.5767V14.052H25.6487V8.48H29.5687V14.052H34.6367V18.056C34.6181 20.2773 34.5901 22.3307 34.5527 24.216C34.5154 26.1013 34.4501 27.6133 34.3567 28.752C34.2447 30.1147 34.0114 31.188 33.6567 31.972C33.3207 32.7373 32.8074 33.2693 32.1167 33.568C31.4261 33.8853 30.4834 34.044 29.2887 34.044H27.8327C27.7767 33.6147 27.6927 33.1387 27.5807 32.616C27.4874 32.0933 27.3847 31.608 27.2727 31.16C27.1794 30.6933 27.0954 30.348 27.0207 30.124H28.5047C29.2514 30.124 29.7367 29.984 29.9607 29.704C30.1847 29.4053 30.3341 28.864 30.4087 28.08C30.4834 27.4453 30.5487 26.6053 30.6047 25.56C30.6794 24.5147 30.7354 23.348 30.7727 22.06C30.8101 20.7533 30.8287 19.4187 30.8287 18.056H29.5687C29.5127 20.9493 29.1954 23.46 28.6167 25.588C28.0567 27.6973 27.2727 29.4893 26.2647 30.964C25.2567 32.4387 24.0434 33.6707 22.6247 34.66ZM56.5047 34.156V29.676H45.6407V26.064H56.5047V25.028C55.6087 25.084 54.7781 25.1307 54.0127 25.168C53.2474 25.2053 52.6781 25.2333 52.3047 25.252L51.9967 23.012C51.5674 23.348 51.0914 23.712 50.5687 24.104C50.0647 24.4773 49.5701 24.832 49.0847 25.168C48.6181 25.4853 48.2074 25.7467 47.8527 25.952L45.7247 22.984C46.0421 22.816 46.4621 22.5733 46.9847 22.256C47.5261 21.9387 48.0954 21.584 48.6927 21.192C49.3087 20.8 49.8874 20.4267 50.4287 20.072C50.9887 19.6987 51.4367 19.3813 51.7727 19.12C51.8847 19.5307 52.0527 20.0067 52.2767 20.548C52.5007 21.0893 52.6967 21.5467 52.8647 21.92C53.0514 21.92 53.2381 21.92 53.4247 21.92C53.6301 21.9013 53.8447 21.892 54.0687 21.892C54.2181 21.7427 54.3861 21.5747 54.5727 21.388C54.7781 21.2013 54.9927 21.0053 55.2167 20.8C54.7127 20.352 54.1247 19.8573 53.4527 19.316C52.7994 18.7747 52.2301 18.3267 51.7447 17.972C51.4461 18.2707 51.1287 18.6067 50.7927 18.98C50.4754 19.3347 50.2047 19.652 49.9807 19.932C49.6634 19.5587 49.2714 19.1573 48.8047 18.728C48.3381 18.28 47.8714 17.86 47.4047 17.468C46.9381 17.0573 46.5367 16.74 46.2007 16.516L48.4967 14.08C48.7954 14.2667 49.1501 14.5187 49.5607 14.836C49.9714 15.1533 50.3914 15.4893 50.8207 15.844C51.2501 16.1987 51.6327 16.5347 51.9687 16.852L53.4807 15.144C53.6114 15.2187 53.7514 15.312 53.9007 15.424C54.0501 15.5173 54.1994 15.62 54.3487 15.732C54.5541 15.4893 54.7874 15.2093 55.0487 14.892C55.3287 14.5747 55.5901 14.248 55.8327 13.912H46.4807V10.58H56.4207V8.34H60.8727V10.58H70.8407V13.912H68.3207L70.0847 15.452C69.7861 15.788 69.3941 16.1893 68.9087 16.656C68.4421 17.1227 67.9661 17.5707 67.4807 18C66.9954 18.4293 66.5661 18.784 66.1927 19.064C65.8381 18.672 65.3994 18.252 64.8767 17.804C64.3727 17.356 63.9247 17.0013 63.5327 16.74C63.9434 16.4227 64.4381 15.9933 65.0167 15.452C65.6141 14.892 66.1367 14.3787 66.5847 13.912H58.8007L59.8367 14.5C59.6314 14.7613 59.3607 15.088 59.0247 15.48C58.6887 15.872 58.3341 16.2733 57.9607 16.684C57.6061 17.076 57.2887 17.4213 57.0087 17.72C57.1394 17.8133 57.2607 17.9067 57.3727 18C57.5034 18.0933 57.6154 18.1867 57.7087 18.28C58.3621 17.5707 58.9687 16.908 59.5287 16.292C60.0887 15.6573 60.4807 15.1813 60.7047 14.864L63.4207 16.768C63.1221 17.16 62.7114 17.636 62.1887 18.196C61.6847 18.7373 61.1341 19.3067 60.5367 19.904C59.9394 20.5013 59.3421 21.08 58.7447 21.64C59.0994 21.6213 59.4447 21.6027 59.7807 21.584C60.1167 21.5653 60.4341 21.5467 60.7327 21.528C60.6207 21.3227 60.5181 21.136 60.4247 20.968C60.3314 20.8 60.2381 20.6507 60.1447 20.52L63.2247 19.176C63.5794 19.6613 63.9901 20.352 64.4567 21.248L66.5287 19.008C67.0887 19.344 67.7047 19.7733 68.3767 20.296C69.0487 20.8 69.6834 21.2947 70.2807 21.78C70.8967 22.2653 71.3634 22.6573 71.6807 22.956C71.3074 23.2733 70.8874 23.7027 70.4207 24.244C69.9727 24.7853 69.5994 25.2707 69.3007 25.7C69.0581 25.42 68.6847 25.0653 68.1807 24.636C67.6767 24.2067 67.1261 23.7587 66.5287 23.292C65.9501 22.8253 65.3994 22.424 64.8767 22.088C65.1007 22.4987 65.2967 22.9 65.4647 23.292C65.6514 23.684 65.8007 24.0293 65.9127 24.328C65.6327 24.44 65.2781 24.5893 64.8487 24.776C64.4194 24.944 63.9994 25.1213 63.5887 25.308C63.1967 25.4947 62.8794 25.672 62.6367 25.84C62.5807 25.672 62.5061 25.476 62.4127 25.252C62.3381 25.028 62.2447 24.7853 62.1327 24.524C61.9461 24.5427 61.7407 24.5707 61.5167 24.608C61.2927 24.6267 61.0501 24.6547 60.7887 24.692V26.064H71.6807V29.676H60.7887V34.156H56.5047ZM90.6367 33.624C88.7887 33.5493 87.3514 33.036 86.3247 32.084C85.2981 31.1507 84.7847 29.984 84.7847 28.584C84.7847 27.632 85.0834 26.7827 85.6807 26.036C86.2781 25.2707 87.0994 24.6827 88.1447 24.272C89.1901 23.8427 90.3754 23.6653 91.7007 23.74C91.9247 23.7587 92.1394 23.7773 92.3447 23.796C92.5687 23.796 92.7834 23.8147 92.9887 23.852C92.9327 22.6387 92.8674 21.3507 92.7927 19.988C92.7181 18.6067 92.6434 17.2347 92.5687 15.872C92.5127 14.5093 92.4567 13.24 92.4007 12.064C92.3634 10.888 92.3447 9.89867 92.3447 9.096H96.6287C96.5914 9.67467 96.5727 10.44 96.5727 11.392C96.5914 12.344 96.6101 13.38 96.6287 14.5C97.3941 14.4253 98.2247 14.3227 99.1207 14.192C100.017 14.0427 100.885 13.8747 101.725 13.688C102.565 13.5013 103.283 13.3147 103.881 13.128C103.899 13.4453 103.927 13.856 103.965 14.36C104.021 14.8453 104.086 15.3307 104.161 15.816C104.235 16.3013 104.31 16.6933 104.385 16.992C103.806 17.1787 103.069 17.3467 102.173 17.496C101.295 17.6453 100.381 17.776 99.4287 17.888C98.4954 18 97.6181 18.084 96.7967 18.14C96.8527 19.316 96.9087 20.464 96.9647 21.584C97.0207 22.704 97.0767 23.7307 97.1327 24.664C98.7194 25.1307 100.203 25.7 101.585 26.372C102.966 27.0253 104.245 27.6973 105.421 28.388C105.103 28.6493 104.758 29.004 104.385 29.452C104.03 29.9 103.703 30.3573 103.405 30.824C103.106 31.2907 102.891 31.6827 102.761 32C101.939 31.3653 101.062 30.768 100.129 30.208C99.2141 29.648 98.2807 29.1627 97.3287 28.752C97.2727 29.7227 97.0021 30.5907 96.5167 31.356C96.0501 32.1027 95.3314 32.6813 94.3607 33.092C93.4087 33.5027 92.1674 33.68 90.6367 33.624ZM90.7767 29.704C91.5981 29.7787 92.1954 29.676 92.5687 29.396C92.9607 29.0973 93.1567 28.696 93.1567 28.192C93.1567 28.08 93.1474 27.9587 93.1287 27.828C93.1287 27.6973 93.1287 27.5667 93.1287 27.436C92.7741 27.3613 92.4287 27.3147 92.0927 27.296C91.7567 27.2587 91.4301 27.24 91.1127 27.24C89.5261 27.24 88.7327 27.6507 88.7327 28.472C88.7327 28.864 88.9007 29.1533 89.2367 29.34C89.5727 29.508 90.0861 29.6293 90.7767 29.704ZM134.065 34.24C133.71 33.5307 133.234 32.728 132.637 31.832C132.058 30.9173 131.414 29.984 130.705 29.032C129.995 28.08 129.277 27.1653 128.549 26.288C127.821 25.392 127.149 24.5987 126.533 23.908C125.917 23.2173 125.403 22.6947 124.993 22.34C124.339 21.7427 124.013 21.192 124.013 20.688C124.013 20.184 124.302 19.6987 124.881 19.232C125.329 18.8587 125.87 18.364 126.505 17.748C127.139 17.1133 127.811 16.4133 128.521 15.648C129.249 14.864 129.958 14.052 130.649 13.212C131.339 12.372 131.965 11.5507 132.525 10.748C133.085 9.92667 133.523 9.18 133.841 8.508L137.789 11.196C137.453 11.6253 137.014 12.148 136.473 12.764C135.931 13.3613 135.334 14.0053 134.681 14.696C134.046 15.3867 133.402 16.0773 132.749 16.768C132.114 17.44 131.507 18.0747 130.929 18.672C130.35 19.2507 129.865 19.736 129.473 20.128C129.286 20.3147 129.193 20.5107 129.193 20.716C129.211 20.9213 129.342 21.1453 129.585 21.388C129.939 21.724 130.406 22.228 130.985 22.9C131.582 23.5533 132.226 24.2907 132.917 25.112C133.607 25.9333 134.289 26.764 134.961 27.604C135.651 28.444 136.277 29.228 136.837 29.956C137.397 30.684 137.835 31.2813 138.153 31.748C137.742 31.916 137.275 32.14 136.753 32.42C136.23 32.7 135.726 32.9987 135.241 33.316C134.755 33.6333 134.363 33.9413 134.065 34.24Z" fill="white"/>
<mask id="path-7-inside-1_420_10304" fill="white">
<path d="M0.260742 117.264H340V183.62H0.260742V117.264Z"/>
</mask>
<path d="M0.260742 117.264H340V183.62H0.260742V117.264Z" fill="white"/>
<path d="M0.260742 121.688H340V112.841H0.260742V121.688ZM340 179.196H0.260742V188.043H340V179.196Z" fill="url(#paint0_linear_420_10304)" mask="url(#path-7-inside-1_420_10304)"/>
<path d="M27.2984 159.747C26.3216 159.747 25.444 159.648 24.6654 159.45C23.8868 159.237 23.2074 158.855 22.627 158.303C22.0607 157.737 21.5936 156.93 21.2256 155.882L23.9859 154.311C24.1558 155.005 24.5026 155.536 25.0264 155.904C25.5501 156.272 26.3075 156.456 27.2984 156.456C28.176 156.456 29.1033 156.413 30.08 156.328C31.0568 156.229 31.984 156.102 32.8616 155.946C33.7393 155.79 34.4612 155.613 35.0275 155.415C35.0133 155.712 35.0275 156.088 35.0699 156.541C35.1124 156.979 35.169 157.418 35.2398 157.857C35.3247 158.282 35.4097 158.622 35.4946 158.876C34.9142 159.06 34.171 159.216 33.2651 159.343C32.3591 159.471 31.3894 159.57 30.356 159.641C29.3227 159.712 28.3035 159.747 27.2984 159.747ZM23.6674 147.304V144.119C24.0921 144.26 24.63 144.367 25.2812 144.437C25.9324 144.508 26.6331 144.551 27.3833 144.565C28.1477 144.579 28.9051 144.572 29.6553 144.544C30.4056 144.501 31.0992 144.437 31.7362 144.352C32.3874 144.268 32.9182 144.161 33.3288 144.034V147.24C32.9749 147.339 32.4723 147.424 31.8212 147.495C31.1842 147.566 30.4764 147.615 29.6978 147.644C28.9334 147.672 28.1548 147.679 27.3621 147.665C26.5835 147.651 25.8687 147.615 25.2175 147.559C24.5663 147.502 24.0496 147.417 23.6674 147.304ZM37.8515 145.903C37.5826 145.45 37.2428 144.989 36.8323 144.522C36.436 144.055 36.075 143.666 35.7494 143.354L37.1296 142.25C37.3136 142.42 37.5472 142.661 37.8303 142.972C38.1134 143.284 38.3895 143.609 38.6584 143.949C38.9274 144.275 39.1397 144.551 39.2954 144.777L37.8515 145.903ZM35.8131 147.538C35.5441 147.085 35.2044 146.624 34.7939 146.157C34.3975 145.676 34.0365 145.287 33.711 144.989L35.0912 143.885C35.2752 144.055 35.5087 144.296 35.7919 144.607C36.075 144.919 36.351 145.244 36.62 145.584C36.8889 145.91 37.1013 146.186 37.257 146.412L35.8131 147.538ZM42.438 160.894V144.713H46.6847C46.798 144.388 46.9112 144.034 47.0245 143.652C47.1377 143.27 47.2368 142.923 47.3218 142.611C47.4067 142.286 47.4562 142.073 47.4704 141.974L51.3137 142.293C51.2429 142.505 51.0943 142.852 50.8678 143.333C50.6554 143.8 50.4431 144.26 50.2308 144.713H57.1742V160.894H42.438ZM45.7292 149.257H53.883V147.453H45.7292V149.257ZM45.7292 153.717H53.883V151.933H45.7292V153.717ZM45.7292 158.154H53.883V156.392H45.7292V158.154ZM71.5706 161.531C70.608 161.531 69.9286 161.382 69.5322 161.085C69.1358 160.801 68.9377 160.327 68.9377 159.662V155.84L61.4846 156.371L61.2298 153.525L68.9377 152.973V151.721C68.3148 151.805 67.699 151.883 67.0903 151.954C66.4816 152.011 65.8871 152.06 65.3067 152.103C65.2501 151.82 65.1651 151.501 65.0519 151.147C64.9386 150.793 64.8183 150.454 64.6909 150.128C64.5777 149.788 64.4644 149.512 64.3512 149.3C65.1581 149.272 66.0569 149.208 67.0479 149.109C68.0388 148.996 69.0438 148.854 70.063 148.684C71.0823 148.514 72.0378 148.309 72.9296 148.068C73.8214 147.814 74.5717 147.538 75.1804 147.24L77.1339 149.725C76.4261 149.994 75.6475 150.248 74.7982 150.489C73.963 150.715 73.0995 150.928 72.2076 151.126V152.74L80.5737 152.145L80.8285 154.991L72.2076 155.606V157.963C72.2076 158.176 72.2572 158.324 72.3563 158.409C72.4554 158.494 72.6606 158.537 72.9721 158.537H75.9235C76.2774 158.537 76.5464 158.473 76.7304 158.345C76.9286 158.218 77.0702 157.992 77.1551 157.666C77.2542 157.326 77.332 156.845 77.3887 156.222C77.6152 156.335 77.9266 156.463 78.3229 156.604C78.7335 156.732 79.1511 156.859 79.5757 156.987C80.0004 157.1 80.3543 157.192 80.6374 157.263C80.4534 158.409 80.234 159.294 79.9792 159.917C79.7385 160.525 79.3988 160.943 78.96 161.17C78.5353 161.41 77.9337 161.531 77.1551 161.531H71.5706ZM61.5696 149.045V144.246H69.1925V142.059H72.7597V144.246H80.4888V149.024H77.3037V146.901H64.8183V149.045H61.5696ZM94.0146 160.426C93.958 160.143 93.8306 159.818 93.6324 159.45C93.4484 159.067 93.229 158.692 92.9742 158.324C92.7335 157.956 92.4858 157.666 92.231 157.454C94.227 157.142 95.7063 156.534 96.6688 155.628C97.6314 154.722 98.1411 153.632 98.1977 152.358C98.2543 151.395 98.0844 150.539 97.6881 149.788C97.2917 149.038 96.7538 148.429 96.0743 147.962C95.409 147.481 94.68 147.177 93.8872 147.049C93.774 148.309 93.5617 149.611 93.2502 150.956C92.953 152.287 92.5354 153.554 91.9974 154.757C91.4595 155.946 90.7942 156.965 90.0015 157.815C89.3361 158.537 88.7062 158.947 88.1117 159.046C87.5171 159.131 86.8872 159.039 86.2219 158.77C85.5707 158.501 85.0045 158.077 84.5232 157.496C84.0419 156.902 83.6738 156.208 83.419 155.415C83.1784 154.608 83.0793 153.759 83.1218 152.867C83.1925 151.537 83.504 150.319 84.056 149.215C84.6223 148.111 85.3725 147.169 86.3068 146.391C87.2411 145.598 88.3099 145.004 89.5131 144.607C90.7305 144.197 92.0257 144.027 93.3989 144.098C94.5455 144.154 95.6142 144.409 96.6051 144.862C97.5961 145.301 98.4596 145.903 99.1957 146.667C99.9459 147.431 100.519 148.316 100.916 149.321C101.312 150.326 101.475 151.416 101.404 152.591C101.305 154.644 100.597 156.342 99.2806 157.687C97.9641 159.018 96.2088 159.931 94.0146 160.426ZM87.8356 155.521C88.3169 155.068 88.7558 154.41 89.1521 153.547C89.5626 152.669 89.9095 151.685 90.1926 150.595C90.4757 149.491 90.6668 148.373 90.7659 147.24C89.8882 147.495 89.1097 147.906 88.4302 148.472C87.7649 149.024 87.2411 149.689 86.8589 150.468C86.4767 151.246 86.2573 152.103 86.2006 153.037C86.1723 153.589 86.229 154.07 86.3705 154.481C86.5262 154.891 86.7456 155.231 87.0288 155.5C87.2977 155.769 87.5667 155.776 87.8356 155.521ZM114.463 161.7C113.557 161.7 112.92 161.566 112.552 161.297C112.184 161.028 112 160.582 112 159.959V158.515H106.054V151.551H120.727V158.515H114.994V158.643C114.994 158.827 115.036 158.961 115.121 159.046C115.22 159.117 115.418 159.152 115.715 159.152H120.005C120.5 159.152 120.833 158.99 121.003 158.664C121.187 158.338 121.314 157.786 121.385 157.008C121.597 157.107 121.859 157.22 122.171 157.347C122.496 157.475 122.829 157.595 123.168 157.708C123.522 157.822 123.834 157.914 124.103 157.984C123.961 158.791 123.813 159.443 123.657 159.938C123.501 160.419 123.303 160.787 123.062 161.042C122.836 161.297 122.539 161.467 122.171 161.552C121.817 161.651 121.371 161.7 120.833 161.7H114.463ZM112 151.02V147.24H106.67V150.128H103.697V145.244H112V144.565H105.184V142.335H121.873V144.565H114.994V145.244H123.211V150.128H120.238V147.24H114.994V151.02H112ZM107.201 150.977V149.576H111.363V150.977H107.201ZM115.567 150.977V149.576H119.729V150.977H115.567ZM107.201 149.109V147.707H111.363V149.109H107.201ZM115.567 149.109V147.707H119.729V149.109H115.567ZM108.984 154.184H112V153.525H108.984V154.184ZM108.984 156.541H112V155.904H108.984V156.541ZM114.994 154.184H117.796V153.525H114.994V154.184ZM114.994 156.541H117.796V155.904H114.994V156.541ZM127.054 161.807C126.884 161.396 126.665 160.957 126.396 160.49C126.127 160.037 125.809 159.612 125.44 159.216C126.304 158.975 127.153 158.65 127.989 158.239C128.838 157.815 129.645 157.34 130.409 156.817C129.914 156.434 129.418 156.088 128.923 155.776C128.427 155.451 127.953 155.182 127.5 154.969L129.284 152.952C129.864 153.207 130.437 153.504 131.004 153.844C131.584 154.184 132.157 154.552 132.724 154.948C133.531 154.17 134.182 153.384 134.677 152.591H126.545V150.086H141.578C141.536 150.482 141.493 150.963 141.451 151.529C141.422 152.096 141.408 152.719 141.408 153.398C141.408 154.276 141.472 155.061 141.599 155.755C141.727 156.449 141.904 157.064 142.13 157.602C142.286 157.277 142.42 156.965 142.534 156.668C142.661 156.371 142.753 156.13 142.81 155.946C142.965 156.059 143.185 156.201 143.468 156.371C143.765 156.526 144.084 156.675 144.423 156.817C144.763 156.944 145.06 157.043 145.315 157.114C145.188 157.524 145.018 157.977 144.806 158.473C144.607 158.968 144.388 159.443 144.147 159.896C143.921 160.349 143.701 160.717 143.489 161C143.178 161.439 142.795 161.7 142.343 161.785C141.89 161.884 141.486 161.814 141.132 161.573C140.693 161.262 140.297 160.787 139.943 160.15C139.589 159.527 139.292 158.806 139.051 157.984C138.825 157.149 138.655 156.272 138.542 155.352C138.443 154.417 138.414 153.497 138.457 152.591H135.335L137.353 153.759C136.701 154.792 135.902 155.776 134.953 156.71C136.043 157.645 136.942 158.558 137.65 159.45C137.239 159.676 136.793 159.995 136.312 160.405C135.831 160.816 135.449 161.191 135.166 161.531C134.854 161.106 134.479 160.653 134.04 160.172C133.615 159.69 133.148 159.209 132.639 158.728C131.789 159.379 130.89 159.966 129.942 160.49C128.994 161.014 128.031 161.453 127.054 161.807ZM127.012 149.894C126.63 149.541 126.219 149.215 125.78 148.918C125.341 148.62 124.895 148.401 124.443 148.259C124.867 147.863 125.278 147.396 125.674 146.858C126.07 146.306 126.431 145.733 126.757 145.138C127.097 144.529 127.387 143.942 127.628 143.376C127.882 142.795 128.066 142.279 128.18 141.826L131.174 142.654C131.131 142.809 131.082 142.979 131.025 143.163C130.968 143.333 130.905 143.51 130.834 143.694H143.234V146.051H129.73C129.333 146.787 128.895 147.495 128.413 148.175C127.932 148.84 127.465 149.413 127.012 149.894ZM130.345 149.173V146.837H141.111V149.173H130.345ZM162.451 161.212C161.856 160.957 161.255 160.582 160.646 160.087C160.037 159.605 159.457 158.961 158.905 158.154C158.367 157.347 157.886 156.35 157.461 155.16C157.036 153.957 156.696 152.52 156.442 150.85L153.214 151.19L152.896 148.175L156.123 147.835C156.095 147.325 156.074 146.801 156.059 146.263C156.045 145.711 156.038 145.138 156.038 144.544V142.25H159.138V144.544C159.138 145.067 159.145 145.584 159.16 146.094C159.188 146.589 159.209 147.063 159.223 147.516L165.02 146.922L165.339 149.937L159.542 150.531C159.825 152.414 160.264 153.922 160.858 155.054C161.467 156.187 162.21 157.036 163.088 157.602C163.201 157.206 163.293 156.802 163.364 156.392C163.449 155.981 163.505 155.635 163.534 155.352C163.746 155.493 164.022 155.649 164.362 155.819C164.702 155.974 165.048 156.116 165.402 156.243C165.77 156.357 166.082 156.449 166.337 156.519C166.28 156.987 166.181 157.482 166.039 158.006C165.898 158.515 165.742 159.004 165.572 159.471C165.416 159.924 165.261 160.299 165.105 160.596C164.836 161.078 164.468 161.361 164.001 161.446C163.548 161.545 163.031 161.467 162.451 161.212ZM149.413 161.509V151.381C149.102 151.763 148.79 152.124 148.479 152.464C148.182 152.789 147.877 153.094 147.566 153.377C147.311 153.051 146.979 152.711 146.568 152.358C146.157 152.004 145.754 151.713 145.358 151.487C145.782 151.147 146.228 150.694 146.695 150.128C147.163 149.548 147.63 148.911 148.097 148.217C148.564 147.509 148.996 146.794 149.392 146.072C149.803 145.336 150.149 144.643 150.433 143.991C150.716 143.34 150.914 142.788 151.027 142.335L153.872 143.312C153.547 144.331 153.094 145.407 152.513 146.54V161.509H149.413ZM162.578 147.049C162.182 146.554 161.729 146.058 161.219 145.563C160.724 145.053 160.257 144.65 159.818 144.352L161.771 142.335C162.097 142.533 162.458 142.802 162.854 143.142C163.251 143.482 163.626 143.829 163.98 144.183C164.334 144.522 164.61 144.82 164.808 145.074C164.581 145.23 164.319 145.428 164.022 145.669C163.739 145.91 163.463 146.157 163.194 146.412C162.939 146.653 162.734 146.865 162.578 147.049ZM178.886 161.297C177.64 161.297 176.522 161.177 175.531 160.936C174.554 160.695 173.775 160.306 173.195 159.768C172.615 159.23 172.324 158.515 172.324 157.624C172.324 156.916 172.53 156.272 172.94 155.691C173.351 155.111 173.917 154.587 174.639 154.12C175.375 153.639 176.217 153.2 177.166 152.803V152.697C177.166 152.329 177.045 152.046 176.805 151.848C176.578 151.65 176.295 151.537 175.955 151.508C175.347 151.437 174.809 151.494 174.342 151.678C173.889 151.862 173.372 152.244 172.792 152.825C172.622 152.98 172.381 153.207 172.07 153.504C171.758 153.801 171.44 154.099 171.114 154.396C170.803 154.693 170.548 154.934 170.35 155.118L168.099 152.867C169.047 152.287 169.953 151.529 170.817 150.595C171.68 149.647 172.438 148.635 173.089 147.559C171.588 147.63 170.498 147.651 169.819 147.622L169.692 144.65C170.187 144.692 170.852 144.713 171.687 144.713C172.537 144.713 173.443 144.692 174.405 144.65C174.688 143.815 174.858 143.008 174.915 142.229L178.015 142.399C177.987 142.739 177.944 143.078 177.888 143.418C177.831 143.758 177.753 144.098 177.654 144.437C178.659 144.367 179.586 144.275 180.436 144.161C181.299 144.048 181.957 143.928 182.41 143.8L182.58 146.667C182.184 146.738 181.667 146.816 181.03 146.901C180.393 146.971 179.693 147.042 178.928 147.113C178.178 147.184 177.399 147.254 176.592 147.325C176.451 147.637 176.295 147.941 176.125 148.238C175.955 148.536 175.778 148.826 175.594 149.109C175.977 149.024 176.359 148.981 176.741 148.981C177.576 148.981 178.312 149.187 178.949 149.597C179.601 149.994 180.018 150.701 180.202 151.721C180.967 151.48 181.745 151.26 182.538 151.062C183.345 150.85 184.152 150.645 184.959 150.447L185.85 153.334C184.831 153.448 183.847 153.603 182.899 153.801C181.965 153.985 181.094 154.191 180.287 154.417V157.135H177.187V155.564C176.621 155.847 176.175 156.137 175.849 156.434C175.524 156.718 175.361 156.987 175.361 157.241C175.361 157.68 175.616 157.97 176.125 158.112C176.635 158.239 177.491 158.303 178.695 158.303C179.19 158.303 179.763 158.268 180.415 158.197C181.08 158.126 181.731 158.041 182.368 157.942C183.019 157.829 183.564 157.708 184.003 157.581C183.961 157.836 183.918 158.176 183.876 158.6C183.847 159.011 183.826 159.421 183.812 159.832C183.798 160.228 183.798 160.547 183.812 160.787C183.132 160.943 182.333 161.063 181.412 161.148C180.507 161.247 179.664 161.297 178.886 161.297Z" fill="#00C6FF"/>
<path d="M289.548 157.666C289.039 157.397 288.451 157.05 287.786 156.626C287.135 156.201 286.441 155.734 285.705 155.224C284.983 154.7 284.261 154.17 283.539 153.632C282.817 153.08 282.138 152.549 281.501 152.039C280.878 151.515 280.34 151.041 279.887 150.616C279.746 150.475 279.625 150.411 279.526 150.425C279.441 150.425 279.335 150.482 279.208 150.595C278.542 151.246 277.771 151.926 276.893 152.634C276.016 153.327 275.117 154 274.197 154.651L271.712 151.975C272.179 151.763 272.731 151.473 273.368 151.105C274.005 150.737 274.664 150.333 275.343 149.894C276.023 149.441 276.66 148.988 277.254 148.536C277.849 148.083 278.33 147.665 278.698 147.283C279.009 146.957 279.307 146.808 279.59 146.837C279.873 146.851 280.191 147.007 280.545 147.304C280.871 147.573 281.352 147.955 281.989 148.451C282.64 148.946 283.384 149.491 284.219 150.086C285.054 150.68 285.925 151.275 286.831 151.869C287.737 152.464 288.607 153.009 289.442 153.504C290.278 153.985 291.021 154.361 291.672 154.63C291.417 154.842 291.141 155.132 290.844 155.5C290.561 155.854 290.299 156.229 290.058 156.626C289.832 157.008 289.662 157.355 289.548 157.666ZM301.609 155.946C301.553 155.38 301.496 154.722 301.439 153.971C301.383 153.221 301.326 152.443 301.269 151.636C301.213 150.815 301.156 150.022 301.1 149.257C301.057 148.479 301.022 147.778 300.993 147.155C300.965 146.532 300.951 146.044 300.951 145.69V142.59H304.731V145.69C304.731 146.044 304.716 146.532 304.688 147.155C304.66 147.778 304.617 148.479 304.561 149.257C304.518 150.022 304.469 150.815 304.412 151.636C304.355 152.443 304.299 153.221 304.242 153.971C304.186 154.722 304.129 155.38 304.072 155.946H301.609ZM302.841 161.446C302.275 161.446 301.786 161.24 301.376 160.83C300.965 160.419 300.76 159.931 300.76 159.365C300.76 158.784 300.965 158.296 301.376 157.9C301.786 157.503 302.275 157.305 302.841 157.305C303.421 157.305 303.91 157.503 304.306 157.9C304.716 158.296 304.922 158.784 304.922 159.365C304.922 159.931 304.716 160.419 304.306 160.83C303.91 161.24 303.421 161.446 302.841 161.446ZM310.103 155.946C310.046 155.38 309.989 154.722 309.933 153.971C309.876 153.221 309.82 152.443 309.763 151.636C309.706 150.815 309.65 150.022 309.593 149.257C309.551 148.479 309.515 147.778 309.487 147.155C309.459 146.532 309.444 146.044 309.444 145.69V142.59H313.224V145.69C313.224 146.044 313.21 146.532 313.182 147.155C313.153 147.778 313.111 148.479 313.054 149.257C313.012 150.022 312.962 150.815 312.906 151.636C312.849 152.443 312.792 153.221 312.736 153.971C312.679 154.722 312.622 155.38 312.566 155.946H310.103ZM311.334 161.446C310.768 161.446 310.28 161.24 309.869 160.83C309.459 160.419 309.253 159.931 309.253 159.365C309.253 158.784 309.459 158.296 309.869 157.9C310.28 157.503 310.768 157.305 311.334 157.305C311.915 157.305 312.403 157.503 312.799 157.9C313.21 158.296 313.415 158.784 313.415 159.365C313.415 159.931 313.21 160.419 312.799 160.83C312.403 161.24 311.915 161.446 311.334 161.446Z" fill="#00C6FF"/>
<circle cx="229.408" cy="150" r="37.159" fill="#00C6FF"/>
<path d="M218.363 166.021C215.77 166.011 213.538 165.373 211.668 164.106C209.808 162.839 208.375 161.004 207.37 158.601C206.374 156.198 205.882 153.308 205.892 149.93C205.892 146.562 206.389 143.691 207.385 141.319C208.39 138.946 209.823 137.141 211.683 135.905C213.553 134.658 215.78 134.035 218.363 134.035C220.947 134.035 223.169 134.658 225.029 135.905C226.899 137.151 228.337 138.961 229.342 141.334C230.348 143.696 230.845 146.562 230.835 149.93C230.835 153.318 230.333 156.213 229.327 158.616C228.332 161.019 226.904 162.854 225.044 164.121C223.184 165.388 220.957 166.021 218.363 166.021ZM218.363 160.607C220.133 160.607 221.546 159.717 222.601 157.938C223.657 156.158 224.18 153.489 224.17 149.93C224.17 147.587 223.928 145.637 223.446 144.079C222.973 142.52 222.3 141.349 221.425 140.565C220.56 139.781 219.54 139.388 218.363 139.388C216.604 139.388 215.197 140.268 214.141 142.028C213.085 143.787 212.552 146.421 212.542 149.93C212.542 152.303 212.779 154.283 213.251 155.872C213.734 157.45 214.412 158.636 215.287 159.431C216.162 160.215 217.187 160.607 218.363 160.607ZM246.939 166.871C246.91 166.574 246.861 166.199 246.79 165.746C246.733 165.307 246.655 164.875 246.556 164.451C246.471 164.012 246.372 163.672 246.259 163.431H248.128C248.439 163.431 248.658 163.389 248.786 163.304C248.913 163.205 248.977 163.007 248.977 162.709V158.866H238.233V166.85H234.92V148.249H252.247V164.302C252.247 165.208 251.978 165.859 251.44 166.255C250.916 166.666 250.131 166.871 249.083 166.871H246.939ZM238.233 155.872H241.991V151.328H238.233V155.872ZM245.219 155.872H248.977V151.328H245.219V155.872Z" fill="#F3F02F"/>
<path d="M225.544 87.224C223.8 87.016 222.264 86.52 220.936 85.736C219.624 84.936 218.6 83.888 217.864 82.592C217.128 81.296 216.76 79.808 216.76 78.128C216.76 77.008 217 75.912 217.48 74.84C217.976 73.752 218.672 72.752 219.568 71.84C218.336 72.048 217.128 72.264 215.944 72.488C214.776 72.696 213.72 72.896 212.776 73.088C211.848 73.28 211.112 73.456 210.568 73.616L209.8 69.8C210.312 69.784 211.04 69.728 211.984 69.632C212.944 69.536 214.032 69.408 215.248 69.248C216.464 69.072 217.72 68.888 219.016 68.696C220.328 68.488 221.592 68.28 222.808 68.072C224.024 67.848 225.112 67.632 226.072 67.424C227.032 67.216 227.776 67.032 228.304 66.872L229.264 70.448C228.992 70.464 228.656 70.504 228.256 70.568C227.872 70.616 227.44 70.672 226.96 70.736C226.144 70.832 225.344 71.08 224.56 71.48C223.776 71.864 223.064 72.384 222.424 73.04C221.8 73.68 221.304 74.432 220.936 75.296C220.568 76.144 220.384 77.088 220.384 78.128C220.384 79.312 220.688 80.28 221.296 81.032C221.904 81.784 222.744 82.368 223.816 82.784C224.888 83.2 226.112 83.488 227.488 83.648C227.2 83.952 226.912 84.328 226.624 84.776C226.352 85.224 226.12 85.664 225.928 86.096C225.736 86.544 225.608 86.92 225.544 87.224ZM227.56 77.72C227.256 77.208 226.872 76.688 226.408 76.16C225.96 75.632 225.552 75.192 225.184 74.84L226.72 73.592C226.944 73.784 227.216 74.056 227.536 74.408C227.856 74.76 228.168 75.12 228.472 75.488C228.776 75.856 229.016 76.168 229.192 76.424L227.56 77.72ZM229.864 75.848C229.56 75.352 229.176 74.84 228.712 74.312C228.248 73.768 227.832 73.328 227.464 72.992L229.024 71.744C229.248 71.936 229.52 72.208 229.84 72.56C230.16 72.912 230.472 73.272 230.776 73.64C231.08 74.008 231.312 74.32 231.472 74.576L229.864 75.848ZM247.552 87.584C245.456 87.696 243.648 87.6 242.128 87.296C240.624 86.992 239.464 86.432 238.648 85.616C237.832 84.8 237.424 83.696 237.424 82.304C237.424 81.28 237.752 80.4 238.408 79.664C239.064 78.912 239.952 78.36 241.072 78.008C242.208 77.656 243.48 77.544 244.888 77.672C244.728 77.416 244.568 77.168 244.408 76.928C244.264 76.672 244.112 76.416 243.952 76.16C242.528 76.416 241.12 76.608 239.728 76.736C238.336 76.864 237.112 76.92 236.056 76.904L235.432 73.784C236.328 73.832 237.392 73.808 238.624 73.712C239.856 73.616 241.12 73.464 242.416 73.256C242.304 73 242.192 72.752 242.08 72.512C241.968 72.256 241.856 72 241.744 71.744C240.816 71.856 239.92 71.952 239.056 72.032C238.208 72.112 237.456 72.152 236.8 72.152L236.152 69.104C237.48 69.152 238.992 69.08 240.688 68.888C240.528 68.424 240.4 67.992 240.304 67.592C240.208 67.176 240.128 66.808 240.064 66.488L243.544 66.056C243.576 66.36 243.632 66.712 243.712 67.112C243.808 67.496 243.928 67.912 244.072 68.36C244.92 68.184 245.728 68 246.496 67.808C247.264 67.6 247.92 67.384 248.464 67.16L249.328 70.184C248.8 70.36 248.176 70.536 247.456 70.712C246.736 70.888 245.96 71.056 245.128 71.216C245.224 71.44 245.328 71.672 245.44 71.912C245.552 72.152 245.664 72.384 245.776 72.608C246.864 72.368 247.872 72.104 248.8 71.816C249.744 71.528 250.512 71.232 251.104 70.928L252.232 73.856C251.624 74.16 250.896 74.448 250.048 74.72C249.216 74.992 248.32 75.24 247.36 75.464C247.872 76.248 248.4 76.976 248.944 77.648C249.488 78.32 250.048 78.888 250.624 79.352L248.368 81.632C247.552 81.088 246.712 80.728 245.848 80.552C245 80.376 244.216 80.344 243.496 80.456C242.776 80.552 242.192 80.752 241.744 81.056C241.312 81.344 241.096 81.688 241.096 82.088C241.096 82.744 241.416 83.232 242.056 83.552C242.712 83.872 243.616 84.064 244.768 84.128C245.92 84.192 247.24 84.168 248.728 84.056C248.536 84.36 248.352 84.736 248.176 85.184C248 85.616 247.856 86.048 247.744 86.48C247.632 86.912 247.568 87.28 247.552 87.584ZM264.664 87.584C263.176 87.52 262.008 87.104 261.16 86.336C260.328 85.584 259.92 84.608 259.936 83.408C259.952 82.64 260.208 81.96 260.704 81.368C261.2 80.76 261.864 80.296 262.696 79.976C263.544 79.64 264.504 79.504 265.576 79.568C265.768 79.584 265.96 79.6 266.152 79.616C266.36 79.616 266.56 79.632 266.752 79.664L266.704 77.576C266.48 77.592 266.256 77.6 266.032 77.6C265.824 77.6 265.608 77.6 265.384 77.6C264.296 77.6 263.44 77.52 262.816 77.36C262.208 77.184 261.72 76.896 261.352 76.496C261 76.08 260.648 75.512 260.296 74.792L263.056 73.424C263.216 73.696 263.376 73.904 263.536 74.048C263.696 74.192 263.92 74.288 264.208 74.336C264.512 74.368 264.928 74.384 265.456 74.384C265.648 74.384 265.84 74.384 266.032 74.384C266.224 74.384 266.424 74.376 266.632 74.36L266.584 72.248C265.4 72.312 264.296 72.36 263.272 72.392C262.248 72.408 261.456 72.408 260.896 72.392L260.752 69.104C261.312 69.152 262.112 69.176 263.152 69.176C264.208 69.176 265.336 69.144 266.536 69.08C266.52 68.488 266.504 67.944 266.488 67.448C266.488 66.936 266.488 66.488 266.488 66.104H269.944C269.912 66.84 269.912 67.776 269.944 68.912C271.064 68.832 272.08 68.744 272.992 68.648C273.904 68.536 274.568 68.424 274.984 68.312V71.528C274.568 71.608 273.904 71.696 272.992 71.792C272.096 71.872 271.096 71.952 269.992 72.032C269.992 72.384 269.992 72.736 269.992 73.088C270.008 73.424 270.024 73.768 270.04 74.12C271.016 74.024 271.928 73.904 272.776 73.76C273.624 73.616 274.296 73.464 274.792 73.304V76.736C274.184 76.88 273.472 77.008 272.656 77.12C271.856 77.216 271.008 77.304 270.112 77.384L270.184 80.336C271.368 80.688 272.496 81.128 273.568 81.656C274.656 82.168 275.688 82.728 276.664 83.336C276.376 83.544 276.08 83.832 275.776 84.2C275.472 84.568 275.192 84.944 274.936 85.328C274.696 85.712 274.512 86.048 274.384 86.336C273.088 85.248 271.704 84.376 270.232 83.72C270.152 84.968 269.664 85.936 268.768 86.624C267.888 87.328 266.52 87.648 264.664 87.584ZM264.76 84.44C266.12 84.504 266.8 84.072 266.8 83.144V82.64C266.496 82.592 266.2 82.552 265.912 82.52C265.624 82.488 265.336 82.472 265.048 82.472C264.472 82.472 264.024 82.568 263.704 82.76C263.4 82.936 263.248 83.168 263.248 83.456C263.248 84.064 263.752 84.392 264.76 84.44ZM288.496 87.944C288.256 87.544 287.936 87.064 287.536 86.504C287.152 85.944 286.704 85.472 286.192 85.088C287.744 84.656 288.96 84.192 289.84 83.696C290.72 83.2 291.36 82.632 291.76 81.992C291.6 82.04 291.44 82.08 291.28 82.112C291.136 82.144 290.976 82.16 290.8 82.16C289.488 82.16 288.408 81.8 287.56 81.08C286.728 80.344 286.28 79.304 286.216 77.96C286.184 77.096 286.36 76.32 286.744 75.632C287.128 74.928 287.672 74.376 288.376 73.976C289.08 73.56 289.88 73.352 290.776 73.352C290.808 73.352 290.848 73.352 290.896 73.352C290.944 73.352 290.984 73.36 291.016 73.376C290.968 72.96 290.944 72.52 290.944 72.056C289.648 72.104 288.392 72.176 287.176 72.272C285.96 72.368 284.848 72.48 283.84 72.608C282.848 72.736 282.024 72.88 281.368 73.04L280.912 69.632C281.424 69.6 282.192 69.56 283.216 69.512C284.24 69.464 285.424 69.408 286.768 69.344C288.112 69.28 289.504 69.216 290.944 69.152V66.032H294.376V69.008C295.656 68.96 296.864 68.92 298 68.888C299.136 68.84 300.136 68.808 301 68.792C301.864 68.776 302.512 68.768 302.944 68.768L302.704 72.2C301.824 72.072 300.64 71.992 299.152 71.96C297.68 71.912 296.088 71.904 294.376 71.936C294.376 72.464 294.392 72.992 294.424 73.52C294.456 74.032 294.496 74.52 294.544 74.984C295.408 75.992 295.84 77.328 295.84 78.992C295.84 81.264 295.2 83.144 293.92 84.632C292.64 86.12 290.832 87.224 288.496 87.944ZM290.824 79.232C291.24 79.2 291.552 79.056 291.76 78.8C291.984 78.528 292.096 78.2 292.096 77.816C292.096 77.576 292.04 77.296 291.928 76.976C291.64 76.608 291.272 76.424 290.824 76.424C290.424 76.424 290.088 76.56 289.816 76.832C289.544 77.088 289.416 77.416 289.432 77.816C289.448 78.232 289.584 78.584 289.84 78.872C290.096 79.144 290.424 79.264 290.824 79.232ZM314.608 81.464C314.544 80.824 314.48 80.08 314.416 79.232C314.352 78.384 314.288 77.504 314.224 76.592C314.16 75.664 314.096 74.768 314.032 73.904C313.984 73.024 313.944 72.232 313.912 71.528C313.88 70.824 313.864 70.272 313.864 69.872V66.368H318.136V69.872C318.136 70.272 318.12 70.824 318.088 71.528C318.056 72.232 318.008 73.024 317.944 73.904C317.896 74.768 317.84 75.664 317.776 76.592C317.712 77.504 317.648 78.384 317.584 79.232C317.52 80.08 317.456 80.824 317.392 81.464H314.608ZM316 87.68C315.36 87.68 314.808 87.448 314.344 86.984C313.88 86.52 313.648 85.968 313.648 85.328C313.648 84.672 313.88 84.12 314.344 83.672C314.808 83.224 315.36 83 316 83C316.656 83 317.208 83.224 317.656 83.672C318.12 84.12 318.352 84.672 318.352 85.328C318.352 85.968 318.12 86.52 317.656 86.984C317.208 87.448 316.656 87.68 316 87.68Z" fill="#444444"/>
<mask id="mask0_420_10304" style="mask-type:luminance" maskUnits="userSpaceOnUse" x="5" y="82" width="200" height="10">
<path d="M5 91.9873H205V82.0003H5V91.9873Z" fill="white"/>
</mask>
<g mask="url(#mask0_420_10304)">
<path fill-rule="evenodd" clip-rule="evenodd" d="M17.2156 85.5818C13.4082 85.4795 9.60081 85.3743 5.79583 85.2653L5.04834 89.4288C69.0144 91.2572 132.274 92.0977 196.387 91.9045L196.308 87.8787C199.177 87.8749 202.046 87.8701 204.918 87.8634L204.858 83.6894C155.663 83.7994 106.329 83.5116 57.1582 82.7093C44.1735 82.497 31.3552 82.7093 18.467 81.9902L17.2156 85.5818Z" fill="#F7DD44"/>
</g>
<path d="M5.72 88.2C5.61333 87.8 5.41333 87.3067 5.12 86.72C4.85333 86.1333 4.56 85.5467 4.24 84.96C3.92 84.3733 3.6 83.8933 3.28 83.52C5.62667 83.2267 7.52 82.8133 8.96 82.28C10.4267 81.7467 11.5333 81.0533 12.28 80.2C13.0267 79.32 13.5333 78.2667 13.8 77.04H5.64V71.8H14.12V68.88H11.8V66.72C10.7067 67.6533 9.56 68.5333 8.36 69.36C7.18667 70.1867 5.97333 70.9067 4.72 71.52C4.37333 70.9067 3.88 70.2133 3.24 69.44C2.6 68.64 1.97333 68.04 1.36 67.64C2.4 67.1867 3.44 66.6267 4.48 65.96C5.52 65.2933 6.50667 64.5867 7.44 63.84C6.90667 63.2267 6.26667 62.5867 5.52 61.92C4.8 61.2267 4.18667 60.7067 3.68 60.36L6.6 57.52H4.52V52.96H18.48L20.92 54.64C20.2533 56.1867 19.4267 57.7067 18.44 59.2C17.4533 60.6933 16.3333 62.12 15.08 63.48H27.44C25.9733 61.9867 24.6267 60.36 23.4 58.6C22.2 56.84 21.1867 55.0133 20.36 53.12L24.92 51.28C25.5333 52.5867 26.3333 53.9067 27.32 55.24C28.0133 54.7067 28.7333 54.0667 29.48 53.32C30.2533 52.5733 30.8533 51.96 31.28 51.48L34.84 54.72C34.3333 55.3333 33.64 56.0533 32.76 56.88C31.88 57.68 31.0933 58.36 30.4 58.92C30.6133 59.1067 30.8133 59.2933 31 59.48C31.2133 59.6667 31.4133 59.8667 31.6 60.08C32.08 59.7067 32.6 59.2667 33.16 58.76C33.72 58.2533 34.2533 57.7467 34.76 57.24C35.2933 56.7067 35.7067 56.2667 36 55.92L39.6 59.08C39.12 59.6667 38.4667 60.36 37.64 61.16C36.84 61.9333 36.0933 62.6 35.4 63.16C37.1867 64.4133 38.9467 65.3467 40.68 65.96C40.0133 66.52 39.3333 67.24 38.64 68.12C37.9733 69 37.48 69.8267 37.16 70.6C36.0667 70.0667 34.9733 69.4533 33.88 68.76C32.8133 68.0667 31.76 67.3067 30.72 66.48V68.88H27.96V71.8H36.28V77.04H27.96V81.52C27.96 81.8667 28.04 82.12 28.2 82.28C28.3867 82.4133 28.76 82.48 29.32 82.48H31.92C32.8267 82.48 33.44 82.2133 33.76 81.68C34.1067 81.1467 34.4 80.0933 34.64 78.52C35.0933 78.8133 35.64 79.12 36.28 79.44C36.92 79.7333 37.56 80 38.2 80.24C38.8667 80.48 39.4267 80.68 39.88 80.84C39.3733 82.6267 38.8933 84.0133 38.44 85C38.0133 85.9867 37.4267 86.6667 36.68 87.04C35.96 87.44 34.8933 87.64 33.48 87.64H26.96C25.2533 87.64 24.0533 87.3867 23.36 86.88C22.6667 86.3733 22.32 85.5333 22.32 84.36V77.04H19.32C18.7867 80.24 17.4 82.76 15.16 84.6C12.9467 86.4133 9.8 87.6133 5.72 88.2ZM11.12 60.4C11.5733 59.8933 11.9867 59.4 12.36 58.92C12.76 58.4133 13.0933 57.9467 13.36 57.52H7.76C8.29333 57.92 8.85333 58.3867 9.44 58.92C10.0533 59.4267 10.6133 59.92 11.12 60.4ZM19.56 71.8H22.32V68.88H19.56V71.8ZM62.8 88.28C61.0933 88.28 59.8933 88.0267 59.2 87.52C58.5067 87.0133 58.16 86.1733 58.16 85V82.28H46.96V69.16H74.6V82.28H63.8V82.52C63.8 82.8667 63.88 83.12 64.04 83.28C64.2267 83.4133 64.6 83.48 65.16 83.48H73.24C74.1733 83.48 74.8 83.1733 75.12 82.56C75.4667 81.9467 75.7067 80.9067 75.84 79.44C76.24 79.6267 76.7333 79.84 77.32 80.08C77.9333 80.32 78.56 80.5467 79.2 80.76C79.8667 80.9733 80.4533 81.1467 80.96 81.28C80.6933 82.8 80.4133 84.0267 80.12 84.96C79.8267 85.8667 79.4533 86.56 79 87.04C78.5733 87.52 78.0133 87.84 77.32 88C76.6533 88.1867 75.8133 88.28 74.8 88.28H62.8ZM58.16 68.16V61.04H48.12V66.48H42.52V57.28H58.16V56H45.32V51.8H76.76V56H63.8V57.28H79.28V66.48H73.68V61.04H63.8V68.16H58.16ZM49.12 68.08V65.44H56.96V68.08H49.12ZM64.88 68.08V65.44H72.72V68.08H64.88ZM49.12 64.56V61.92H56.96V64.56H49.12ZM64.88 64.56V61.92H72.72V64.56H64.88ZM52.48 74.12H58.16V72.88H52.48V74.12ZM52.48 78.56H58.16V77.36H52.48V78.56ZM63.8 74.12H69.08V72.88H63.8V74.12ZM63.8 78.56H69.08V77.36H63.8V78.56ZM98.76 85.36V72.04H85.44V67.56H98.76V54.24H103.24V67.56H116.56V72.04H103.24V85.36H98.76ZM156.48 76.12C156.107 75.6667 155.64 75.1467 155.08 74.56C154.52 73.9733 153.907 73.36 153.24 72.72C151.933 72.8267 150.32 72.9467 148.4 73.08C146.48 73.2133 144.4 73.3467 142.16 73.48C139.92 73.6133 137.653 73.7333 135.36 73.84C133.067 73.9467 130.88 74.04 128.8 74.12C126.747 74.1733 124.933 74.2133 123.36 74.24L122.8 69.96C124.107 69.96 125.627 69.9467 127.36 69.92C129.12 69.8933 130.973 69.8667 132.92 69.84C131.907 69.2267 130.893 68.64 129.88 68.08C128.867 67.52 127.973 67.0667 127.2 66.72L129.36 64.2H122.8V59.92H138.32V57.92H143.76V59.92H159.08V64.2H147.08L149.24 65.84C148.707 66.2933 148 66.8533 147.12 67.52C146.267 68.16 145.373 68.8267 144.44 69.52C145.32 69.4667 146.173 69.4267 147 69.4C147.827 69.3733 148.587 69.3467 149.28 69.32C149.04 69.1333 148.8 68.96 148.56 68.8C148.347 68.6133 148.12 68.44 147.88 68.28L151.08 65.2C151.667 65.6 152.373 66.1333 153.2 66.8C154.027 67.44 154.88 68.1467 155.76 68.92C156.667 69.6667 157.493 70.4 158.24 71.12C159.013 71.8133 159.627 72.4267 160.08 72.96C159.52 73.36 158.893 73.8533 158.2 74.44C157.533 75.0267 156.96 75.5867 156.48 76.12ZM127.28 87.84V74.6H154.6V87.84H127.28ZM132.12 59.16V57.36H122.76V53.32H132.12V51.2H137.44V53.32H144.76V51.2H150.08V53.32H159V57.36H150.08V59.16H144.76V57.36H137.44V59.16H132.12ZM139.04 68.48C139.893 67.8133 140.773 67.0933 141.68 66.32C142.587 65.5467 143.373 64.84 144.04 64.2H140.88C140.453 64.76 139.973 65.36 139.44 66C138.933 66.64 138.427 67.24 137.92 67.8L139.04 68.48ZM132.64 84.36H138.32V82.84H132.64V84.36ZM143.56 84.36H149.24V82.84H143.56V84.36ZM132.64 79.6H138.32V78.08H132.64V79.6ZM143.56 79.6H149.24V78.08H143.56V79.6ZM134.52 65.72C134.707 65.48 134.88 65.24 135.04 65C135.227 64.7333 135.413 64.4667 135.6 64.2H131.96C132.36 64.44 132.773 64.68 133.2 64.92C133.653 65.16 134.093 65.4267 134.52 65.72ZM182.8 88.28C181.093 88.28 179.893 88.0267 179.2 87.52C178.507 87.0133 178.16 86.1733 178.16 85V82.28H166.96V69.16H194.6V82.28H183.8V82.52C183.8 82.8667 183.88 83.12 184.04 83.28C184.227 83.4133 184.6 83.48 185.16 83.48H193.24C194.173 83.48 194.8 83.1733 195.12 82.56C195.467 81.9467 195.707 80.9067 195.84 79.44C196.24 79.6267 196.733 79.84 197.32 80.08C197.933 80.32 198.56 80.5467 199.2 80.76C199.867 80.9733 200.453 81.1467 200.96 81.28C200.693 82.8 200.413 84.0267 200.12 84.96C199.827 85.8667 199.453 86.56 199 87.04C198.573 87.52 198.013 87.84 197.32 88C196.653 88.1867 195.813 88.28 194.8 88.28H182.8ZM178.16 68.16V61.04H168.12V66.48H162.52V57.28H178.16V56H165.32V51.8H196.76V56H183.8V57.28H199.28V66.48H193.68V61.04H183.8V68.16H178.16ZM169.12 68.08V65.44H176.96V68.08H169.12ZM184.88 68.08V65.44H192.72V68.08H184.88ZM169.12 64.56V61.92H176.96V64.56H169.12ZM184.88 64.56V61.92H192.72V64.56H184.88ZM172.48 74.12H178.16V72.88H172.48V74.12ZM172.48 78.56H178.16V77.36H172.48V78.56ZM183.8 74.12H189.08V72.88H183.8V74.12ZM183.8 78.56H189.08V77.36H183.8V78.56Z" fill="#0072FF"/>
<defs>
<linearGradient id="paint0_linear_420_10304" x1="0.260742" y1="183.62" x2="335.02" y2="183.62" gradientUnits="userSpaceOnUse">
<stop stop-color="#3ACADD" stop-opacity="0.4"/>
<stop offset="0.500617" stop-color="#48ADE1"/>
<stop offset="1" stop-color="#5A88E5" stop-opacity="0.4"/>
</linearGradient>
</defs>
</svg>
